G04 Layer_Physical_Order=2*
G04 Layer_Color=16711680*
%FSLAX25Y25*%
%MOIN*%
G70*
G01*
G75*
%ADD10R,0.05512X0.04724*%
%ADD11R,0.04724X0.05512*%
%ADD13C,0.02000*%
%ADD15C,0.01200*%
%ADD16C,0.11100*%
%ADD17R,0.05906X0.05906*%
%ADD18C,0.05906*%
%ADD19C,0.05906*%
%ADD20R,0.05906X0.05906*%
%ADD21R,0.05906X0.05906*%
%ADD22C,0.05000*%
G36*
X232107Y13046D02*
X233822Y12635D01*
X235451Y11960D01*
X236954Y11039D01*
X238294Y9894D01*
X239439Y8554D01*
X240360Y7051D01*
X241035Y5422D01*
X241446Y3708D01*
X241576Y2061D01*
X241551Y2000D01*
Y-194800D01*
X241579Y-194869D01*
X241446Y-196565D01*
X241033Y-198287D01*
X240355Y-199923D01*
X239430Y-201433D01*
X238280Y-202780D01*
X236933Y-203930D01*
X235423Y-204855D01*
X233787Y-205533D01*
X232065Y-205946D01*
X230369Y-206079D01*
X230300Y-206051D01*
X-1900D01*
X-1969Y-206079D01*
X-3665Y-205946D01*
X-5387Y-205533D01*
X-7023Y-204855D01*
X-8533Y-203930D01*
X-9880Y-202780D01*
X-11030Y-201433D01*
X-11955Y-199923D01*
X-12632Y-198287D01*
X-13046Y-196565D01*
X-13179Y-194869D01*
X-13151Y-194800D01*
Y-133800D01*
X-13167Y-133760D01*
X-13065Y-132988D01*
X-12733Y-132186D01*
X-12204Y-131496D01*
X-11514Y-130967D01*
X-10712Y-130635D01*
X-9864Y-130523D01*
X-9800Y-130549D01*
X2000D01*
X2058Y-130525D01*
X3138Y-130383D01*
X4245Y-129925D01*
X5195Y-129195D01*
X5925Y-128245D01*
X6383Y-127138D01*
X6540Y-125950D01*
X6537Y-125930D01*
X6549Y-125900D01*
Y-66900D01*
X6537Y-66870D01*
X6540Y-66850D01*
X6383Y-65662D01*
X5925Y-64555D01*
X5195Y-63605D01*
X4245Y-62875D01*
X3138Y-62417D01*
X2058Y-62275D01*
X2000Y-62251D01*
X-9800D01*
X-9864Y-62277D01*
X-10712Y-62165D01*
X-11514Y-61833D01*
X-12204Y-61304D01*
X-12733Y-60614D01*
X-13065Y-59812D01*
X-13167Y-59040D01*
X-13151Y-59000D01*
Y2000D01*
X-13176Y2061D01*
X-13046Y3708D01*
X-12635Y5422D01*
X-11960Y7051D01*
X-11039Y8554D01*
X-9894Y9894D01*
X-8554Y11039D01*
X-7051Y11960D01*
X-5422Y12635D01*
X-3708Y13046D01*
X-1977Y13183D01*
X-1900Y13151D01*
X230300D01*
X230377Y13183D01*
X232107Y13046D01*
D02*
G37*
%LPC*%
G36*
X183736Y-124087D02*
X176224D01*
Y-124695D01*
X176084Y-125837D01*
X175265Y-126333D01*
X174926Y-126333D01*
X168160D01*
Y-133439D01*
X175265D01*
Y-132305D01*
X176624D01*
Y-133635D01*
X183336D01*
X183336Y-127983D01*
X183736Y-126949D01*
X183736Y-126677D01*
Y-124087D01*
D02*
G37*
G36*
X210610Y-117483D02*
X209683Y-117606D01*
X208819Y-117964D01*
X208076Y-118533D01*
X207507Y-119275D01*
X207149Y-120140D01*
X207027Y-121067D01*
X207149Y-121994D01*
X207507Y-122859D01*
X208076Y-123601D01*
X208819Y-124170D01*
X209683Y-124528D01*
X210610Y-124650D01*
X211538Y-124528D01*
X212402Y-124170D01*
X213144Y-123601D01*
X213714Y-122859D01*
X214071Y-121994D01*
X214194Y-121067D01*
X214071Y-120140D01*
X213714Y-119275D01*
X213144Y-118533D01*
X212402Y-117964D01*
X211538Y-117606D01*
X210610Y-117483D01*
D02*
G37*
G36*
X166020Y-124087D02*
X158508D01*
Y-124695D01*
X158368Y-125837D01*
X157549Y-126333D01*
X157209Y-126333D01*
X150443D01*
Y-133439D01*
X157549D01*
Y-132305D01*
X158908D01*
Y-133635D01*
X165620D01*
X165620Y-127983D01*
X166020Y-126949D01*
X166020Y-126677D01*
Y-124087D01*
D02*
G37*
G36*
X183336Y-145557D02*
X176624D01*
Y-146888D01*
X174274D01*
X174246Y-146852D01*
X173504Y-146282D01*
X172640Y-145924D01*
X171713Y-145802D01*
X170785Y-145924D01*
X169921Y-146282D01*
X169179Y-146852D01*
X168609Y-147594D01*
X168251Y-148458D01*
X168129Y-149386D01*
X168251Y-150313D01*
X168609Y-151178D01*
X168936Y-151603D01*
X168553Y-152637D01*
X168409Y-152803D01*
X166754D01*
X165620Y-152644D01*
Y-151482D01*
X165620D01*
Y-145557D01*
X158908D01*
Y-146888D01*
X156558D01*
X156530Y-146852D01*
X155788Y-146282D01*
X154923Y-145924D01*
X153996Y-145802D01*
X153069Y-145924D01*
X152204Y-146282D01*
X151462Y-146852D01*
X150893Y-147594D01*
X150535Y-148458D01*
X150413Y-149386D01*
X150535Y-150313D01*
X150893Y-151178D01*
X151219Y-151603D01*
X150837Y-152637D01*
X150692Y-152803D01*
X146831D01*
X146819Y-152787D01*
X146171Y-152291D01*
X145417Y-151978D01*
X144608Y-151872D01*
X143799Y-151978D01*
X143044Y-152291D01*
X142397Y-152787D01*
X141900Y-153435D01*
X141588Y-154189D01*
X141481Y-154998D01*
X141588Y-155808D01*
X141900Y-156562D01*
X142397Y-157209D01*
X143044Y-157706D01*
X143799Y-158019D01*
X144608Y-158125D01*
X145417Y-158019D01*
X146171Y-157706D01*
X146819Y-157209D01*
X147316Y-156562D01*
X147521Y-156066D01*
X150606D01*
X151145Y-157266D01*
X150893Y-157594D01*
X150535Y-158458D01*
X150413Y-159386D01*
X150535Y-160313D01*
X150893Y-161178D01*
X151462Y-161920D01*
X152204Y-162489D01*
X153069Y-162847D01*
X153996Y-162969D01*
X154923Y-162847D01*
X155788Y-162489D01*
X156530Y-161920D01*
X157099Y-161178D01*
X157308Y-160674D01*
X158508Y-160913D01*
Y-162587D01*
X166020D01*
Y-159724D01*
X165726D01*
X165620Y-158569D01*
X165620Y-158524D01*
Y-156066D01*
X168323D01*
X168861Y-157266D01*
X168609Y-157594D01*
X168251Y-158458D01*
X168129Y-159386D01*
X168251Y-160313D01*
X168609Y-161178D01*
X169179Y-161920D01*
X169921Y-162489D01*
X170785Y-162847D01*
X171713Y-162969D01*
X172640Y-162847D01*
X173504Y-162489D01*
X174246Y-161920D01*
X174816Y-161178D01*
X175024Y-160674D01*
X176224Y-160913D01*
Y-162587D01*
X183736D01*
Y-159724D01*
X183443D01*
X183336Y-158569D01*
X183336Y-158524D01*
Y-152644D01*
X183336D01*
Y-151482D01*
X183336D01*
Y-145557D01*
D02*
G37*
G36*
X190610Y-127483D02*
X189683Y-127606D01*
X188819Y-127964D01*
X188076Y-128533D01*
X187507Y-129275D01*
X187149Y-130140D01*
X187027Y-131067D01*
X187149Y-131994D01*
X187507Y-132859D01*
X188076Y-133601D01*
X188819Y-134170D01*
X189683Y-134528D01*
X190610Y-134650D01*
X191538Y-134528D01*
X192402Y-134170D01*
X193144Y-133601D01*
X193714Y-132859D01*
X194071Y-131994D01*
X194194Y-131067D01*
X194071Y-130140D01*
X193714Y-129275D01*
X193144Y-128533D01*
X192402Y-127964D01*
X191538Y-127606D01*
X190610Y-127483D01*
D02*
G37*
G36*
X73484Y-103031D02*
X72557Y-103153D01*
X71693Y-103511D01*
X70950Y-104080D01*
X70381Y-104823D01*
X70023Y-105687D01*
X69901Y-106614D01*
X70023Y-107542D01*
X70381Y-108406D01*
X70950Y-109148D01*
X71693Y-109718D01*
X72557Y-110075D01*
X73484Y-110198D01*
X74412Y-110075D01*
X75276Y-109718D01*
X76018Y-109148D01*
X76588Y-108406D01*
X76946Y-107542D01*
X77068Y-106614D01*
X76946Y-105687D01*
X76588Y-104823D01*
X76018Y-104080D01*
X75276Y-103511D01*
X74412Y-103153D01*
X73484Y-103031D01*
D02*
G37*
G36*
X115157D02*
X114230Y-103153D01*
X113366Y-103511D01*
X112624Y-104080D01*
X112054Y-104823D01*
X111696Y-105687D01*
X111574Y-106614D01*
X111696Y-107542D01*
X112054Y-108406D01*
X112624Y-109148D01*
X113366Y-109718D01*
X114230Y-110075D01*
X115157Y-110198D01*
X116085Y-110075D01*
X116949Y-109718D01*
X117691Y-109148D01*
X118261Y-108406D01*
X118619Y-107542D01*
X118741Y-106614D01*
X118619Y-105687D01*
X118261Y-104823D01*
X117691Y-104080D01*
X116949Y-103511D01*
X116085Y-103153D01*
X115157Y-103031D01*
D02*
G37*
G36*
X63484D02*
X62557Y-103153D01*
X61693Y-103511D01*
X60950Y-104080D01*
X60381Y-104823D01*
X60023Y-105687D01*
X59901Y-106614D01*
X60023Y-107542D01*
X60381Y-108406D01*
X60950Y-109148D01*
X61693Y-109718D01*
X62557Y-110075D01*
X63484Y-110198D01*
X64412Y-110075D01*
X65276Y-109718D01*
X66018Y-109148D01*
X66588Y-108406D01*
X66946Y-107542D01*
X67068Y-106614D01*
X66946Y-105687D01*
X66588Y-104823D01*
X66018Y-104080D01*
X65276Y-103511D01*
X64412Y-103153D01*
X63484Y-103031D01*
D02*
G37*
G36*
X11811D02*
X10884Y-103153D01*
X10019Y-103511D01*
X9277Y-104080D01*
X8708Y-104823D01*
X8350Y-105687D01*
X8228Y-106614D01*
X8350Y-107542D01*
X8708Y-108406D01*
X9277Y-109148D01*
X10019Y-109718D01*
X10884Y-110075D01*
X11811Y-110198D01*
X12739Y-110075D01*
X13603Y-109718D01*
X14345Y-109148D01*
X14914Y-108406D01*
X15272Y-107542D01*
X15394Y-106614D01*
X15272Y-105687D01*
X14914Y-104823D01*
X14345Y-104080D01*
X13603Y-103511D01*
X12739Y-103153D01*
X11811Y-103031D01*
D02*
G37*
G36*
X21811D02*
X20884Y-103153D01*
X20019Y-103511D01*
X19277Y-104080D01*
X18708Y-104823D01*
X18350Y-105687D01*
X18228Y-106614D01*
X18350Y-107542D01*
X18708Y-108406D01*
X19277Y-109148D01*
X20019Y-109718D01*
X20884Y-110075D01*
X21811Y-110198D01*
X22738Y-110075D01*
X23603Y-109718D01*
X24345Y-109148D01*
X24914Y-108406D01*
X25272Y-107542D01*
X25394Y-106614D01*
X25272Y-105687D01*
X24914Y-104823D01*
X24345Y-104080D01*
X23603Y-103511D01*
X22738Y-103153D01*
X21811Y-103031D01*
D02*
G37*
G36*
X125657Y-149075D02*
Y-152496D01*
X129078D01*
X129008Y-151964D01*
X128610Y-151003D01*
X127977Y-150177D01*
X127151Y-149543D01*
X126189Y-149145D01*
X125657Y-149075D01*
D02*
G37*
G36*
X62984D02*
X62452Y-149145D01*
X61491Y-149543D01*
X60665Y-150177D01*
X60031Y-151003D01*
X59633Y-151964D01*
X59563Y-152496D01*
X62984D01*
Y-149075D01*
D02*
G37*
G36*
X63984D02*
Y-152496D01*
X67405D01*
X67335Y-151964D01*
X66937Y-151003D01*
X66303Y-150177D01*
X65478Y-149543D01*
X64516Y-149145D01*
X63984Y-149075D01*
D02*
G37*
G36*
X22311D02*
Y-152496D01*
X25732D01*
X25662Y-151964D01*
X25264Y-151003D01*
X24630Y-150177D01*
X23804Y-149543D01*
X22843Y-149145D01*
X22311Y-149075D01*
D02*
G37*
G36*
X12311D02*
Y-152496D01*
X15732D01*
X15662Y-151964D01*
X15264Y-151003D01*
X14630Y-150177D01*
X13804Y-149543D01*
X12843Y-149145D01*
X12311Y-149075D01*
D02*
G37*
G36*
X21311D02*
X20779Y-149145D01*
X19818Y-149543D01*
X18992Y-150177D01*
X18358Y-151003D01*
X17960Y-151964D01*
X17890Y-152496D01*
X21311D01*
Y-149075D01*
D02*
G37*
G36*
X115657D02*
Y-152496D01*
X119079D01*
X119009Y-151964D01*
X118610Y-151003D01*
X117977Y-150177D01*
X117151Y-149543D01*
X116189Y-149145D01*
X115657Y-149075D01*
D02*
G37*
G36*
X124657D02*
X124126Y-149145D01*
X123164Y-149543D01*
X122338Y-150177D01*
X121705Y-151003D01*
X121307Y-151964D01*
X121236Y-152496D01*
X124657D01*
Y-149075D01*
D02*
G37*
G36*
X114657D02*
X114126Y-149145D01*
X113164Y-149543D01*
X112338Y-150177D01*
X111705Y-151003D01*
X111307Y-151964D01*
X111236Y-152496D01*
X114657D01*
Y-149075D01*
D02*
G37*
G36*
X72984D02*
X72452Y-149145D01*
X71491Y-149543D01*
X70665Y-150177D01*
X70031Y-151003D01*
X69633Y-151964D01*
X69563Y-152496D01*
X72984D01*
Y-149075D01*
D02*
G37*
G36*
X73984D02*
Y-152496D01*
X77405D01*
X77335Y-151964D01*
X76937Y-151003D01*
X76303Y-150177D01*
X75478Y-149543D01*
X74516Y-149145D01*
X73984Y-149075D01*
D02*
G37*
G36*
X125157Y-103031D02*
X124230Y-103153D01*
X123366Y-103511D01*
X122624Y-104080D01*
X122054Y-104823D01*
X121696Y-105687D01*
X121574Y-106614D01*
X121696Y-107542D01*
X122054Y-108406D01*
X122624Y-109148D01*
X123366Y-109718D01*
X124230Y-110075D01*
X125157Y-110198D01*
X126085Y-110075D01*
X126949Y-109718D01*
X127691Y-109148D01*
X128261Y-108406D01*
X128619Y-107542D01*
X128741Y-106614D01*
X128619Y-105687D01*
X128261Y-104823D01*
X127691Y-104080D01*
X126949Y-103511D01*
X126085Y-103153D01*
X125157Y-103031D01*
D02*
G37*
G36*
X-5200Y-48617D02*
X-6128Y-48739D01*
X-6992Y-49097D01*
X-7734Y-49666D01*
X-8303Y-50408D01*
X-8661Y-51273D01*
X-8783Y-52200D01*
X-8661Y-53127D01*
X-8303Y-53992D01*
X-7734Y-54734D01*
X-6992Y-55303D01*
X-6128Y-55661D01*
X-5200Y-55783D01*
X-4273Y-55661D01*
X-3408Y-55303D01*
X-2666Y-54734D01*
X-2097Y-53992D01*
X-1739Y-53127D01*
X-1617Y-52200D01*
X-1739Y-51273D01*
X-2097Y-50408D01*
X-2666Y-49666D01*
X-3408Y-49097D01*
X-4273Y-48739D01*
X-5200Y-48617D01*
D02*
G37*
G36*
X190610Y-48483D02*
X189683Y-48606D01*
X188819Y-48964D01*
X188076Y-49533D01*
X187507Y-50275D01*
X187149Y-51139D01*
X187027Y-52067D01*
X187149Y-52994D01*
X187507Y-53859D01*
X188076Y-54601D01*
X188819Y-55170D01*
X189683Y-55528D01*
X190610Y-55650D01*
X191538Y-55528D01*
X192402Y-55170D01*
X193144Y-54601D01*
X193714Y-53859D01*
X194071Y-52994D01*
X194194Y-52067D01*
X194071Y-51139D01*
X193714Y-50275D01*
X193144Y-49533D01*
X192402Y-48964D01*
X191538Y-48606D01*
X190610Y-48483D01*
D02*
G37*
G36*
X107205Y-50787D02*
X106277Y-50909D01*
X105413Y-51267D01*
X104671Y-51836D01*
X104101Y-52578D01*
X103743Y-53443D01*
X103621Y-54370D01*
X103743Y-55297D01*
X104101Y-56162D01*
X104671Y-56904D01*
X105413Y-57473D01*
X106277Y-57831D01*
X107205Y-57954D01*
X108132Y-57831D01*
X108996Y-57473D01*
X109739Y-56904D01*
X110308Y-56162D01*
X110666Y-55297D01*
X110788Y-54370D01*
X110666Y-53443D01*
X110308Y-52578D01*
X109739Y-51836D01*
X108996Y-51267D01*
X108132Y-50909D01*
X107205Y-50787D01*
D02*
G37*
G36*
X87205D02*
X86277Y-50909D01*
X85413Y-51267D01*
X84671Y-51836D01*
X84101Y-52578D01*
X83743Y-53443D01*
X83621Y-54370D01*
X83743Y-55297D01*
X84101Y-56162D01*
X84671Y-56904D01*
X85413Y-57473D01*
X86277Y-57831D01*
X87205Y-57954D01*
X88132Y-57831D01*
X88996Y-57473D01*
X89739Y-56904D01*
X90308Y-56162D01*
X90666Y-55297D01*
X90788Y-54370D01*
X90666Y-53443D01*
X90308Y-52578D01*
X89739Y-51836D01*
X88996Y-51267D01*
X88132Y-50909D01*
X87205Y-50787D01*
D02*
G37*
G36*
X97205D02*
X96277Y-50909D01*
X95413Y-51267D01*
X94671Y-51836D01*
X94101Y-52578D01*
X93743Y-53443D01*
X93621Y-54370D01*
X93743Y-55297D01*
X94101Y-56162D01*
X94671Y-56904D01*
X95413Y-57473D01*
X96277Y-57831D01*
X97205Y-57954D01*
X98132Y-57831D01*
X98996Y-57473D01*
X99739Y-56904D01*
X100308Y-56162D01*
X100666Y-55297D01*
X100788Y-54370D01*
X100666Y-53443D01*
X100308Y-52578D01*
X99739Y-51836D01*
X98996Y-51267D01*
X98132Y-50909D01*
X97205Y-50787D01*
D02*
G37*
G36*
X29200Y-1417D02*
X28273Y-1539D01*
X27408Y-1897D01*
X26666Y-2466D01*
X26097Y-3208D01*
X25739Y-4073D01*
X25617Y-5000D01*
X25739Y-5928D01*
X26097Y-6792D01*
X26666Y-7534D01*
X27408Y-8103D01*
X27977Y-8339D01*
Y-19293D01*
X17893Y-29377D01*
X8353D01*
Y-27047D01*
X1247D01*
Y-34153D01*
X8353D01*
Y-31824D01*
X18400D01*
X18868Y-31730D01*
X19265Y-31465D01*
X30065Y-20665D01*
X30330Y-20268D01*
X30424Y-19800D01*
Y-8339D01*
X30992Y-8103D01*
X31734Y-7534D01*
X32303Y-6792D01*
X32661Y-5928D01*
X32783Y-5000D01*
X32661Y-4073D01*
X32303Y-3208D01*
X31734Y-2466D01*
X30992Y-1897D01*
X30127Y-1539D01*
X29200Y-1417D01*
D02*
G37*
G36*
X204500Y-17277D02*
X152366D01*
X151898Y-17370D01*
X151501Y-17635D01*
X142266Y-26870D01*
X141157Y-26410D01*
Y-24870D01*
X133252D01*
Y-27384D01*
X133252Y-28075D01*
X132621Y-28896D01*
X132621D01*
X132621Y-28896D01*
D01*
X131568Y-29251D01*
X131474Y-29263D01*
X130720Y-29576D01*
X130072Y-30073D01*
X129576Y-30720D01*
X129263Y-31474D01*
X129232Y-31710D01*
X127973Y-32148D01*
X126849Y-31025D01*
X126453Y-30759D01*
X125984Y-30666D01*
X93793D01*
X93653Y-30326D01*
X93156Y-29679D01*
X92508Y-29182D01*
X91754Y-28870D01*
X90945Y-28763D01*
X90136Y-28870D01*
X89381Y-29182D01*
X88734Y-29679D01*
X88237Y-30326D01*
X87925Y-31080D01*
X87818Y-31890D01*
X87925Y-32699D01*
X87108Y-33864D01*
X86648Y-33857D01*
X86463Y-33616D01*
X85815Y-33119D01*
X85061Y-32807D01*
X84252Y-32700D01*
X83443Y-32807D01*
X82689Y-33119D01*
X82041Y-33616D01*
X81544Y-34263D01*
X81232Y-35017D01*
X81125Y-35827D01*
X81232Y-36636D01*
X81544Y-37390D01*
X82041Y-38038D01*
X82158Y-38128D01*
X81751Y-39328D01*
X80428D01*
X79176Y-38076D01*
Y-31982D01*
X79516Y-31842D01*
X80164Y-31345D01*
X80661Y-30697D01*
X80973Y-29943D01*
X81080Y-29134D01*
X80973Y-28325D01*
X80661Y-27571D01*
X80164Y-26923D01*
X79516Y-26426D01*
X78762Y-26114D01*
X77953Y-26007D01*
X77144Y-26114D01*
X76389Y-26426D01*
X75742Y-26923D01*
X75245Y-27571D01*
X74933Y-28325D01*
X74826Y-29134D01*
X74933Y-29943D01*
X75245Y-30697D01*
X75742Y-31345D01*
X76389Y-31842D01*
X76729Y-31982D01*
Y-36817D01*
X75621Y-37276D01*
X62479Y-24135D01*
X62082Y-23870D01*
X61614Y-23776D01*
X47349D01*
X47208Y-23437D01*
X46711Y-22789D01*
X46063Y-22292D01*
X45309Y-21980D01*
X44500Y-21873D01*
X43691Y-21980D01*
X42937Y-22292D01*
X42289Y-22789D01*
X41792Y-23437D01*
X41480Y-24191D01*
X41373Y-25000D01*
X41480Y-25809D01*
X41792Y-26563D01*
X42289Y-27211D01*
X42937Y-27708D01*
X43691Y-28020D01*
X44500Y-28127D01*
X45309Y-28020D01*
X46063Y-27708D01*
X46711Y-27211D01*
X47208Y-26563D01*
X47349Y-26223D01*
X52572D01*
X52887Y-27424D01*
X52513Y-27710D01*
X52017Y-28358D01*
X51704Y-29112D01*
X51598Y-29921D01*
X51693Y-30647D01*
X51684Y-30758D01*
X50868Y-31847D01*
X45762D01*
X45621Y-31508D01*
X45124Y-30860D01*
X44477Y-30363D01*
X43723Y-30051D01*
X42913Y-29944D01*
X42104Y-30051D01*
X41350Y-30363D01*
X40702Y-30860D01*
X40205Y-31508D01*
X39893Y-32262D01*
X39787Y-33071D01*
X39893Y-33880D01*
X40205Y-34634D01*
X40702Y-35282D01*
X40999Y-35509D01*
X41095Y-35825D01*
Y-36616D01*
X40999Y-36932D01*
X40702Y-37159D01*
X40205Y-37807D01*
X39893Y-38561D01*
X39787Y-39370D01*
X39893Y-40179D01*
X40205Y-40933D01*
X40702Y-41581D01*
X41350Y-42078D01*
X42104Y-42390D01*
X42913Y-42497D01*
X43723Y-42390D01*
X44477Y-42078D01*
X45124Y-41581D01*
X45621Y-40933D01*
X45762Y-40594D01*
X50281D01*
X53107Y-43420D01*
Y-59055D01*
X53200Y-59523D01*
X53466Y-59920D01*
X63702Y-70157D01*
X64099Y-70422D01*
X64567Y-70515D01*
X129808D01*
X132241Y-72948D01*
Y-126772D01*
X132334Y-127240D01*
X132599Y-127637D01*
X146379Y-141416D01*
X146776Y-141682D01*
X147244Y-141775D01*
X191056D01*
X193717Y-144436D01*
Y-146677D01*
X192869Y-147526D01*
X192016D01*
X191979Y-147526D01*
X190816D01*
X190779Y-147526D01*
X184892D01*
Y-154238D01*
X186223D01*
Y-157811D01*
X186347Y-158435D01*
X186701Y-158965D01*
X187215Y-159479D01*
X187149Y-159640D01*
X187027Y-160567D01*
X187149Y-161494D01*
X187507Y-162359D01*
X188076Y-163101D01*
X188819Y-163670D01*
X189683Y-164028D01*
X190610Y-164150D01*
X191538Y-164028D01*
X192402Y-163670D01*
X193144Y-163101D01*
X193714Y-162359D01*
X194071Y-161494D01*
X194194Y-160567D01*
X194071Y-159640D01*
X193714Y-158775D01*
X193144Y-158033D01*
X192402Y-157464D01*
X191538Y-157106D01*
X190610Y-156983D01*
X189744Y-156179D01*
X189726Y-154846D01*
X190334Y-154238D01*
X190779D01*
X190816Y-154238D01*
X191979D01*
X192016Y-154238D01*
X197903D01*
Y-147526D01*
X196164D01*
Y-143929D01*
X196071Y-143461D01*
X195806Y-143064D01*
X193355Y-140612D01*
X193852Y-139412D01*
X203655D01*
X208678Y-144436D01*
Y-146677D01*
X207829Y-147526D01*
X206977D01*
X206939Y-147526D01*
X205777D01*
X205739Y-147526D01*
X199853D01*
Y-154238D01*
X201184D01*
Y-162772D01*
X201308Y-163396D01*
X201661Y-163925D01*
X207215Y-169479D01*
X207149Y-169640D01*
X207027Y-170567D01*
X207149Y-171494D01*
X207507Y-172359D01*
X208076Y-173101D01*
X208819Y-173670D01*
X209683Y-174028D01*
X210610Y-174150D01*
X211538Y-174028D01*
X212402Y-173670D01*
X213144Y-173101D01*
X213714Y-172359D01*
X214071Y-171494D01*
X214194Y-170567D01*
X214071Y-169640D01*
X213714Y-168775D01*
X213144Y-168033D01*
X212402Y-167464D01*
X211538Y-167106D01*
X210610Y-166983D01*
X209683Y-167106D01*
X209522Y-167172D01*
X204446Y-162096D01*
Y-155086D01*
X205295Y-154238D01*
X205739D01*
X205777Y-154238D01*
X206939D01*
X206977Y-154238D01*
X212864D01*
Y-147526D01*
X211125D01*
Y-143929D01*
X211032Y-143461D01*
X210767Y-143064D01*
X205027Y-137324D01*
X204630Y-137059D01*
X204161Y-136966D01*
X148538D01*
X137050Y-125477D01*
Y-93234D01*
X138250Y-92737D01*
X149379Y-103865D01*
X149776Y-104130D01*
X150244Y-104224D01*
X191824D01*
X193619Y-106018D01*
Y-107276D01*
X192869Y-108026D01*
X192016D01*
X191979Y-108026D01*
X190816D01*
X190779Y-108026D01*
X184892D01*
Y-114738D01*
X186223D01*
Y-118311D01*
X186347Y-118935D01*
X186701Y-119465D01*
X187215Y-119979D01*
X187149Y-120140D01*
X187027Y-121067D01*
X187149Y-121994D01*
X187507Y-122859D01*
X188076Y-123601D01*
X188819Y-124170D01*
X189683Y-124528D01*
X190610Y-124650D01*
X191538Y-124528D01*
X192402Y-124170D01*
X193144Y-123601D01*
X193714Y-122859D01*
X194071Y-121994D01*
X194194Y-121067D01*
X194071Y-120140D01*
X193714Y-119275D01*
X193144Y-118533D01*
X192402Y-117964D01*
X191538Y-117606D01*
X190610Y-117483D01*
X189744Y-116679D01*
X189726Y-115346D01*
X190334Y-114738D01*
X190779D01*
X190816Y-114738D01*
X191979D01*
X192016Y-114738D01*
X197903D01*
Y-108026D01*
X196164D01*
Y-105610D01*
X196071Y-105142D01*
X195806Y-104745D01*
X194393Y-103332D01*
X194852Y-102224D01*
X205178D01*
X208678Y-105723D01*
Y-107177D01*
X207829Y-108026D01*
X206977D01*
X206939Y-108026D01*
X205777D01*
X205739Y-108026D01*
X199853D01*
Y-114738D01*
X201184D01*
Y-123272D01*
X201308Y-123896D01*
X201661Y-124425D01*
X207215Y-129979D01*
X207149Y-130140D01*
X207027Y-131067D01*
X207149Y-131994D01*
X207507Y-132859D01*
X208076Y-133601D01*
X208819Y-134170D01*
X209683Y-134528D01*
X210610Y-134650D01*
X211538Y-134528D01*
X212402Y-134170D01*
X213144Y-133601D01*
X213714Y-132859D01*
X214071Y-131994D01*
X214194Y-131067D01*
X214071Y-130140D01*
X213714Y-129275D01*
X213144Y-128533D01*
X212402Y-127964D01*
X211538Y-127606D01*
X210610Y-127483D01*
X209683Y-127606D01*
X209522Y-127672D01*
X204446Y-122596D01*
Y-115586D01*
X205295Y-114738D01*
X205739D01*
X205777Y-114738D01*
X206939D01*
X206977Y-114738D01*
X212864D01*
Y-108026D01*
X211125D01*
Y-105217D01*
X211032Y-104748D01*
X210767Y-104351D01*
X206550Y-100135D01*
X206153Y-99870D01*
X205685Y-99777D01*
X152294D01*
X141775Y-89257D01*
Y-79504D01*
X142975Y-78913D01*
X143044Y-78966D01*
X143799Y-79278D01*
X144608Y-79385D01*
X145417Y-79278D01*
X146171Y-78966D01*
X146819Y-78469D01*
X147316Y-77822D01*
X147628Y-77068D01*
X147649Y-76906D01*
X150728D01*
X150992Y-77246D01*
X151267Y-78106D01*
X150893Y-78594D01*
X150535Y-79458D01*
X150413Y-80386D01*
X150535Y-81313D01*
X150893Y-82178D01*
X151462Y-82920D01*
X152204Y-83489D01*
X153069Y-83847D01*
X153996Y-83969D01*
X154923Y-83847D01*
X155788Y-83489D01*
X156530Y-82920D01*
X157099Y-82178D01*
X157308Y-81674D01*
X158508Y-81913D01*
Y-83587D01*
X166020D01*
Y-80724D01*
X165726D01*
X165620Y-79568D01*
X165620Y-79524D01*
Y-76906D01*
X168445D01*
X168708Y-77246D01*
X168984Y-78106D01*
X168609Y-78594D01*
X168251Y-79458D01*
X168129Y-80386D01*
X168251Y-81313D01*
X168609Y-82178D01*
X169179Y-82920D01*
X169921Y-83489D01*
X170785Y-83847D01*
X171713Y-83969D01*
X172640Y-83847D01*
X173504Y-83489D01*
X174246Y-82920D01*
X174816Y-82178D01*
X175024Y-81674D01*
X176224Y-81913D01*
Y-83587D01*
X183736D01*
Y-80724D01*
X183443D01*
X183336Y-79568D01*
X183336Y-79524D01*
Y-73682D01*
X183336Y-73644D01*
X183336D01*
Y-72482D01*
X183336Y-72482D01*
Y-66558D01*
X176624D01*
Y-67888D01*
X174274D01*
X174246Y-67852D01*
X173504Y-67282D01*
X172640Y-66925D01*
X171713Y-66802D01*
X170785Y-66925D01*
X169921Y-67282D01*
X169179Y-67852D01*
X168609Y-68594D01*
X168251Y-69458D01*
X168129Y-70386D01*
X168251Y-71313D01*
X168609Y-72177D01*
X168813Y-72443D01*
X168221Y-73643D01*
X165712D01*
X165620Y-72482D01*
X165620D01*
Y-66558D01*
X158908D01*
Y-67888D01*
X156558D01*
X156530Y-67852D01*
X155788Y-67282D01*
X154923Y-66925D01*
X153996Y-66802D01*
X153069Y-66925D01*
X152204Y-67282D01*
X151462Y-67852D01*
X150893Y-68594D01*
X150535Y-69458D01*
X150413Y-70386D01*
X150535Y-71313D01*
X150893Y-72177D01*
X151097Y-72443D01*
X150505Y-73643D01*
X146292D01*
X146171Y-73550D01*
X145417Y-73238D01*
X144608Y-73132D01*
X143799Y-73238D01*
X143044Y-73550D01*
X142975Y-73604D01*
X141775Y-73012D01*
Y-68898D01*
X141682Y-68429D01*
X141416Y-68032D01*
X135905Y-62521D01*
X135508Y-62255D01*
X135039Y-62162D01*
X69011D01*
X67365Y-60517D01*
Y-40551D01*
X67272Y-40083D01*
X67007Y-39686D01*
X66006Y-38685D01*
X66094Y-38571D01*
X66406Y-37817D01*
X66513Y-37008D01*
X66406Y-36199D01*
X66248Y-35817D01*
X67265Y-35137D01*
X78662Y-46534D01*
X79059Y-46800D01*
X79528Y-46893D01*
X107997D01*
X113979Y-52874D01*
X113743Y-53443D01*
X113621Y-54370D01*
X113743Y-55297D01*
X114101Y-56162D01*
X114671Y-56904D01*
X115413Y-57473D01*
X116277Y-57831D01*
X117205Y-57954D01*
X118132Y-57831D01*
X118996Y-57473D01*
X119739Y-56904D01*
X120308Y-56162D01*
X120666Y-55297D01*
X120788Y-54370D01*
X120666Y-53443D01*
X120308Y-52578D01*
X119739Y-51836D01*
X118996Y-51267D01*
X118132Y-50909D01*
X117205Y-50787D01*
X116277Y-50909D01*
X115709Y-51144D01*
X110296Y-45731D01*
X110793Y-44531D01*
X115635D01*
X123979Y-52874D01*
X123743Y-53443D01*
X123621Y-54370D01*
X123743Y-55297D01*
X124101Y-56162D01*
X124671Y-56904D01*
X125413Y-57473D01*
X126277Y-57831D01*
X127205Y-57954D01*
X128132Y-57831D01*
X128996Y-57473D01*
X129739Y-56904D01*
X130308Y-56162D01*
X130666Y-55297D01*
X130788Y-54370D01*
X130666Y-53443D01*
X130308Y-52578D01*
X129739Y-51836D01*
X128996Y-51267D01*
X128132Y-50909D01*
X127205Y-50787D01*
X126277Y-50909D01*
X125709Y-51144D01*
X117540Y-42975D01*
X118037Y-41775D01*
X122879D01*
X133979Y-52874D01*
X133743Y-53443D01*
X133621Y-54370D01*
X133743Y-55297D01*
X134101Y-56162D01*
X134671Y-56904D01*
X135413Y-57473D01*
X136277Y-57831D01*
X137205Y-57954D01*
X138132Y-57831D01*
X138996Y-57473D01*
X139739Y-56904D01*
X140308Y-56162D01*
X140666Y-55297D01*
X140788Y-54370D01*
X140681Y-53557D01*
X140773Y-53462D01*
X142063Y-53242D01*
X150284Y-61464D01*
X150681Y-61729D01*
X151150Y-61822D01*
X188092D01*
X193596Y-67326D01*
X193424Y-68526D01*
X192016D01*
X191979Y-68526D01*
X190816D01*
X190779Y-68526D01*
X184892D01*
Y-75238D01*
X186223D01*
Y-78811D01*
X186347Y-79435D01*
X186701Y-79965D01*
X187215Y-80479D01*
X187149Y-80639D01*
X187027Y-81567D01*
X187149Y-82494D01*
X187507Y-83359D01*
X188076Y-84101D01*
X188819Y-84670D01*
X189683Y-85028D01*
X190610Y-85150D01*
X191538Y-85028D01*
X192402Y-84670D01*
X193144Y-84101D01*
X193714Y-83359D01*
X194071Y-82494D01*
X194194Y-81567D01*
X194071Y-80639D01*
X193714Y-79775D01*
X193144Y-79033D01*
X192402Y-78464D01*
X191538Y-78106D01*
X190610Y-77983D01*
X189744Y-77179D01*
X189726Y-75846D01*
X190334Y-75238D01*
X190779D01*
X190816Y-75238D01*
X191979D01*
X192016Y-75238D01*
X197903D01*
Y-68526D01*
X196164D01*
Y-66941D01*
X196071Y-66473D01*
X195806Y-66076D01*
X190861Y-61131D01*
X191320Y-60022D01*
X202780D01*
X208776Y-66019D01*
Y-67677D01*
X207928Y-68526D01*
X206977D01*
X206939Y-68526D01*
X205777D01*
X205739Y-68526D01*
X199853D01*
Y-75238D01*
X201184D01*
Y-83772D01*
X201308Y-84396D01*
X201661Y-84925D01*
X207215Y-90479D01*
X207149Y-90640D01*
X207027Y-91567D01*
X207149Y-92494D01*
X207507Y-93359D01*
X208076Y-94101D01*
X208819Y-94670D01*
X209683Y-95028D01*
X210610Y-95150D01*
X211538Y-95028D01*
X212402Y-94670D01*
X213144Y-94101D01*
X213714Y-93359D01*
X214071Y-92494D01*
X214194Y-91567D01*
X214071Y-90640D01*
X213714Y-89775D01*
X213144Y-89033D01*
X212402Y-88464D01*
X211538Y-88106D01*
X210610Y-87984D01*
X209683Y-88106D01*
X209522Y-88172D01*
X204446Y-83096D01*
Y-76086D01*
X205295Y-75238D01*
X205739D01*
X205777Y-75238D01*
X206939D01*
X206977Y-75238D01*
X212864D01*
Y-68526D01*
X211224D01*
Y-65512D01*
X211130Y-65044D01*
X210865Y-64647D01*
X204152Y-57933D01*
X203755Y-57668D01*
X203287Y-57575D01*
X153400D01*
X151463Y-55639D01*
X151960Y-54439D01*
X157549D01*
Y-52517D01*
X158908D01*
Y-54635D01*
X165620D01*
X165620Y-48983D01*
X166020Y-47949D01*
X166020Y-47677D01*
Y-45087D01*
X158508D01*
Y-46751D01*
X157549Y-47333D01*
X157308Y-47333D01*
X150443D01*
Y-52921D01*
X149243Y-53418D01*
X136750Y-40925D01*
X137187Y-39665D01*
X137423Y-39634D01*
X138178Y-39322D01*
X138825Y-38825D01*
X139322Y-38177D01*
X139634Y-37423D01*
X139671Y-37145D01*
X139713Y-37082D01*
X139806Y-36614D01*
X139713Y-36146D01*
X139671Y-36083D01*
X139670Y-36076D01*
X140728Y-35018D01*
X141746Y-35697D01*
X141588Y-36079D01*
X141481Y-36888D01*
X141588Y-37697D01*
X141900Y-38452D01*
X142397Y-39099D01*
X143044Y-39596D01*
X143799Y-39908D01*
X144608Y-40015D01*
X145417Y-39908D01*
X146171Y-39596D01*
X146819Y-39099D01*
X147316Y-38452D01*
X147628Y-37697D01*
X147655Y-37490D01*
X150680D01*
X150780Y-37601D01*
X151202Y-38690D01*
X150893Y-39094D01*
X150535Y-39958D01*
X150413Y-40886D01*
X150535Y-41813D01*
X150893Y-42678D01*
X151462Y-43420D01*
X152204Y-43989D01*
X153069Y-44347D01*
X153996Y-44469D01*
X154923Y-44347D01*
X155788Y-43989D01*
X156530Y-43420D01*
X157099Y-42678D01*
X157308Y-42174D01*
X158508Y-42413D01*
Y-44087D01*
X166020D01*
Y-41224D01*
X165726D01*
X165620Y-40069D01*
X165620Y-40024D01*
Y-37490D01*
X168396D01*
X168497Y-37601D01*
X168919Y-38690D01*
X168609Y-39094D01*
X168251Y-39958D01*
X168129Y-40886D01*
X168251Y-41813D01*
X168609Y-42678D01*
X169179Y-43420D01*
X169921Y-43989D01*
X170785Y-44347D01*
X171713Y-44469D01*
X172640Y-44347D01*
X173504Y-43989D01*
X174246Y-43420D01*
X174816Y-42678D01*
X175024Y-42174D01*
X176224Y-42413D01*
Y-44087D01*
X183736D01*
Y-41224D01*
X183443D01*
X183336Y-40069D01*
X183336Y-40024D01*
Y-34144D01*
X183336D01*
Y-32982D01*
X183336D01*
Y-27057D01*
X176624D01*
Y-28388D01*
X174274D01*
X174246Y-28352D01*
X173504Y-27782D01*
X172640Y-27424D01*
X171713Y-27302D01*
X170785Y-27424D01*
X169921Y-27782D01*
X169179Y-28352D01*
X168609Y-29094D01*
X168251Y-29958D01*
X168129Y-30886D01*
X168251Y-31813D01*
X168609Y-32678D01*
X168878Y-33028D01*
X168361Y-34228D01*
X166785D01*
X165620Y-34144D01*
Y-32982D01*
X165620D01*
Y-27057D01*
X158908D01*
Y-28388D01*
X156558D01*
X156530Y-28352D01*
X155788Y-27782D01*
X154923Y-27424D01*
X153996Y-27302D01*
X153069Y-27424D01*
X152204Y-27782D01*
X151462Y-28352D01*
X150893Y-29094D01*
X150535Y-29958D01*
X150413Y-30886D01*
X150535Y-31813D01*
X150893Y-32678D01*
X151161Y-33028D01*
X150644Y-34228D01*
X146233D01*
X146171Y-34180D01*
X145417Y-33868D01*
X144608Y-33761D01*
X143799Y-33868D01*
X143417Y-34026D01*
X142737Y-33009D01*
X153771Y-21975D01*
X188355D01*
X193463Y-27083D01*
Y-28432D01*
X192869Y-29026D01*
X192016D01*
X191979Y-29026D01*
X190816D01*
X190779Y-29026D01*
X184892D01*
Y-35738D01*
X186223D01*
Y-39311D01*
X186347Y-39935D01*
X186701Y-40465D01*
X187215Y-40979D01*
X187149Y-41140D01*
X187027Y-42067D01*
X187149Y-42994D01*
X187507Y-43859D01*
X188076Y-44601D01*
X188819Y-45170D01*
X189683Y-45528D01*
X190610Y-45650D01*
X191538Y-45528D01*
X192402Y-45170D01*
X193144Y-44601D01*
X193714Y-43859D01*
X194071Y-42994D01*
X194194Y-42067D01*
X194071Y-41140D01*
X193714Y-40275D01*
X193144Y-39533D01*
X192402Y-38964D01*
X191538Y-38606D01*
X190610Y-38484D01*
X189744Y-37679D01*
X189726Y-36346D01*
X190334Y-35738D01*
X190779D01*
X190816Y-35738D01*
X191979D01*
X192016Y-35738D01*
X197903D01*
Y-29026D01*
X196164D01*
Y-26831D01*
X196071Y-26362D01*
X195806Y-25966D01*
X190764Y-20923D01*
X191261Y-19724D01*
X203993D01*
X208678Y-24408D01*
Y-28177D01*
X207829Y-29026D01*
X206977D01*
X206939Y-29026D01*
X205777D01*
X205739Y-29026D01*
X199853D01*
Y-35738D01*
X201184D01*
Y-44272D01*
X201308Y-44896D01*
X201661Y-45425D01*
X207215Y-50979D01*
X207149Y-51139D01*
X207027Y-52067D01*
X207149Y-52994D01*
X207507Y-53859D01*
X208076Y-54601D01*
X208819Y-55170D01*
X209683Y-55528D01*
X210610Y-55650D01*
X211538Y-55528D01*
X212402Y-55170D01*
X213144Y-54601D01*
X213714Y-53859D01*
X214071Y-52994D01*
X214194Y-52067D01*
X214071Y-51139D01*
X213714Y-50275D01*
X213144Y-49533D01*
X212402Y-48964D01*
X211538Y-48606D01*
X210610Y-48483D01*
X209683Y-48606D01*
X209522Y-48672D01*
X204446Y-43596D01*
Y-36586D01*
X205295Y-35738D01*
X205739D01*
X205777Y-35738D01*
X206939D01*
X206977Y-35738D01*
X212864D01*
Y-29026D01*
X211125D01*
Y-23902D01*
X211032Y-23433D01*
X210767Y-23036D01*
X205365Y-17635D01*
X204968Y-17370D01*
X204500Y-17277D01*
D02*
G37*
G36*
X-5200Y-27017D02*
X-6128Y-27139D01*
X-6992Y-27497D01*
X-7734Y-28066D01*
X-8303Y-28808D01*
X-8661Y-29673D01*
X-8783Y-30600D01*
X-8661Y-31527D01*
X-8303Y-32392D01*
X-7734Y-33134D01*
X-6992Y-33703D01*
X-6128Y-34061D01*
X-5200Y-34183D01*
X-4273Y-34061D01*
X-3408Y-33703D01*
X-2666Y-33134D01*
X-2097Y-32392D01*
X-1739Y-31527D01*
X-1617Y-30600D01*
X-1739Y-29673D01*
X-2097Y-28808D01*
X-2666Y-28066D01*
X-3408Y-27497D01*
X-4273Y-27139D01*
X-5200Y-27017D01*
D02*
G37*
G36*
X183736Y-45087D02*
X176224D01*
Y-45695D01*
X176084Y-46837D01*
X175265Y-47333D01*
X174926Y-47333D01*
X168160D01*
Y-54439D01*
X175265D01*
Y-53305D01*
X176624D01*
Y-54635D01*
X183336D01*
X183336Y-48983D01*
X183736Y-47949D01*
X183736Y-47677D01*
Y-45087D01*
D02*
G37*
G36*
X210610Y-38484D02*
X209683Y-38606D01*
X208819Y-38964D01*
X208076Y-39533D01*
X207507Y-40275D01*
X207149Y-41140D01*
X207027Y-42067D01*
X207149Y-42994D01*
X207507Y-43859D01*
X208076Y-44601D01*
X208819Y-45170D01*
X209683Y-45528D01*
X210610Y-45650D01*
X211538Y-45528D01*
X212402Y-45170D01*
X213144Y-44601D01*
X213714Y-43859D01*
X214071Y-42994D01*
X214194Y-42067D01*
X214071Y-41140D01*
X213714Y-40275D01*
X213144Y-39533D01*
X212402Y-38964D01*
X211538Y-38606D01*
X210610Y-38484D01*
D02*
G37*
G36*
Y-77983D02*
X209683Y-78106D01*
X208819Y-78464D01*
X208076Y-79033D01*
X207507Y-79775D01*
X207149Y-80639D01*
X207027Y-81567D01*
X207149Y-82494D01*
X207507Y-83359D01*
X208076Y-84101D01*
X208819Y-84670D01*
X209683Y-85028D01*
X210610Y-85150D01*
X211538Y-85028D01*
X212402Y-84670D01*
X213144Y-84101D01*
X213714Y-83359D01*
X214071Y-82494D01*
X214194Y-81567D01*
X214071Y-80639D01*
X213714Y-79775D01*
X213144Y-79033D01*
X212402Y-78464D01*
X211538Y-78106D01*
X210610Y-77983D01*
D02*
G37*
G36*
X183736Y-84587D02*
X176224D01*
Y-85195D01*
X176084Y-86336D01*
X175265Y-86833D01*
X174926Y-86833D01*
X168160D01*
Y-93939D01*
X175265D01*
Y-92805D01*
X176624D01*
Y-94135D01*
X183336D01*
X183336Y-88483D01*
X183736Y-87449D01*
X183736Y-87177D01*
Y-84587D01*
D02*
G37*
G36*
X11811Y-83031D02*
X10884Y-83153D01*
X10019Y-83511D01*
X9277Y-84080D01*
X8708Y-84822D01*
X8350Y-85687D01*
X8228Y-86614D01*
X8350Y-87542D01*
X8708Y-88406D01*
X9277Y-89148D01*
X10019Y-89718D01*
X10884Y-90075D01*
X11811Y-90198D01*
X12739Y-90075D01*
X13603Y-89718D01*
X14345Y-89148D01*
X14914Y-88406D01*
X15272Y-87542D01*
X15394Y-86614D01*
X15272Y-85687D01*
X14914Y-84822D01*
X14345Y-84080D01*
X13603Y-83511D01*
X12739Y-83153D01*
X11811Y-83031D01*
D02*
G37*
G36*
X166020Y-84587D02*
X158508D01*
Y-85195D01*
X158368Y-86336D01*
X157549Y-86833D01*
X157209Y-86833D01*
X150443D01*
Y-93939D01*
X157549D01*
Y-92805D01*
X158908D01*
Y-94135D01*
X165620D01*
X165620Y-88483D01*
X166020Y-87449D01*
X166020Y-87177D01*
Y-84587D01*
D02*
G37*
G36*
X183336Y-106058D02*
X176624D01*
Y-107388D01*
X174274D01*
X174246Y-107352D01*
X173504Y-106782D01*
X172640Y-106424D01*
X171713Y-106302D01*
X170785Y-106424D01*
X169921Y-106782D01*
X169179Y-107352D01*
X168609Y-108094D01*
X168251Y-108958D01*
X168129Y-109886D01*
X168251Y-110813D01*
X168609Y-111678D01*
X168990Y-112173D01*
X168727Y-113011D01*
X168450Y-113373D01*
X166725D01*
X165620Y-113144D01*
Y-111982D01*
X165620D01*
Y-106058D01*
X158908D01*
Y-107388D01*
X156558D01*
X156530Y-107352D01*
X155788Y-106782D01*
X154923Y-106424D01*
X153996Y-106302D01*
X153069Y-106424D01*
X152204Y-106782D01*
X151462Y-107352D01*
X150893Y-108094D01*
X150535Y-108958D01*
X150413Y-109886D01*
X150535Y-110813D01*
X150893Y-111678D01*
X151273Y-112173D01*
X151010Y-113011D01*
X150734Y-113373D01*
X146761D01*
X146171Y-112920D01*
X145417Y-112608D01*
X144608Y-112502D01*
X143799Y-112608D01*
X143044Y-112920D01*
X142397Y-113417D01*
X141900Y-114065D01*
X141588Y-114819D01*
X141481Y-115628D01*
X141588Y-116438D01*
X141900Y-117192D01*
X142397Y-117839D01*
X143044Y-118336D01*
X143799Y-118649D01*
X144608Y-118755D01*
X145417Y-118649D01*
X146171Y-118336D01*
X146819Y-117839D01*
X147316Y-117192D01*
X147546Y-116636D01*
X150499D01*
X151091Y-117836D01*
X150893Y-118094D01*
X150535Y-118958D01*
X150413Y-119886D01*
X150535Y-120813D01*
X150893Y-121677D01*
X151462Y-122420D01*
X152204Y-122989D01*
X153069Y-123347D01*
X153996Y-123469D01*
X154923Y-123347D01*
X155788Y-122989D01*
X156530Y-122420D01*
X157099Y-121677D01*
X157308Y-121174D01*
X158508Y-121413D01*
Y-123087D01*
X166020D01*
Y-120224D01*
X165726D01*
X165620Y-119069D01*
X165620Y-119024D01*
Y-116636D01*
X168216D01*
X168807Y-117836D01*
X168609Y-118094D01*
X168251Y-118958D01*
X168129Y-119886D01*
X168251Y-120813D01*
X168609Y-121677D01*
X169179Y-122420D01*
X169921Y-122989D01*
X170785Y-123347D01*
X171713Y-123469D01*
X172640Y-123347D01*
X173504Y-122989D01*
X174246Y-122420D01*
X174816Y-121677D01*
X175024Y-121174D01*
X176224Y-121413D01*
Y-123087D01*
X183736D01*
Y-120224D01*
X183443D01*
X183336Y-119069D01*
X183336Y-119024D01*
Y-113144D01*
X183336D01*
Y-111982D01*
X183336D01*
Y-106058D01*
D02*
G37*
G36*
X190610Y-87984D02*
X189683Y-88106D01*
X188819Y-88464D01*
X188076Y-89033D01*
X187507Y-89775D01*
X187149Y-90640D01*
X187027Y-91567D01*
X187149Y-92494D01*
X187507Y-93359D01*
X188076Y-94101D01*
X188819Y-94670D01*
X189683Y-95028D01*
X190610Y-95150D01*
X191538Y-95028D01*
X192402Y-94670D01*
X193144Y-94101D01*
X193714Y-93359D01*
X194071Y-92494D01*
X194194Y-91567D01*
X194071Y-90640D01*
X193714Y-89775D01*
X193144Y-89033D01*
X192402Y-88464D01*
X191538Y-88106D01*
X190610Y-87984D01*
D02*
G37*
G36*
X115157Y-83031D02*
X114230Y-83153D01*
X113366Y-83511D01*
X112624Y-84080D01*
X112054Y-84822D01*
X111696Y-85687D01*
X111574Y-86614D01*
X111696Y-87542D01*
X112054Y-88406D01*
X112624Y-89148D01*
X113366Y-89718D01*
X114230Y-90075D01*
X115157Y-90198D01*
X116085Y-90075D01*
X116949Y-89718D01*
X117691Y-89148D01*
X118261Y-88406D01*
X118619Y-87542D01*
X118741Y-86614D01*
X118619Y-85687D01*
X118261Y-84822D01*
X117691Y-84080D01*
X116949Y-83511D01*
X116085Y-83153D01*
X115157Y-83031D01*
D02*
G37*
G36*
X125157D02*
X124230Y-83153D01*
X123366Y-83511D01*
X122624Y-84080D01*
X122054Y-84822D01*
X121696Y-85687D01*
X121574Y-86614D01*
X121696Y-87542D01*
X122054Y-88406D01*
X122624Y-89148D01*
X123366Y-89718D01*
X124230Y-90075D01*
X125157Y-90198D01*
X126085Y-90075D01*
X126949Y-89718D01*
X127691Y-89148D01*
X128261Y-88406D01*
X128619Y-87542D01*
X128741Y-86614D01*
X128619Y-85687D01*
X128261Y-84822D01*
X127691Y-84080D01*
X126949Y-83511D01*
X126085Y-83153D01*
X125157Y-83031D01*
D02*
G37*
G36*
X73484D02*
X72557Y-83153D01*
X71693Y-83511D01*
X70950Y-84080D01*
X70381Y-84822D01*
X70023Y-85687D01*
X69901Y-86614D01*
X70023Y-87542D01*
X70381Y-88406D01*
X70950Y-89148D01*
X71693Y-89718D01*
X72557Y-90075D01*
X73484Y-90198D01*
X74412Y-90075D01*
X75276Y-89718D01*
X76018Y-89148D01*
X76588Y-88406D01*
X76946Y-87542D01*
X77068Y-86614D01*
X76946Y-85687D01*
X76588Y-84822D01*
X76018Y-84080D01*
X75276Y-83511D01*
X74412Y-83153D01*
X73484Y-83031D01*
D02*
G37*
G36*
X21811D02*
X20884Y-83153D01*
X20019Y-83511D01*
X19277Y-84080D01*
X18708Y-84822D01*
X18350Y-85687D01*
X18228Y-86614D01*
X18350Y-87542D01*
X18708Y-88406D01*
X19277Y-89148D01*
X20019Y-89718D01*
X20884Y-90075D01*
X21811Y-90198D01*
X22738Y-90075D01*
X23603Y-89718D01*
X24345Y-89148D01*
X24914Y-88406D01*
X25272Y-87542D01*
X25394Y-86614D01*
X25272Y-85687D01*
X24914Y-84822D01*
X24345Y-84080D01*
X23603Y-83511D01*
X22738Y-83153D01*
X21811Y-83031D01*
D02*
G37*
G36*
X63484D02*
X62557Y-83153D01*
X61693Y-83511D01*
X60950Y-84080D01*
X60381Y-84822D01*
X60023Y-85687D01*
X59901Y-86614D01*
X60023Y-87542D01*
X60381Y-88406D01*
X60950Y-89148D01*
X61693Y-89718D01*
X62557Y-90075D01*
X63484Y-90198D01*
X64412Y-90075D01*
X65276Y-89718D01*
X66018Y-89148D01*
X66588Y-88406D01*
X66946Y-87542D01*
X67068Y-86614D01*
X66946Y-85687D01*
X66588Y-84822D01*
X66018Y-84080D01*
X65276Y-83511D01*
X64412Y-83153D01*
X63484Y-83031D01*
D02*
G37*
G36*
X190610Y-166983D02*
X189683Y-167106D01*
X188819Y-167464D01*
X188076Y-168033D01*
X187507Y-168775D01*
X187149Y-169640D01*
X187027Y-170567D01*
X187149Y-171494D01*
X187507Y-172359D01*
X188076Y-173101D01*
X188819Y-173670D01*
X189683Y-174028D01*
X190610Y-174150D01*
X191538Y-174028D01*
X192402Y-173670D01*
X193144Y-173101D01*
X193714Y-172359D01*
X194071Y-171494D01*
X194194Y-170567D01*
X194071Y-169640D01*
X193714Y-168775D01*
X193144Y-168033D01*
X192402Y-167464D01*
X191538Y-167106D01*
X190610Y-166983D01*
D02*
G37*
G36*
X166020Y-163587D02*
X158508D01*
Y-164195D01*
X158368Y-165337D01*
X157549Y-165833D01*
X157209Y-165833D01*
X150443D01*
Y-172939D01*
X157549D01*
Y-171805D01*
X158908D01*
Y-173135D01*
X165620D01*
X165620Y-167483D01*
X166020Y-166449D01*
X166020Y-166177D01*
Y-163587D01*
D02*
G37*
G36*
X129078Y-173496D02*
X125657D01*
Y-176917D01*
X126189Y-176847D01*
X127151Y-176449D01*
X127977Y-175815D01*
X128610Y-174989D01*
X129008Y-174028D01*
X129078Y-173496D01*
D02*
G37*
G36*
X119079D02*
X115657D01*
Y-176917D01*
X116189Y-176847D01*
X117151Y-176449D01*
X117977Y-175815D01*
X118610Y-174989D01*
X119009Y-174028D01*
X119079Y-173496D01*
D02*
G37*
G36*
X124657D02*
X121236D01*
X121307Y-174028D01*
X121705Y-174989D01*
X122338Y-175815D01*
X123164Y-176449D01*
X124126Y-176847D01*
X124657Y-176917D01*
Y-173496D01*
D02*
G37*
G36*
X21311Y-169075D02*
X20779Y-169145D01*
X19818Y-169543D01*
X18992Y-170177D01*
X18358Y-171003D01*
X17960Y-171964D01*
X17890Y-172496D01*
X21311D01*
Y-169075D01*
D02*
G37*
G36*
X22311D02*
Y-172496D01*
X25732D01*
X25662Y-171964D01*
X25264Y-171003D01*
X24630Y-170177D01*
X23804Y-169543D01*
X22843Y-169145D01*
X22311Y-169075D01*
D02*
G37*
G36*
X12311D02*
Y-172496D01*
X15732D01*
X15662Y-171964D01*
X15264Y-171003D01*
X14630Y-170177D01*
X13804Y-169543D01*
X12843Y-169145D01*
X12311Y-169075D01*
D02*
G37*
G36*
X183736Y-163587D02*
X176224D01*
Y-164195D01*
X176084Y-165337D01*
X175265Y-165833D01*
X174926Y-165833D01*
X168160D01*
Y-172939D01*
X175265D01*
Y-171805D01*
X176624D01*
Y-173135D01*
X183336D01*
X183336Y-167483D01*
X183736Y-166449D01*
X183736Y-166177D01*
Y-163587D01*
D02*
G37*
G36*
X11311Y-169075D02*
X10779Y-169145D01*
X9818Y-169543D01*
X8992Y-170177D01*
X8358Y-171003D01*
X7960Y-171964D01*
X7890Y-172496D01*
X11311D01*
Y-169075D01*
D02*
G37*
G36*
X114657Y-173496D02*
X111236D01*
X111307Y-174028D01*
X111705Y-174989D01*
X112338Y-175815D01*
X113164Y-176449D01*
X114126Y-176847D01*
X114657Y-176917D01*
Y-173496D01*
D02*
G37*
G36*
X15732D02*
X12311D01*
Y-176917D01*
X12843Y-176847D01*
X13804Y-176449D01*
X14630Y-175815D01*
X15264Y-174989D01*
X15662Y-174028D01*
X15732Y-173496D01*
D02*
G37*
G36*
X21311D02*
X17890D01*
X17960Y-174028D01*
X18358Y-174989D01*
X18992Y-175815D01*
X19818Y-176449D01*
X20779Y-176847D01*
X21311Y-176917D01*
Y-173496D01*
D02*
G37*
G36*
X11311D02*
X7890D01*
X7960Y-174028D01*
X8358Y-174989D01*
X8992Y-175815D01*
X9818Y-176449D01*
X10779Y-176847D01*
X11311Y-176917D01*
Y-173496D01*
D02*
G37*
G36*
X0Y-186720D02*
X-1206Y-186839D01*
X-2365Y-187191D01*
X-3433Y-187762D01*
X-4370Y-188530D01*
X-5138Y-189467D01*
X-5709Y-190535D01*
X-6061Y-191694D01*
X-6180Y-192900D01*
X-6061Y-194106D01*
X-5709Y-195265D01*
X-5138Y-196333D01*
X-4370Y-197270D01*
X-3433Y-198038D01*
X-2365Y-198609D01*
X-1206Y-198961D01*
X0Y-199080D01*
X1206Y-198961D01*
X2365Y-198609D01*
X3433Y-198038D01*
X4370Y-197270D01*
X5138Y-196333D01*
X5709Y-195265D01*
X6061Y-194106D01*
X6180Y-192900D01*
X6061Y-191694D01*
X5709Y-190535D01*
X5138Y-189467D01*
X4370Y-188530D01*
X3433Y-187762D01*
X2365Y-187191D01*
X1206Y-186839D01*
X0Y-186720D01*
D02*
G37*
G36*
X228400D02*
X227194Y-186839D01*
X226035Y-187191D01*
X224967Y-187762D01*
X224030Y-188530D01*
X223262Y-189467D01*
X222691Y-190535D01*
X222339Y-191694D01*
X222220Y-192900D01*
X222339Y-194106D01*
X222691Y-195265D01*
X223262Y-196333D01*
X224030Y-197270D01*
X224967Y-198038D01*
X226035Y-198609D01*
X227194Y-198961D01*
X228400Y-199080D01*
X229606Y-198961D01*
X230765Y-198609D01*
X231833Y-198038D01*
X232770Y-197270D01*
X233538Y-196333D01*
X234109Y-195265D01*
X234461Y-194106D01*
X234580Y-192900D01*
X234461Y-191694D01*
X234109Y-190535D01*
X233538Y-189467D01*
X232770Y-188530D01*
X231833Y-187762D01*
X230765Y-187191D01*
X229606Y-186839D01*
X228400Y-186720D01*
D02*
G37*
G36*
X72984Y-173496D02*
X69563D01*
X69633Y-174028D01*
X70031Y-174989D01*
X70665Y-175815D01*
X71491Y-176449D01*
X72452Y-176847D01*
X72984Y-176917D01*
Y-173496D01*
D02*
G37*
G36*
X77405D02*
X73984D01*
Y-176917D01*
X74516Y-176847D01*
X75478Y-176449D01*
X76303Y-175815D01*
X76937Y-174989D01*
X77335Y-174028D01*
X77405Y-173496D01*
D02*
G37*
G36*
X67405D02*
X63984D01*
Y-176917D01*
X64516Y-176847D01*
X65478Y-176449D01*
X66303Y-175815D01*
X66937Y-174989D01*
X67335Y-174028D01*
X67405Y-173496D01*
D02*
G37*
G36*
X25732D02*
X22311D01*
Y-176917D01*
X22843Y-176847D01*
X23804Y-176449D01*
X24630Y-175815D01*
X25264Y-174989D01*
X25662Y-174028D01*
X25732Y-173496D01*
D02*
G37*
G36*
X62984D02*
X59563D01*
X59633Y-174028D01*
X60031Y-174989D01*
X60665Y-175815D01*
X61491Y-176449D01*
X62452Y-176847D01*
X62984Y-176917D01*
Y-173496D01*
D02*
G37*
G36*
Y-169075D02*
X62452Y-169145D01*
X61491Y-169543D01*
X60665Y-170177D01*
X60031Y-171003D01*
X59633Y-171964D01*
X59563Y-172496D01*
X62984D01*
Y-169075D01*
D02*
G37*
G36*
X72984Y-153496D02*
X69563D01*
X69633Y-154028D01*
X70031Y-154990D01*
X70665Y-155815D01*
X71491Y-156449D01*
X72452Y-156847D01*
X72984Y-156917D01*
Y-153496D01*
D02*
G37*
G36*
X77405D02*
X73984D01*
Y-156917D01*
X74516Y-156847D01*
X75478Y-156449D01*
X76303Y-155815D01*
X76937Y-154990D01*
X77335Y-154028D01*
X77405Y-153496D01*
D02*
G37*
G36*
X67405D02*
X63984D01*
Y-156917D01*
X64516Y-156847D01*
X65478Y-156449D01*
X66303Y-155815D01*
X66937Y-154990D01*
X67335Y-154028D01*
X67405Y-153496D01*
D02*
G37*
G36*
X25732D02*
X22311D01*
Y-156917D01*
X22843Y-156847D01*
X23804Y-156449D01*
X24630Y-155815D01*
X25264Y-154990D01*
X25662Y-154028D01*
X25732Y-153496D01*
D02*
G37*
G36*
X62984D02*
X59563D01*
X59633Y-154028D01*
X60031Y-154990D01*
X60665Y-155815D01*
X61491Y-156449D01*
X62452Y-156847D01*
X62984Y-156917D01*
Y-153496D01*
D02*
G37*
G36*
X129078D02*
X125657D01*
Y-156917D01*
X126189Y-156847D01*
X127151Y-156449D01*
X127977Y-155815D01*
X128610Y-154990D01*
X129008Y-154028D01*
X129078Y-153496D01*
D02*
G37*
G36*
X11311Y-149075D02*
X10779Y-149145D01*
X9818Y-149543D01*
X8992Y-150177D01*
X8358Y-151003D01*
X7960Y-151964D01*
X7890Y-152496D01*
X11311D01*
Y-149075D01*
D02*
G37*
G36*
X124657Y-153496D02*
X121236D01*
X121307Y-154028D01*
X121705Y-154990D01*
X122338Y-155815D01*
X123164Y-156449D01*
X124126Y-156847D01*
X124657Y-156917D01*
Y-153496D01*
D02*
G37*
G36*
X114657D02*
X111236D01*
X111307Y-154028D01*
X111705Y-154990D01*
X112338Y-155815D01*
X113164Y-156449D01*
X114126Y-156847D01*
X114657Y-156917D01*
Y-153496D01*
D02*
G37*
G36*
X119079D02*
X115657D01*
Y-156917D01*
X116189Y-156847D01*
X117151Y-156449D01*
X117977Y-155815D01*
X118610Y-154990D01*
X119009Y-154028D01*
X119079Y-153496D01*
D02*
G37*
G36*
X21311D02*
X17890D01*
X17960Y-154028D01*
X18358Y-154990D01*
X18992Y-155815D01*
X19818Y-156449D01*
X20779Y-156847D01*
X21311Y-156917D01*
Y-153496D01*
D02*
G37*
G36*
X114657Y-169075D02*
X114126Y-169145D01*
X113164Y-169543D01*
X112338Y-170177D01*
X111705Y-171003D01*
X111307Y-171964D01*
X111236Y-172496D01*
X114657D01*
Y-169075D01*
D02*
G37*
G36*
X115657D02*
Y-172496D01*
X119079D01*
X119009Y-171964D01*
X118610Y-171003D01*
X117977Y-170177D01*
X117151Y-169543D01*
X116189Y-169145D01*
X115657Y-169075D01*
D02*
G37*
G36*
X73984D02*
Y-172496D01*
X77405D01*
X77335Y-171964D01*
X76937Y-171003D01*
X76303Y-170177D01*
X75478Y-169543D01*
X74516Y-169145D01*
X73984Y-169075D01*
D02*
G37*
G36*
X63984D02*
Y-172496D01*
X67405D01*
X67335Y-171964D01*
X66937Y-171003D01*
X66303Y-170177D01*
X65478Y-169543D01*
X64516Y-169145D01*
X63984Y-169075D01*
D02*
G37*
G36*
X72984D02*
X72452Y-169145D01*
X71491Y-169543D01*
X70665Y-170177D01*
X70031Y-171003D01*
X69633Y-171964D01*
X69563Y-172496D01*
X72984D01*
Y-169075D01*
D02*
G37*
G36*
X11311Y-153496D02*
X7890D01*
X7960Y-154028D01*
X8358Y-154990D01*
X8992Y-155815D01*
X9818Y-156449D01*
X10779Y-156847D01*
X11311Y-156917D01*
Y-153496D01*
D02*
G37*
G36*
X15732D02*
X12311D01*
Y-156917D01*
X12843Y-156847D01*
X13804Y-156449D01*
X14630Y-155815D01*
X15264Y-154990D01*
X15662Y-154028D01*
X15732Y-153496D01*
D02*
G37*
G36*
X210610Y-156983D02*
X209683Y-157106D01*
X208819Y-157464D01*
X208076Y-158033D01*
X207507Y-158775D01*
X207149Y-159640D01*
X207027Y-160567D01*
X207149Y-161494D01*
X207507Y-162359D01*
X208076Y-163101D01*
X208819Y-163670D01*
X209683Y-164028D01*
X210610Y-164150D01*
X211538Y-164028D01*
X212402Y-163670D01*
X213144Y-163101D01*
X213714Y-162359D01*
X214071Y-161494D01*
X214194Y-160567D01*
X214071Y-159640D01*
X213714Y-158775D01*
X213144Y-158033D01*
X212402Y-157464D01*
X211538Y-157106D01*
X210610Y-156983D01*
D02*
G37*
G36*
X124657Y-169075D02*
X124126Y-169145D01*
X123164Y-169543D01*
X122338Y-170177D01*
X121705Y-171003D01*
X121307Y-171964D01*
X121236Y-172496D01*
X124657D01*
Y-169075D01*
D02*
G37*
G36*
X125657D02*
Y-172496D01*
X129078D01*
X129008Y-171964D01*
X128610Y-171003D01*
X127977Y-170177D01*
X127151Y-169543D01*
X126189Y-169145D01*
X125657Y-169075D01*
D02*
G37*
G36*
X158700Y4500D02*
X155279D01*
X155349Y3968D01*
X155747Y3007D01*
X156381Y2181D01*
X157207Y1547D01*
X158168Y1149D01*
X158700Y1079D01*
Y4500D01*
D02*
G37*
G36*
X163121D02*
X159700D01*
Y1079D01*
X160232Y1149D01*
X161193Y1547D01*
X162019Y2181D01*
X162653Y3007D01*
X163051Y3968D01*
X163121Y4500D01*
D02*
G37*
G36*
X113121D02*
X109700D01*
Y1079D01*
X110232Y1149D01*
X111193Y1547D01*
X112019Y2181D01*
X112653Y3007D01*
X113051Y3968D01*
X113121Y4500D01*
D02*
G37*
G36*
X83121D02*
X79700D01*
Y1079D01*
X80232Y1149D01*
X81193Y1547D01*
X82019Y2181D01*
X82653Y3007D01*
X83051Y3968D01*
X83121Y4500D01*
D02*
G37*
G36*
X108700D02*
X105279D01*
X105349Y3968D01*
X105747Y3007D01*
X106381Y2181D01*
X107207Y1547D01*
X108168Y1149D01*
X108700Y1079D01*
Y4500D01*
D02*
G37*
G36*
X29200Y8583D02*
X28273Y8461D01*
X27408Y8103D01*
X26666Y7534D01*
X26097Y6792D01*
X25739Y5928D01*
X25617Y5000D01*
X25739Y4073D01*
X26097Y3208D01*
X26666Y2466D01*
X27408Y1897D01*
X28273Y1539D01*
X29200Y1417D01*
X30127Y1539D01*
X30992Y1897D01*
X31734Y2466D01*
X32303Y3208D01*
X32661Y4073D01*
X32783Y5000D01*
X32661Y5928D01*
X32303Y6792D01*
X31734Y7534D01*
X30992Y8103D01*
X30127Y8461D01*
X29200Y8583D01*
D02*
G37*
G36*
X49200D02*
X48273Y8461D01*
X47408Y8103D01*
X46666Y7534D01*
X46097Y6792D01*
X45739Y5928D01*
X45617Y5000D01*
X45739Y4073D01*
X46097Y3208D01*
X46666Y2466D01*
X47408Y1897D01*
X48273Y1539D01*
X49200Y1417D01*
X50127Y1539D01*
X50992Y1897D01*
X51734Y2466D01*
X52303Y3208D01*
X52661Y4073D01*
X52783Y5000D01*
X52661Y5928D01*
X52303Y6792D01*
X51734Y7534D01*
X50992Y8103D01*
X50127Y8461D01*
X49200Y8583D01*
D02*
G37*
G36*
X19200D02*
X18273Y8461D01*
X17408Y8103D01*
X16666Y7534D01*
X16097Y6792D01*
X15739Y5928D01*
X15617Y5000D01*
X15739Y4073D01*
X16097Y3208D01*
X16666Y2466D01*
X17408Y1897D01*
X18273Y1539D01*
X19200Y1417D01*
X20127Y1539D01*
X20992Y1897D01*
X21734Y2466D01*
X22303Y3208D01*
X22661Y4073D01*
X22783Y5000D01*
X22661Y5928D01*
X22303Y6792D01*
X21734Y7534D01*
X20992Y8103D01*
X20127Y8461D01*
X19200Y8583D01*
D02*
G37*
G36*
X178700Y4500D02*
X175279D01*
X175349Y3968D01*
X175747Y3007D01*
X176381Y2181D01*
X177207Y1547D01*
X178168Y1149D01*
X178700Y1079D01*
Y4500D01*
D02*
G37*
G36*
X183121D02*
X179700D01*
Y1079D01*
X180232Y1149D01*
X181193Y1547D01*
X182019Y2181D01*
X182653Y3007D01*
X183051Y3968D01*
X183121Y4500D01*
D02*
G37*
G36*
X78700D02*
X75279D01*
X75349Y3968D01*
X75747Y3007D01*
X76381Y2181D01*
X77207Y1547D01*
X78168Y1149D01*
X78700Y1079D01*
Y4500D01*
D02*
G37*
G36*
X59700Y-1079D02*
Y-4500D01*
X63121D01*
X63051Y-3968D01*
X62653Y-3007D01*
X62019Y-2181D01*
X61193Y-1547D01*
X60232Y-1149D01*
X59700Y-1079D01*
D02*
G37*
G36*
X138700D02*
X138168Y-1149D01*
X137207Y-1547D01*
X136381Y-2181D01*
X135747Y-3007D01*
X135349Y-3968D01*
X135279Y-4500D01*
X138700D01*
Y-1079D01*
D02*
G37*
G36*
X58700D02*
X58168Y-1149D01*
X57207Y-1547D01*
X56381Y-2181D01*
X55747Y-3007D01*
X55349Y-3968D01*
X55279Y-4500D01*
X58700D01*
Y-1079D01*
D02*
G37*
G36*
X0Y6180D02*
X-1206Y6061D01*
X-2365Y5709D01*
X-3433Y5138D01*
X-4370Y4370D01*
X-5138Y3433D01*
X-5709Y2365D01*
X-6061Y1206D01*
X-6180Y0D01*
X-6061Y-1206D01*
X-5709Y-2365D01*
X-5138Y-3433D01*
X-4370Y-4370D01*
X-3433Y-5138D01*
X-2365Y-5709D01*
X-1206Y-6061D01*
X0Y-6180D01*
X1206Y-6061D01*
X2365Y-5709D01*
X3433Y-5138D01*
X4370Y-4370D01*
X5138Y-3433D01*
X5709Y-2365D01*
X6061Y-1206D01*
X6180Y0D01*
X6061Y1206D01*
X5709Y2365D01*
X5138Y3433D01*
X4370Y4370D01*
X3433Y5138D01*
X2365Y5709D01*
X1206Y6061D01*
X0Y6180D01*
D02*
G37*
G36*
X228400D02*
X227194Y6061D01*
X226035Y5709D01*
X224967Y5138D01*
X224030Y4370D01*
X223262Y3433D01*
X222691Y2365D01*
X222339Y1206D01*
X222220Y0D01*
X222339Y-1206D01*
X222691Y-2365D01*
X223262Y-3433D01*
X224030Y-4370D01*
X224967Y-5138D01*
X226035Y-5709D01*
X227194Y-6061D01*
X228400Y-6180D01*
X229606Y-6061D01*
X230765Y-5709D01*
X231833Y-5138D01*
X232770Y-4370D01*
X233538Y-3433D01*
X234109Y-2365D01*
X234461Y-1206D01*
X234580Y0D01*
X234461Y1206D01*
X234109Y2365D01*
X233538Y3433D01*
X232770Y4370D01*
X231833Y5138D01*
X230765Y5709D01*
X229606Y6061D01*
X228400Y6180D01*
D02*
G37*
G36*
X38700Y4500D02*
X35279D01*
X35349Y3968D01*
X35747Y3007D01*
X36381Y2181D01*
X37207Y1547D01*
X38168Y1149D01*
X38700Y1079D01*
Y4500D01*
D02*
G37*
G36*
X43121D02*
X39700D01*
Y1079D01*
X40232Y1149D01*
X41193Y1547D01*
X42019Y2181D01*
X42653Y3007D01*
X43051Y3968D01*
X43121Y4500D01*
D02*
G37*
G36*
X209700Y-1079D02*
Y-4500D01*
X213121D01*
X213051Y-3968D01*
X212653Y-3007D01*
X212019Y-2181D01*
X211193Y-1547D01*
X210232Y-1149D01*
X209700Y-1079D01*
D02*
G37*
G36*
X139700D02*
Y-4500D01*
X143121D01*
X143051Y-3968D01*
X142653Y-3007D01*
X142019Y-2181D01*
X141193Y-1547D01*
X140232Y-1149D01*
X139700Y-1079D01*
D02*
G37*
G36*
X208700D02*
X208168Y-1149D01*
X207207Y-1547D01*
X206381Y-2181D01*
X205747Y-3007D01*
X205349Y-3968D01*
X205279Y-4500D01*
X208700D01*
Y-1079D01*
D02*
G37*
G36*
X59200Y8583D02*
X58273Y8461D01*
X57408Y8103D01*
X56666Y7534D01*
X56097Y6792D01*
X55739Y5928D01*
X55617Y5000D01*
X55739Y4073D01*
X56097Y3208D01*
X56666Y2466D01*
X57408Y1897D01*
X58273Y1539D01*
X59200Y1417D01*
X60127Y1539D01*
X60992Y1897D01*
X61734Y2466D01*
X62303Y3208D01*
X62661Y4073D01*
X62783Y5000D01*
X62661Y5928D01*
X62303Y6792D01*
X61734Y7534D01*
X60992Y8103D01*
X60127Y8461D01*
X59200Y8583D01*
D02*
G37*
G36*
X79700Y8921D02*
Y5500D01*
X83121D01*
X83051Y6032D01*
X82653Y6993D01*
X82019Y7819D01*
X81193Y8453D01*
X80232Y8851D01*
X79700Y8921D01*
D02*
G37*
G36*
X108700D02*
X108168Y8851D01*
X107207Y8453D01*
X106381Y7819D01*
X105747Y6993D01*
X105349Y6032D01*
X105279Y5500D01*
X108700D01*
Y8921D01*
D02*
G37*
G36*
X78700D02*
X78168Y8851D01*
X77207Y8453D01*
X76381Y7819D01*
X75747Y6993D01*
X75349Y6032D01*
X75279Y5500D01*
X78700D01*
Y8921D01*
D02*
G37*
G36*
X38700D02*
X38168Y8851D01*
X37207Y8453D01*
X36381Y7819D01*
X35747Y6993D01*
X35349Y6032D01*
X35279Y5500D01*
X38700D01*
Y8921D01*
D02*
G37*
G36*
X39700D02*
Y5500D01*
X43121D01*
X43051Y6032D01*
X42653Y6993D01*
X42019Y7819D01*
X41193Y8453D01*
X40232Y8851D01*
X39700Y8921D01*
D02*
G37*
G36*
X178700D02*
X178168Y8851D01*
X177207Y8453D01*
X176381Y7819D01*
X175747Y6993D01*
X175349Y6032D01*
X175279Y5500D01*
X178700D01*
Y8921D01*
D02*
G37*
G36*
X179700D02*
Y5500D01*
X183121D01*
X183051Y6032D01*
X182653Y6993D01*
X182019Y7819D01*
X181193Y8453D01*
X180232Y8851D01*
X179700Y8921D01*
D02*
G37*
G36*
X159700D02*
Y5500D01*
X163121D01*
X163051Y6032D01*
X162653Y6993D01*
X162019Y7819D01*
X161193Y8453D01*
X160232Y8851D01*
X159700Y8921D01*
D02*
G37*
G36*
X109700D02*
Y5500D01*
X113121D01*
X113051Y6032D01*
X112653Y6993D01*
X112019Y7819D01*
X111193Y8453D01*
X110232Y8851D01*
X109700Y8921D01*
D02*
G37*
G36*
X158700D02*
X158168Y8851D01*
X157207Y8453D01*
X156381Y7819D01*
X155747Y6993D01*
X155349Y6032D01*
X155279Y5500D01*
X158700D01*
Y8921D01*
D02*
G37*
G36*
X209200Y8583D02*
X208273Y8461D01*
X207408Y8103D01*
X206666Y7534D01*
X206097Y6792D01*
X205739Y5928D01*
X205617Y5000D01*
X205739Y4073D01*
X206097Y3208D01*
X206666Y2466D01*
X207408Y1897D01*
X208273Y1539D01*
X209200Y1417D01*
X210127Y1539D01*
X210992Y1897D01*
X211734Y2466D01*
X212303Y3208D01*
X212661Y4073D01*
X212783Y5000D01*
X212661Y5928D01*
X212303Y6792D01*
X211734Y7534D01*
X210992Y8103D01*
X210127Y8461D01*
X209200Y8583D01*
D02*
G37*
G36*
X119200D02*
X118273Y8461D01*
X117408Y8103D01*
X116666Y7534D01*
X116097Y6792D01*
X115739Y5928D01*
X115617Y5000D01*
X115739Y4073D01*
X116097Y3208D01*
X116666Y2466D01*
X117408Y1897D01*
X118273Y1539D01*
X119200Y1417D01*
X120127Y1539D01*
X120992Y1897D01*
X121734Y2466D01*
X122303Y3208D01*
X122661Y4073D01*
X122783Y5000D01*
X122661Y5928D01*
X122303Y6792D01*
X121734Y7534D01*
X120992Y8103D01*
X120127Y8461D01*
X119200Y8583D01*
D02*
G37*
G36*
X129200D02*
X128273Y8461D01*
X127408Y8103D01*
X126666Y7534D01*
X126097Y6792D01*
X125739Y5928D01*
X125617Y5000D01*
X125739Y4073D01*
X126097Y3208D01*
X126666Y2466D01*
X127408Y1897D01*
X128273Y1539D01*
X129200Y1417D01*
X130127Y1539D01*
X130992Y1897D01*
X131734Y2466D01*
X132303Y3208D01*
X132661Y4073D01*
X132783Y5000D01*
X132661Y5928D01*
X132303Y6792D01*
X131734Y7534D01*
X130992Y8103D01*
X130127Y8461D01*
X129200Y8583D01*
D02*
G37*
G36*
X99200D02*
X98273Y8461D01*
X97408Y8103D01*
X96666Y7534D01*
X96097Y6792D01*
X95739Y5928D01*
X95617Y5000D01*
X95739Y4073D01*
X96097Y3208D01*
X96666Y2466D01*
X97408Y1897D01*
X98273Y1539D01*
X99200Y1417D01*
X100127Y1539D01*
X100992Y1897D01*
X101734Y2466D01*
X102303Y3208D01*
X102661Y4073D01*
X102783Y5000D01*
X102661Y5928D01*
X102303Y6792D01*
X101734Y7534D01*
X100992Y8103D01*
X100127Y8461D01*
X99200Y8583D01*
D02*
G37*
G36*
X69200D02*
X68273Y8461D01*
X67408Y8103D01*
X66666Y7534D01*
X66097Y6792D01*
X65739Y5928D01*
X65617Y5000D01*
X65739Y4073D01*
X66097Y3208D01*
X66666Y2466D01*
X67408Y1897D01*
X68273Y1539D01*
X69200Y1417D01*
X70127Y1539D01*
X70992Y1897D01*
X71734Y2466D01*
X72303Y3208D01*
X72661Y4073D01*
X72783Y5000D01*
X72661Y5928D01*
X72303Y6792D01*
X71734Y7534D01*
X70992Y8103D01*
X70127Y8461D01*
X69200Y8583D01*
D02*
G37*
G36*
X89200D02*
X88273Y8461D01*
X87408Y8103D01*
X86666Y7534D01*
X86097Y6792D01*
X85739Y5928D01*
X85617Y5000D01*
X85739Y4073D01*
X86097Y3208D01*
X86666Y2466D01*
X87408Y1897D01*
X88273Y1539D01*
X89200Y1417D01*
X90127Y1539D01*
X90992Y1897D01*
X91734Y2466D01*
X92303Y3208D01*
X92661Y4073D01*
X92783Y5000D01*
X92661Y5928D01*
X92303Y6792D01*
X91734Y7534D01*
X90992Y8103D01*
X90127Y8461D01*
X89200Y8583D01*
D02*
G37*
G36*
X189200D02*
X188273Y8461D01*
X187408Y8103D01*
X186666Y7534D01*
X186097Y6792D01*
X185739Y5928D01*
X185617Y5000D01*
X185739Y4073D01*
X186097Y3208D01*
X186666Y2466D01*
X187408Y1897D01*
X188273Y1539D01*
X189200Y1417D01*
X190127Y1539D01*
X190992Y1897D01*
X191734Y2466D01*
X192303Y3208D01*
X192661Y4073D01*
X192783Y5000D01*
X192661Y5928D01*
X192303Y6792D01*
X191734Y7534D01*
X190992Y8103D01*
X190127Y8461D01*
X189200Y8583D01*
D02*
G37*
G36*
X199200D02*
X198273Y8461D01*
X197408Y8103D01*
X196666Y7534D01*
X196097Y6792D01*
X195739Y5928D01*
X195617Y5000D01*
X195739Y4073D01*
X196097Y3208D01*
X196666Y2466D01*
X197408Y1897D01*
X198273Y1539D01*
X199200Y1417D01*
X200127Y1539D01*
X200992Y1897D01*
X201734Y2466D01*
X202303Y3208D01*
X202661Y4073D01*
X202783Y5000D01*
X202661Y5928D01*
X202303Y6792D01*
X201734Y7534D01*
X200992Y8103D01*
X200127Y8461D01*
X199200Y8583D01*
D02*
G37*
G36*
X169200D02*
X168273Y8461D01*
X167408Y8103D01*
X166666Y7534D01*
X166097Y6792D01*
X165739Y5928D01*
X165617Y5000D01*
X165739Y4073D01*
X166097Y3208D01*
X166666Y2466D01*
X167408Y1897D01*
X168273Y1539D01*
X169200Y1417D01*
X170127Y1539D01*
X170992Y1897D01*
X171734Y2466D01*
X172303Y3208D01*
X172661Y4073D01*
X172783Y5000D01*
X172661Y5928D01*
X172303Y6792D01*
X171734Y7534D01*
X170992Y8103D01*
X170127Y8461D01*
X169200Y8583D01*
D02*
G37*
G36*
X139200D02*
X138273Y8461D01*
X137408Y8103D01*
X136666Y7534D01*
X136097Y6792D01*
X135739Y5928D01*
X135617Y5000D01*
X135739Y4073D01*
X136097Y3208D01*
X136666Y2466D01*
X137408Y1897D01*
X138273Y1539D01*
X139200Y1417D01*
X140127Y1539D01*
X140992Y1897D01*
X141734Y2466D01*
X142303Y3208D01*
X142661Y4073D01*
X142783Y5000D01*
X142661Y5928D01*
X142303Y6792D01*
X141734Y7534D01*
X140992Y8103D01*
X140127Y8461D01*
X139200Y8583D01*
D02*
G37*
G36*
X149200D02*
X148273Y8461D01*
X147408Y8103D01*
X146666Y7534D01*
X146097Y6792D01*
X145739Y5928D01*
X145617Y5000D01*
X145739Y4073D01*
X146097Y3208D01*
X146666Y2466D01*
X147408Y1897D01*
X148273Y1539D01*
X149200Y1417D01*
X150127Y1539D01*
X150992Y1897D01*
X151734Y2466D01*
X152303Y3208D01*
X152661Y4073D01*
X152783Y5000D01*
X152661Y5928D01*
X152303Y6792D01*
X151734Y7534D01*
X150992Y8103D01*
X150127Y8461D01*
X149200Y8583D01*
D02*
G37*
G36*
X106705Y-20449D02*
X106173Y-20519D01*
X105211Y-20917D01*
X104386Y-21551D01*
X103752Y-22377D01*
X103354Y-23338D01*
X103284Y-23870D01*
X106705D01*
Y-20449D01*
D02*
G37*
G36*
X107705D02*
Y-23870D01*
X111126D01*
X111056Y-23338D01*
X110657Y-22377D01*
X110024Y-21551D01*
X109198Y-20917D01*
X108237Y-20519D01*
X107705Y-20449D01*
D02*
G37*
G36*
X97705D02*
Y-23870D01*
X101126D01*
X101056Y-23338D01*
X100657Y-22377D01*
X100024Y-21551D01*
X99198Y-20917D01*
X98237Y-20519D01*
X97705Y-20449D01*
D02*
G37*
G36*
X87705D02*
Y-23870D01*
X91126D01*
X91056Y-23338D01*
X90657Y-22377D01*
X90024Y-21551D01*
X89198Y-20917D01*
X88237Y-20519D01*
X87705Y-20449D01*
D02*
G37*
G36*
X96705D02*
X96173Y-20519D01*
X95211Y-20917D01*
X94386Y-21551D01*
X93752Y-22377D01*
X93354Y-23338D01*
X93284Y-23870D01*
X96705D01*
Y-20449D01*
D02*
G37*
G36*
X127705D02*
Y-23870D01*
X131126D01*
X131056Y-23338D01*
X130657Y-22377D01*
X130024Y-21551D01*
X129198Y-20917D01*
X128237Y-20519D01*
X127705Y-20449D01*
D02*
G37*
G36*
X136705Y-20417D02*
X133252D01*
Y-23870D01*
X136705D01*
Y-20417D01*
D02*
G37*
G36*
X126705Y-20449D02*
X126173Y-20519D01*
X125211Y-20917D01*
X124386Y-21551D01*
X123752Y-22377D01*
X123354Y-23338D01*
X123284Y-23870D01*
X126705D01*
Y-20449D01*
D02*
G37*
G36*
X116705D02*
X116173Y-20519D01*
X115211Y-20917D01*
X114386Y-21551D01*
X113752Y-22377D01*
X113354Y-23338D01*
X113284Y-23870D01*
X116705D01*
Y-20449D01*
D02*
G37*
G36*
X117705D02*
Y-23870D01*
X121126D01*
X121056Y-23338D01*
X120657Y-22377D01*
X120024Y-21551D01*
X119198Y-20917D01*
X118237Y-20519D01*
X117705Y-20449D01*
D02*
G37*
G36*
X86705D02*
X86173Y-20519D01*
X85211Y-20917D01*
X84386Y-21551D01*
X83752Y-22377D01*
X83354Y-23338D01*
X83284Y-23870D01*
X86705D01*
Y-20449D01*
D02*
G37*
G36*
X101126Y-24870D02*
X97705D01*
Y-28291D01*
X98237Y-28221D01*
X99198Y-27823D01*
X100024Y-27189D01*
X100657Y-26364D01*
X101056Y-25402D01*
X101126Y-24870D01*
D02*
G37*
G36*
X106705D02*
X103284D01*
X103354Y-25402D01*
X103752Y-26364D01*
X104386Y-27189D01*
X105211Y-27823D01*
X106173Y-28221D01*
X106705Y-28291D01*
Y-24870D01*
D02*
G37*
G36*
X96705D02*
X93284D01*
X93354Y-25402D01*
X93752Y-26364D01*
X94386Y-27189D01*
X95211Y-27823D01*
X96173Y-28221D01*
X96705Y-28291D01*
Y-24870D01*
D02*
G37*
G36*
X86705D02*
X83284D01*
X83354Y-25402D01*
X83752Y-26364D01*
X84386Y-27189D01*
X85211Y-27823D01*
X86173Y-28221D01*
X86705Y-28291D01*
Y-24870D01*
D02*
G37*
G36*
X91126D02*
X87705D01*
Y-28291D01*
X88237Y-28221D01*
X89198Y-27823D01*
X90024Y-27189D01*
X90657Y-26364D01*
X91056Y-25402D01*
X91126Y-24870D01*
D02*
G37*
G36*
X126705D02*
X123284D01*
X123354Y-25402D01*
X123752Y-26364D01*
X124386Y-27189D01*
X125211Y-27823D01*
X126173Y-28221D01*
X126705Y-28291D01*
Y-24870D01*
D02*
G37*
G36*
X131126D02*
X127705D01*
Y-28291D01*
X128237Y-28221D01*
X129198Y-27823D01*
X130024Y-27189D01*
X130657Y-26364D01*
X131056Y-25402D01*
X131126Y-24870D01*
D02*
G37*
G36*
X121126D02*
X117705D01*
Y-28291D01*
X118237Y-28221D01*
X119198Y-27823D01*
X120024Y-27189D01*
X120657Y-26364D01*
X121056Y-25402D01*
X121126Y-24870D01*
D02*
G37*
G36*
X111126D02*
X107705D01*
Y-28291D01*
X108237Y-28221D01*
X109198Y-27823D01*
X110024Y-27189D01*
X110657Y-26364D01*
X111056Y-25402D01*
X111126Y-24870D01*
D02*
G37*
G36*
X116705D02*
X113284D01*
X113354Y-25402D01*
X113752Y-26364D01*
X114386Y-27189D01*
X115211Y-27823D01*
X116173Y-28221D01*
X116705Y-28291D01*
Y-24870D01*
D02*
G37*
G36*
X141157Y-20417D02*
X137705D01*
Y-23870D01*
X141157D01*
Y-20417D01*
D02*
G37*
G36*
X149200Y-1417D02*
X148273Y-1539D01*
X147408Y-1897D01*
X146666Y-2466D01*
X146097Y-3208D01*
X145739Y-4073D01*
X145617Y-5000D01*
X145739Y-5928D01*
X146097Y-6792D01*
X146666Y-7534D01*
X147408Y-8103D01*
X148273Y-8461D01*
X149200Y-8583D01*
X150127Y-8461D01*
X150992Y-8103D01*
X151734Y-7534D01*
X152303Y-6792D01*
X152661Y-5928D01*
X152783Y-5000D01*
X152661Y-4073D01*
X152303Y-3208D01*
X151734Y-2466D01*
X150992Y-1897D01*
X150127Y-1539D01*
X149200Y-1417D01*
D02*
G37*
G36*
X159200D02*
X158273Y-1539D01*
X157408Y-1897D01*
X156666Y-2466D01*
X156097Y-3208D01*
X155739Y-4073D01*
X155617Y-5000D01*
X155739Y-5928D01*
X156097Y-6792D01*
X156666Y-7534D01*
X157408Y-8103D01*
X158273Y-8461D01*
X159200Y-8583D01*
X160127Y-8461D01*
X160992Y-8103D01*
X161734Y-7534D01*
X162303Y-6792D01*
X162661Y-5928D01*
X162783Y-5000D01*
X162661Y-4073D01*
X162303Y-3208D01*
X161734Y-2466D01*
X160992Y-1897D01*
X160127Y-1539D01*
X159200Y-1417D01*
D02*
G37*
G36*
X129200D02*
X128273Y-1539D01*
X127408Y-1897D01*
X126666Y-2466D01*
X126097Y-3208D01*
X125739Y-4073D01*
X125617Y-5000D01*
X125739Y-5928D01*
X126097Y-6792D01*
X126666Y-7534D01*
X127408Y-8103D01*
X128273Y-8461D01*
X129200Y-8583D01*
X130127Y-8461D01*
X130992Y-8103D01*
X131734Y-7534D01*
X132303Y-6792D01*
X132661Y-5928D01*
X132783Y-5000D01*
X132661Y-4073D01*
X132303Y-3208D01*
X131734Y-2466D01*
X130992Y-1897D01*
X130127Y-1539D01*
X129200Y-1417D01*
D02*
G37*
G36*
X109200D02*
X108273Y-1539D01*
X107408Y-1897D01*
X106666Y-2466D01*
X106097Y-3208D01*
X105739Y-4073D01*
X105617Y-5000D01*
X105739Y-5928D01*
X106097Y-6792D01*
X106666Y-7534D01*
X107408Y-8103D01*
X108273Y-8461D01*
X109200Y-8583D01*
X110127Y-8461D01*
X110992Y-8103D01*
X111734Y-7534D01*
X112303Y-6792D01*
X112661Y-5928D01*
X112783Y-5000D01*
X112661Y-4073D01*
X112303Y-3208D01*
X111734Y-2466D01*
X110992Y-1897D01*
X110127Y-1539D01*
X109200Y-1417D01*
D02*
G37*
G36*
X119200D02*
X118273Y-1539D01*
X117408Y-1897D01*
X116666Y-2466D01*
X116097Y-3208D01*
X115739Y-4073D01*
X115617Y-5000D01*
X115739Y-5928D01*
X116097Y-6792D01*
X116666Y-7534D01*
X117408Y-8103D01*
X118273Y-8461D01*
X119200Y-8583D01*
X120127Y-8461D01*
X120992Y-8103D01*
X121734Y-7534D01*
X122303Y-6792D01*
X122661Y-5928D01*
X122783Y-5000D01*
X122661Y-4073D01*
X122303Y-3208D01*
X121734Y-2466D01*
X120992Y-1897D01*
X120127Y-1539D01*
X119200Y-1417D01*
D02*
G37*
G36*
X199200D02*
X198273Y-1539D01*
X197408Y-1897D01*
X196666Y-2466D01*
X196097Y-3208D01*
X195739Y-4073D01*
X195617Y-5000D01*
X195739Y-5928D01*
X196097Y-6792D01*
X196666Y-7534D01*
X197408Y-8103D01*
X198273Y-8461D01*
X199200Y-8583D01*
X200127Y-8461D01*
X200992Y-8103D01*
X201734Y-7534D01*
X202303Y-6792D01*
X202661Y-5928D01*
X202783Y-5000D01*
X202661Y-4073D01*
X202303Y-3208D01*
X201734Y-2466D01*
X200992Y-1897D01*
X200127Y-1539D01*
X199200Y-1417D01*
D02*
G37*
G36*
X22753Y-1447D02*
X15647D01*
Y-8553D01*
X22753D01*
Y-1447D01*
D02*
G37*
G36*
X189200Y-1417D02*
X188273Y-1539D01*
X187408Y-1897D01*
X186666Y-2466D01*
X186097Y-3208D01*
X185739Y-4073D01*
X185617Y-5000D01*
X185739Y-5928D01*
X186097Y-6792D01*
X186666Y-7534D01*
X187408Y-8103D01*
X188273Y-8461D01*
X189200Y-8583D01*
X190127Y-8461D01*
X190992Y-8103D01*
X191734Y-7534D01*
X192303Y-6792D01*
X192661Y-5928D01*
X192783Y-5000D01*
X192661Y-4073D01*
X192303Y-3208D01*
X191734Y-2466D01*
X190992Y-1897D01*
X190127Y-1539D01*
X189200Y-1417D01*
D02*
G37*
G36*
X169200D02*
X168273Y-1539D01*
X167408Y-1897D01*
X166666Y-2466D01*
X166097Y-3208D01*
X165739Y-4073D01*
X165617Y-5000D01*
X165739Y-5928D01*
X166097Y-6792D01*
X166666Y-7534D01*
X167408Y-8103D01*
X168273Y-8461D01*
X169200Y-8583D01*
X170127Y-8461D01*
X170992Y-8103D01*
X171734Y-7534D01*
X172303Y-6792D01*
X172661Y-5928D01*
X172783Y-5000D01*
X172661Y-4073D01*
X172303Y-3208D01*
X171734Y-2466D01*
X170992Y-1897D01*
X170127Y-1539D01*
X169200Y-1417D01*
D02*
G37*
G36*
X179200D02*
X178273Y-1539D01*
X177408Y-1897D01*
X176666Y-2466D01*
X176097Y-3208D01*
X175739Y-4073D01*
X175617Y-5000D01*
X175739Y-5928D01*
X176097Y-6792D01*
X176666Y-7534D01*
X177408Y-8103D01*
X178273Y-8461D01*
X179200Y-8583D01*
X180127Y-8461D01*
X180992Y-8103D01*
X181734Y-7534D01*
X182303Y-6792D01*
X182661Y-5928D01*
X182783Y-5000D01*
X182661Y-4073D01*
X182303Y-3208D01*
X181734Y-2466D01*
X180992Y-1897D01*
X180127Y-1539D01*
X179200Y-1417D01*
D02*
G37*
G36*
X99200D02*
X98273Y-1539D01*
X97408Y-1897D01*
X96666Y-2466D01*
X96097Y-3208D01*
X95739Y-4073D01*
X95617Y-5000D01*
X95739Y-5928D01*
X96097Y-6792D01*
X96666Y-7534D01*
X97408Y-8103D01*
X98273Y-8461D01*
X99200Y-8583D01*
X100127Y-8461D01*
X100992Y-8103D01*
X101734Y-7534D01*
X102303Y-6792D01*
X102661Y-5928D01*
X102783Y-5000D01*
X102661Y-4073D01*
X102303Y-3208D01*
X101734Y-2466D01*
X100992Y-1897D01*
X100127Y-1539D01*
X99200Y-1417D01*
D02*
G37*
G36*
X143121Y-5500D02*
X139700D01*
Y-8921D01*
X140232Y-8851D01*
X141193Y-8453D01*
X142019Y-7819D01*
X142653Y-6993D01*
X143051Y-6032D01*
X143121Y-5500D01*
D02*
G37*
G36*
X208700D02*
X205279D01*
X205349Y-6032D01*
X205747Y-6993D01*
X206381Y-7819D01*
X207207Y-8453D01*
X208168Y-8851D01*
X208700Y-8921D01*
Y-5500D01*
D02*
G37*
G36*
X138700D02*
X135279D01*
X135349Y-6032D01*
X135747Y-6993D01*
X136381Y-7819D01*
X137207Y-8453D01*
X138168Y-8851D01*
X138700Y-8921D01*
Y-5500D01*
D02*
G37*
G36*
X58700D02*
X55279D01*
X55349Y-6032D01*
X55747Y-6993D01*
X56381Y-7819D01*
X57207Y-8453D01*
X58168Y-8851D01*
X58700Y-8921D01*
Y-5500D01*
D02*
G37*
G36*
X63121D02*
X59700D01*
Y-8921D01*
X60232Y-8851D01*
X61193Y-8453D01*
X62019Y-7819D01*
X62653Y-6993D01*
X63051Y-6032D01*
X63121Y-5500D01*
D02*
G37*
G36*
X79200Y-1417D02*
X78273Y-1539D01*
X77408Y-1897D01*
X76666Y-2466D01*
X76097Y-3208D01*
X75739Y-4073D01*
X75617Y-5000D01*
X75739Y-5928D01*
X76097Y-6792D01*
X76666Y-7534D01*
X77408Y-8103D01*
X78273Y-8461D01*
X79200Y-8583D01*
X80127Y-8461D01*
X80992Y-8103D01*
X81734Y-7534D01*
X82303Y-6792D01*
X82661Y-5928D01*
X82783Y-5000D01*
X82661Y-4073D01*
X82303Y-3208D01*
X81734Y-2466D01*
X80992Y-1897D01*
X80127Y-1539D01*
X79200Y-1417D01*
D02*
G37*
G36*
X89200D02*
X88273Y-1539D01*
X87408Y-1897D01*
X86666Y-2466D01*
X86097Y-3208D01*
X85739Y-4073D01*
X85617Y-5000D01*
X85739Y-5928D01*
X86097Y-6792D01*
X86666Y-7534D01*
X87408Y-8103D01*
X88273Y-8461D01*
X89200Y-8583D01*
X90127Y-8461D01*
X90992Y-8103D01*
X91734Y-7534D01*
X92303Y-6792D01*
X92661Y-5928D01*
X92783Y-5000D01*
X92661Y-4073D01*
X92303Y-3208D01*
X91734Y-2466D01*
X90992Y-1897D01*
X90127Y-1539D01*
X89200Y-1417D01*
D02*
G37*
G36*
X49200D02*
X48273Y-1539D01*
X47408Y-1897D01*
X46666Y-2466D01*
X46097Y-3208D01*
X45739Y-4073D01*
X45617Y-5000D01*
X45739Y-5928D01*
X46097Y-6792D01*
X46666Y-7534D01*
X47408Y-8103D01*
X48273Y-8461D01*
X49200Y-8583D01*
X50127Y-8461D01*
X50992Y-8103D01*
X51734Y-7534D01*
X52303Y-6792D01*
X52661Y-5928D01*
X52783Y-5000D01*
X52661Y-4073D01*
X52303Y-3208D01*
X51734Y-2466D01*
X50992Y-1897D01*
X50127Y-1539D01*
X49200Y-1417D01*
D02*
G37*
G36*
X213121Y-5500D02*
X209700D01*
Y-8921D01*
X210232Y-8851D01*
X211193Y-8453D01*
X212019Y-7819D01*
X212653Y-6993D01*
X213051Y-6032D01*
X213121Y-5500D01*
D02*
G37*
G36*
X69200Y-1417D02*
X68273Y-1539D01*
X67408Y-1897D01*
X66666Y-2466D01*
X66097Y-3208D01*
X65739Y-4073D01*
X65617Y-5000D01*
X65739Y-5928D01*
X66097Y-6792D01*
X66666Y-7534D01*
X67408Y-8103D01*
X67976Y-8339D01*
Y-11396D01*
X64076Y-15296D01*
X41849D01*
X41708Y-14956D01*
X41211Y-14309D01*
X40563Y-13812D01*
X39809Y-13499D01*
X39000Y-13393D01*
X38191Y-13499D01*
X37437Y-13812D01*
X36789Y-14309D01*
X36292Y-14956D01*
X36282Y-14981D01*
X35082Y-14743D01*
Y-10848D01*
X37704Y-8226D01*
X38273Y-8461D01*
X39200Y-8583D01*
X40127Y-8461D01*
X40992Y-8103D01*
X41734Y-7534D01*
X42303Y-6792D01*
X42661Y-5928D01*
X42783Y-5000D01*
X42661Y-4073D01*
X42303Y-3208D01*
X41734Y-2466D01*
X40992Y-1897D01*
X40127Y-1539D01*
X39200Y-1417D01*
X38273Y-1539D01*
X37408Y-1897D01*
X36666Y-2466D01*
X36097Y-3208D01*
X35739Y-4073D01*
X35617Y-5000D01*
X35739Y-5928D01*
X35974Y-6496D01*
X32993Y-9477D01*
X32728Y-9873D01*
X32635Y-10342D01*
Y-41246D01*
X32295Y-41387D01*
X31647Y-41884D01*
X31150Y-42531D01*
X30838Y-43285D01*
X30731Y-44094D01*
X30838Y-44904D01*
X31094Y-45522D01*
X25640Y-50977D01*
X8353D01*
Y-48647D01*
X1247D01*
Y-55753D01*
X8353D01*
Y-53424D01*
X26146D01*
X26615Y-53330D01*
X27012Y-53065D01*
X32987Y-47089D01*
X33049Y-47115D01*
X33858Y-47221D01*
X34668Y-47115D01*
X35422Y-46802D01*
X36069Y-46305D01*
X36566Y-45658D01*
X36878Y-44904D01*
X36985Y-44094D01*
X36878Y-43285D01*
X36566Y-42531D01*
X36069Y-41884D01*
X35422Y-41387D01*
X35082Y-41246D01*
Y-18297D01*
X36282Y-18058D01*
X36292Y-18083D01*
X36789Y-18731D01*
X37437Y-19228D01*
X38191Y-19540D01*
X39000Y-19646D01*
X39809Y-19540D01*
X40563Y-19228D01*
X41211Y-18731D01*
X41708Y-18083D01*
X41849Y-17743D01*
X64583D01*
X65051Y-17650D01*
X65448Y-17385D01*
X70065Y-12767D01*
X70330Y-12371D01*
X70424Y-11902D01*
Y-8339D01*
X70992Y-8103D01*
X71734Y-7534D01*
X72303Y-6792D01*
X72661Y-5928D01*
X72783Y-5000D01*
X72661Y-4073D01*
X72303Y-3208D01*
X71734Y-2466D01*
X70992Y-1897D01*
X70127Y-1539D01*
X69200Y-1417D01*
D02*
G37*
%LPD*%
D10*
X162264Y-163087D02*
D03*
Y-170173D02*
D03*
Y-148520D02*
D03*
Y-155606D02*
D03*
X179980Y-163087D02*
D03*
Y-170173D02*
D03*
Y-148520D02*
D03*
Y-155606D02*
D03*
X162264Y-109020D02*
D03*
Y-116106D02*
D03*
X179980Y-123587D02*
D03*
Y-130673D02*
D03*
Y-109020D02*
D03*
Y-116106D02*
D03*
X162264Y-123587D02*
D03*
Y-130673D02*
D03*
Y-69520D02*
D03*
Y-76606D02*
D03*
X179980Y-84087D02*
D03*
Y-91173D02*
D03*
Y-69520D02*
D03*
Y-76606D02*
D03*
X162264Y-84087D02*
D03*
Y-91173D02*
D03*
Y-30020D02*
D03*
Y-37106D02*
D03*
X179980Y-44587D02*
D03*
Y-51673D02*
D03*
Y-30020D02*
D03*
Y-37106D02*
D03*
X162264Y-44587D02*
D03*
Y-51673D02*
D03*
D11*
X187854Y-150882D02*
D03*
X194941D02*
D03*
X202815D02*
D03*
X209902D02*
D03*
X202815Y-111382D02*
D03*
X209902D02*
D03*
X187854D02*
D03*
X194941D02*
D03*
X202815Y-71882D02*
D03*
X209902D02*
D03*
X187854D02*
D03*
X194941D02*
D03*
X202815Y-32382D02*
D03*
X209902D02*
D03*
X187854D02*
D03*
X194941D02*
D03*
D13*
X154862Y-148520D02*
X162264D01*
X153996Y-149386D02*
X154862Y-148520D01*
X154783Y-170173D02*
X162264D01*
X153996Y-169386D02*
X154783Y-170173D01*
X202815Y-162772D02*
X210610Y-170567D01*
X202815Y-162772D02*
Y-150882D01*
X172500Y-170173D02*
X179980D01*
X171713Y-169386D02*
X172500Y-170173D01*
X172579Y-148520D02*
X179980D01*
X171713Y-149386D02*
X172579Y-148520D01*
X187854Y-157811D02*
X190610Y-160567D01*
X187854Y-157811D02*
Y-150882D01*
X153996Y-109886D02*
X154862Y-109020D01*
X162264D01*
X153996Y-129886D02*
X154783Y-130673D01*
X202815Y-123272D02*
Y-111382D01*
Y-123272D02*
X210610Y-131067D01*
X171713Y-129886D02*
X172500Y-130673D01*
X171713Y-109886D02*
X172579Y-109020D01*
X179980D01*
X187854Y-118311D02*
X190610Y-121067D01*
X187854Y-118311D02*
Y-111382D01*
X153996Y-70386D02*
X154862Y-69520D01*
X162264D01*
X153996Y-90386D02*
X154783Y-91173D01*
X202815Y-83772D02*
X210610Y-91567D01*
X202815Y-83772D02*
Y-71882D01*
X171713Y-90386D02*
X172500Y-91173D01*
X179980D01*
X171713Y-70386D02*
X172579Y-69520D01*
X179980D01*
X187854Y-78811D02*
X190610Y-81567D01*
X187854Y-78811D02*
Y-71882D01*
X153996Y-30886D02*
X154862Y-30020D01*
X153996Y-50886D02*
X154783Y-51673D01*
X171713Y-50886D02*
X172500Y-51673D01*
X179980D01*
X171713Y-30886D02*
X172579Y-30020D01*
X161476Y-50886D02*
X162264Y-51673D01*
X154862Y-30020D02*
X162264D01*
X172579D02*
X179980D01*
X153996Y-50886D02*
X161476D01*
X202815Y-44272D02*
X210610Y-52067D01*
X202815Y-44272D02*
Y-32382D01*
X187854Y-39311D02*
Y-32382D01*
Y-39311D02*
X190610Y-42067D01*
X154783Y-91173D02*
X162264D01*
X172500Y-130673D02*
X179980D01*
X154783D02*
X162264D01*
X144608Y-36888D02*
X145637Y-35859D01*
X178123D01*
X144608Y-76258D02*
X145591Y-75275D01*
X178649D01*
X144608Y-115628D02*
X145231Y-115005D01*
X178879D01*
X144608Y-154998D02*
X145172Y-154435D01*
X178809D01*
D15*
X4800Y-30600D02*
X18400D01*
X29200Y-19800D02*
Y-5000D01*
X194941Y-111382D02*
Y-105610D01*
X18400Y-30600D02*
X29200Y-19800D01*
X209902Y-111382D02*
Y-105217D01*
Y-150882D02*
Y-143929D01*
X194941Y-150882D02*
Y-143929D01*
X58268Y-59449D02*
Y-45669D01*
Y-59449D02*
X66142Y-67323D01*
X4800Y-52200D02*
X26146D01*
X33858Y-44488D01*
X69200Y-11902D02*
Y-5000D01*
X108504Y-45669D02*
X117205Y-54370D01*
X62598Y-60630D02*
X67323Y-65354D01*
X42913Y-39370D02*
X50787D01*
X54331Y-42913D01*
X66142Y-61024D02*
X68504Y-63386D01*
X33858Y-10342D02*
X39200Y-5000D01*
X33858Y-44488D02*
Y-10342D01*
X57087Y-32283D02*
X66142D01*
X123386Y-40551D02*
X137205Y-54370D01*
X63386Y-37795D02*
Y-37008D01*
Y-37795D02*
X66142Y-40551D01*
Y-61024D02*
Y-40551D01*
X90945Y-31890D02*
X125984D01*
X62598Y-60630D02*
Y-42913D01*
X77953Y-38583D02*
Y-29134D01*
X84252Y-35827D02*
X126378D01*
X79528Y-45669D02*
X108504D01*
X66142Y-32283D02*
X79528Y-45669D01*
X79921Y-40551D02*
X123386D01*
X77953Y-38583D02*
X79921Y-40551D01*
Y-43307D02*
X116142D01*
X127205Y-54370D01*
X54331Y-59055D02*
Y-42913D01*
Y-59055D02*
X64567Y-69291D01*
X135827Y-125984D02*
X148031Y-138189D01*
X133465Y-126772D02*
X147244Y-140551D01*
X54724Y-29921D02*
X57087Y-32283D01*
X42913Y-33071D02*
X52756D01*
X62598Y-42913D01*
X130315Y-69291D02*
X133465Y-72441D01*
Y-126772D02*
Y-72441D01*
X64567Y-69291D02*
X130315D01*
X66142Y-67323D02*
X131890D01*
X135827Y-71260D01*
Y-125984D02*
Y-71260D01*
X67323Y-65354D02*
X133465D01*
X138189Y-70079D01*
Y-90945D02*
Y-70079D01*
X68504Y-63386D02*
X135039D01*
X140551Y-68898D01*
Y-89764D02*
Y-68898D01*
X136614Y-36614D02*
X138583D01*
X132283Y-32283D02*
X138583D01*
X137992Y-36024D02*
X138583Y-36614D01*
X137992Y-36024D02*
X153150Y-20866D01*
X125984Y-31890D02*
X152893Y-58798D01*
X203287D01*
X140551Y-89764D02*
X151787Y-101000D01*
X205685D01*
X209902Y-105217D01*
X138189Y-90945D02*
X150244Y-103000D01*
X192331D01*
X194941Y-105610D01*
X153646Y-20752D02*
X183311D01*
X138583Y-32283D02*
X152366Y-18500D01*
X203287Y-58798D02*
X210000Y-65512D01*
Y-72000D02*
Y-65512D01*
X188598Y-60598D02*
X194941Y-66941D01*
Y-71882D02*
Y-66941D01*
X191563Y-140551D02*
X194941Y-143929D01*
X147244Y-140551D02*
X191563D01*
X204161Y-138189D02*
X209902Y-143929D01*
X148031Y-138189D02*
X204161D01*
X183311Y-20752D02*
X188862D01*
X194941Y-26831D01*
Y-32382D02*
Y-26831D01*
X151150Y-60598D02*
X188598D01*
X126378Y-35827D02*
X151150Y-60598D01*
X152366Y-18500D02*
X204500D01*
X209902Y-23902D01*
Y-32382D02*
Y-23902D01*
X44500Y-25000D02*
X61614D01*
X79921Y-43307D01*
X39000Y-16520D02*
X64583D01*
X69200Y-11902D01*
D16*
X228400Y0D02*
D03*
X0D02*
D03*
Y-192900D02*
D03*
X228400D02*
D03*
D17*
X19200Y-5000D02*
D03*
X4800Y-52200D02*
D03*
Y-30600D02*
D03*
D18*
X19200Y5000D02*
D03*
X29200Y-5000D02*
D03*
Y5000D02*
D03*
X39200Y-5000D02*
D03*
Y5000D02*
D03*
X49200Y-5000D02*
D03*
Y5000D02*
D03*
X59200Y-5000D02*
D03*
Y5000D02*
D03*
X69200Y-5000D02*
D03*
Y5000D02*
D03*
X79200Y-5000D02*
D03*
Y5000D02*
D03*
X89200Y-5000D02*
D03*
Y5000D02*
D03*
X99200Y-5000D02*
D03*
Y5000D02*
D03*
X109200Y-5000D02*
D03*
Y5000D02*
D03*
X119200Y-5000D02*
D03*
Y5000D02*
D03*
X129200Y-5000D02*
D03*
Y5000D02*
D03*
X139200Y-5000D02*
D03*
Y5000D02*
D03*
X149200Y-5000D02*
D03*
Y5000D02*
D03*
X159200Y-5000D02*
D03*
Y5000D02*
D03*
X169200Y-5000D02*
D03*
Y5000D02*
D03*
X179200Y-5000D02*
D03*
Y5000D02*
D03*
X189200Y-5000D02*
D03*
Y5000D02*
D03*
X199200Y-5000D02*
D03*
Y5000D02*
D03*
X209200Y-5000D02*
D03*
Y5000D02*
D03*
X-5200Y-52200D02*
D03*
X87205Y-54370D02*
D03*
X97205D02*
D03*
X107205D02*
D03*
X117205D02*
D03*
X127205D02*
D03*
X137205D02*
D03*
X87205Y-24370D02*
D03*
X153996Y-70386D02*
D03*
Y-80386D02*
D03*
X171713Y-70386D02*
D03*
Y-80386D02*
D03*
X210610Y-91567D02*
D03*
Y-81567D02*
D03*
X190610D02*
D03*
Y-91567D02*
D03*
X153996Y-149386D02*
D03*
Y-159386D02*
D03*
X171713Y-149386D02*
D03*
Y-159386D02*
D03*
X210610Y-170567D02*
D03*
Y-160567D02*
D03*
X190610D02*
D03*
Y-170567D02*
D03*
X153996Y-109886D02*
D03*
Y-119886D02*
D03*
X171713Y-109886D02*
D03*
Y-119886D02*
D03*
X210610Y-131067D02*
D03*
Y-121067D02*
D03*
X190610D02*
D03*
Y-131067D02*
D03*
X153996Y-30886D02*
D03*
Y-40886D02*
D03*
X171713Y-30886D02*
D03*
Y-40886D02*
D03*
X210610Y-52067D02*
D03*
Y-42067D02*
D03*
X190610D02*
D03*
Y-52067D02*
D03*
X11811Y-172996D02*
D03*
X21811D02*
D03*
Y-152996D02*
D03*
X11811D02*
D03*
X63484Y-172996D02*
D03*
X73484D02*
D03*
Y-152996D02*
D03*
X63484D02*
D03*
X115157Y-172996D02*
D03*
X125157D02*
D03*
Y-152996D02*
D03*
X115157D02*
D03*
X-5200Y-30600D02*
D03*
X11811Y-106614D02*
D03*
X21811D02*
D03*
Y-86614D02*
D03*
X11811D02*
D03*
X63484Y-106614D02*
D03*
X73484D02*
D03*
Y-86614D02*
D03*
X63484D02*
D03*
X115157Y-106614D02*
D03*
X125157D02*
D03*
Y-86614D02*
D03*
X115157D02*
D03*
D19*
X97205Y-24370D02*
D03*
X107205D02*
D03*
X117205D02*
D03*
X127205D02*
D03*
D20*
X137205D02*
D03*
D21*
X153996Y-90386D02*
D03*
X171713D02*
D03*
X153996Y-169386D02*
D03*
X171713D02*
D03*
X153996Y-129886D02*
D03*
X171713D02*
D03*
X153996Y-50886D02*
D03*
X171713D02*
D03*
D22*
X42913Y-39370D02*
D03*
X58268Y-45669D02*
D03*
X33858Y-44094D02*
D03*
X42913Y-33071D02*
D03*
X63386Y-37008D02*
D03*
X77953Y-29134D02*
D03*
X90945Y-31890D02*
D03*
X84252Y-35827D02*
D03*
X54724Y-29921D02*
D03*
X144608Y-115628D02*
D03*
Y-76258D02*
D03*
Y-154998D02*
D03*
Y-36888D02*
D03*
X132283Y-32283D02*
D03*
X136614Y-36614D02*
D03*
X19000Y-36000D02*
D03*
X30000D02*
D03*
X11000Y-20000D02*
D03*
X72000Y-25500D02*
D03*
X44500Y-25000D02*
D03*
X39000Y-16520D02*
D03*
M02*
