M48
;Layer_Color=9474304
;FILE_FORMAT=2:5
INCH,LZ
;TYPE=PLATED
T1F00S00C0.02800
T2F00S00C0.03543
T3F00S00C0.11100
%
T01
X0144608Y-0154998
Y-0115628
Y-0076258
Y-0036888
X0136614Y-0036614
X0132283Y-0032283
X0090945Y-003189
X0084252Y-0035827
X0077953Y-0029134
X0072Y-00255
X0063386Y-0037008
X0058268Y-0045669
X0054724Y-0029921
X0042913Y-0033071
Y-003937
X00445Y-0025
X0039Y-001652
X003Y-0036
X0019
X0033858Y-0044094
X0011Y-002
T02
X0011811Y-0172996
X0021811
Y-0152996
X0011811
X0063484
X0073484
Y-0172996
X0063484
X0115157
X0125157
Y-0152996
X0115157
X0153996Y-0159386
Y-0169386
X0171713
Y-0159386
X019061Y-0160567
Y-0170567
X021061
Y-0160567
Y-0131067
Y-0121067
Y-0091567
Y-0081567
Y-0052067
Y-0042067
X02092Y-0005
X01992
Y0005
X02092
X01892
X01792
X01692
X01592
X01492
X01392
X01292
X01192
X01092
X00992
X00892
X00792
X00692
X00592
X00492
Y-0005
X00592
X00692
X00792
X00892
X00992
X01092
X01192
X01292
X01392
X01492
X01592
X01692
X01792
X01892
X019061Y-0042067
Y-0052067
X0171713Y-0050886
Y-0040886
Y-0030886
X0153996
Y-0040886
Y-0050886
Y-0070386
Y-0080386
Y-0090386
X0171713
Y-0080386
Y-0070386
X019061Y-0081567
Y-0091567
Y-0121067
Y-0131067
X0171713Y-0129886
Y-0119886
Y-0109886
X0153996
Y-0119886
Y-0129886
Y-0149386
X0171713
X0125157Y-0106614
X0115157
Y-0086614
X0125157
X0127205Y-005437
X0117205
X0107205
X0097205
X0087205
Y-002437
X0097205
X0107205
X0117205
X0127205
X0137205
Y-005437
X0073484Y-0086614
X0063484
Y-0106614
X0073484
X0021811
X0011811
Y-0086614
X0021811
X00048Y-00522
X-00052
Y-00306
X00048
X00192Y-0005
Y0005
X00292
Y-0005
X00392
Y0005
T03
X0Y-01929
X02284
Y0
X0
M30
