G04 Layer_Color=8388736*
%FSLAX25Y25*%
%MOIN*%
G70*
G01*
G75*
%ADD28R,0.05912X0.05124*%
%ADD29R,0.05124X0.05912*%
%ADD30C,0.11500*%
%ADD31R,0.06306X0.06306*%
%ADD32C,0.06306*%
%ADD33C,0.06306*%
%ADD34R,0.06306X0.06306*%
%ADD35R,0.06306X0.06306*%
%ADD36C,0.05400*%
G36*
X50896Y-44202D02*
X46208D01*
Y-42215D01*
X50896D01*
Y-44202D01*
D02*
G37*
G36*
X73870Y-46761D02*
X69183D01*
Y-44774D01*
X73870D01*
Y-46761D01*
D02*
G37*
G36*
Y-44202D02*
X69183D01*
Y-42215D01*
X73870D01*
Y-44202D01*
D02*
G37*
G36*
Y-41643D02*
X69183D01*
Y-39656D01*
X73870D01*
Y-41643D01*
D02*
G37*
G36*
X50896D02*
X46208D01*
Y-39656D01*
X50896D01*
Y-41643D01*
D02*
G37*
G36*
X73870Y-51880D02*
X69183D01*
Y-49892D01*
X73870D01*
Y-51880D01*
D02*
G37*
G36*
X50896D02*
X46208D01*
Y-49892D01*
X50896D01*
Y-51880D01*
D02*
G37*
G36*
Y-49321D02*
X46208D01*
Y-47333D01*
X50896D01*
Y-49321D01*
D02*
G37*
G36*
Y-46761D02*
X46208D01*
Y-44774D01*
X50896D01*
Y-46761D01*
D02*
G37*
G36*
X73870Y-49321D02*
X69183D01*
Y-47333D01*
X73870D01*
Y-49321D01*
D02*
G37*
G36*
X50896Y-31407D02*
X46208D01*
Y-29420D01*
X50896D01*
Y-31407D01*
D02*
G37*
G36*
X73870Y-33966D02*
X69183D01*
Y-31979D01*
X73870D01*
Y-33966D01*
D02*
G37*
G36*
Y-31407D02*
X69183D01*
Y-29420D01*
X73870D01*
Y-31407D01*
D02*
G37*
G36*
Y-28848D02*
X69183D01*
Y-26861D01*
X73870D01*
Y-28848D01*
D02*
G37*
G36*
X50896D02*
X46208D01*
Y-26861D01*
X50896D01*
Y-28848D01*
D02*
G37*
G36*
X73870Y-39084D02*
X69183D01*
Y-37097D01*
X73870D01*
Y-39084D01*
D02*
G37*
G36*
X50896D02*
X46208D01*
Y-37097D01*
X50896D01*
Y-39084D01*
D02*
G37*
G36*
Y-36525D02*
X46208D01*
Y-34538D01*
X50896D01*
Y-36525D01*
D02*
G37*
G36*
Y-33966D02*
X46208D01*
Y-31979D01*
X50896D01*
Y-33966D01*
D02*
G37*
G36*
X73870Y-36525D02*
X69183D01*
Y-34538D01*
X73870D01*
Y-36525D01*
D02*
G37*
D28*
X30700Y-25257D02*
D03*
Y-32343D02*
D03*
X18600Y-25157D02*
D03*
Y-32243D02*
D03*
D29*
X42520Y-18898D02*
D03*
X49606D02*
D03*
X64173Y-18898D02*
D03*
X57087D02*
D03*
X-4543Y-42000D02*
D03*
X2543D02*
D03*
X-4543Y-20000D02*
D03*
X2543D02*
D03*
X18638Y-15500D02*
D03*
X11551D02*
D03*
D30*
X228400Y0D02*
D03*
X0D02*
D03*
Y-192900D02*
D03*
X228400D02*
D03*
D31*
X19200Y-5000D02*
D03*
X4800Y-52200D02*
D03*
Y-30600D02*
D03*
D32*
X19200Y5000D02*
D03*
X29200Y-5000D02*
D03*
Y5000D02*
D03*
X39200Y-5000D02*
D03*
Y5000D02*
D03*
X49200Y-5000D02*
D03*
Y5000D02*
D03*
X59200Y-5000D02*
D03*
Y5000D02*
D03*
X69200Y-5000D02*
D03*
Y5000D02*
D03*
X79200Y-5000D02*
D03*
Y5000D02*
D03*
X89200Y-5000D02*
D03*
Y5000D02*
D03*
X99200Y-5000D02*
D03*
Y5000D02*
D03*
X109200Y-5000D02*
D03*
Y5000D02*
D03*
X119200Y-5000D02*
D03*
Y5000D02*
D03*
X129200Y-5000D02*
D03*
Y5000D02*
D03*
X139200Y-5000D02*
D03*
Y5000D02*
D03*
X149200Y-5000D02*
D03*
Y5000D02*
D03*
X159200Y-5000D02*
D03*
Y5000D02*
D03*
X169200Y-5000D02*
D03*
Y5000D02*
D03*
X179200Y-5000D02*
D03*
Y5000D02*
D03*
X189200Y-5000D02*
D03*
Y5000D02*
D03*
X199200Y-5000D02*
D03*
Y5000D02*
D03*
X209200Y-5000D02*
D03*
Y5000D02*
D03*
X-5200Y-52200D02*
D03*
X87205Y-54370D02*
D03*
X97205D02*
D03*
X107205D02*
D03*
X117205D02*
D03*
X127205D02*
D03*
X137205D02*
D03*
X87205Y-24370D02*
D03*
X153996Y-70386D02*
D03*
Y-80386D02*
D03*
X171713Y-70386D02*
D03*
Y-80386D02*
D03*
X210610Y-91567D02*
D03*
Y-81567D02*
D03*
X190610D02*
D03*
Y-91567D02*
D03*
X153996Y-149386D02*
D03*
Y-159386D02*
D03*
X171713Y-149386D02*
D03*
Y-159386D02*
D03*
X210610Y-170567D02*
D03*
Y-160567D02*
D03*
X190610D02*
D03*
Y-170567D02*
D03*
X153996Y-109886D02*
D03*
Y-119886D02*
D03*
X171713Y-109886D02*
D03*
Y-119886D02*
D03*
X210610Y-131067D02*
D03*
Y-121067D02*
D03*
X190610D02*
D03*
Y-131067D02*
D03*
X153996Y-30886D02*
D03*
Y-40886D02*
D03*
X171713Y-30886D02*
D03*
Y-40886D02*
D03*
X210610Y-52067D02*
D03*
Y-42067D02*
D03*
X190610D02*
D03*
Y-52067D02*
D03*
X11811Y-172996D02*
D03*
X21811D02*
D03*
Y-152996D02*
D03*
X11811D02*
D03*
X63484Y-172996D02*
D03*
X73484D02*
D03*
Y-152996D02*
D03*
X63484D02*
D03*
X115157Y-172996D02*
D03*
X125157D02*
D03*
Y-152996D02*
D03*
X115157D02*
D03*
X-5200Y-30600D02*
D03*
X11811Y-106614D02*
D03*
X21811D02*
D03*
Y-86614D02*
D03*
X11811D02*
D03*
X63484Y-106614D02*
D03*
X73484D02*
D03*
Y-86614D02*
D03*
X63484D02*
D03*
X115157Y-106614D02*
D03*
X125157D02*
D03*
Y-86614D02*
D03*
X115157D02*
D03*
D33*
X97205Y-24370D02*
D03*
X107205D02*
D03*
X117205D02*
D03*
X127205D02*
D03*
D34*
X137205D02*
D03*
D35*
X153996Y-90386D02*
D03*
X171713D02*
D03*
X153996Y-169386D02*
D03*
X171713D02*
D03*
X153996Y-129886D02*
D03*
X171713D02*
D03*
X153996Y-50886D02*
D03*
X171713D02*
D03*
D36*
X42913Y-39370D02*
D03*
X58268Y-45669D02*
D03*
X33858Y-44094D02*
D03*
X42913Y-33071D02*
D03*
X63386Y-37008D02*
D03*
X77953Y-29134D02*
D03*
X90945Y-31890D02*
D03*
X84252Y-35827D02*
D03*
X54724Y-29921D02*
D03*
X144608Y-115628D02*
D03*
Y-76258D02*
D03*
Y-154998D02*
D03*
Y-36888D02*
D03*
X132283Y-32283D02*
D03*
X136614Y-36614D02*
D03*
X19000Y-36000D02*
D03*
X30000D02*
D03*
X11000Y-20000D02*
D03*
X72000Y-25500D02*
D03*
X44500Y-25000D02*
D03*
X39000Y-16520D02*
D03*
M02*
