G04 Layer_Physical_Order=1*
G04 Layer_Color=255*
%FSLAX25Y25*%
%MOIN*%
G70*
G01*
G75*
%ADD10R,0.05512X0.04724*%
%ADD11R,0.04724X0.05512*%
%ADD12R,0.03900X0.01200*%
%ADD13C,0.02000*%
%ADD14C,0.05000*%
%ADD15C,0.01200*%
%ADD16C,0.11100*%
%ADD17R,0.05906X0.05906*%
%ADD18C,0.05906*%
%ADD19C,0.05906*%
%ADD20R,0.05906X0.05906*%
%ADD21R,0.05906X0.05906*%
%ADD22C,0.05000*%
G36*
X232107Y13046D02*
X233822Y12635D01*
X235451Y11960D01*
X236954Y11039D01*
X238294Y9894D01*
X239439Y8554D01*
X240360Y7051D01*
X241035Y5422D01*
X241446Y3708D01*
X241576Y2061D01*
X241551Y2000D01*
Y-194800D01*
X241579Y-194869D01*
X241446Y-196565D01*
X241033Y-198287D01*
X240355Y-199923D01*
X239430Y-201433D01*
X238280Y-202780D01*
X236933Y-203930D01*
X235423Y-204855D01*
X233787Y-205533D01*
X232065Y-205946D01*
X230369Y-206079D01*
X230300Y-206051D01*
X-1900D01*
X-1969Y-206079D01*
X-3665Y-205946D01*
X-5387Y-205533D01*
X-7023Y-204855D01*
X-8533Y-203930D01*
X-9880Y-202780D01*
X-11030Y-201433D01*
X-11955Y-199923D01*
X-12632Y-198287D01*
X-13046Y-196565D01*
X-13179Y-194869D01*
X-13151Y-194800D01*
Y-133800D01*
X-13167Y-133760D01*
X-13065Y-132988D01*
X-12733Y-132186D01*
X-12204Y-131496D01*
X-11514Y-130967D01*
X-10712Y-130635D01*
X-9864Y-130523D01*
X-9800Y-130549D01*
X2000D01*
X2058Y-130525D01*
X3138Y-130383D01*
X4245Y-129925D01*
X5195Y-129195D01*
X5925Y-128245D01*
X6383Y-127138D01*
X6540Y-125950D01*
X6537Y-125930D01*
X6549Y-125900D01*
Y-107975D01*
X7960Y-107646D01*
X8358Y-108608D01*
X8992Y-109433D01*
X9818Y-110067D01*
X10779Y-110465D01*
X11311Y-110535D01*
Y-106614D01*
Y-102693D01*
X10779Y-102763D01*
X9818Y-103161D01*
X8992Y-103795D01*
X8358Y-104621D01*
X7960Y-105582D01*
X6549Y-105254D01*
Y-87975D01*
X7960Y-87646D01*
X8358Y-88608D01*
X8992Y-89433D01*
X9818Y-90067D01*
X10779Y-90465D01*
X11311Y-90535D01*
Y-86614D01*
Y-82693D01*
X10779Y-82763D01*
X9818Y-83161D01*
X8992Y-83795D01*
X8358Y-84621D01*
X7960Y-85582D01*
X6549Y-85254D01*
Y-66900D01*
X6537Y-66870D01*
X6540Y-66850D01*
X6383Y-65662D01*
X5925Y-64555D01*
X5195Y-63605D01*
X4245Y-62875D01*
X3138Y-62417D01*
X2058Y-62275D01*
X2000Y-62251D01*
X-9800D01*
X-9864Y-62277D01*
X-10712Y-62165D01*
X-11514Y-61833D01*
X-12204Y-61304D01*
X-12733Y-60614D01*
X-13065Y-59812D01*
X-13167Y-59040D01*
X-13151Y-59000D01*
Y2000D01*
X-13176Y2061D01*
X-13046Y3708D01*
X-12635Y5422D01*
X-11960Y7051D01*
X-11039Y8554D01*
X-9894Y9894D01*
X-8554Y11039D01*
X-7051Y11960D01*
X-5422Y12635D01*
X-3708Y13046D01*
X-1977Y13183D01*
X-1900Y13151D01*
X230300D01*
X230377Y13183D01*
X232107Y13046D01*
D02*
G37*
%LPC*%
G36*
X15732Y-87114D02*
X12311D01*
Y-90535D01*
X12843Y-90465D01*
X13804Y-90067D01*
X14630Y-89433D01*
X15264Y-88608D01*
X15662Y-87646D01*
X15732Y-87114D01*
D02*
G37*
G36*
X21311D02*
X17890D01*
X17960Y-87646D01*
X18358Y-88608D01*
X18992Y-89433D01*
X19818Y-90067D01*
X20779Y-90465D01*
X21311Y-90535D01*
Y-87114D01*
D02*
G37*
G36*
X153996Y-76802D02*
X153069Y-76925D01*
X152204Y-77283D01*
X151462Y-77852D01*
X150893Y-78594D01*
X150535Y-79458D01*
X150413Y-80386D01*
X150535Y-81313D01*
X150893Y-82178D01*
X151462Y-82920D01*
X152204Y-83489D01*
X153069Y-83847D01*
X153996Y-83969D01*
X154923Y-83847D01*
X155788Y-83489D01*
X156530Y-82920D01*
X156680Y-82724D01*
X158285Y-82575D01*
X158525Y-82655D01*
X160239Y-84369D01*
Y-90386D01*
X160363Y-91010D01*
X160716Y-91539D01*
X167016Y-97839D01*
X167545Y-98192D01*
X168169Y-98316D01*
X179980D01*
X180605Y-98192D01*
X181134Y-97839D01*
X185774Y-93198D01*
X187441D01*
X187507Y-93359D01*
X188076Y-94101D01*
X188819Y-94670D01*
X189683Y-95028D01*
X190610Y-95150D01*
X191538Y-95028D01*
X192402Y-94670D01*
X193144Y-94101D01*
X193714Y-93359D01*
X193780Y-93198D01*
X207440D01*
X207507Y-93359D01*
X208076Y-94101D01*
X208819Y-94670D01*
X209683Y-95028D01*
X210610Y-95150D01*
X211538Y-95028D01*
X212402Y-94670D01*
X213144Y-94101D01*
X213714Y-93359D01*
X214071Y-92494D01*
X214194Y-91567D01*
X214071Y-90640D01*
X213714Y-89775D01*
X213144Y-89033D01*
X212402Y-88464D01*
X211538Y-88106D01*
X210610Y-87984D01*
X209683Y-88106D01*
X208819Y-88464D01*
X208076Y-89033D01*
X207507Y-89775D01*
X207440Y-89936D01*
X193780D01*
X193714Y-89775D01*
X193144Y-89033D01*
X192402Y-88464D01*
X191538Y-88106D01*
X190610Y-87984D01*
X189683Y-88106D01*
X188819Y-88464D01*
X188076Y-89033D01*
X187507Y-89775D01*
X187441Y-89936D01*
X185098D01*
X184474Y-90060D01*
X183945Y-90413D01*
X179305Y-95054D01*
X176195D01*
X175265Y-93939D01*
X175265Y-93554D01*
Y-86833D01*
X168160D01*
Y-92247D01*
X166660Y-92869D01*
X163501Y-89710D01*
Y-83693D01*
X163377Y-83069D01*
X163024Y-82539D01*
X159716Y-79232D01*
X159187Y-78879D01*
X158563Y-78755D01*
X157166D01*
X157099Y-78594D01*
X156530Y-77852D01*
X155788Y-77283D01*
X154923Y-76925D01*
X153996Y-76802D01*
D02*
G37*
G36*
X157549Y-86833D02*
X150443D01*
Y-93939D01*
X157549D01*
Y-86833D01*
D02*
G37*
G36*
X25732Y-87114D02*
X22311D01*
Y-90535D01*
X22843Y-90465D01*
X23804Y-90067D01*
X24630Y-89433D01*
X25264Y-88608D01*
X25662Y-87646D01*
X25732Y-87114D01*
D02*
G37*
G36*
X72984D02*
X69563D01*
X69633Y-87646D01*
X70031Y-88608D01*
X70665Y-89433D01*
X71491Y-90067D01*
X72452Y-90465D01*
X72984Y-90535D01*
Y-87114D01*
D02*
G37*
G36*
X77405D02*
X73984D01*
Y-90535D01*
X74516Y-90465D01*
X75478Y-90067D01*
X76303Y-89433D01*
X76937Y-88608D01*
X77335Y-87646D01*
X77405Y-87114D01*
D02*
G37*
G36*
X62984D02*
X59563D01*
X59633Y-87646D01*
X60031Y-88608D01*
X60665Y-89433D01*
X61491Y-90067D01*
X62452Y-90465D01*
X62984Y-90535D01*
Y-87114D01*
D02*
G37*
G36*
X67405D02*
X63984D01*
Y-90535D01*
X64516Y-90465D01*
X65478Y-90067D01*
X66303Y-89433D01*
X66937Y-88608D01*
X67335Y-87646D01*
X67405Y-87114D01*
D02*
G37*
G36*
X63984Y-102693D02*
Y-106114D01*
X67405D01*
X67335Y-105582D01*
X66937Y-104621D01*
X66303Y-103795D01*
X65478Y-103161D01*
X64516Y-102763D01*
X63984Y-102693D01*
D02*
G37*
G36*
X72984D02*
X72452Y-102763D01*
X71491Y-103161D01*
X70665Y-103795D01*
X70031Y-104621D01*
X69633Y-105582D01*
X69563Y-106114D01*
X72984D01*
Y-102693D01*
D02*
G37*
G36*
X22311D02*
Y-106114D01*
X25732D01*
X25662Y-105582D01*
X25264Y-104621D01*
X24630Y-103795D01*
X23804Y-103161D01*
X22843Y-102763D01*
X22311Y-102693D01*
D02*
G37*
G36*
X62984D02*
X62452Y-102763D01*
X61491Y-103161D01*
X60665Y-103795D01*
X60031Y-104621D01*
X59633Y-105582D01*
X59563Y-106114D01*
X62984D01*
Y-102693D01*
D02*
G37*
G36*
X73984D02*
Y-106114D01*
X77405D01*
X77335Y-105582D01*
X76937Y-104621D01*
X76303Y-103795D01*
X75478Y-103161D01*
X74516Y-102763D01*
X73984Y-102693D01*
D02*
G37*
G36*
X124657D02*
X124126Y-102763D01*
X123164Y-103161D01*
X122338Y-103795D01*
X121705Y-104621D01*
X121307Y-105582D01*
X121236Y-106114D01*
X124657D01*
Y-102693D01*
D02*
G37*
G36*
X125657D02*
Y-106114D01*
X129078D01*
X129008Y-105582D01*
X128610Y-104621D01*
X127977Y-103795D01*
X127151Y-103161D01*
X126189Y-102763D01*
X125657Y-102693D01*
D02*
G37*
G36*
X114657D02*
X114126Y-102763D01*
X113164Y-103161D01*
X112338Y-103795D01*
X111705Y-104621D01*
X111307Y-105582D01*
X111236Y-106114D01*
X114657D01*
Y-102693D01*
D02*
G37*
G36*
X115657D02*
Y-106114D01*
X119079D01*
X119009Y-105582D01*
X118610Y-104621D01*
X117977Y-103795D01*
X117151Y-103161D01*
X116189Y-102763D01*
X115657Y-102693D01*
D02*
G37*
G36*
X114657Y-87114D02*
X111236D01*
X111307Y-87646D01*
X111705Y-88608D01*
X112338Y-89433D01*
X113164Y-90067D01*
X114126Y-90465D01*
X114657Y-90535D01*
Y-87114D01*
D02*
G37*
G36*
X115657Y-82693D02*
Y-86114D01*
X119079D01*
X119009Y-85582D01*
X118610Y-84621D01*
X117977Y-83795D01*
X117151Y-83161D01*
X116189Y-82763D01*
X115657Y-82693D01*
D02*
G37*
G36*
X124657D02*
X124126Y-82763D01*
X123164Y-83161D01*
X122338Y-83795D01*
X121705Y-84621D01*
X121307Y-85582D01*
X121236Y-86114D01*
X124657D01*
Y-82693D01*
D02*
G37*
G36*
X73984D02*
Y-86114D01*
X77405D01*
X77335Y-85582D01*
X76937Y-84621D01*
X76303Y-83795D01*
X75478Y-83161D01*
X74516Y-82763D01*
X73984Y-82693D01*
D02*
G37*
G36*
X114657D02*
X114126Y-82763D01*
X113164Y-83161D01*
X112338Y-83795D01*
X111705Y-84621D01*
X111307Y-85582D01*
X111236Y-86114D01*
X114657D01*
Y-82693D01*
D02*
G37*
G36*
X125657D02*
Y-86114D01*
X129078D01*
X129008Y-85582D01*
X128610Y-84621D01*
X127977Y-83795D01*
X127151Y-83161D01*
X126189Y-82763D01*
X125657Y-82693D01*
D02*
G37*
G36*
X171713Y-66802D02*
X170785Y-66925D01*
X169921Y-67282D01*
X169179Y-67852D01*
X168609Y-68594D01*
X168251Y-69458D01*
X168129Y-70386D01*
X168251Y-71313D01*
X168609Y-72177D01*
X169179Y-72920D01*
X169921Y-73489D01*
X170785Y-73847D01*
X171713Y-73969D01*
X172640Y-73847D01*
X173504Y-73489D01*
X174246Y-72920D01*
X174816Y-72177D01*
X175174Y-71313D01*
X175296Y-70386D01*
X175174Y-69458D01*
X174816Y-68594D01*
X174246Y-67852D01*
X173504Y-67282D01*
X172640Y-66925D01*
X171713Y-66802D01*
D02*
G37*
G36*
X117205Y-50787D02*
X116277Y-50909D01*
X115413Y-51267D01*
X114671Y-51836D01*
X114101Y-52578D01*
X113743Y-53443D01*
X113621Y-54370D01*
X113743Y-55297D01*
X114101Y-56162D01*
X114671Y-56904D01*
X115413Y-57473D01*
X116277Y-57831D01*
X117205Y-57954D01*
X118132Y-57831D01*
X118996Y-57473D01*
X119739Y-56904D01*
X120308Y-56162D01*
X120666Y-55297D01*
X120788Y-54370D01*
X120666Y-53443D01*
X120308Y-52578D01*
X119739Y-51836D01*
X118996Y-51267D01*
X118132Y-50909D01*
X117205Y-50787D01*
D02*
G37*
G36*
X171713Y-76802D02*
X170785Y-76925D01*
X169921Y-77283D01*
X169179Y-77852D01*
X168609Y-78594D01*
X168251Y-79458D01*
X168129Y-80386D01*
X168251Y-81313D01*
X168609Y-82178D01*
X169179Y-82920D01*
X169921Y-83489D01*
X170785Y-83847D01*
X171713Y-83969D01*
X172640Y-83847D01*
X173504Y-83489D01*
X174246Y-82920D01*
X174816Y-82178D01*
X174882Y-82017D01*
X187086D01*
X187149Y-82494D01*
X187507Y-83359D01*
X188076Y-84101D01*
X188819Y-84670D01*
X189683Y-85028D01*
X190610Y-85150D01*
X191538Y-85028D01*
X192402Y-84670D01*
X193144Y-84101D01*
X193714Y-83359D01*
X193780Y-83198D01*
X207440D01*
X207507Y-83359D01*
X208076Y-84101D01*
X208819Y-84670D01*
X209683Y-85028D01*
X210610Y-85150D01*
X211538Y-85028D01*
X212402Y-84670D01*
X213144Y-84101D01*
X213714Y-83359D01*
X214071Y-82494D01*
X214194Y-81567D01*
X214071Y-80639D01*
X213714Y-79775D01*
X213144Y-79033D01*
X212402Y-78464D01*
X211538Y-78106D01*
X210610Y-77983D01*
X209683Y-78106D01*
X208819Y-78464D01*
X208076Y-79033D01*
X207507Y-79775D01*
X207440Y-79936D01*
X193780D01*
X193714Y-79775D01*
X193144Y-79033D01*
X192402Y-78464D01*
X191538Y-78106D01*
X190610Y-77983D01*
X189683Y-78106D01*
X188819Y-78464D01*
X188440Y-78755D01*
X174882D01*
X174816Y-78594D01*
X174246Y-77852D01*
X173504Y-77283D01*
X172640Y-76925D01*
X171713Y-76802D01*
D02*
G37*
G36*
X153996Y-66802D02*
X153069Y-66925D01*
X152204Y-67282D01*
X151462Y-67852D01*
X150893Y-68594D01*
X150535Y-69458D01*
X150413Y-70386D01*
X150535Y-71313D01*
X150893Y-72177D01*
X151462Y-72920D01*
X152204Y-73489D01*
X153069Y-73847D01*
X153996Y-73969D01*
X154923Y-73847D01*
X155788Y-73489D01*
X156530Y-72920D01*
X157099Y-72177D01*
X157457Y-71313D01*
X157580Y-70386D01*
X157457Y-69458D01*
X157099Y-68594D01*
X156530Y-67852D01*
X155788Y-67282D01*
X154923Y-66925D01*
X153996Y-66802D01*
D02*
G37*
G36*
X129078Y-87114D02*
X125657D01*
Y-90535D01*
X126189Y-90465D01*
X127151Y-90067D01*
X127977Y-89433D01*
X128610Y-88608D01*
X129008Y-87646D01*
X129078Y-87114D01*
D02*
G37*
G36*
X12311Y-82693D02*
Y-86114D01*
X15732D01*
X15662Y-85582D01*
X15264Y-84621D01*
X14630Y-83795D01*
X13804Y-83161D01*
X12843Y-82763D01*
X12311Y-82693D01*
D02*
G37*
G36*
X119079Y-87114D02*
X115657D01*
Y-90535D01*
X116189Y-90465D01*
X117151Y-90067D01*
X117977Y-89433D01*
X118610Y-88608D01*
X119009Y-87646D01*
X119079Y-87114D01*
D02*
G37*
G36*
X124657D02*
X121236D01*
X121307Y-87646D01*
X121705Y-88608D01*
X122338Y-89433D01*
X123164Y-90067D01*
X124126Y-90465D01*
X124657Y-90535D01*
Y-87114D01*
D02*
G37*
G36*
X21311Y-82693D02*
X20779Y-82763D01*
X19818Y-83161D01*
X18992Y-83795D01*
X18358Y-84621D01*
X17960Y-85582D01*
X17890Y-86114D01*
X21311D01*
Y-82693D01*
D02*
G37*
G36*
X63984D02*
Y-86114D01*
X67405D01*
X67335Y-85582D01*
X66937Y-84621D01*
X66303Y-83795D01*
X65478Y-83161D01*
X64516Y-82763D01*
X63984Y-82693D01*
D02*
G37*
G36*
X72984D02*
X72452Y-82763D01*
X71491Y-83161D01*
X70665Y-83795D01*
X70031Y-84621D01*
X69633Y-85582D01*
X69563Y-86114D01*
X72984D01*
Y-82693D01*
D02*
G37*
G36*
X22311D02*
Y-86114D01*
X25732D01*
X25662Y-85582D01*
X25264Y-84621D01*
X24630Y-83795D01*
X23804Y-83161D01*
X22843Y-82763D01*
X22311Y-82693D01*
D02*
G37*
G36*
X62984D02*
X62452Y-82763D01*
X61491Y-83161D01*
X60665Y-83795D01*
X60031Y-84621D01*
X59633Y-85582D01*
X59563Y-86114D01*
X62984D01*
Y-82693D01*
D02*
G37*
G36*
X11811Y-149413D02*
X10884Y-149535D01*
X10019Y-149893D01*
X9277Y-150462D01*
X8708Y-151204D01*
X8350Y-152069D01*
X8228Y-152996D01*
X8350Y-153923D01*
X8708Y-154788D01*
X9277Y-155530D01*
X10019Y-156099D01*
X10884Y-156457D01*
X11811Y-156579D01*
X12739Y-156457D01*
X13603Y-156099D01*
X14345Y-155530D01*
X14914Y-154788D01*
X15272Y-153923D01*
X15394Y-152996D01*
X15272Y-152069D01*
X14914Y-151204D01*
X14345Y-150462D01*
X13603Y-149893D01*
X12739Y-149535D01*
X11811Y-149413D01*
D02*
G37*
G36*
X21811D02*
X20884Y-149535D01*
X20019Y-149893D01*
X19277Y-150462D01*
X18708Y-151204D01*
X18350Y-152069D01*
X18228Y-152996D01*
X18350Y-153923D01*
X18708Y-154788D01*
X19277Y-155530D01*
X20019Y-156099D01*
X20884Y-156457D01*
X21811Y-156579D01*
X22738Y-156457D01*
X23603Y-156099D01*
X24345Y-155530D01*
X24914Y-154788D01*
X25272Y-153923D01*
X25394Y-152996D01*
X25272Y-152069D01*
X24914Y-151204D01*
X24345Y-150462D01*
X23603Y-149893D01*
X22738Y-149535D01*
X21811Y-149413D01*
D02*
G37*
G36*
X157549Y-165833D02*
X150443D01*
Y-172939D01*
X157549D01*
Y-165833D01*
D02*
G37*
G36*
X171713Y-155802D02*
X170785Y-155924D01*
X169921Y-156282D01*
X169179Y-156852D01*
X168609Y-157594D01*
X168251Y-158458D01*
X168129Y-159386D01*
X168251Y-160313D01*
X168609Y-161178D01*
X169179Y-161920D01*
X169921Y-162489D01*
X170785Y-162847D01*
X171713Y-162969D01*
X172640Y-162847D01*
X173504Y-162489D01*
X174246Y-161920D01*
X174816Y-161178D01*
X174882Y-161017D01*
X187086D01*
X187149Y-161494D01*
X187507Y-162359D01*
X188076Y-163101D01*
X188819Y-163670D01*
X189683Y-164028D01*
X190610Y-164150D01*
X191538Y-164028D01*
X192402Y-163670D01*
X193144Y-163101D01*
X193714Y-162359D01*
X193780Y-162198D01*
X207440D01*
X207507Y-162359D01*
X208076Y-163101D01*
X208819Y-163670D01*
X209683Y-164028D01*
X210610Y-164150D01*
X211538Y-164028D01*
X212402Y-163670D01*
X213144Y-163101D01*
X213714Y-162359D01*
X214071Y-161494D01*
X214194Y-160567D01*
X214071Y-159640D01*
X213714Y-158775D01*
X213144Y-158033D01*
X212402Y-157464D01*
X211538Y-157106D01*
X210610Y-156983D01*
X209683Y-157106D01*
X208819Y-157464D01*
X208076Y-158033D01*
X207507Y-158775D01*
X207440Y-158936D01*
X193780D01*
X193714Y-158775D01*
X193144Y-158033D01*
X192402Y-157464D01*
X191538Y-157106D01*
X190610Y-156983D01*
X189683Y-157106D01*
X188819Y-157464D01*
X188440Y-157755D01*
X174882D01*
X174816Y-157594D01*
X174246Y-156852D01*
X173504Y-156282D01*
X172640Y-155924D01*
X171713Y-155802D01*
D02*
G37*
G36*
X63484Y-149413D02*
X62557Y-149535D01*
X61693Y-149893D01*
X60950Y-150462D01*
X60381Y-151204D01*
X60023Y-152069D01*
X59901Y-152996D01*
X60023Y-153923D01*
X60381Y-154788D01*
X60950Y-155530D01*
X61693Y-156099D01*
X62557Y-156457D01*
X63484Y-156579D01*
X64412Y-156457D01*
X65276Y-156099D01*
X66018Y-155530D01*
X66588Y-154788D01*
X66946Y-153923D01*
X67068Y-152996D01*
X66946Y-152069D01*
X66588Y-151204D01*
X66018Y-150462D01*
X65276Y-149893D01*
X64412Y-149535D01*
X63484Y-149413D01*
D02*
G37*
G36*
X125157D02*
X124230Y-149535D01*
X123366Y-149893D01*
X122624Y-150462D01*
X122054Y-151204D01*
X121696Y-152069D01*
X121574Y-152996D01*
X121696Y-153923D01*
X122054Y-154788D01*
X122624Y-155530D01*
X123366Y-156099D01*
X124230Y-156457D01*
X125157Y-156579D01*
X126085Y-156457D01*
X126949Y-156099D01*
X127691Y-155530D01*
X128261Y-154788D01*
X128619Y-153923D01*
X128741Y-152996D01*
X128619Y-152069D01*
X128261Y-151204D01*
X127691Y-150462D01*
X126949Y-149893D01*
X126085Y-149535D01*
X125157Y-149413D01*
D02*
G37*
G36*
X153996Y-145802D02*
X153069Y-145924D01*
X152204Y-146282D01*
X151462Y-146852D01*
X150893Y-147594D01*
X150535Y-148458D01*
X150413Y-149386D01*
X150535Y-150313D01*
X150893Y-151178D01*
X151462Y-151920D01*
X152204Y-152489D01*
X153069Y-152847D01*
X153996Y-152969D01*
X154923Y-152847D01*
X155788Y-152489D01*
X156530Y-151920D01*
X157099Y-151178D01*
X157457Y-150313D01*
X157580Y-149386D01*
X157457Y-148458D01*
X157099Y-147594D01*
X156530Y-146852D01*
X155788Y-146282D01*
X154923Y-145924D01*
X153996Y-145802D01*
D02*
G37*
G36*
X73484Y-149413D02*
X72557Y-149535D01*
X71693Y-149893D01*
X70950Y-150462D01*
X70381Y-151204D01*
X70023Y-152069D01*
X69901Y-152996D01*
X70023Y-153923D01*
X70381Y-154788D01*
X70950Y-155530D01*
X71693Y-156099D01*
X72557Y-156457D01*
X73484Y-156579D01*
X74412Y-156457D01*
X75276Y-156099D01*
X76018Y-155530D01*
X76588Y-154788D01*
X76946Y-153923D01*
X77068Y-152996D01*
X76946Y-152069D01*
X76588Y-151204D01*
X76018Y-150462D01*
X75276Y-149893D01*
X74412Y-149535D01*
X73484Y-149413D01*
D02*
G37*
G36*
X115157D02*
X114230Y-149535D01*
X113366Y-149893D01*
X112624Y-150462D01*
X112054Y-151204D01*
X111696Y-152069D01*
X111574Y-152996D01*
X111696Y-153923D01*
X112054Y-154788D01*
X112624Y-155530D01*
X113366Y-156099D01*
X114230Y-156457D01*
X115157Y-156579D01*
X116085Y-156457D01*
X116949Y-156099D01*
X117691Y-155530D01*
X118261Y-154788D01*
X118619Y-153923D01*
X118741Y-152996D01*
X118619Y-152069D01*
X118261Y-151204D01*
X117691Y-150462D01*
X116949Y-149893D01*
X116085Y-149535D01*
X115157Y-149413D01*
D02*
G37*
G36*
X11811Y-169413D02*
X10884Y-169535D01*
X10019Y-169893D01*
X9277Y-170462D01*
X8708Y-171204D01*
X8350Y-172069D01*
X8228Y-172996D01*
X8350Y-173924D01*
X8708Y-174788D01*
X9277Y-175530D01*
X10019Y-176099D01*
X10884Y-176457D01*
X11811Y-176579D01*
X12739Y-176457D01*
X13603Y-176099D01*
X14345Y-175530D01*
X14914Y-174788D01*
X15272Y-173924D01*
X15394Y-172996D01*
X15272Y-172069D01*
X14914Y-171204D01*
X14345Y-170462D01*
X13603Y-169893D01*
X12739Y-169535D01*
X11811Y-169413D01*
D02*
G37*
G36*
X21811D02*
X20884Y-169535D01*
X20019Y-169893D01*
X19277Y-170462D01*
X18708Y-171204D01*
X18350Y-172069D01*
X18228Y-172996D01*
X18350Y-173924D01*
X18708Y-174788D01*
X19277Y-175530D01*
X20019Y-176099D01*
X20884Y-176457D01*
X21811Y-176579D01*
X22738Y-176457D01*
X23603Y-176099D01*
X24345Y-175530D01*
X24914Y-174788D01*
X25272Y-173924D01*
X25394Y-172996D01*
X25272Y-172069D01*
X24914Y-171204D01*
X24345Y-170462D01*
X23603Y-169893D01*
X22738Y-169535D01*
X21811Y-169413D01*
D02*
G37*
G36*
X0Y-186720D02*
X-1206Y-186839D01*
X-2365Y-187191D01*
X-3433Y-187762D01*
X-4370Y-188530D01*
X-5138Y-189467D01*
X-5709Y-190535D01*
X-6061Y-191694D01*
X-6180Y-192900D01*
X-6061Y-194106D01*
X-5709Y-195265D01*
X-5138Y-196333D01*
X-4370Y-197270D01*
X-3433Y-198038D01*
X-2365Y-198609D01*
X-1206Y-198961D01*
X0Y-199080D01*
X1206Y-198961D01*
X2365Y-198609D01*
X3433Y-198038D01*
X4370Y-197270D01*
X5138Y-196333D01*
X5709Y-195265D01*
X6061Y-194106D01*
X6180Y-192900D01*
X6061Y-191694D01*
X5709Y-190535D01*
X5138Y-189467D01*
X4370Y-188530D01*
X3433Y-187762D01*
X2365Y-187191D01*
X1206Y-186839D01*
X0Y-186720D01*
D02*
G37*
G36*
X228400D02*
X227194Y-186839D01*
X226035Y-187191D01*
X224967Y-187762D01*
X224030Y-188530D01*
X223262Y-189467D01*
X222691Y-190535D01*
X222339Y-191694D01*
X222220Y-192900D01*
X222339Y-194106D01*
X222691Y-195265D01*
X223262Y-196333D01*
X224030Y-197270D01*
X224967Y-198038D01*
X226035Y-198609D01*
X227194Y-198961D01*
X228400Y-199080D01*
X229606Y-198961D01*
X230765Y-198609D01*
X231833Y-198038D01*
X232770Y-197270D01*
X233538Y-196333D01*
X234109Y-195265D01*
X234461Y-194106D01*
X234580Y-192900D01*
X234461Y-191694D01*
X234109Y-190535D01*
X233538Y-189467D01*
X232770Y-188530D01*
X231833Y-187762D01*
X230765Y-187191D01*
X229606Y-186839D01*
X228400Y-186720D01*
D02*
G37*
G36*
X63484Y-169413D02*
X62557Y-169535D01*
X61693Y-169893D01*
X60950Y-170462D01*
X60381Y-171204D01*
X60023Y-172069D01*
X59901Y-172996D01*
X60023Y-173924D01*
X60381Y-174788D01*
X60950Y-175530D01*
X61693Y-176099D01*
X62557Y-176457D01*
X63484Y-176579D01*
X64412Y-176457D01*
X65276Y-176099D01*
X66018Y-175530D01*
X66588Y-174788D01*
X66946Y-173924D01*
X67068Y-172996D01*
X66946Y-172069D01*
X66588Y-171204D01*
X66018Y-170462D01*
X65276Y-169893D01*
X64412Y-169535D01*
X63484Y-169413D01*
D02*
G37*
G36*
X125157D02*
X124230Y-169535D01*
X123366Y-169893D01*
X122624Y-170462D01*
X122054Y-171204D01*
X121696Y-172069D01*
X121574Y-172996D01*
X121696Y-173924D01*
X122054Y-174788D01*
X122624Y-175530D01*
X123366Y-176099D01*
X124230Y-176457D01*
X125157Y-176579D01*
X126085Y-176457D01*
X126949Y-176099D01*
X127691Y-175530D01*
X128261Y-174788D01*
X128619Y-173924D01*
X128741Y-172996D01*
X128619Y-172069D01*
X128261Y-171204D01*
X127691Y-170462D01*
X126949Y-169893D01*
X126085Y-169535D01*
X125157Y-169413D01*
D02*
G37*
G36*
X153996Y-155802D02*
X153069Y-155924D01*
X152204Y-156282D01*
X151462Y-156852D01*
X150893Y-157594D01*
X150535Y-158458D01*
X150413Y-159386D01*
X150535Y-160313D01*
X150893Y-161178D01*
X151462Y-161920D01*
X152204Y-162489D01*
X153069Y-162847D01*
X153996Y-162969D01*
X154923Y-162847D01*
X155788Y-162489D01*
X156530Y-161920D01*
X156680Y-161724D01*
X158285Y-161575D01*
X158525Y-161655D01*
X160239Y-163369D01*
Y-169386D01*
X160363Y-170010D01*
X160716Y-170539D01*
X167016Y-176839D01*
X167545Y-177192D01*
X168169Y-177316D01*
X179980D01*
X180605Y-177192D01*
X181134Y-176839D01*
X185774Y-172198D01*
X187441D01*
X187507Y-172359D01*
X188076Y-173101D01*
X188819Y-173670D01*
X189683Y-174028D01*
X190610Y-174150D01*
X191538Y-174028D01*
X192402Y-173670D01*
X193144Y-173101D01*
X193714Y-172359D01*
X193780Y-172198D01*
X207440D01*
X207507Y-172359D01*
X208076Y-173101D01*
X208819Y-173670D01*
X209683Y-174028D01*
X210610Y-174150D01*
X211538Y-174028D01*
X212402Y-173670D01*
X213144Y-173101D01*
X213714Y-172359D01*
X214071Y-171494D01*
X214194Y-170567D01*
X214071Y-169640D01*
X213714Y-168775D01*
X213144Y-168033D01*
X212402Y-167464D01*
X211538Y-167106D01*
X210610Y-166983D01*
X209683Y-167106D01*
X208819Y-167464D01*
X208076Y-168033D01*
X207507Y-168775D01*
X207440Y-168936D01*
X193780D01*
X193714Y-168775D01*
X193144Y-168033D01*
X192402Y-167464D01*
X191538Y-167106D01*
X190610Y-166983D01*
X189683Y-167106D01*
X188819Y-167464D01*
X188076Y-168033D01*
X187507Y-168775D01*
X187441Y-168936D01*
X185098D01*
X184474Y-169060D01*
X183945Y-169413D01*
X179305Y-174054D01*
X176195D01*
X175265Y-172939D01*
X175265Y-172554D01*
Y-165833D01*
X168160D01*
Y-171247D01*
X166660Y-171869D01*
X163501Y-168710D01*
Y-162693D01*
X163377Y-162069D01*
X163024Y-161539D01*
X159716Y-158232D01*
X159187Y-157879D01*
X158563Y-157755D01*
X157166D01*
X157099Y-157594D01*
X156530Y-156852D01*
X155788Y-156282D01*
X154923Y-155924D01*
X153996Y-155802D01*
D02*
G37*
G36*
X73484Y-169413D02*
X72557Y-169535D01*
X71693Y-169893D01*
X70950Y-170462D01*
X70381Y-171204D01*
X70023Y-172069D01*
X69901Y-172996D01*
X70023Y-173924D01*
X70381Y-174788D01*
X70950Y-175530D01*
X71693Y-176099D01*
X72557Y-176457D01*
X73484Y-176579D01*
X74412Y-176457D01*
X75276Y-176099D01*
X76018Y-175530D01*
X76588Y-174788D01*
X76946Y-173924D01*
X77068Y-172996D01*
X76946Y-172069D01*
X76588Y-171204D01*
X76018Y-170462D01*
X75276Y-169893D01*
X74412Y-169535D01*
X73484Y-169413D01*
D02*
G37*
G36*
X115157D02*
X114230Y-169535D01*
X113366Y-169893D01*
X112624Y-170462D01*
X112054Y-171204D01*
X111696Y-172069D01*
X111574Y-172996D01*
X111696Y-173924D01*
X112054Y-174788D01*
X112624Y-175530D01*
X113366Y-176099D01*
X114230Y-176457D01*
X115157Y-176579D01*
X116085Y-176457D01*
X116949Y-176099D01*
X117691Y-175530D01*
X118261Y-174788D01*
X118619Y-173924D01*
X118741Y-172996D01*
X118619Y-172069D01*
X118261Y-171204D01*
X117691Y-170462D01*
X116949Y-169893D01*
X116085Y-169535D01*
X115157Y-169413D01*
D02*
G37*
G36*
X171713Y-145802D02*
X170785Y-145924D01*
X169921Y-146282D01*
X169179Y-146852D01*
X168609Y-147594D01*
X168251Y-148458D01*
X168129Y-149386D01*
X168251Y-150313D01*
X168609Y-151178D01*
X169179Y-151920D01*
X169921Y-152489D01*
X170785Y-152847D01*
X171713Y-152969D01*
X172640Y-152847D01*
X173504Y-152489D01*
X174246Y-151920D01*
X174816Y-151178D01*
X175174Y-150313D01*
X175296Y-149386D01*
X175174Y-148458D01*
X174816Y-147594D01*
X174246Y-146852D01*
X173504Y-146282D01*
X172640Y-145924D01*
X171713Y-145802D01*
D02*
G37*
G36*
X77405Y-107114D02*
X73984D01*
Y-110535D01*
X74516Y-110465D01*
X75478Y-110067D01*
X76303Y-109433D01*
X76937Y-108608D01*
X77335Y-107646D01*
X77405Y-107114D01*
D02*
G37*
G36*
X114657D02*
X111236D01*
X111307Y-107646D01*
X111705Y-108608D01*
X112338Y-109433D01*
X113164Y-110067D01*
X114126Y-110465D01*
X114657Y-110535D01*
Y-107114D01*
D02*
G37*
G36*
X67405D02*
X63984D01*
Y-110535D01*
X64516Y-110465D01*
X65478Y-110067D01*
X66303Y-109433D01*
X66937Y-108608D01*
X67335Y-107646D01*
X67405Y-107114D01*
D02*
G37*
G36*
X72984D02*
X69563D01*
X69633Y-107646D01*
X70031Y-108608D01*
X70665Y-109433D01*
X71491Y-110067D01*
X72452Y-110465D01*
X72984Y-110535D01*
Y-107114D01*
D02*
G37*
G36*
X119079D02*
X115657D01*
Y-110535D01*
X116189Y-110465D01*
X117151Y-110067D01*
X117977Y-109433D01*
X118610Y-108608D01*
X119009Y-107646D01*
X119079Y-107114D01*
D02*
G37*
G36*
X12311Y-102693D02*
Y-106114D01*
X15732D01*
X15662Y-105582D01*
X15264Y-104621D01*
X14630Y-103795D01*
X13804Y-103161D01*
X12843Y-102763D01*
X12311Y-102693D01*
D02*
G37*
G36*
X21311D02*
X20779Y-102763D01*
X19818Y-103161D01*
X18992Y-103795D01*
X18358Y-104621D01*
X17960Y-105582D01*
X17890Y-106114D01*
X21311D01*
Y-102693D01*
D02*
G37*
G36*
X124657Y-107114D02*
X121236D01*
X121307Y-107646D01*
X121705Y-108608D01*
X122338Y-109433D01*
X123164Y-110067D01*
X124126Y-110465D01*
X124657Y-110535D01*
Y-107114D01*
D02*
G37*
G36*
X129078D02*
X125657D01*
Y-110535D01*
X126189Y-110465D01*
X127151Y-110067D01*
X127977Y-109433D01*
X128610Y-108608D01*
X129008Y-107646D01*
X129078Y-107114D01*
D02*
G37*
G36*
X171713Y-116302D02*
X170785Y-116425D01*
X169921Y-116782D01*
X169179Y-117352D01*
X168609Y-118094D01*
X168251Y-118958D01*
X168129Y-119886D01*
X168251Y-120813D01*
X168609Y-121677D01*
X169179Y-122420D01*
X169921Y-122989D01*
X170785Y-123347D01*
X171713Y-123469D01*
X172640Y-123347D01*
X173504Y-122989D01*
X174246Y-122420D01*
X174816Y-121677D01*
X174882Y-121517D01*
X187086D01*
X187149Y-121994D01*
X187507Y-122859D01*
X188076Y-123601D01*
X188819Y-124170D01*
X189683Y-124528D01*
X190610Y-124650D01*
X191538Y-124528D01*
X192402Y-124170D01*
X193144Y-123601D01*
X193714Y-122859D01*
X193780Y-122698D01*
X207440D01*
X207507Y-122859D01*
X208076Y-123601D01*
X208819Y-124170D01*
X209683Y-124528D01*
X210610Y-124650D01*
X211538Y-124528D01*
X212402Y-124170D01*
X213144Y-123601D01*
X213714Y-122859D01*
X214071Y-121994D01*
X214194Y-121067D01*
X214071Y-120140D01*
X213714Y-119275D01*
X213144Y-118533D01*
X212402Y-117964D01*
X211538Y-117606D01*
X210610Y-117483D01*
X209683Y-117606D01*
X208819Y-117964D01*
X208076Y-118533D01*
X207507Y-119275D01*
X207440Y-119436D01*
X193780D01*
X193714Y-119275D01*
X193144Y-118533D01*
X192402Y-117964D01*
X191538Y-117606D01*
X190610Y-117483D01*
X189683Y-117606D01*
X188819Y-117964D01*
X188440Y-118254D01*
X174882D01*
X174816Y-118094D01*
X174246Y-117352D01*
X173504Y-116782D01*
X172640Y-116425D01*
X171713Y-116302D01*
D02*
G37*
G36*
X153996Y-106302D02*
X153069Y-106424D01*
X152204Y-106782D01*
X151462Y-107352D01*
X150893Y-108094D01*
X150535Y-108958D01*
X150413Y-109886D01*
X150535Y-110813D01*
X150893Y-111678D01*
X151462Y-112420D01*
X152204Y-112989D01*
X153069Y-113347D01*
X153996Y-113469D01*
X154923Y-113347D01*
X155788Y-112989D01*
X156530Y-112420D01*
X157099Y-111678D01*
X157457Y-110813D01*
X157580Y-109886D01*
X157457Y-108958D01*
X157099Y-108094D01*
X156530Y-107352D01*
X155788Y-106782D01*
X154923Y-106424D01*
X153996Y-106302D01*
D02*
G37*
G36*
Y-116302D02*
X153069Y-116425D01*
X152204Y-116782D01*
X151462Y-117352D01*
X150893Y-118094D01*
X150535Y-118958D01*
X150413Y-119886D01*
X150535Y-120813D01*
X150893Y-121677D01*
X151462Y-122420D01*
X152204Y-122989D01*
X153069Y-123347D01*
X153996Y-123469D01*
X154923Y-123347D01*
X155788Y-122989D01*
X156530Y-122420D01*
X156680Y-122224D01*
X158285Y-122075D01*
X158525Y-122155D01*
X160239Y-123869D01*
Y-129886D01*
X160363Y-130510D01*
X160716Y-131039D01*
X167016Y-137339D01*
X167545Y-137692D01*
X168169Y-137816D01*
X179980D01*
X180605Y-137692D01*
X181134Y-137339D01*
X185774Y-132698D01*
X187441D01*
X187507Y-132859D01*
X188076Y-133601D01*
X188819Y-134170D01*
X189683Y-134528D01*
X190610Y-134650D01*
X191538Y-134528D01*
X192402Y-134170D01*
X193144Y-133601D01*
X193714Y-132859D01*
X193780Y-132698D01*
X207440D01*
X207507Y-132859D01*
X208076Y-133601D01*
X208819Y-134170D01*
X209683Y-134528D01*
X210610Y-134650D01*
X211538Y-134528D01*
X212402Y-134170D01*
X213144Y-133601D01*
X213714Y-132859D01*
X214071Y-131994D01*
X214194Y-131067D01*
X214071Y-130140D01*
X213714Y-129275D01*
X213144Y-128533D01*
X212402Y-127964D01*
X211538Y-127606D01*
X210610Y-127483D01*
X209683Y-127606D01*
X208819Y-127964D01*
X208076Y-128533D01*
X207507Y-129275D01*
X207440Y-129436D01*
X193780D01*
X193714Y-129275D01*
X193144Y-128533D01*
X192402Y-127964D01*
X191538Y-127606D01*
X190610Y-127483D01*
X189683Y-127606D01*
X188819Y-127964D01*
X188076Y-128533D01*
X187507Y-129275D01*
X187441Y-129436D01*
X185098D01*
X184474Y-129560D01*
X183945Y-129913D01*
X179305Y-134554D01*
X176195D01*
X175265Y-133439D01*
X175265Y-133054D01*
Y-126333D01*
X168160D01*
Y-131747D01*
X166660Y-132369D01*
X163501Y-129210D01*
Y-123193D01*
X163377Y-122569D01*
X163024Y-122039D01*
X159716Y-118732D01*
X159187Y-118379D01*
X158563Y-118254D01*
X157166D01*
X157099Y-118094D01*
X156530Y-117352D01*
X155788Y-116782D01*
X154923Y-116425D01*
X153996Y-116302D01*
D02*
G37*
G36*
X157549Y-126333D02*
X150443D01*
Y-133439D01*
X157549D01*
Y-126333D01*
D02*
G37*
G36*
X171713Y-106302D02*
X170785Y-106424D01*
X169921Y-106782D01*
X169179Y-107352D01*
X168609Y-108094D01*
X168251Y-108958D01*
X168129Y-109886D01*
X168251Y-110813D01*
X168609Y-111678D01*
X169179Y-112420D01*
X169921Y-112989D01*
X170785Y-113347D01*
X171713Y-113469D01*
X172640Y-113347D01*
X173504Y-112989D01*
X174246Y-112420D01*
X174816Y-111678D01*
X175174Y-110813D01*
X175296Y-109886D01*
X175174Y-108958D01*
X174816Y-108094D01*
X174246Y-107352D01*
X173504Y-106782D01*
X172640Y-106424D01*
X171713Y-106302D01*
D02*
G37*
G36*
X25732Y-107114D02*
X22311D01*
Y-110535D01*
X22843Y-110465D01*
X23804Y-110067D01*
X24630Y-109433D01*
X25264Y-108608D01*
X25662Y-107646D01*
X25732Y-107114D01*
D02*
G37*
G36*
X62984D02*
X59563D01*
X59633Y-107646D01*
X60031Y-108608D01*
X60665Y-109433D01*
X61491Y-110067D01*
X62452Y-110465D01*
X62984Y-110535D01*
Y-107114D01*
D02*
G37*
G36*
X15732D02*
X12311D01*
Y-110535D01*
X12843Y-110465D01*
X13804Y-110067D01*
X14630Y-109433D01*
X15264Y-108608D01*
X15662Y-107646D01*
X15732Y-107114D01*
D02*
G37*
G36*
X21311D02*
X17890D01*
X17960Y-107646D01*
X18358Y-108608D01*
X18992Y-109433D01*
X19818Y-110067D01*
X20779Y-110465D01*
X21311Y-110535D01*
Y-107114D01*
D02*
G37*
G36*
X127205Y-50787D02*
X126277Y-50909D01*
X125413Y-51267D01*
X124671Y-51836D01*
X124101Y-52578D01*
X123743Y-53443D01*
X123621Y-54370D01*
X123743Y-55297D01*
X124101Y-56162D01*
X124671Y-56904D01*
X125413Y-57473D01*
X126277Y-57831D01*
X127205Y-57954D01*
X128132Y-57831D01*
X128996Y-57473D01*
X129739Y-56904D01*
X130308Y-56162D01*
X130666Y-55297D01*
X130788Y-54370D01*
X130666Y-53443D01*
X130308Y-52578D01*
X129739Y-51836D01*
X128996Y-51267D01*
X128132Y-50909D01*
X127205Y-50787D01*
D02*
G37*
G36*
X209200Y-1417D02*
X208273Y-1539D01*
X207408Y-1897D01*
X206666Y-2466D01*
X206097Y-3208D01*
X205739Y-4073D01*
X205617Y-5000D01*
X205739Y-5928D01*
X206097Y-6792D01*
X206666Y-7534D01*
X207408Y-8103D01*
X208273Y-8461D01*
X209200Y-8583D01*
X210127Y-8461D01*
X210992Y-8103D01*
X211734Y-7534D01*
X212303Y-6792D01*
X212661Y-5928D01*
X212783Y-5000D01*
X212661Y-4073D01*
X212303Y-3208D01*
X211734Y-2466D01*
X210992Y-1897D01*
X210127Y-1539D01*
X209200Y-1417D01*
D02*
G37*
G36*
X0Y6180D02*
X-1206Y6061D01*
X-2365Y5709D01*
X-3433Y5138D01*
X-4370Y4370D01*
X-5138Y3433D01*
X-5709Y2365D01*
X-6061Y1206D01*
X-6180Y0D01*
X-6061Y-1206D01*
X-5709Y-2365D01*
X-5138Y-3433D01*
X-4370Y-4370D01*
X-3433Y-5138D01*
X-2365Y-5709D01*
X-1206Y-6061D01*
X0Y-6180D01*
X1206Y-6061D01*
X2365Y-5709D01*
X3433Y-5138D01*
X4370Y-4370D01*
X5138Y-3433D01*
X5709Y-2365D01*
X6061Y-1206D01*
X6180Y0D01*
X6061Y1206D01*
X5709Y2365D01*
X5138Y3433D01*
X4370Y4370D01*
X3433Y5138D01*
X2365Y5709D01*
X1206Y6061D01*
X0Y6180D01*
D02*
G37*
G36*
X189200Y-1417D02*
X188273Y-1539D01*
X187408Y-1897D01*
X186666Y-2466D01*
X186097Y-3208D01*
X185739Y-4073D01*
X185617Y-5000D01*
X185739Y-5928D01*
X186097Y-6792D01*
X186666Y-7534D01*
X187408Y-8103D01*
X188273Y-8461D01*
X189200Y-8583D01*
X190127Y-8461D01*
X190992Y-8103D01*
X191734Y-7534D01*
X192303Y-6792D01*
X192661Y-5928D01*
X192783Y-5000D01*
X192661Y-4073D01*
X192303Y-3208D01*
X191734Y-2466D01*
X190992Y-1897D01*
X190127Y-1539D01*
X189200Y-1417D01*
D02*
G37*
G36*
X199200D02*
X198273Y-1539D01*
X197408Y-1897D01*
X196666Y-2466D01*
X196097Y-3208D01*
X195739Y-4073D01*
X195617Y-5000D01*
X195739Y-5928D01*
X196097Y-6792D01*
X196666Y-7534D01*
X197408Y-8103D01*
X198273Y-8461D01*
X199200Y-8583D01*
X200127Y-8461D01*
X200992Y-8103D01*
X201734Y-7534D01*
X202303Y-6792D01*
X202661Y-5928D01*
X202783Y-5000D01*
X202661Y-4073D01*
X202303Y-3208D01*
X201734Y-2466D01*
X200992Y-1897D01*
X200127Y-1539D01*
X199200Y-1417D01*
D02*
G37*
G36*
X228400Y6180D02*
X227194Y6061D01*
X226035Y5709D01*
X224967Y5138D01*
X224030Y4370D01*
X223262Y3433D01*
X222691Y2365D01*
X222339Y1206D01*
X222220Y0D01*
X222339Y-1206D01*
X222691Y-2365D01*
X223262Y-3433D01*
X224030Y-4370D01*
X224967Y-5138D01*
X226035Y-5709D01*
X227194Y-6061D01*
X228400Y-6180D01*
X229606Y-6061D01*
X230765Y-5709D01*
X231833Y-5138D01*
X232770Y-4370D01*
X233538Y-3433D01*
X234109Y-2365D01*
X234461Y-1206D01*
X234580Y0D01*
X234461Y1206D01*
X234109Y2365D01*
X233538Y3433D01*
X232770Y4370D01*
X231833Y5138D01*
X230765Y5709D01*
X229606Y6061D01*
X228400Y6180D01*
D02*
G37*
G36*
X98700Y-1079D02*
X98168Y-1149D01*
X97207Y-1547D01*
X96381Y-2181D01*
X95747Y-3007D01*
X95349Y-3968D01*
X95279Y-4500D01*
X98700D01*
Y-1079D01*
D02*
G37*
G36*
X99700D02*
Y-4500D01*
X103121D01*
X103051Y-3968D01*
X102653Y-3007D01*
X102019Y-2181D01*
X101193Y-1547D01*
X100232Y-1149D01*
X99700Y-1079D01*
D02*
G37*
G36*
X18700Y-1047D02*
X15247D01*
Y-4500D01*
X18700D01*
Y-1047D01*
D02*
G37*
G36*
X23153D02*
X19700D01*
Y-4500D01*
X23153D01*
Y-1047D01*
D02*
G37*
G36*
X119200Y-1417D02*
X118273Y-1539D01*
X117408Y-1897D01*
X116666Y-2466D01*
X116097Y-3208D01*
X115739Y-4073D01*
X115617Y-5000D01*
X115739Y-5928D01*
X116097Y-6792D01*
X116666Y-7534D01*
X117408Y-8103D01*
X118273Y-8461D01*
X119200Y-8583D01*
X120127Y-8461D01*
X120992Y-8103D01*
X121734Y-7534D01*
X122303Y-6792D01*
X122661Y-5928D01*
X122783Y-5000D01*
X122661Y-4073D01*
X122303Y-3208D01*
X121734Y-2466D01*
X120992Y-1897D01*
X120127Y-1539D01*
X119200Y-1417D01*
D02*
G37*
G36*
X129200D02*
X128273Y-1539D01*
X127408Y-1897D01*
X126666Y-2466D01*
X126097Y-3208D01*
X125739Y-4073D01*
X125617Y-5000D01*
X125739Y-5928D01*
X126097Y-6792D01*
X126666Y-7534D01*
X127408Y-8103D01*
X128273Y-8461D01*
X129200Y-8583D01*
X130127Y-8461D01*
X130992Y-8103D01*
X131734Y-7534D01*
X132303Y-6792D01*
X132661Y-5928D01*
X132783Y-5000D01*
X132661Y-4073D01*
X132303Y-3208D01*
X131734Y-2466D01*
X130992Y-1897D01*
X130127Y-1539D01*
X129200Y-1417D01*
D02*
G37*
G36*
X89200D02*
X88273Y-1539D01*
X87408Y-1897D01*
X86666Y-2466D01*
X86097Y-3208D01*
X85739Y-4073D01*
X85617Y-5000D01*
X85739Y-5928D01*
X86097Y-6792D01*
X86666Y-7534D01*
X87408Y-8103D01*
X88273Y-8461D01*
X89200Y-8583D01*
X90127Y-8461D01*
X90992Y-8103D01*
X91734Y-7534D01*
X92303Y-6792D01*
X92661Y-5928D01*
X92783Y-5000D01*
X92661Y-4073D01*
X92303Y-3208D01*
X91734Y-2466D01*
X90992Y-1897D01*
X90127Y-1539D01*
X89200Y-1417D01*
D02*
G37*
G36*
X109200D02*
X108273Y-1539D01*
X107408Y-1897D01*
X106666Y-2466D01*
X106097Y-3208D01*
X105739Y-4073D01*
X105617Y-5000D01*
X105739Y-5928D01*
X106097Y-6792D01*
X106666Y-7534D01*
X107408Y-8103D01*
X108273Y-8461D01*
X109200Y-8583D01*
X110127Y-8461D01*
X110992Y-8103D01*
X111734Y-7534D01*
X112303Y-6792D01*
X112661Y-5928D01*
X112783Y-5000D01*
X112661Y-4073D01*
X112303Y-3208D01*
X111734Y-2466D01*
X110992Y-1897D01*
X110127Y-1539D01*
X109200Y-1417D01*
D02*
G37*
G36*
X139200D02*
X138273Y-1539D01*
X137408Y-1897D01*
X136666Y-2466D01*
X136097Y-3208D01*
X135739Y-4073D01*
X135617Y-5000D01*
X135739Y-5928D01*
X136097Y-6792D01*
X136666Y-7534D01*
X137408Y-8103D01*
X138273Y-8461D01*
X139200Y-8583D01*
X140127Y-8461D01*
X140992Y-8103D01*
X141734Y-7534D01*
X142303Y-6792D01*
X142661Y-5928D01*
X142783Y-5000D01*
X142661Y-4073D01*
X142303Y-3208D01*
X141734Y-2466D01*
X140992Y-1897D01*
X140127Y-1539D01*
X139200Y-1417D01*
D02*
G37*
G36*
X169200D02*
X168273Y-1539D01*
X167408Y-1897D01*
X166666Y-2466D01*
X166097Y-3208D01*
X165739Y-4073D01*
X165617Y-5000D01*
X165739Y-5928D01*
X166097Y-6792D01*
X166666Y-7534D01*
X167408Y-8103D01*
X168273Y-8461D01*
X169200Y-8583D01*
X170127Y-8461D01*
X170992Y-8103D01*
X171734Y-7534D01*
X172303Y-6792D01*
X172661Y-5928D01*
X172783Y-5000D01*
X172661Y-4073D01*
X172303Y-3208D01*
X171734Y-2466D01*
X170992Y-1897D01*
X170127Y-1539D01*
X169200Y-1417D01*
D02*
G37*
G36*
X179200D02*
X178273Y-1539D01*
X177408Y-1897D01*
X176666Y-2466D01*
X176097Y-3208D01*
X175739Y-4073D01*
X175617Y-5000D01*
X175739Y-5928D01*
X176097Y-6792D01*
X176666Y-7534D01*
X177408Y-8103D01*
X178273Y-8461D01*
X179200Y-8583D01*
X180127Y-8461D01*
X180992Y-8103D01*
X181734Y-7534D01*
X182303Y-6792D01*
X182661Y-5928D01*
X182783Y-5000D01*
X182661Y-4073D01*
X182303Y-3208D01*
X181734Y-2466D01*
X180992Y-1897D01*
X180127Y-1539D01*
X179200Y-1417D01*
D02*
G37*
G36*
X149200D02*
X148273Y-1539D01*
X147408Y-1897D01*
X146666Y-2466D01*
X146097Y-3208D01*
X145739Y-4073D01*
X145617Y-5000D01*
X145739Y-5928D01*
X146097Y-6792D01*
X146666Y-7534D01*
X147408Y-8103D01*
X148273Y-8461D01*
X149200Y-8583D01*
X150127Y-8461D01*
X150992Y-8103D01*
X151734Y-7534D01*
X152303Y-6792D01*
X152661Y-5928D01*
X152783Y-5000D01*
X152661Y-4073D01*
X152303Y-3208D01*
X151734Y-2466D01*
X150992Y-1897D01*
X150127Y-1539D01*
X149200Y-1417D01*
D02*
G37*
G36*
X159200D02*
X158273Y-1539D01*
X157408Y-1897D01*
X156666Y-2466D01*
X156097Y-3208D01*
X155739Y-4073D01*
X155617Y-5000D01*
X155739Y-5928D01*
X156097Y-6792D01*
X156666Y-7534D01*
X157408Y-8103D01*
X158273Y-8461D01*
X159200Y-8583D01*
X160127Y-8461D01*
X160992Y-8103D01*
X161734Y-7534D01*
X162303Y-6792D01*
X162661Y-5928D01*
X162783Y-5000D01*
X162661Y-4073D01*
X162303Y-3208D01*
X161734Y-2466D01*
X160992Y-1897D01*
X160127Y-1539D01*
X159200Y-1417D01*
D02*
G37*
G36*
X39200Y8583D02*
X38273Y8461D01*
X37408Y8103D01*
X36666Y7534D01*
X36097Y6792D01*
X35739Y5928D01*
X35617Y5000D01*
X35739Y4073D01*
X36097Y3208D01*
X36666Y2466D01*
X37408Y1897D01*
X38273Y1539D01*
X39200Y1417D01*
X40127Y1539D01*
X40992Y1897D01*
X41734Y2466D01*
X42303Y3208D01*
X42661Y4073D01*
X42783Y5000D01*
X42661Y5928D01*
X42303Y6792D01*
X41734Y7534D01*
X40992Y8103D01*
X40127Y8461D01*
X39200Y8583D01*
D02*
G37*
G36*
X159200D02*
X158273Y8461D01*
X157408Y8103D01*
X156666Y7534D01*
X156097Y6792D01*
X155739Y5928D01*
X155617Y5000D01*
X155739Y4073D01*
X156097Y3208D01*
X156666Y2466D01*
X157408Y1897D01*
X158273Y1539D01*
X159200Y1417D01*
X160127Y1539D01*
X160992Y1897D01*
X161734Y2466D01*
X162303Y3208D01*
X162661Y4073D01*
X162783Y5000D01*
X162661Y5928D01*
X162303Y6792D01*
X161734Y7534D01*
X160992Y8103D01*
X160127Y8461D01*
X159200Y8583D01*
D02*
G37*
G36*
X169200D02*
X168273Y8461D01*
X167408Y8103D01*
X166666Y7534D01*
X166097Y6792D01*
X165739Y5928D01*
X165617Y5000D01*
X165739Y4073D01*
X166097Y3208D01*
X166666Y2466D01*
X167408Y1897D01*
X168273Y1539D01*
X169200Y1417D01*
X170127Y1539D01*
X170992Y1897D01*
X171734Y2466D01*
X172303Y3208D01*
X172661Y4073D01*
X172783Y5000D01*
X172661Y5928D01*
X172303Y6792D01*
X171734Y7534D01*
X170992Y8103D01*
X170127Y8461D01*
X169200Y8583D01*
D02*
G37*
G36*
X139200D02*
X138273Y8461D01*
X137408Y8103D01*
X136666Y7534D01*
X136097Y6792D01*
X135739Y5928D01*
X135617Y5000D01*
X135739Y4073D01*
X136097Y3208D01*
X136666Y2466D01*
X137408Y1897D01*
X138273Y1539D01*
X139200Y1417D01*
X140127Y1539D01*
X140992Y1897D01*
X141734Y2466D01*
X142303Y3208D01*
X142661Y4073D01*
X142783Y5000D01*
X142661Y5928D01*
X142303Y6792D01*
X141734Y7534D01*
X140992Y8103D01*
X140127Y8461D01*
X139200Y8583D01*
D02*
G37*
G36*
X149200D02*
X148273Y8461D01*
X147408Y8103D01*
X146666Y7534D01*
X146097Y6792D01*
X145739Y5928D01*
X145617Y5000D01*
X145739Y4073D01*
X146097Y3208D01*
X146666Y2466D01*
X147408Y1897D01*
X148273Y1539D01*
X149200Y1417D01*
X150127Y1539D01*
X150992Y1897D01*
X151734Y2466D01*
X152303Y3208D01*
X152661Y4073D01*
X152783Y5000D01*
X152661Y5928D01*
X152303Y6792D01*
X151734Y7534D01*
X150992Y8103D01*
X150127Y8461D01*
X149200Y8583D01*
D02*
G37*
G36*
X179200D02*
X178273Y8461D01*
X177408Y8103D01*
X176666Y7534D01*
X176097Y6792D01*
X175739Y5928D01*
X175617Y5000D01*
X175739Y4073D01*
X176097Y3208D01*
X176666Y2466D01*
X177408Y1897D01*
X178273Y1539D01*
X179200Y1417D01*
X180127Y1539D01*
X180992Y1897D01*
X181734Y2466D01*
X182303Y3208D01*
X182661Y4073D01*
X182783Y5000D01*
X182661Y5928D01*
X182303Y6792D01*
X181734Y7534D01*
X180992Y8103D01*
X180127Y8461D01*
X179200Y8583D01*
D02*
G37*
G36*
X209200D02*
X208273Y8461D01*
X207408Y8103D01*
X206666Y7534D01*
X206097Y6792D01*
X205739Y5928D01*
X205617Y5000D01*
X205739Y4073D01*
X206097Y3208D01*
X206666Y2466D01*
X207408Y1897D01*
X208273Y1539D01*
X209200Y1417D01*
X210127Y1539D01*
X210992Y1897D01*
X211734Y2466D01*
X212303Y3208D01*
X212661Y4073D01*
X212783Y5000D01*
X212661Y5928D01*
X212303Y6792D01*
X211734Y7534D01*
X210992Y8103D01*
X210127Y8461D01*
X209200Y8583D01*
D02*
G37*
G36*
X29200D02*
X28273Y8461D01*
X27465Y8127D01*
X20935D01*
X20127Y8461D01*
X19200Y8583D01*
X18273Y8461D01*
X17408Y8103D01*
X16666Y7534D01*
X16097Y6792D01*
X15739Y5928D01*
X15617Y5000D01*
X15739Y4073D01*
X16097Y3208D01*
X16666Y2466D01*
X17408Y1897D01*
X18273Y1539D01*
X19200Y1417D01*
X20127Y1539D01*
X20935Y1873D01*
X27465D01*
X28273Y1539D01*
X29200Y1417D01*
X30127Y1539D01*
X30992Y1897D01*
X31734Y2466D01*
X32303Y3208D01*
X32661Y4073D01*
X32783Y5000D01*
X32661Y5928D01*
X32303Y6792D01*
X31734Y7534D01*
X30992Y8103D01*
X30127Y8461D01*
X29200Y8583D01*
D02*
G37*
G36*
X189200D02*
X188273Y8461D01*
X187408Y8103D01*
X186666Y7534D01*
X186097Y6792D01*
X185739Y5928D01*
X185617Y5000D01*
X185739Y4073D01*
X186097Y3208D01*
X186666Y2466D01*
X187408Y1897D01*
X188273Y1539D01*
X189200Y1417D01*
X190127Y1539D01*
X190992Y1897D01*
X191734Y2466D01*
X192303Y3208D01*
X192661Y4073D01*
X192783Y5000D01*
X192661Y5928D01*
X192303Y6792D01*
X191734Y7534D01*
X190992Y8103D01*
X190127Y8461D01*
X189200Y8583D01*
D02*
G37*
G36*
X199200D02*
X198273Y8461D01*
X197408Y8103D01*
X196666Y7534D01*
X196097Y6792D01*
X195739Y5928D01*
X195617Y5000D01*
X195739Y4073D01*
X196097Y3208D01*
X196666Y2466D01*
X197408Y1897D01*
X198273Y1539D01*
X199200Y1417D01*
X200127Y1539D01*
X200992Y1897D01*
X201734Y2466D01*
X202303Y3208D01*
X202661Y4073D01*
X202783Y5000D01*
X202661Y5928D01*
X202303Y6792D01*
X201734Y7534D01*
X200992Y8103D01*
X200127Y8461D01*
X199200Y8583D01*
D02*
G37*
G36*
X69200D02*
X68273Y8461D01*
X67408Y8103D01*
X66666Y7534D01*
X66097Y6792D01*
X65739Y5928D01*
X65617Y5000D01*
X65739Y4073D01*
X66097Y3208D01*
X66666Y2466D01*
X67408Y1897D01*
X68273Y1539D01*
X69200Y1417D01*
X70127Y1539D01*
X70992Y1897D01*
X71734Y2466D01*
X72303Y3208D01*
X72661Y4073D01*
X72783Y5000D01*
X72661Y5928D01*
X72303Y6792D01*
X71734Y7534D01*
X70992Y8103D01*
X70127Y8461D01*
X69200Y8583D01*
D02*
G37*
G36*
X79200D02*
X78273Y8461D01*
X77408Y8103D01*
X76666Y7534D01*
X76097Y6792D01*
X75739Y5928D01*
X75617Y5000D01*
X75739Y4073D01*
X76097Y3208D01*
X76666Y2466D01*
X77408Y1897D01*
X78273Y1539D01*
X79200Y1417D01*
X80127Y1539D01*
X80992Y1897D01*
X81734Y2466D01*
X82303Y3208D01*
X82661Y4073D01*
X82783Y5000D01*
X82661Y5928D01*
X82303Y6792D01*
X81734Y7534D01*
X80992Y8103D01*
X80127Y8461D01*
X79200Y8583D01*
D02*
G37*
G36*
X49200D02*
X48273Y8461D01*
X47408Y8103D01*
X46666Y7534D01*
X46097Y6792D01*
X45739Y5928D01*
X45617Y5000D01*
X45739Y4073D01*
X46097Y3208D01*
X46666Y2466D01*
X47408Y1897D01*
X48273Y1539D01*
X49200Y1417D01*
X50127Y1539D01*
X50992Y1897D01*
X51734Y2466D01*
X52303Y3208D01*
X52661Y4073D01*
X52783Y5000D01*
X52661Y5928D01*
X52303Y6792D01*
X51734Y7534D01*
X50992Y8103D01*
X50127Y8461D01*
X49200Y8583D01*
D02*
G37*
G36*
X59200D02*
X58273Y8461D01*
X57408Y8103D01*
X56666Y7534D01*
X56097Y6792D01*
X55739Y5928D01*
X55617Y5000D01*
X55739Y4073D01*
X56097Y3208D01*
X56666Y2466D01*
X57408Y1897D01*
X58273Y1539D01*
X59200Y1417D01*
X60127Y1539D01*
X60992Y1897D01*
X61734Y2466D01*
X62303Y3208D01*
X62661Y4073D01*
X62783Y5000D01*
X62661Y5928D01*
X62303Y6792D01*
X61734Y7534D01*
X60992Y8103D01*
X60127Y8461D01*
X59200Y8583D01*
D02*
G37*
G36*
X89200D02*
X88273Y8461D01*
X87408Y8103D01*
X86666Y7534D01*
X86097Y6792D01*
X85739Y5928D01*
X85617Y5000D01*
X85739Y4073D01*
X86097Y3208D01*
X86666Y2466D01*
X87408Y1897D01*
X88273Y1539D01*
X89200Y1417D01*
X90127Y1539D01*
X90992Y1897D01*
X91734Y2466D01*
X92303Y3208D01*
X92661Y4073D01*
X92783Y5000D01*
X92661Y5928D01*
X92303Y6792D01*
X91734Y7534D01*
X90992Y8103D01*
X90127Y8461D01*
X89200Y8583D01*
D02*
G37*
G36*
X119200D02*
X118273Y8461D01*
X117408Y8103D01*
X116666Y7534D01*
X116097Y6792D01*
X115739Y5928D01*
X115617Y5000D01*
X115739Y4073D01*
X116097Y3208D01*
X116666Y2466D01*
X117408Y1897D01*
X118273Y1539D01*
X119200Y1417D01*
X120127Y1539D01*
X120992Y1897D01*
X121734Y2466D01*
X122303Y3208D01*
X122661Y4073D01*
X122783Y5000D01*
X122661Y5928D01*
X122303Y6792D01*
X121734Y7534D01*
X120992Y8103D01*
X120127Y8461D01*
X119200Y8583D01*
D02*
G37*
G36*
X129200D02*
X128273Y8461D01*
X127408Y8103D01*
X126666Y7534D01*
X126097Y6792D01*
X125739Y5928D01*
X125617Y5000D01*
X125739Y4073D01*
X126097Y3208D01*
X126666Y2466D01*
X127408Y1897D01*
X128273Y1539D01*
X129200Y1417D01*
X130127Y1539D01*
X130992Y1897D01*
X131734Y2466D01*
X132303Y3208D01*
X132661Y4073D01*
X132783Y5000D01*
X132661Y5928D01*
X132303Y6792D01*
X131734Y7534D01*
X130992Y8103D01*
X130127Y8461D01*
X129200Y8583D01*
D02*
G37*
G36*
X99200D02*
X98273Y8461D01*
X97408Y8103D01*
X96666Y7534D01*
X96097Y6792D01*
X95739Y5928D01*
X95617Y5000D01*
X95739Y4073D01*
X96097Y3208D01*
X96666Y2466D01*
X97408Y1897D01*
X98273Y1539D01*
X99200Y1417D01*
X100127Y1539D01*
X100992Y1897D01*
X101734Y2466D01*
X102303Y3208D01*
X102661Y4073D01*
X102783Y5000D01*
X102661Y5928D01*
X102303Y6792D01*
X101734Y7534D01*
X100992Y8103D01*
X100127Y8461D01*
X99200Y8583D01*
D02*
G37*
G36*
X109200D02*
X108273Y8461D01*
X107408Y8103D01*
X106666Y7534D01*
X106097Y6792D01*
X105739Y5928D01*
X105617Y5000D01*
X105739Y4073D01*
X106097Y3208D01*
X106666Y2466D01*
X107408Y1897D01*
X108273Y1539D01*
X109200Y1417D01*
X110127Y1539D01*
X110992Y1897D01*
X111734Y2466D01*
X112303Y3208D01*
X112661Y4073D01*
X112783Y5000D01*
X112661Y5928D01*
X112303Y6792D01*
X111734Y7534D01*
X110992Y8103D01*
X110127Y8461D01*
X109200Y8583D01*
D02*
G37*
G36*
X153996Y-27302D02*
X153069Y-27424D01*
X152204Y-27782D01*
X151462Y-28352D01*
X150893Y-29094D01*
X150535Y-29958D01*
X150413Y-30886D01*
X150535Y-31813D01*
X150893Y-32678D01*
X151462Y-33420D01*
X152204Y-33989D01*
X153069Y-34347D01*
X153996Y-34469D01*
X154923Y-34347D01*
X155788Y-33989D01*
X156530Y-33420D01*
X157099Y-32678D01*
X157457Y-31813D01*
X157580Y-30886D01*
X157457Y-29958D01*
X157099Y-29094D01*
X156530Y-28352D01*
X155788Y-27782D01*
X154923Y-27424D01*
X153996Y-27302D01*
D02*
G37*
G36*
X171713D02*
X170785Y-27424D01*
X169921Y-27782D01*
X169179Y-28352D01*
X168609Y-29094D01*
X168251Y-29958D01*
X168129Y-30886D01*
X168251Y-31813D01*
X168609Y-32678D01*
X169179Y-33420D01*
X169921Y-33989D01*
X170785Y-34347D01*
X171713Y-34469D01*
X172640Y-34347D01*
X173504Y-33989D01*
X174246Y-33420D01*
X174816Y-32678D01*
X175174Y-31813D01*
X175296Y-30886D01*
X175174Y-29958D01*
X174816Y-29094D01*
X174246Y-28352D01*
X173504Y-27782D01*
X172640Y-27424D01*
X171713Y-27302D01*
D02*
G37*
G36*
X3043Y-38244D02*
Y-41500D01*
X5906D01*
Y-38244D01*
X3043D01*
D02*
G37*
G36*
X22356Y-25657D02*
X14844D01*
Y-27947D01*
X14844Y-28519D01*
X15244Y-29853D01*
Y-35206D01*
X15244D01*
X15929Y-36422D01*
X15980Y-36809D01*
X16292Y-37563D01*
X16789Y-38211D01*
X17437Y-38708D01*
X18191Y-39020D01*
X19000Y-39127D01*
X19809Y-39020D01*
X20563Y-38708D01*
X21211Y-38211D01*
X21708Y-37563D01*
X22020Y-36809D01*
X22127Y-36000D01*
X22020Y-35191D01*
X21956Y-35035D01*
Y-29853D01*
X22356Y-28519D01*
X22356Y-27947D01*
Y-25657D01*
D02*
G37*
G36*
X87205Y-20787D02*
X86277Y-20909D01*
X85413Y-21267D01*
X84671Y-21836D01*
X84101Y-22578D01*
X83743Y-23443D01*
X83621Y-24370D01*
X83743Y-25297D01*
X84101Y-26162D01*
X84671Y-26904D01*
X85413Y-27473D01*
X86277Y-27831D01*
X87205Y-27953D01*
X88132Y-27831D01*
X88996Y-27473D01*
X89739Y-26904D01*
X90308Y-26162D01*
X90666Y-25297D01*
X90788Y-24370D01*
X90666Y-23443D01*
X90308Y-22578D01*
X89739Y-21836D01*
X88996Y-21267D01*
X88132Y-20909D01*
X87205Y-20787D01*
D02*
G37*
G36*
X117205D02*
X116277Y-20909D01*
X115413Y-21267D01*
X114671Y-21836D01*
X114101Y-22578D01*
X113743Y-23443D01*
X113621Y-24370D01*
X113743Y-25297D01*
X114101Y-26162D01*
X114671Y-26904D01*
X115413Y-27473D01*
X116277Y-27831D01*
X117205Y-27953D01*
X118132Y-27831D01*
X118996Y-27473D01*
X119739Y-26904D01*
X120308Y-26162D01*
X120666Y-25297D01*
X120788Y-24370D01*
X120666Y-23443D01*
X120308Y-22578D01*
X119739Y-21836D01*
X118996Y-21267D01*
X118132Y-20909D01*
X117205Y-20787D01*
D02*
G37*
G36*
X127205D02*
X126277Y-20909D01*
X125413Y-21267D01*
X124671Y-21836D01*
X124101Y-22578D01*
X123743Y-23443D01*
X123621Y-24370D01*
X123743Y-25297D01*
X124101Y-26162D01*
X124671Y-26904D01*
X125413Y-27473D01*
X126277Y-27831D01*
X127205Y-27953D01*
X128132Y-27831D01*
X128996Y-27473D01*
X129739Y-26904D01*
X130308Y-26162D01*
X130666Y-25297D01*
X130788Y-24370D01*
X130666Y-23443D01*
X130308Y-22578D01*
X129739Y-21836D01*
X128996Y-21267D01*
X128132Y-20909D01*
X127205Y-20787D01*
D02*
G37*
G36*
X97205D02*
X96277Y-20909D01*
X95413Y-21267D01*
X94671Y-21836D01*
X94101Y-22578D01*
X93743Y-23443D01*
X93621Y-24370D01*
X93743Y-25297D01*
X94101Y-26162D01*
X94671Y-26904D01*
X95413Y-27473D01*
X96277Y-27831D01*
X97205Y-27953D01*
X98132Y-27831D01*
X98996Y-27473D01*
X99739Y-26904D01*
X100308Y-26162D01*
X100666Y-25297D01*
X100788Y-24370D01*
X100666Y-23443D01*
X100308Y-22578D01*
X99739Y-21836D01*
X98996Y-21267D01*
X98132Y-20909D01*
X97205Y-20787D01*
D02*
G37*
G36*
X107205D02*
X106277Y-20909D01*
X105413Y-21267D01*
X104671Y-21836D01*
X104101Y-22578D01*
X103743Y-23443D01*
X103621Y-24370D01*
X103743Y-25297D01*
X104101Y-26162D01*
X104671Y-26904D01*
X105413Y-27473D01*
X106277Y-27831D01*
X107205Y-27953D01*
X108132Y-27831D01*
X108996Y-27473D01*
X109739Y-26904D01*
X110308Y-26162D01*
X110666Y-25297D01*
X110788Y-24370D01*
X110666Y-23443D01*
X110308Y-22578D01*
X109739Y-21836D01*
X108996Y-21267D01*
X108132Y-20909D01*
X107205Y-20787D01*
D02*
G37*
G36*
X153996Y-37302D02*
X153069Y-37424D01*
X152204Y-37782D01*
X151462Y-38352D01*
X150893Y-39094D01*
X150535Y-39958D01*
X150413Y-40886D01*
X150535Y-41813D01*
X150893Y-42678D01*
X151462Y-43420D01*
X152204Y-43989D01*
X153069Y-44347D01*
X153996Y-44469D01*
X154923Y-44347D01*
X155788Y-43989D01*
X156530Y-43420D01*
X156680Y-43224D01*
X158285Y-43075D01*
X158525Y-43155D01*
X160239Y-44869D01*
Y-50886D01*
X160363Y-51510D01*
X160716Y-52039D01*
X167016Y-58339D01*
X167545Y-58692D01*
X168169Y-58816D01*
X179980D01*
X180605Y-58692D01*
X181134Y-58339D01*
X185774Y-53698D01*
X187441D01*
X187507Y-53859D01*
X188076Y-54601D01*
X188819Y-55170D01*
X189683Y-55528D01*
X190610Y-55650D01*
X191538Y-55528D01*
X192402Y-55170D01*
X193144Y-54601D01*
X193714Y-53859D01*
X193780Y-53698D01*
X207440D01*
X207507Y-53859D01*
X208076Y-54601D01*
X208819Y-55170D01*
X209683Y-55528D01*
X210610Y-55650D01*
X211538Y-55528D01*
X212402Y-55170D01*
X213144Y-54601D01*
X213714Y-53859D01*
X214071Y-52994D01*
X214194Y-52067D01*
X214071Y-51139D01*
X213714Y-50275D01*
X213144Y-49533D01*
X212402Y-48964D01*
X211538Y-48606D01*
X210610Y-48483D01*
X209683Y-48606D01*
X208819Y-48964D01*
X208076Y-49533D01*
X207507Y-50275D01*
X207440Y-50436D01*
X193780D01*
X193714Y-50275D01*
X193144Y-49533D01*
X192402Y-48964D01*
X191538Y-48606D01*
X190610Y-48483D01*
X189683Y-48606D01*
X188819Y-48964D01*
X188076Y-49533D01*
X187507Y-50275D01*
X187441Y-50436D01*
X185098D01*
X184474Y-50560D01*
X183945Y-50913D01*
X179305Y-55554D01*
X176195D01*
X175265Y-54439D01*
X175265Y-54054D01*
Y-47333D01*
X168160D01*
Y-52747D01*
X166660Y-53369D01*
X163501Y-50210D01*
Y-44193D01*
X163377Y-43569D01*
X163024Y-43039D01*
X159716Y-39732D01*
X159187Y-39379D01*
X158563Y-39255D01*
X157166D01*
X157099Y-39094D01*
X156530Y-38352D01*
X155788Y-37782D01*
X154923Y-37424D01*
X153996Y-37302D01*
D02*
G37*
G36*
X157549Y-47333D02*
X150443D01*
Y-54439D01*
X157549D01*
Y-47333D01*
D02*
G37*
G36*
X137205Y-50787D02*
X136277Y-50909D01*
X135413Y-51267D01*
X134671Y-51836D01*
X134101Y-52578D01*
X133743Y-53443D01*
X133621Y-54370D01*
X133743Y-55297D01*
X134101Y-56162D01*
X134671Y-56904D01*
X135413Y-57473D01*
X136277Y-57831D01*
X137205Y-57954D01*
X138132Y-57831D01*
X138996Y-57473D01*
X139739Y-56904D01*
X140308Y-56162D01*
X140666Y-55297D01*
X140788Y-54370D01*
X140666Y-53443D01*
X140308Y-52578D01*
X139739Y-51836D01*
X138996Y-51267D01*
X138132Y-50909D01*
X137205Y-50787D01*
D02*
G37*
G36*
X8353Y-48647D02*
X1247D01*
Y-55753D01*
X8353D01*
Y-48647D01*
D02*
G37*
G36*
X48052Y-51386D02*
X45602D01*
Y-52486D01*
X48052D01*
Y-51386D01*
D02*
G37*
G36*
X5906Y-42500D02*
X3043D01*
Y-45756D01*
X5906D01*
Y-42500D01*
D02*
G37*
G36*
X171713Y-37302D02*
X170785Y-37424D01*
X169921Y-37782D01*
X169179Y-38352D01*
X168609Y-39094D01*
X168251Y-39958D01*
X168129Y-40886D01*
X168251Y-41813D01*
X168609Y-42678D01*
X169179Y-43420D01*
X169921Y-43989D01*
X170785Y-44347D01*
X171713Y-44469D01*
X172640Y-44347D01*
X173504Y-43989D01*
X174246Y-43420D01*
X174816Y-42678D01*
X174882Y-42517D01*
X187086D01*
X187149Y-42994D01*
X187507Y-43859D01*
X188076Y-44601D01*
X188819Y-45170D01*
X189683Y-45528D01*
X190610Y-45650D01*
X191538Y-45528D01*
X192402Y-45170D01*
X193144Y-44601D01*
X193714Y-43859D01*
X193780Y-43698D01*
X207440D01*
X207507Y-43859D01*
X208076Y-44601D01*
X208819Y-45170D01*
X209683Y-45528D01*
X210610Y-45650D01*
X211538Y-45528D01*
X212402Y-45170D01*
X213144Y-44601D01*
X213714Y-43859D01*
X214071Y-42994D01*
X214194Y-42067D01*
X214071Y-41140D01*
X213714Y-40275D01*
X213144Y-39533D01*
X212402Y-38964D01*
X211538Y-38606D01*
X210610Y-38484D01*
X209683Y-38606D01*
X208819Y-38964D01*
X208076Y-39533D01*
X207507Y-40275D01*
X207440Y-40436D01*
X193780D01*
X193714Y-40275D01*
X193144Y-39533D01*
X192402Y-38964D01*
X191538Y-38606D01*
X190610Y-38484D01*
X189683Y-38606D01*
X188819Y-38964D01*
X188440Y-39255D01*
X174882D01*
X174816Y-39094D01*
X174246Y-38352D01*
X173504Y-37782D01*
X172640Y-37424D01*
X171713Y-37302D01*
D02*
G37*
G36*
X51502Y-51386D02*
X49052D01*
Y-52486D01*
X51502D01*
Y-51386D01*
D02*
G37*
G36*
X-819Y-38244D02*
X-2153Y-38644D01*
X-7506D01*
Y-45356D01*
X-6775D01*
Y-49007D01*
X-6992Y-49097D01*
X-7734Y-49666D01*
X-8303Y-50408D01*
X-8661Y-51273D01*
X-8783Y-52200D01*
X-8661Y-53127D01*
X-8303Y-53992D01*
X-7734Y-54734D01*
X-6992Y-55303D01*
X-6128Y-55661D01*
X-5200Y-55783D01*
X-4273Y-55661D01*
X-3408Y-55303D01*
X-2666Y-54734D01*
X-2097Y-53992D01*
X-1739Y-53127D01*
X-1617Y-52200D01*
X-1739Y-51273D01*
X-2097Y-50408D01*
X-2666Y-49666D01*
X-3408Y-49097D01*
X-3512Y-49054D01*
Y-46417D01*
X-2611Y-45516D01*
X-2012Y-45398D01*
X-819Y-45756D01*
X-247Y-45756D01*
X2043D01*
Y-42000D01*
Y-38244D01*
X-247D01*
X-773Y-38244D01*
X-819D01*
D02*
G37*
G36*
X140758Y-20817D02*
X133652D01*
Y-27923D01*
X140758D01*
Y-20817D01*
D02*
G37*
G36*
X23153Y-5500D02*
X19700D01*
Y-8953D01*
X23153D01*
Y-5500D01*
D02*
G37*
G36*
X98700D02*
X95279D01*
X95349Y-6032D01*
X95747Y-6993D01*
X96381Y-7819D01*
X97207Y-8453D01*
X98168Y-8851D01*
X98700Y-8921D01*
Y-5500D01*
D02*
G37*
G36*
X59200Y-1417D02*
X58273Y-1539D01*
X57408Y-1897D01*
X56666Y-2466D01*
X56097Y-3208D01*
X55739Y-4073D01*
X55617Y-5000D01*
X55739Y-5928D01*
X56097Y-6792D01*
X56666Y-7534D01*
X57408Y-8103D01*
X57826Y-8276D01*
X57528Y-9776D01*
X55707D01*
X52426Y-6496D01*
X52661Y-5928D01*
X52783Y-5000D01*
X52661Y-4073D01*
X52303Y-3208D01*
X51734Y-2466D01*
X50992Y-1897D01*
X50127Y-1539D01*
X49200Y-1417D01*
X48273Y-1539D01*
X47408Y-1897D01*
X46666Y-2466D01*
X46097Y-3208D01*
X45739Y-4073D01*
X45617Y-5000D01*
X45739Y-5928D01*
X46097Y-6792D01*
X46666Y-7534D01*
X47408Y-8103D01*
X48273Y-8461D01*
X49200Y-8583D01*
X50127Y-8461D01*
X50696Y-8226D01*
X54335Y-11865D01*
X54732Y-12130D01*
X55200Y-12224D01*
X59706D01*
X60912Y-13430D01*
X60613Y-15044D01*
X60449Y-15142D01*
X59877Y-15142D01*
X57587D01*
Y-18898D01*
Y-22654D01*
X59877D01*
X60449Y-22654D01*
X61450Y-22354D01*
X62510Y-22874D01*
X62950Y-23314D01*
Y-30512D01*
X63043Y-30980D01*
X63308Y-31377D01*
X64487Y-32556D01*
X63737Y-33927D01*
X63386Y-33881D01*
X62577Y-33988D01*
X61822Y-34300D01*
X61644Y-34437D01*
X61590Y-34401D01*
X61122Y-34308D01*
X56154D01*
X55856Y-32808D01*
X56288Y-32629D01*
X56935Y-32132D01*
X57432Y-31485D01*
X57745Y-30731D01*
X57851Y-29921D01*
X57745Y-29112D01*
X57432Y-28358D01*
X56935Y-27710D01*
X56288Y-27213D01*
X55534Y-26901D01*
X54724Y-26794D01*
X53915Y-26901D01*
X53161Y-27213D01*
X52602Y-27642D01*
X52205Y-27574D01*
X51102Y-27086D01*
Y-26654D01*
X48794D01*
X48404Y-26396D01*
X47609Y-25131D01*
X47627Y-25000D01*
X47520Y-24191D01*
X47505Y-24154D01*
X48356Y-22703D01*
X48433Y-22654D01*
X49106D01*
Y-18898D01*
Y-15142D01*
X46244D01*
Y-15142D01*
X45482Y-15542D01*
X41950D01*
X41708Y-14956D01*
X41211Y-14309D01*
X40563Y-13812D01*
X39809Y-13499D01*
X39000Y-13393D01*
X38191Y-13499D01*
X37437Y-13812D01*
X36789Y-14309D01*
X36292Y-14956D01*
X35980Y-15710D01*
X35873Y-16520D01*
X35980Y-17329D01*
X36123Y-17676D01*
X35877Y-18044D01*
X35784Y-18512D01*
Y-21480D01*
X34456Y-21894D01*
X34284Y-21894D01*
X31200D01*
Y-25257D01*
X30700D01*
Y-25757D01*
X26944D01*
Y-28047D01*
X26944Y-28619D01*
X27344Y-29953D01*
Y-34369D01*
X27292Y-34437D01*
X26980Y-35191D01*
X26873Y-36000D01*
X26980Y-36809D01*
X27292Y-37563D01*
X27789Y-38211D01*
X28437Y-38708D01*
X29191Y-39020D01*
X30000Y-39127D01*
X30809Y-39020D01*
X31563Y-38708D01*
X32211Y-38211D01*
X32708Y-37563D01*
X33020Y-36809D01*
X33127Y-36000D01*
X33736Y-35306D01*
X34056D01*
Y-30418D01*
X34743Y-29795D01*
X35784Y-30307D01*
Y-39913D01*
X35139Y-40584D01*
X34662Y-40928D01*
X34351Y-41033D01*
X33858Y-40968D01*
X33049Y-41074D01*
X32295Y-41387D01*
X31647Y-41884D01*
X31150Y-42531D01*
X30838Y-43285D01*
X30731Y-44094D01*
X30838Y-44904D01*
X31150Y-45658D01*
X30369Y-47103D01*
X23034D01*
X8353Y-32422D01*
Y-27047D01*
X1247D01*
Y-34153D01*
X6622D01*
X21662Y-49192D01*
X22059Y-49457D01*
X22527Y-49550D01*
X45602D01*
Y-50386D01*
X51502D01*
Y-49286D01*
X51102D01*
Y-47127D01*
X51102D01*
Y-46968D01*
X51102Y-46968D01*
X51102Y-44568D01*
X51102Y-43068D01*
Y-42009D01*
X52546Y-41873D01*
X55040D01*
X56089Y-42965D01*
X56057Y-43458D01*
X55560Y-44106D01*
X55247Y-44860D01*
X55141Y-45669D01*
X55247Y-46479D01*
X55560Y-47233D01*
X56057Y-47880D01*
X56704Y-48377D01*
X57459Y-48689D01*
X58268Y-48796D01*
X59077Y-48689D01*
X59831Y-48377D01*
X60479Y-47880D01*
X60976Y-47233D01*
X61288Y-46479D01*
X61395Y-45669D01*
X61288Y-44860D01*
X60976Y-44106D01*
X60479Y-43458D01*
X59831Y-42961D01*
X59346Y-42760D01*
X59133Y-42442D01*
X56475Y-39785D01*
X56078Y-39519D01*
X55610Y-39426D01*
X52546D01*
X51102Y-39290D01*
X51102Y-36891D01*
X52546Y-36755D01*
X60037D01*
X60259Y-37008D01*
X60366Y-37817D01*
X60678Y-38571D01*
X61175Y-39219D01*
X61822Y-39716D01*
X62577Y-40028D01*
X63386Y-40135D01*
X64195Y-40028D01*
X64949Y-39716D01*
X65597Y-39219D01*
X66094Y-38571D01*
X66406Y-37817D01*
X66513Y-37008D01*
X66406Y-36199D01*
X66172Y-35634D01*
X66338Y-35118D01*
X67026Y-34196D01*
X67533D01*
X68977Y-34332D01*
X68977Y-36731D01*
X68977Y-36731D01*
Y-36891D01*
X68977Y-36891D01*
X68977Y-39291D01*
X68977Y-41850D01*
X68977Y-41850D01*
Y-42009D01*
X68977Y-42009D01*
X68977Y-44409D01*
X68977Y-45768D01*
X68977Y-46968D01*
X68977Y-48327D01*
X68977Y-49527D01*
X68977Y-52086D01*
X71409D01*
X71527Y-52109D01*
X82784D01*
X83770Y-53379D01*
X83743Y-53443D01*
X83621Y-54370D01*
X83743Y-55297D01*
X84101Y-56162D01*
X84671Y-56904D01*
X85413Y-57473D01*
X86277Y-57831D01*
X87205Y-57954D01*
X88132Y-57831D01*
X88996Y-57473D01*
X89739Y-56904D01*
X90308Y-56162D01*
X90666Y-55297D01*
X90788Y-54370D01*
X90666Y-53443D01*
X90308Y-52578D01*
X89739Y-51836D01*
X88996Y-51267D01*
X88132Y-50909D01*
X88380Y-49452D01*
X90556D01*
X93979Y-52874D01*
X93743Y-53443D01*
X93621Y-54370D01*
X93743Y-55297D01*
X94101Y-56162D01*
X94671Y-56904D01*
X95413Y-57473D01*
X96277Y-57831D01*
X97205Y-57954D01*
X98132Y-57831D01*
X98996Y-57473D01*
X99739Y-56904D01*
X100308Y-56162D01*
X100666Y-55297D01*
X100788Y-54370D01*
X100666Y-53443D01*
X100308Y-52578D01*
X99739Y-51836D01*
X98996Y-51267D01*
X98132Y-50909D01*
X97205Y-50787D01*
X96277Y-50909D01*
X95709Y-51144D01*
X93056Y-48491D01*
X93678Y-46991D01*
X98096D01*
X103979Y-52874D01*
X103743Y-53443D01*
X103621Y-54370D01*
X103743Y-55297D01*
X104101Y-56162D01*
X104671Y-56904D01*
X105413Y-57473D01*
X106277Y-57831D01*
X107205Y-57954D01*
X108132Y-57831D01*
X108996Y-57473D01*
X109739Y-56904D01*
X110308Y-56162D01*
X110666Y-55297D01*
X110788Y-54370D01*
X110666Y-53443D01*
X110308Y-52578D01*
X109739Y-51836D01*
X108996Y-51267D01*
X108132Y-50909D01*
X107205Y-50787D01*
X106277Y-50909D01*
X105709Y-51144D01*
X100497Y-45932D01*
X101119Y-44432D01*
X130020D01*
X130488Y-44339D01*
X130885Y-44074D01*
X135465Y-39494D01*
X135805Y-39634D01*
X136614Y-39741D01*
X137423Y-39634D01*
X138178Y-39322D01*
X138825Y-38825D01*
X139322Y-38177D01*
X139634Y-37423D01*
X139741Y-36614D01*
X139634Y-35805D01*
X139322Y-35051D01*
X138825Y-34403D01*
X138178Y-33906D01*
X137423Y-33594D01*
X136689Y-33497D01*
X136597Y-33470D01*
X135427Y-32300D01*
X135400Y-32208D01*
X135304Y-31474D01*
X134991Y-30720D01*
X134494Y-30073D01*
X133847Y-29576D01*
X133093Y-29263D01*
X132283Y-29157D01*
X131474Y-29263D01*
X130720Y-29576D01*
X130072Y-30073D01*
X129576Y-30720D01*
X129263Y-31474D01*
X129157Y-32283D01*
X129263Y-33093D01*
X129404Y-33433D01*
X123352Y-39484D01*
X87042D01*
X86541Y-38234D01*
X86504Y-37984D01*
X86960Y-37390D01*
X87272Y-36636D01*
X87379Y-35827D01*
X87329Y-35450D01*
X88265Y-34431D01*
X88577Y-34247D01*
X88912Y-34237D01*
X89381Y-34598D01*
X90136Y-34910D01*
X90945Y-35017D01*
X91754Y-34910D01*
X92508Y-34598D01*
X93156Y-34101D01*
X93653Y-33453D01*
X93965Y-32699D01*
X94072Y-31890D01*
X93965Y-31080D01*
X93653Y-30326D01*
X93156Y-29679D01*
X92508Y-29182D01*
X91754Y-28870D01*
X90945Y-28763D01*
X90136Y-28870D01*
X89381Y-29182D01*
X88734Y-29679D01*
X88237Y-30326D01*
X88096Y-30666D01*
X82156D01*
X81075Y-29166D01*
X81080Y-29134D01*
X80973Y-28325D01*
X80661Y-27571D01*
X80164Y-26923D01*
X79516Y-26426D01*
X78762Y-26114D01*
X77953Y-26007D01*
X77144Y-26114D01*
X76525Y-26370D01*
X76018Y-26155D01*
X75126Y-25505D01*
X75127Y-25500D01*
X75020Y-24691D01*
X74708Y-23937D01*
X74211Y-23289D01*
X73563Y-22792D01*
X72809Y-22480D01*
X72000Y-22373D01*
X71191Y-22480D01*
X70437Y-22792D01*
X69789Y-23289D01*
X69292Y-23937D01*
X68980Y-24691D01*
X68873Y-25500D01*
X68977Y-26654D01*
X68977Y-26654D01*
X68977Y-29054D01*
X68977Y-30441D01*
X68977Y-31613D01*
X67533Y-31749D01*
X67141D01*
X65397Y-30005D01*
Y-22253D01*
X67135D01*
Y-15542D01*
X65397D01*
Y-14961D01*
X65304Y-14492D01*
X65038Y-14096D01*
X61078Y-10135D01*
X60681Y-9870D01*
X60568Y-9847D01*
X60503Y-8306D01*
X60992Y-8103D01*
X61734Y-7534D01*
X62303Y-6792D01*
X62661Y-5928D01*
X62783Y-5000D01*
X62661Y-4073D01*
X62303Y-3208D01*
X61734Y-2466D01*
X60992Y-1897D01*
X60127Y-1539D01*
X59200Y-1417D01*
D02*
G37*
G36*
X18700Y-5500D02*
X15247D01*
Y-8953D01*
X18700D01*
Y-5500D01*
D02*
G37*
G36*
X103121D02*
X99700D01*
Y-8921D01*
X100232Y-8851D01*
X101193Y-8453D01*
X102019Y-7819D01*
X102653Y-6993D01*
X103051Y-6032D01*
X103121Y-5500D01*
D02*
G37*
G36*
X69200Y-1417D02*
X68273Y-1539D01*
X67408Y-1897D01*
X66666Y-2466D01*
X66097Y-3208D01*
X65739Y-4073D01*
X65617Y-5000D01*
X65739Y-5928D01*
X66097Y-6792D01*
X66666Y-7534D01*
X67408Y-8103D01*
X68273Y-8461D01*
X69200Y-8583D01*
X70127Y-8461D01*
X70992Y-8103D01*
X71734Y-7534D01*
X72303Y-6792D01*
X72661Y-5928D01*
X72783Y-5000D01*
X72661Y-4073D01*
X72303Y-3208D01*
X71734Y-2466D01*
X70992Y-1897D01*
X70127Y-1539D01*
X69200Y-1417D01*
D02*
G37*
G36*
X79200D02*
X78273Y-1539D01*
X77408Y-1897D01*
X76666Y-2466D01*
X76097Y-3208D01*
X75739Y-4073D01*
X75617Y-5000D01*
X75739Y-5928D01*
X76097Y-6792D01*
X76666Y-7534D01*
X77408Y-8103D01*
X78273Y-8461D01*
X79200Y-8583D01*
X80127Y-8461D01*
X80992Y-8103D01*
X81734Y-7534D01*
X82303Y-6792D01*
X82661Y-5928D01*
X82783Y-5000D01*
X82661Y-4073D01*
X82303Y-3208D01*
X81734Y-2466D01*
X80992Y-1897D01*
X80127Y-1539D01*
X79200Y-1417D01*
D02*
G37*
G36*
X29200D02*
X28273Y-1539D01*
X27408Y-1897D01*
X26666Y-2466D01*
X26097Y-3208D01*
X25739Y-4073D01*
X25617Y-5000D01*
X25739Y-5928D01*
X26097Y-6792D01*
X26666Y-7534D01*
X27408Y-8103D01*
X28273Y-8461D01*
X29200Y-8583D01*
X30127Y-8461D01*
X30992Y-8103D01*
X31734Y-7534D01*
X32303Y-6792D01*
X32661Y-5928D01*
X32783Y-5000D01*
X32661Y-4073D01*
X32303Y-3208D01*
X31734Y-2466D01*
X30992Y-1897D01*
X30127Y-1539D01*
X29200Y-1417D01*
D02*
G37*
G36*
X39200D02*
X38273Y-1539D01*
X37408Y-1897D01*
X36666Y-2466D01*
X36097Y-3208D01*
X35739Y-4073D01*
X35617Y-5000D01*
X35739Y-5928D01*
X36097Y-6792D01*
X36666Y-7534D01*
X37408Y-8103D01*
X38273Y-8461D01*
X39200Y-8583D01*
X40127Y-8461D01*
X40992Y-8103D01*
X41734Y-7534D01*
X42303Y-6792D01*
X42661Y-5928D01*
X42783Y-5000D01*
X42661Y-4073D01*
X42303Y-3208D01*
X41734Y-2466D01*
X40992Y-1897D01*
X40127Y-1539D01*
X39200Y-1417D01*
D02*
G37*
G36*
X19100Y-21794D02*
Y-24657D01*
X22356D01*
Y-21794D01*
X19100D01*
D02*
G37*
G36*
X-819Y-16244D02*
X-2153Y-16644D01*
X-7506D01*
Y-23356D01*
X-6775D01*
Y-27407D01*
X-6992Y-27497D01*
X-7734Y-28066D01*
X-8303Y-28808D01*
X-8661Y-29673D01*
X-8783Y-30600D01*
X-8661Y-31527D01*
X-8303Y-32392D01*
X-7734Y-33134D01*
X-6992Y-33703D01*
X-6128Y-34061D01*
X-5200Y-34183D01*
X-4273Y-34061D01*
X-3408Y-33703D01*
X-2666Y-33134D01*
X-2097Y-32392D01*
X-1739Y-31527D01*
X-1617Y-30600D01*
X-1739Y-29673D01*
X-2097Y-28808D01*
X-2666Y-28066D01*
X-3408Y-27497D01*
X-3512Y-27454D01*
Y-24417D01*
X-2611Y-23516D01*
X-2012Y-23398D01*
X-819Y-23756D01*
X-247Y-23756D01*
X2043D01*
Y-20000D01*
Y-16244D01*
X-247D01*
X-773Y-16244D01*
X-819D01*
D02*
G37*
G36*
X30200Y-21894D02*
X26944D01*
Y-24757D01*
X30200D01*
Y-21894D01*
D02*
G37*
G36*
X15276Y-11744D02*
X13941Y-12144D01*
X8589D01*
Y-18050D01*
X8292Y-18437D01*
X7980Y-19191D01*
X7873Y-20000D01*
X7980Y-20809D01*
X8292Y-21563D01*
X8789Y-22211D01*
X9437Y-22708D01*
X10191Y-23020D01*
X11000Y-23127D01*
X11809Y-23020D01*
X12563Y-22708D01*
X13211Y-22211D01*
X13344Y-22037D01*
X14816Y-22537D01*
X14844Y-22833D01*
X14844Y-23124D01*
X14844Y-23124D01*
X14844Y-23132D01*
Y-24657D01*
X18100D01*
Y-21794D01*
X16088D01*
X15627Y-21794D01*
X14717Y-20509D01*
X14986Y-19548D01*
X15542Y-19256D01*
X15848Y-19256D01*
X18138D01*
Y-15500D01*
Y-11744D01*
X15848D01*
X15322Y-11744D01*
X15276D01*
D02*
G37*
G36*
X5906Y-20500D02*
X3043D01*
Y-23756D01*
X5906D01*
Y-20500D01*
D02*
G37*
G36*
X22000Y-16000D02*
X19138D01*
Y-19256D01*
X22000D01*
Y-16000D01*
D02*
G37*
G36*
X19138Y-11744D02*
Y-15000D01*
X22000D01*
Y-11744D01*
X19138D01*
D02*
G37*
G36*
X53724Y-15142D02*
X52224Y-15142D01*
X50106D01*
Y-18898D01*
Y-22654D01*
X52224D01*
X52969Y-22654D01*
X54469Y-22654D01*
X56587D01*
Y-18898D01*
Y-15142D01*
X54469D01*
X53724Y-15142D01*
D02*
G37*
G36*
X3043Y-16244D02*
Y-19500D01*
X5906D01*
Y-16244D01*
X3043D01*
D02*
G37*
%LPD*%
D10*
X30700Y-25257D02*
D03*
Y-32343D02*
D03*
X18600Y-25157D02*
D03*
Y-32243D02*
D03*
D11*
X42520Y-18898D02*
D03*
X49606D02*
D03*
X64173Y-18898D02*
D03*
X57087D02*
D03*
X-4543Y-42000D02*
D03*
X2543D02*
D03*
X-4543Y-20000D02*
D03*
X2543D02*
D03*
X18638Y-15500D02*
D03*
X11551D02*
D03*
D12*
X48552Y-50886D02*
D03*
Y-48327D02*
D03*
Y-45768D02*
D03*
Y-43209D02*
D03*
Y-40650D02*
D03*
Y-38091D02*
D03*
Y-35531D02*
D03*
Y-32972D02*
D03*
Y-30413D02*
D03*
Y-27854D02*
D03*
X71527D02*
D03*
Y-30413D02*
D03*
Y-32972D02*
D03*
Y-35531D02*
D03*
Y-38091D02*
D03*
Y-40650D02*
D03*
Y-43209D02*
D03*
Y-45768D02*
D03*
Y-48327D02*
D03*
Y-50886D02*
D03*
D13*
X30600Y-25157D02*
X30700Y-25257D01*
X-5200Y-30600D02*
X-5143Y-30543D01*
Y-20400D01*
Y-52143D02*
Y-41500D01*
X-5200Y-52200D02*
X-5143Y-52143D01*
X179980Y-175685D02*
X185098Y-170567D01*
X168169Y-175685D02*
X179980D01*
X161870Y-169386D02*
X168169Y-175685D01*
X185098Y-170567D02*
X190610D01*
X161870Y-169386D02*
Y-162693D01*
X158563Y-159386D02*
X161870Y-162693D01*
X153996Y-159386D02*
X158563D01*
X171713D02*
X189429D01*
X190610Y-170567D02*
X210610D01*
X190610Y-160567D02*
X210610D01*
X189429Y-159386D02*
X190610Y-160567D01*
X161870Y-129886D02*
X168169Y-136185D01*
X179980D01*
X185098Y-131067D01*
X153996Y-119886D02*
X158563D01*
X161870Y-129886D02*
Y-123193D01*
X158563Y-119886D02*
X161870Y-123193D01*
X185098Y-131067D02*
X190610D01*
X171713Y-119886D02*
X189429D01*
X190610Y-131067D02*
X210610D01*
X190610Y-121067D02*
X210610D01*
X189429Y-119886D02*
X190610Y-121067D01*
X153996Y-80386D02*
X158563D01*
X161870Y-90386D02*
Y-83693D01*
X158563Y-80386D02*
X161870Y-83693D01*
X168169Y-96685D02*
X179980D01*
X185098Y-91567D01*
X161870Y-90386D02*
X168169Y-96685D01*
X185098Y-91567D02*
X190610D01*
X171713Y-80386D02*
X189429D01*
X190610Y-81567D01*
Y-91567D02*
X210610D01*
X190610Y-81567D02*
X210610D01*
X179980Y-57185D02*
X185098Y-52067D01*
X190610D01*
X189429Y-40886D02*
X190610Y-42067D01*
X171713Y-40886D02*
X189429D01*
X190610Y-52067D02*
X210610D01*
X190610Y-42067D02*
X210610D01*
X168169Y-57185D02*
X179980D01*
X153996Y-40886D02*
X158563D01*
X161870Y-44193D01*
Y-50886D02*
Y-44193D01*
Y-50886D02*
X168169Y-57185D01*
X18600Y-25157D02*
X19200Y-24557D01*
D14*
Y5000D02*
X29200D01*
D15*
X83720Y-50886D02*
X87205Y-54370D01*
X71527Y-50886D02*
X83720D01*
X71527Y-48327D02*
X71625Y-48228D01*
X98602Y-45768D02*
X107205Y-54370D01*
X71527Y-35531D02*
X71585Y-35590D01*
X71527Y-40650D02*
X71585Y-40708D01*
X71527Y-38091D02*
X79626D01*
X71585Y-35590D02*
X76894D01*
X80594Y-31890D01*
X71625Y-48228D02*
X91063D01*
X97205Y-54370D01*
X71527Y-45768D02*
X98602D01*
X44193Y-38091D02*
X48552D01*
X42913Y-39370D02*
X44193Y-38091D01*
X48552Y-40650D02*
X55610D01*
X58268Y-43307D01*
Y-45669D02*
Y-43307D01*
X4800Y-30600D02*
X22527Y-48327D01*
X48552D01*
X33858Y-44094D02*
X35531Y-45768D01*
X48552D01*
X48454Y-33071D02*
X48552Y-32972D01*
X42913Y-33071D02*
X48454D01*
X39665Y-43209D02*
X48552D01*
X37008Y-40551D02*
X39665Y-43209D01*
X48552Y-35531D02*
X61122D01*
X62598Y-37008D01*
X64173Y-18898D02*
Y-14961D01*
X62598Y-37008D02*
X63386D01*
X71527Y-30413D02*
X76673D01*
X77953Y-29134D01*
X66634Y-32972D02*
X71527D01*
X64173Y-30512D02*
X66634Y-32972D01*
X64173Y-30512D02*
Y-18898D01*
X80594Y-31890D02*
X90945D01*
X81890Y-35827D02*
X84252D01*
X79626Y-38091D02*
X81890Y-35827D01*
X48552Y-30413D02*
X54232D01*
X54724Y-29921D01*
X136614Y-36614D02*
X137795D01*
X71527Y-43209D02*
X130020D01*
X137205Y-36024D01*
X137795Y-36614D01*
X71585Y-40708D02*
X123859D01*
X132283Y-32283D01*
X49200Y-5000D02*
X55200Y-11000D01*
X60213D01*
X64173Y-14961D01*
X44500Y-25834D02*
Y-25000D01*
Y-25834D02*
X46521Y-27854D01*
X48552D01*
X37008Y-40551D02*
Y-18512D01*
X39000Y-16520D01*
D16*
X228400Y0D02*
D03*
X0D02*
D03*
Y-192900D02*
D03*
X228400D02*
D03*
D17*
X19200Y-5000D02*
D03*
X4800Y-52200D02*
D03*
Y-30600D02*
D03*
D18*
X19200Y5000D02*
D03*
X29200Y-5000D02*
D03*
Y5000D02*
D03*
X39200Y-5000D02*
D03*
Y5000D02*
D03*
X49200Y-5000D02*
D03*
Y5000D02*
D03*
X59200Y-5000D02*
D03*
Y5000D02*
D03*
X69200Y-5000D02*
D03*
Y5000D02*
D03*
X79200Y-5000D02*
D03*
Y5000D02*
D03*
X89200Y-5000D02*
D03*
Y5000D02*
D03*
X99200Y-5000D02*
D03*
Y5000D02*
D03*
X109200Y-5000D02*
D03*
Y5000D02*
D03*
X119200Y-5000D02*
D03*
Y5000D02*
D03*
X129200Y-5000D02*
D03*
Y5000D02*
D03*
X139200Y-5000D02*
D03*
Y5000D02*
D03*
X149200Y-5000D02*
D03*
Y5000D02*
D03*
X159200Y-5000D02*
D03*
Y5000D02*
D03*
X169200Y-5000D02*
D03*
Y5000D02*
D03*
X179200Y-5000D02*
D03*
Y5000D02*
D03*
X189200Y-5000D02*
D03*
Y5000D02*
D03*
X199200Y-5000D02*
D03*
Y5000D02*
D03*
X209200Y-5000D02*
D03*
Y5000D02*
D03*
X-5200Y-52200D02*
D03*
X87205Y-54370D02*
D03*
X97205D02*
D03*
X107205D02*
D03*
X117205D02*
D03*
X127205D02*
D03*
X137205D02*
D03*
X87205Y-24370D02*
D03*
X153996Y-70386D02*
D03*
Y-80386D02*
D03*
X171713Y-70386D02*
D03*
Y-80386D02*
D03*
X210610Y-91567D02*
D03*
Y-81567D02*
D03*
X190610D02*
D03*
Y-91567D02*
D03*
X153996Y-149386D02*
D03*
Y-159386D02*
D03*
X171713Y-149386D02*
D03*
Y-159386D02*
D03*
X210610Y-170567D02*
D03*
Y-160567D02*
D03*
X190610D02*
D03*
Y-170567D02*
D03*
X153996Y-109886D02*
D03*
Y-119886D02*
D03*
X171713Y-109886D02*
D03*
Y-119886D02*
D03*
X210610Y-131067D02*
D03*
Y-121067D02*
D03*
X190610D02*
D03*
Y-131067D02*
D03*
X153996Y-30886D02*
D03*
Y-40886D02*
D03*
X171713Y-30886D02*
D03*
Y-40886D02*
D03*
X210610Y-52067D02*
D03*
Y-42067D02*
D03*
X190610D02*
D03*
Y-52067D02*
D03*
X11811Y-172996D02*
D03*
X21811D02*
D03*
Y-152996D02*
D03*
X11811D02*
D03*
X63484Y-172996D02*
D03*
X73484D02*
D03*
Y-152996D02*
D03*
X63484D02*
D03*
X115157Y-172996D02*
D03*
X125157D02*
D03*
Y-152996D02*
D03*
X115157D02*
D03*
X-5200Y-30600D02*
D03*
X11811Y-106614D02*
D03*
X21811D02*
D03*
Y-86614D02*
D03*
X11811D02*
D03*
X63484Y-106614D02*
D03*
X73484D02*
D03*
Y-86614D02*
D03*
X63484D02*
D03*
X115157Y-106614D02*
D03*
X125157D02*
D03*
Y-86614D02*
D03*
X115157D02*
D03*
D19*
X97205Y-24370D02*
D03*
X107205D02*
D03*
X117205D02*
D03*
X127205D02*
D03*
D20*
X137205D02*
D03*
D21*
X153996Y-90386D02*
D03*
X171713D02*
D03*
X153996Y-169386D02*
D03*
X171713D02*
D03*
X153996Y-129886D02*
D03*
X171713D02*
D03*
X153996Y-50886D02*
D03*
X171713D02*
D03*
D22*
X42913Y-39370D02*
D03*
X58268Y-45669D02*
D03*
X33858Y-44094D02*
D03*
X42913Y-33071D02*
D03*
X63386Y-37008D02*
D03*
X77953Y-29134D02*
D03*
X90945Y-31890D02*
D03*
X84252Y-35827D02*
D03*
X54724Y-29921D02*
D03*
X144608Y-115628D02*
D03*
Y-76258D02*
D03*
Y-154998D02*
D03*
Y-36888D02*
D03*
X132283Y-32283D02*
D03*
X136614Y-36614D02*
D03*
X19000Y-36000D02*
D03*
X30000D02*
D03*
X11000Y-20000D02*
D03*
X72000Y-25500D02*
D03*
X44500Y-25000D02*
D03*
X39000Y-16520D02*
D03*
M02*
