G04 Layer_Color=16711935*
%FSLAX25Y25*%
%MOIN*%
G70*
G01*
G75*
%ADD20C,0.00000*%
%ADD38C,0.00200*%
D20*
X-9800Y-129900D02*
G03*
X-13800Y-133800I-50J-3950D01*
G01*
Y-194800D02*
G03*
X-1900Y-206700I11900J0D01*
G01*
X230300D02*
G03*
X242200Y-194800I0J11900D01*
G01*
Y2000D02*
G03*
X230300Y13800I-11850J-50D01*
G01*
X-1900D02*
G03*
X-13800Y2000I-50J-11850D01*
G01*
Y-59000D02*
G03*
X-9800Y-62900I3950J50D01*
G01*
X5900Y-66900D02*
G03*
X2000Y-62900I-3950J50D01*
G01*
Y-129900D02*
G03*
X5900Y-125900I-50J3950D01*
G01*
X-1900Y-206700D02*
X230300D01*
X242200Y-194800D02*
Y2000D01*
X-1900Y13800D02*
X230300D01*
X-13800Y-59000D02*
Y2000D01*
X-9800Y-62900D02*
X2000D01*
X5900Y-125900D02*
Y-66900D01*
X-9800Y-129900D02*
X2000D01*
X-13800Y-194800D02*
Y-133800D01*
D38*
X198880Y-186400D02*
G03*
X191006Y-186400I-3937J-0D01*
G01*
Y-198025D02*
G03*
X198880Y-198025I3937J0D01*
G01*
X148380Y-186400D02*
G03*
X140506Y-186400I-3937J-0D01*
G01*
Y-198025D02*
G03*
X148380Y-198025I3937J0D01*
G01*
X97880Y-186400D02*
G03*
X90006Y-186400I-3937J-0D01*
G01*
Y-198025D02*
G03*
X97880Y-198025I3937J0D01*
G01*
X200671Y-145063D02*
G03*
X200671Y-152937I0J-3937D01*
G01*
X216419D02*
G03*
X216419Y-145063I-0J3937D01*
G01*
X150171D02*
G03*
X150171Y-152937I0J-3937D01*
G01*
X165919D02*
G03*
X165919Y-145063I-0J3937D01*
G01*
X99671D02*
G03*
X99671Y-152937I0J-3937D01*
G01*
X115419D02*
G03*
X115419Y-145063I-0J3937D01*
G01*
X64919Y-152937D02*
G03*
X64919Y-145063I-0J3937D01*
G01*
X49171D02*
G03*
X49171Y-152937I0J-3937D01*
G01*
X39506Y-198025D02*
G03*
X47380Y-198025I3937J0D01*
G01*
Y-186400D02*
G03*
X39506Y-186400I-3937J-0D01*
G01*
X191006Y-198025D02*
Y-186400D01*
X198880Y-198025D02*
Y-186400D01*
X140506Y-198025D02*
Y-186400D01*
X148380Y-198025D02*
Y-186400D01*
X90006Y-198025D02*
Y-186400D01*
X97880Y-198025D02*
Y-186400D01*
X200671Y-145063D02*
X216419D01*
X200671Y-152937D02*
X216419D01*
X150171Y-145063D02*
X165919D01*
X150171Y-152937D02*
X165919D01*
X99671Y-145063D02*
X115419D01*
X99671Y-152937D02*
X115419D01*
X49171D02*
X64919D01*
X49171Y-145063D02*
X64919D01*
X47380Y-198025D02*
Y-186400D01*
X39506Y-198025D02*
Y-186400D01*
M02*
