G04 Layer_Physical_Order=1*
G04 Layer_Color=255*
%FSLAX25Y25*%
%MOIN*%
G70*
G01*
G75*
%ADD10R,0.05512X0.04724*%
%ADD11R,0.03900X0.01200*%
%ADD12O,0.06299X0.08858*%
%ADD13R,0.04724X0.05512*%
%ADD14R,0.03937X0.05512*%
%ADD15R,0.03937X0.04724*%
%ADD16R,0.04724X0.03937*%
%ADD17C,0.02000*%
%ADD18C,0.01200*%
%ADD19C,0.05000*%
%ADD20C,0.00000*%
%ADD21C,0.07500*%
%ADD22R,0.05906X0.05906*%
%ADD23C,0.05906*%
%ADD24C,0.05906*%
%ADD25R,0.05906X0.05906*%
%ADD26R,0.05906X0.05906*%
%ADD27C,0.09843*%
%ADD28R,0.08858X0.08858*%
%ADD29C,0.08858*%
%ADD30R,0.08858X0.08858*%
%ADD31C,0.11100*%
%ADD32C,0.05000*%
G36*
X232107Y13046D02*
X233822Y12635D01*
X235451Y11960D01*
X236954Y11039D01*
X238294Y9894D01*
X239439Y8554D01*
X240360Y7051D01*
X241035Y5422D01*
X241446Y3708D01*
X241576Y2061D01*
X241551Y2000D01*
Y-69100D01*
X6549D01*
Y-66900D01*
X6537Y-66870D01*
X6540Y-66850D01*
X6383Y-65662D01*
X5925Y-64555D01*
X5195Y-63605D01*
X4245Y-62875D01*
X3138Y-62417D01*
X2058Y-62275D01*
X2000Y-62251D01*
X-9800D01*
X-9864Y-62277D01*
X-10712Y-62165D01*
X-11514Y-61833D01*
X-12204Y-61304D01*
X-12733Y-60614D01*
X-13065Y-59812D01*
X-13167Y-59040D01*
X-13151Y-59000D01*
Y2000D01*
X-13176Y2061D01*
X-13046Y3708D01*
X-12635Y5422D01*
X-11960Y7051D01*
X-11039Y8554D01*
X-9894Y9894D01*
X-8554Y11039D01*
X-7051Y11960D01*
X-5422Y12635D01*
X-3708Y13046D01*
X-1977Y13183D01*
X-1900Y13151D01*
X230300D01*
X230377Y13183D01*
X232107Y13046D01*
D02*
G37*
%LPC*%
G36*
X22356Y-28881D02*
X19100D01*
Y-31743D01*
X22356D01*
Y-28881D01*
D02*
G37*
G36*
X99200Y-1417D02*
X98273Y-1539D01*
X97408Y-1897D01*
X96666Y-2466D01*
X96097Y-3208D01*
X95739Y-4073D01*
X95617Y-5000D01*
X95739Y-5928D01*
X96097Y-6792D01*
X96666Y-7534D01*
X97408Y-8103D01*
X97976Y-8339D01*
Y-10843D01*
X98070Y-11311D01*
X98335Y-11708D01*
X100594Y-13968D01*
Y-18556D01*
X102333D01*
Y-21913D01*
X102426Y-22382D01*
X102692Y-22779D01*
X103844Y-23931D01*
Y-28519D01*
X110556D01*
Y-22594D01*
X105968D01*
X104780Y-21407D01*
Y-18556D01*
X106519D01*
Y-11844D01*
X101931D01*
X100424Y-10336D01*
Y-8339D01*
X100992Y-8103D01*
X101734Y-7534D01*
X102303Y-6792D01*
X102661Y-5928D01*
X102783Y-5000D01*
X102661Y-4073D01*
X102303Y-3208D01*
X101734Y-2466D01*
X100992Y-1897D01*
X100127Y-1539D01*
X99200Y-1417D01*
D02*
G37*
G36*
X30200Y-28981D02*
X26944D01*
Y-31843D01*
X30200D01*
Y-28981D01*
D02*
G37*
G36*
X18100Y-28881D02*
X14844D01*
Y-31743D01*
X18100D01*
Y-28881D01*
D02*
G37*
G36*
X57100Y-23643D02*
X54632D01*
Y-26506D01*
X57100D01*
Y-23643D01*
D02*
G37*
G36*
X60568Y-19781D02*
X58100D01*
Y-22643D01*
X60568D01*
Y-19781D01*
D02*
G37*
G36*
X74700Y-20073D02*
X73891Y-20180D01*
X73137Y-20492D01*
X72489Y-20989D01*
X71992Y-21637D01*
X71851Y-21976D01*
X70456D01*
Y-20081D01*
X63744D01*
Y-26006D01*
X70456D01*
Y-24423D01*
X71851D01*
X71992Y-24763D01*
X72489Y-25411D01*
X73137Y-25908D01*
X73891Y-26220D01*
X74700Y-26327D01*
X75509Y-26220D01*
X76263Y-25908D01*
X76911Y-25411D01*
X77408Y-24763D01*
X77720Y-24009D01*
X77827Y-23200D01*
X77720Y-22391D01*
X77408Y-21637D01*
X76911Y-20989D01*
X76263Y-20492D01*
X75509Y-20180D01*
X74700Y-20073D01*
D02*
G37*
G36*
X60568Y-23643D02*
X58100D01*
Y-26506D01*
X60568D01*
Y-23643D01*
D02*
G37*
G36*
X57100Y-19781D02*
X54632D01*
Y-22643D01*
X57100D01*
Y-19781D01*
D02*
G37*
G36*
X69200Y-1417D02*
X68273Y-1539D01*
X67408Y-1897D01*
X66666Y-2466D01*
X66097Y-3208D01*
X65739Y-4073D01*
X65617Y-5000D01*
X65739Y-5928D01*
X66097Y-6792D01*
X66666Y-7534D01*
X67408Y-8103D01*
X68273Y-8461D01*
X69200Y-8583D01*
X70127Y-8461D01*
X70696Y-8226D01*
X97744Y-35274D01*
X97733Y-35400D01*
X97577Y-35774D01*
X81804D01*
X73865Y-27835D01*
X73468Y-27570D01*
X73000Y-27477D01*
X53707D01*
X40124Y-13893D01*
Y-8462D01*
X40127Y-8461D01*
X40992Y-8103D01*
X41734Y-7534D01*
X42303Y-6792D01*
X42661Y-5928D01*
X42783Y-5000D01*
X42661Y-4073D01*
X42303Y-3208D01*
X41734Y-2466D01*
X40992Y-1897D01*
X40127Y-1539D01*
X39200Y-1417D01*
X38273Y-1539D01*
X37408Y-1897D01*
X36666Y-2466D01*
X36097Y-3208D01*
X35739Y-4073D01*
X35617Y-5000D01*
X35739Y-5928D01*
X36097Y-6792D01*
X36666Y-7534D01*
X37408Y-8103D01*
X37677Y-8214D01*
Y-14400D01*
X37770Y-14868D01*
X38035Y-15265D01*
X52335Y-29565D01*
X52732Y-29830D01*
X53200Y-29923D01*
X72493D01*
X80403Y-37833D01*
X80392Y-37959D01*
X80237Y-38333D01*
X54563D01*
X30424Y-14193D01*
Y-8339D01*
X30992Y-8103D01*
X31734Y-7534D01*
X32303Y-6792D01*
X32661Y-5928D01*
X32783Y-5000D01*
X32661Y-4073D01*
X32303Y-3208D01*
X31734Y-2466D01*
X30992Y-1897D01*
X30127Y-1539D01*
X29200Y-1417D01*
X28273Y-1539D01*
X27408Y-1897D01*
X26666Y-2466D01*
X26097Y-3208D01*
X25739Y-4073D01*
X25617Y-5000D01*
X25739Y-5928D01*
X26097Y-6792D01*
X26666Y-7534D01*
X27408Y-8103D01*
X27977Y-8339D01*
Y-14700D01*
X28070Y-15168D01*
X28335Y-15565D01*
X53162Y-40392D01*
X53151Y-40518D01*
X52996Y-40892D01*
X48066D01*
X34056Y-26882D01*
Y-22295D01*
X27344D01*
Y-23525D01*
X21956D01*
Y-22195D01*
X20831D01*
Y-19556D01*
X22106D01*
Y-12844D01*
X20831D01*
Y-8553D01*
X22753D01*
Y-1447D01*
X15647D01*
Y-8553D01*
X17569D01*
Y-12844D01*
X16181D01*
Y-19556D01*
X17569D01*
Y-22195D01*
X15244D01*
Y-23933D01*
X7207D01*
X4905Y-21632D01*
Y-17044D01*
X-1019D01*
Y-23756D01*
X3569D01*
X5835Y-26022D01*
X6232Y-26287D01*
X6700Y-26380D01*
X15244D01*
Y-28119D01*
X21956D01*
Y-26788D01*
X27344D01*
Y-28219D01*
X31879D01*
X32115Y-28512D01*
X31910Y-28981D01*
X31200D01*
Y-31843D01*
X34456D01*
Y-31396D01*
X34918Y-31205D01*
X44143Y-40430D01*
X43952Y-40892D01*
X4905D01*
Y-38144D01*
X-1019D01*
Y-44856D01*
X4905D01*
Y-43339D01*
X116913D01*
X117031Y-43316D01*
X118301D01*
X118492Y-43778D01*
X113193Y-49077D01*
X66857D01*
X66388Y-49170D01*
X65992Y-49435D01*
X61232Y-54194D01*
X56644D01*
Y-55525D01*
X50756D01*
Y-54194D01*
X44044D01*
Y-60119D01*
X50756D01*
Y-58788D01*
X56644D01*
Y-60119D01*
X63356D01*
Y-55531D01*
X67364Y-51524D01*
X112638D01*
X112830Y-51986D01*
X110621Y-54194D01*
X107144D01*
Y-55525D01*
X101256D01*
Y-54194D01*
X94544D01*
Y-60119D01*
X101256D01*
Y-58788D01*
X107144D01*
Y-60119D01*
X113856D01*
Y-54420D01*
X133415Y-34861D01*
X133877Y-35053D01*
Y-45100D01*
X133970Y-45568D01*
X134235Y-45965D01*
X145044Y-56774D01*
Y-60119D01*
X151756D01*
Y-58788D01*
X157644D01*
Y-60119D01*
X164356D01*
Y-54194D01*
X157644D01*
Y-55525D01*
X151756D01*
Y-54194D01*
X145925D01*
X136323Y-44593D01*
Y-34498D01*
X136976Y-33846D01*
X137437Y-34037D01*
X137437Y-35639D01*
X137437Y-36139D01*
Y-37857D01*
X137437Y-38198D01*
X137437Y-38698D01*
Y-40416D01*
X137437Y-40757D01*
X137437Y-41257D01*
Y-43316D01*
X139769D01*
X139887Y-43339D01*
X155501D01*
X155841Y-43826D01*
X155739Y-44073D01*
X155617Y-45000D01*
X155739Y-45927D01*
X156097Y-46792D01*
X156666Y-47534D01*
X157408Y-48103D01*
X158273Y-48461D01*
X159200Y-48583D01*
X160127Y-48461D01*
X160992Y-48103D01*
X161734Y-47534D01*
X162303Y-46792D01*
X162661Y-45927D01*
X162783Y-45000D01*
X162661Y-44073D01*
X162303Y-43208D01*
X161734Y-42466D01*
X160992Y-41897D01*
X160127Y-41539D01*
X159200Y-41417D01*
X158273Y-41539D01*
X157704Y-41774D01*
X157211Y-41280D01*
X157221Y-41154D01*
X157377Y-40780D01*
X163250D01*
X165974Y-43504D01*
X165739Y-44073D01*
X165617Y-45000D01*
X165739Y-45927D01*
X166097Y-46792D01*
X166666Y-47534D01*
X167408Y-48103D01*
X168273Y-48461D01*
X169200Y-48583D01*
X170127Y-48461D01*
X170992Y-48103D01*
X171734Y-47534D01*
X172303Y-46792D01*
X172661Y-45927D01*
X172783Y-45000D01*
X172661Y-44073D01*
X172303Y-43208D01*
X171734Y-42466D01*
X170992Y-41897D01*
X170127Y-41539D01*
X169200Y-41417D01*
X168273Y-41539D01*
X167704Y-41774D01*
X164651Y-38721D01*
X164662Y-38595D01*
X164818Y-38221D01*
X170691D01*
X175974Y-43504D01*
X175739Y-44073D01*
X175617Y-45000D01*
X175739Y-45927D01*
X176097Y-46792D01*
X176666Y-47534D01*
X177408Y-48103D01*
X178273Y-48461D01*
X179200Y-48583D01*
X180127Y-48461D01*
X180992Y-48103D01*
X181734Y-47534D01*
X182303Y-46792D01*
X182661Y-45927D01*
X182783Y-45000D01*
X182661Y-44073D01*
X182303Y-43208D01*
X181734Y-42466D01*
X180992Y-41897D01*
X180127Y-41539D01*
X179200Y-41417D01*
X178273Y-41539D01*
X177704Y-41774D01*
X172092Y-36162D01*
X172103Y-36036D01*
X172259Y-35662D01*
X187632D01*
X192976Y-41007D01*
Y-43527D01*
X192476Y-43626D01*
X192303Y-43208D01*
X191734Y-42466D01*
X190992Y-41897D01*
X190127Y-41539D01*
X189200Y-41417D01*
X188273Y-41539D01*
X187408Y-41897D01*
X186666Y-42466D01*
X186097Y-43208D01*
X185739Y-44073D01*
X185617Y-45000D01*
X185739Y-45927D01*
X186097Y-46792D01*
X186666Y-47534D01*
X187408Y-48103D01*
X188273Y-48461D01*
X189200Y-48583D01*
X190127Y-48461D01*
X190992Y-48103D01*
X191734Y-47534D01*
X192303Y-46792D01*
X192476Y-46374D01*
X192976Y-46473D01*
Y-52457D01*
X193070Y-52925D01*
X193335Y-53322D01*
X195544Y-55531D01*
Y-60119D01*
X202256D01*
Y-58788D01*
X208144D01*
Y-60119D01*
X214856D01*
Y-54194D01*
X208144D01*
Y-55525D01*
X202256D01*
Y-54194D01*
X197668D01*
X195423Y-51950D01*
Y-46473D01*
X195923Y-46374D01*
X196097Y-46792D01*
X196666Y-47534D01*
X197408Y-48103D01*
X198273Y-48461D01*
X199200Y-48583D01*
X200127Y-48461D01*
X200992Y-48103D01*
X201734Y-47534D01*
X202303Y-46792D01*
X202661Y-45927D01*
X202783Y-45000D01*
X202661Y-44073D01*
X202303Y-43208D01*
X201734Y-42466D01*
X200992Y-41897D01*
X200127Y-41539D01*
X199200Y-41417D01*
X198273Y-41539D01*
X197408Y-41897D01*
X196666Y-42466D01*
X196097Y-43208D01*
X195923Y-43626D01*
X195423Y-43527D01*
Y-40500D01*
X195330Y-40032D01*
X195065Y-39635D01*
X189004Y-33573D01*
X188607Y-33308D01*
X188139Y-33215D01*
X142981D01*
X142537Y-33079D01*
Y-30680D01*
X142537D01*
Y-30520D01*
X142537D01*
Y-28120D01*
X142537D01*
Y-27961D01*
X142537Y-27961D01*
Y-25902D01*
X142537Y-25561D01*
X142537Y-25061D01*
X142537Y-23002D01*
X142981Y-22867D01*
X196836D01*
X207977Y-34007D01*
Y-41661D01*
X207408Y-41897D01*
X206666Y-42466D01*
X206097Y-43208D01*
X205739Y-44073D01*
X205617Y-45000D01*
X205739Y-45927D01*
X206097Y-46792D01*
X206666Y-47534D01*
X207408Y-48103D01*
X208273Y-48461D01*
X209200Y-48583D01*
X210127Y-48461D01*
X210992Y-48103D01*
X211734Y-47534D01*
X212303Y-46792D01*
X212661Y-45927D01*
X212783Y-45000D01*
X212661Y-44073D01*
X212303Y-43208D01*
X211734Y-42466D01*
X210992Y-41897D01*
X210423Y-41661D01*
Y-33500D01*
X210330Y-33032D01*
X210065Y-32635D01*
X198208Y-20778D01*
X197811Y-20513D01*
X197343Y-20420D01*
X142937D01*
Y-19584D01*
X139987D01*
Y-19084D01*
X139487D01*
Y-17484D01*
X137078Y-17484D01*
X137001Y-17470D01*
X136607Y-17316D01*
X136530Y-16932D01*
X136265Y-16535D01*
X134065Y-14335D01*
X133668Y-14070D01*
X133200Y-13976D01*
X113605D01*
Y-11844D01*
X107681D01*
Y-18556D01*
X113605D01*
Y-16423D01*
X128335D01*
X128505Y-16924D01*
X128289Y-17089D01*
X127792Y-17737D01*
X127741Y-17861D01*
X117013D01*
X116894Y-17884D01*
X114463D01*
Y-20284D01*
X114463Y-20284D01*
Y-20443D01*
X114463Y-20443D01*
Y-22502D01*
X114463Y-22843D01*
X114463Y-23343D01*
Y-25061D01*
X114463Y-25402D01*
X114463Y-25902D01*
Y-27621D01*
X114463Y-27961D01*
X114463Y-28461D01*
Y-30180D01*
X114463Y-30520D01*
X114463Y-31021D01*
X114463Y-33079D01*
X114019Y-33215D01*
X110556D01*
Y-29681D01*
X103844D01*
Y-33215D01*
X99145D01*
X72426Y-6496D01*
X72661Y-5928D01*
X72783Y-5000D01*
X72661Y-4073D01*
X72303Y-3208D01*
X71734Y-2466D01*
X70992Y-1897D01*
X70127Y-1539D01*
X69200Y-1417D01*
D02*
G37*
G36*
X30200Y-32843D02*
X26944D01*
Y-35706D01*
X30200D01*
Y-32843D01*
D02*
G37*
G36*
X-2181Y-38144D02*
X-8106D01*
Y-44856D01*
X-6367D01*
Y-48838D01*
X-6992Y-49097D01*
X-7734Y-49666D01*
X-8303Y-50408D01*
X-8661Y-51273D01*
X-8783Y-52200D01*
X-8661Y-53127D01*
X-8303Y-53992D01*
X-7734Y-54734D01*
X-6992Y-55303D01*
X-6128Y-55661D01*
X-5200Y-55783D01*
X-4273Y-55661D01*
X-3408Y-55303D01*
X-2666Y-54734D01*
X-2097Y-53992D01*
X-1739Y-53127D01*
X-1617Y-52200D01*
X-1739Y-51273D01*
X-2097Y-50408D01*
X-2666Y-49666D01*
X-3408Y-49097D01*
X-3920Y-48885D01*
Y-44856D01*
X-2181D01*
Y-38144D01*
D02*
G37*
G36*
X8353Y-48647D02*
X1247D01*
Y-55753D01*
X8353D01*
Y-48647D01*
D02*
G37*
G36*
X34456Y-32843D02*
X31200D01*
Y-35706D01*
X34456D01*
Y-32843D01*
D02*
G37*
G36*
X-2181Y-17044D02*
X-8106D01*
Y-23756D01*
X-6367D01*
Y-27238D01*
X-6992Y-27497D01*
X-7734Y-28066D01*
X-8303Y-28808D01*
X-8661Y-29673D01*
X-8783Y-30600D01*
X-8661Y-31527D01*
X-8303Y-32392D01*
X-7734Y-33134D01*
X-6992Y-33703D01*
X-6128Y-34061D01*
X-5200Y-34183D01*
X-4273Y-34061D01*
X-3408Y-33703D01*
X-2666Y-33134D01*
X-2097Y-32392D01*
X-1739Y-31527D01*
X-1617Y-30600D01*
X-1739Y-29673D01*
X-2097Y-28808D01*
X-2666Y-28066D01*
X-3408Y-27497D01*
X-3920Y-27285D01*
Y-23756D01*
X-2181D01*
Y-17044D01*
D02*
G37*
G36*
X8353Y-27047D02*
X1247D01*
Y-34153D01*
X8353D01*
Y-27047D01*
D02*
G37*
G36*
X18100Y-32743D02*
X14844D01*
Y-35605D01*
X18100D01*
Y-32743D01*
D02*
G37*
G36*
X22356D02*
X19100D01*
Y-35605D01*
X22356D01*
Y-32743D01*
D02*
G37*
G36*
X193121Y-15500D02*
X189700D01*
Y-18921D01*
X190232Y-18851D01*
X191193Y-18453D01*
X192019Y-17819D01*
X192653Y-16993D01*
X193051Y-16032D01*
X193121Y-15500D01*
D02*
G37*
G36*
X198700D02*
X195279D01*
X195349Y-16032D01*
X195747Y-16993D01*
X196381Y-17819D01*
X197207Y-18453D01*
X198168Y-18851D01*
X198700Y-18921D01*
Y-15500D01*
D02*
G37*
G36*
X183121D02*
X179700D01*
Y-18921D01*
X180232Y-18851D01*
X181193Y-18453D01*
X182019Y-17819D01*
X182653Y-16993D01*
X183051Y-16032D01*
X183121Y-15500D01*
D02*
G37*
G36*
X188700D02*
X185279D01*
X185349Y-16032D01*
X185747Y-16993D01*
X186381Y-17819D01*
X187207Y-18453D01*
X188168Y-18851D01*
X188700Y-18921D01*
Y-15500D01*
D02*
G37*
G36*
X203121D02*
X199700D01*
Y-18921D01*
X200232Y-18851D01*
X201193Y-18453D01*
X202019Y-17819D01*
X202653Y-16993D01*
X203051Y-16032D01*
X203121Y-15500D01*
D02*
G37*
G36*
X15419Y-12444D02*
X12557D01*
Y-15700D01*
X15419D01*
Y-12444D01*
D02*
G37*
G36*
X158700Y-11079D02*
X158168Y-11149D01*
X157207Y-11547D01*
X156381Y-12181D01*
X155747Y-13007D01*
X155349Y-13968D01*
X155279Y-14500D01*
X158700D01*
Y-11079D01*
D02*
G37*
G36*
X140487Y-17484D02*
Y-18584D01*
X142937D01*
Y-17484D01*
X140487D01*
D02*
G37*
G36*
X11557Y-12444D02*
X8694D01*
Y-15700D01*
X11557D01*
Y-12444D01*
D02*
G37*
G36*
X208700Y-15500D02*
X205247D01*
Y-18953D01*
X208700D01*
Y-15500D01*
D02*
G37*
G36*
X213153D02*
X209700D01*
Y-18953D01*
X213153D01*
Y-15500D01*
D02*
G37*
G36*
X11557Y-16700D02*
X8694D01*
Y-19956D01*
X11557D01*
Y-16700D01*
D02*
G37*
G36*
X15419D02*
X12557D01*
Y-19956D01*
X15419D01*
Y-16700D01*
D02*
G37*
G36*
X158700Y-15500D02*
X155279D01*
X155349Y-16032D01*
X155747Y-16993D01*
X156381Y-17819D01*
X157207Y-18453D01*
X158168Y-18851D01*
X158700Y-18921D01*
Y-15500D01*
D02*
G37*
G36*
X173121D02*
X169700D01*
Y-18921D01*
X170232Y-18851D01*
X171193Y-18453D01*
X172019Y-17819D01*
X172653Y-16993D01*
X173051Y-16032D01*
X173121Y-15500D01*
D02*
G37*
G36*
X178700D02*
X175279D01*
X175349Y-16032D01*
X175747Y-16993D01*
X176381Y-17819D01*
X177207Y-18453D01*
X178168Y-18851D01*
X178700Y-18921D01*
Y-15500D01*
D02*
G37*
G36*
X163121D02*
X159700D01*
Y-18921D01*
X160232Y-18851D01*
X161193Y-18453D01*
X162019Y-17819D01*
X162653Y-16993D01*
X163051Y-16032D01*
X163121Y-15500D01*
D02*
G37*
G36*
X168700D02*
X165279D01*
X165349Y-16032D01*
X165747Y-16993D01*
X166381Y-17819D01*
X167207Y-18453D01*
X168168Y-18851D01*
X168700Y-18921D01*
Y-15500D01*
D02*
G37*
G36*
X184000Y-53906D02*
X183021Y-54035D01*
X182109Y-54413D01*
X181326Y-55014D01*
X180725Y-55797D01*
X180347Y-56709D01*
X180218Y-57688D01*
Y-60247D01*
X180347Y-61226D01*
X180725Y-62138D01*
X181326Y-62922D01*
X182109Y-63522D01*
X183021Y-63900D01*
X184000Y-64029D01*
X184979Y-63900D01*
X185891Y-63522D01*
X186471Y-63078D01*
X188790Y-65397D01*
X189319Y-65750D01*
X189943Y-65875D01*
X195544D01*
Y-67206D01*
X202256D01*
Y-61281D01*
X195544D01*
Y-62612D01*
X190619D01*
X187782Y-59775D01*
Y-57688D01*
X187653Y-56709D01*
X187275Y-55797D01*
X186674Y-55014D01*
X185891Y-54413D01*
X184979Y-54035D01*
X184000Y-53906D01*
D02*
G37*
G36*
X22000Y-59468D02*
X18315D01*
Y-60247D01*
X18457Y-61330D01*
X18875Y-62340D01*
X19541Y-63207D01*
X20407Y-63872D01*
X21417Y-64290D01*
X22000Y-64367D01*
Y-59468D01*
D02*
G37*
G36*
X83000Y-53906D02*
X82021Y-54035D01*
X81109Y-54413D01*
X80326Y-55014D01*
X79725Y-55797D01*
X79347Y-56709D01*
X79218Y-57688D01*
Y-60247D01*
X79347Y-61226D01*
X79725Y-62138D01*
X80326Y-62922D01*
X81109Y-63522D01*
X82021Y-63900D01*
X83000Y-64029D01*
X83979Y-63900D01*
X84891Y-63522D01*
X85471Y-63078D01*
X87790Y-65397D01*
X88319Y-65750D01*
X88943Y-65875D01*
X94544D01*
Y-67206D01*
X101256D01*
Y-61281D01*
X94544D01*
Y-62612D01*
X89619D01*
X86782Y-59775D01*
Y-57688D01*
X86653Y-56709D01*
X86275Y-55797D01*
X85674Y-55014D01*
X84891Y-54413D01*
X83979Y-54035D01*
X83000Y-53906D01*
D02*
G37*
G36*
X133500D02*
X132521Y-54035D01*
X131609Y-54413D01*
X130826Y-55014D01*
X130225Y-55797D01*
X129847Y-56709D01*
X129718Y-57688D01*
Y-60247D01*
X129847Y-61226D01*
X130225Y-62138D01*
X130826Y-62922D01*
X131609Y-63522D01*
X132521Y-63900D01*
X133500Y-64029D01*
X134479Y-63900D01*
X135391Y-63522D01*
X135971Y-63078D01*
X138290Y-65397D01*
X138819Y-65750D01*
X139443Y-65875D01*
X145044D01*
Y-67206D01*
X151756D01*
Y-61281D01*
X145044D01*
Y-62612D01*
X140119D01*
X137282Y-59775D01*
Y-57688D01*
X137153Y-56709D01*
X136775Y-55797D01*
X136174Y-55014D01*
X135391Y-54413D01*
X134479Y-54035D01*
X133500Y-53906D01*
D02*
G37*
G36*
X26685Y-59468D02*
X23000D01*
Y-64367D01*
X23583Y-64290D01*
X24593Y-63872D01*
X25460Y-63207D01*
X26125Y-62340D01*
X26543Y-61330D01*
X26685Y-60247D01*
Y-59468D01*
D02*
G37*
G36*
X123000D02*
X119315D01*
Y-60247D01*
X119457Y-61330D01*
X119875Y-62340D01*
X120540Y-63207D01*
X121407Y-63872D01*
X122417Y-64290D01*
X123000Y-64367D01*
Y-59468D01*
D02*
G37*
G36*
X127685D02*
X124000D01*
Y-64367D01*
X124583Y-64290D01*
X125593Y-63872D01*
X126460Y-63207D01*
X127125Y-62340D01*
X127543Y-61330D01*
X127685Y-60247D01*
Y-59468D01*
D02*
G37*
G36*
X72500D02*
X68815D01*
Y-60247D01*
X68957Y-61330D01*
X69375Y-62340D01*
X70041Y-63207D01*
X70907Y-63872D01*
X71917Y-64290D01*
X72500Y-64367D01*
Y-59468D01*
D02*
G37*
G36*
X77185D02*
X73500D01*
Y-64367D01*
X74083Y-64290D01*
X75093Y-63872D01*
X75959Y-63207D01*
X76625Y-62340D01*
X77043Y-61330D01*
X77185Y-60247D01*
Y-59468D01*
D02*
G37*
G36*
X110000Y-64743D02*
X106744D01*
Y-67606D01*
X110000D01*
Y-64743D01*
D02*
G37*
G36*
X114256D02*
X111000D01*
Y-67606D01*
X114256D01*
Y-64743D01*
D02*
G37*
G36*
X59500D02*
X56244D01*
Y-67606D01*
X59500D01*
Y-64743D01*
D02*
G37*
G36*
X63756D02*
X60500D01*
Y-67606D01*
X63756D01*
Y-64743D01*
D02*
G37*
G36*
X160500D02*
X157244D01*
Y-67606D01*
X160500D01*
Y-64743D01*
D02*
G37*
G36*
X215256D02*
X212000D01*
Y-67606D01*
X215256D01*
Y-64743D01*
D02*
G37*
G36*
X32500Y-53906D02*
X31521Y-54035D01*
X30609Y-54413D01*
X29826Y-55014D01*
X29225Y-55797D01*
X28847Y-56709D01*
X28718Y-57688D01*
Y-60247D01*
X28847Y-61226D01*
X29225Y-62138D01*
X29826Y-62922D01*
X30609Y-63522D01*
X31521Y-63900D01*
X32500Y-64029D01*
X33479Y-63900D01*
X34391Y-63522D01*
X34971Y-63078D01*
X37290Y-65397D01*
X37819Y-65750D01*
X38443Y-65875D01*
X44044D01*
Y-67206D01*
X50756D01*
Y-61281D01*
X44044D01*
Y-62612D01*
X39119D01*
X36282Y-59775D01*
Y-57688D01*
X36153Y-56709D01*
X35775Y-55797D01*
X35174Y-55014D01*
X34391Y-54413D01*
X33479Y-54035D01*
X32500Y-53906D01*
D02*
G37*
G36*
X164756Y-64743D02*
X161500D01*
Y-67606D01*
X164756D01*
Y-64743D01*
D02*
G37*
G36*
X211000D02*
X207744D01*
Y-67606D01*
X211000D01*
Y-64743D01*
D02*
G37*
G36*
X23000Y-53569D02*
Y-58468D01*
X26685D01*
Y-57688D01*
X26543Y-56605D01*
X26125Y-55595D01*
X25460Y-54729D01*
X24593Y-54063D01*
X23583Y-53645D01*
X23000Y-53569D01*
D02*
G37*
G36*
X72500D02*
X71917Y-53645D01*
X70907Y-54063D01*
X70041Y-54729D01*
X69375Y-55595D01*
X68957Y-56605D01*
X68815Y-57688D01*
Y-58468D01*
X72500D01*
Y-53569D01*
D02*
G37*
G36*
X215256Y-60881D02*
X212000D01*
Y-63743D01*
X215256D01*
Y-60881D01*
D02*
G37*
G36*
X22000Y-53569D02*
X21417Y-53645D01*
X20407Y-54063D01*
X19541Y-54729D01*
X18875Y-55595D01*
X18457Y-56605D01*
X18315Y-57688D01*
Y-58468D01*
X22000D01*
Y-53569D01*
D02*
G37*
G36*
X73500D02*
Y-58468D01*
X77185D01*
Y-57688D01*
X77043Y-56605D01*
X76625Y-55595D01*
X75959Y-54729D01*
X75093Y-54063D01*
X74083Y-53645D01*
X73500Y-53569D01*
D02*
G37*
G36*
X173500D02*
X172917Y-53645D01*
X171907Y-54063D01*
X171040Y-54729D01*
X170375Y-55595D01*
X169957Y-56605D01*
X169815Y-57688D01*
Y-58468D01*
X173500D01*
Y-53569D01*
D02*
G37*
G36*
X174500D02*
Y-58468D01*
X178185D01*
Y-57688D01*
X178043Y-56605D01*
X177625Y-55595D01*
X176960Y-54729D01*
X176093Y-54063D01*
X175083Y-53645D01*
X174500Y-53569D01*
D02*
G37*
G36*
X123000D02*
X122417Y-53645D01*
X121407Y-54063D01*
X120540Y-54729D01*
X119875Y-55595D01*
X119457Y-56605D01*
X119315Y-57688D01*
Y-58468D01*
X123000D01*
Y-53569D01*
D02*
G37*
G36*
X124000D02*
Y-58468D01*
X127685D01*
Y-57688D01*
X127543Y-56605D01*
X127125Y-55595D01*
X126460Y-54729D01*
X125593Y-54063D01*
X124583Y-53645D01*
X124000Y-53569D01*
D02*
G37*
G36*
X59500Y-60881D02*
X56244D01*
Y-63743D01*
X59500D01*
Y-60881D01*
D02*
G37*
G36*
X63756D02*
X60500D01*
Y-63743D01*
X63756D01*
Y-60881D01*
D02*
G37*
G36*
X173500Y-59468D02*
X169815D01*
Y-60247D01*
X169957Y-61330D01*
X170375Y-62340D01*
X171040Y-63207D01*
X171907Y-63872D01*
X172917Y-64290D01*
X173500Y-64367D01*
Y-59468D01*
D02*
G37*
G36*
X178185D02*
X174500D01*
Y-64367D01*
X175083Y-64290D01*
X176093Y-63872D01*
X176960Y-63207D01*
X177625Y-62340D01*
X178043Y-61330D01*
X178185Y-60247D01*
Y-59468D01*
D02*
G37*
G36*
X110000Y-60881D02*
X106744D01*
Y-63743D01*
X110000D01*
Y-60881D01*
D02*
G37*
G36*
X164756D02*
X161500D01*
Y-63743D01*
X164756D01*
Y-60881D01*
D02*
G37*
G36*
X211000D02*
X207744D01*
Y-63743D01*
X211000D01*
Y-60881D01*
D02*
G37*
G36*
X114256D02*
X111000D01*
Y-63743D01*
X114256D01*
Y-60881D01*
D02*
G37*
G36*
X160500D02*
X157244D01*
Y-63743D01*
X160500D01*
Y-60881D01*
D02*
G37*
G36*
X183121Y4500D02*
X179700D01*
Y1079D01*
X180232Y1149D01*
X181193Y1547D01*
X182019Y2181D01*
X182653Y3007D01*
X183051Y3968D01*
X183121Y4500D01*
D02*
G37*
G36*
X49200Y8583D02*
X48273Y8461D01*
X47408Y8103D01*
X46666Y7534D01*
X46097Y6792D01*
X45739Y5928D01*
X45617Y5000D01*
X45739Y4073D01*
X46097Y3208D01*
X46666Y2466D01*
X47408Y1897D01*
X48273Y1539D01*
X49200Y1417D01*
X50127Y1539D01*
X50992Y1897D01*
X51734Y2466D01*
X52303Y3208D01*
X52661Y4073D01*
X52783Y5000D01*
X52661Y5928D01*
X52303Y6792D01*
X51734Y7534D01*
X50992Y8103D01*
X50127Y8461D01*
X49200Y8583D01*
D02*
G37*
G36*
X163121Y4500D02*
X159700D01*
Y1079D01*
X160232Y1149D01*
X161193Y1547D01*
X162019Y2181D01*
X162653Y3007D01*
X163051Y3968D01*
X163121Y4500D01*
D02*
G37*
G36*
X178700D02*
X175279D01*
X175349Y3968D01*
X175747Y3007D01*
X176381Y2181D01*
X177207Y1547D01*
X178168Y1149D01*
X178700Y1079D01*
Y4500D01*
D02*
G37*
G36*
X59200Y8583D02*
X58273Y8461D01*
X57408Y8103D01*
X56666Y7534D01*
X56097Y6792D01*
X55739Y5928D01*
X55617Y5000D01*
X55739Y4073D01*
X56097Y3208D01*
X56666Y2466D01*
X57408Y1897D01*
X58273Y1539D01*
X59200Y1417D01*
X60127Y1539D01*
X60992Y1897D01*
X61734Y2466D01*
X62303Y3208D01*
X62661Y4073D01*
X62783Y5000D01*
X62661Y5928D01*
X62303Y6792D01*
X61734Y7534D01*
X60992Y8103D01*
X60127Y8461D01*
X59200Y8583D01*
D02*
G37*
G36*
X99200D02*
X98273Y8461D01*
X97408Y8103D01*
X96666Y7534D01*
X96097Y6792D01*
X95739Y5928D01*
X95617Y5000D01*
X95739Y4073D01*
X96097Y3208D01*
X96666Y2466D01*
X97408Y1897D01*
X98273Y1539D01*
X99200Y1417D01*
X100127Y1539D01*
X100992Y1897D01*
X101734Y2466D01*
X102303Y3208D01*
X102661Y4073D01*
X102783Y5000D01*
X102661Y5928D01*
X102303Y6792D01*
X101734Y7534D01*
X100992Y8103D01*
X100127Y8461D01*
X99200Y8583D01*
D02*
G37*
G36*
X119200D02*
X118273Y8461D01*
X117408Y8103D01*
X116666Y7534D01*
X116097Y6792D01*
X115739Y5928D01*
X115617Y5000D01*
X115739Y4073D01*
X116097Y3208D01*
X116666Y2466D01*
X117408Y1897D01*
X118273Y1539D01*
X119200Y1417D01*
X120127Y1539D01*
X120992Y1897D01*
X121734Y2466D01*
X122303Y3208D01*
X122661Y4073D01*
X122783Y5000D01*
X122661Y5928D01*
X122303Y6792D01*
X121734Y7534D01*
X120992Y8103D01*
X120127Y8461D01*
X119200Y8583D01*
D02*
G37*
G36*
X69200D02*
X68273Y8461D01*
X67408Y8103D01*
X66666Y7534D01*
X66097Y6792D01*
X65739Y5928D01*
X65617Y5000D01*
X65739Y4073D01*
X66097Y3208D01*
X66666Y2466D01*
X67408Y1897D01*
X68273Y1539D01*
X69200Y1417D01*
X70127Y1539D01*
X70992Y1897D01*
X71734Y2466D01*
X72303Y3208D01*
X72661Y4073D01*
X72783Y5000D01*
X72661Y5928D01*
X72303Y6792D01*
X71734Y7534D01*
X70992Y8103D01*
X70127Y8461D01*
X69200Y8583D01*
D02*
G37*
G36*
X89200D02*
X88273Y8461D01*
X87408Y8103D01*
X86666Y7534D01*
X86097Y6792D01*
X85739Y5928D01*
X85617Y5000D01*
X85739Y4073D01*
X86097Y3208D01*
X86666Y2466D01*
X87408Y1897D01*
X88273Y1539D01*
X89200Y1417D01*
X90127Y1539D01*
X90992Y1897D01*
X91734Y2466D01*
X92303Y3208D01*
X92661Y4073D01*
X92783Y5000D01*
X92661Y5928D01*
X92303Y6792D01*
X91734Y7534D01*
X90992Y8103D01*
X90127Y8461D01*
X89200Y8583D01*
D02*
G37*
G36*
X38700Y4500D02*
X35279D01*
X35349Y3968D01*
X35747Y3007D01*
X36381Y2181D01*
X37207Y1547D01*
X38168Y1149D01*
X38700Y1079D01*
Y4500D01*
D02*
G37*
G36*
X43121D02*
X39700D01*
Y1079D01*
X40232Y1149D01*
X41193Y1547D01*
X42019Y2181D01*
X42653Y3007D01*
X43051Y3968D01*
X43121Y4500D01*
D02*
G37*
G36*
X208700Y-1079D02*
X208168Y-1149D01*
X207207Y-1547D01*
X206381Y-2181D01*
X205747Y-3007D01*
X205349Y-3968D01*
X205279Y-4500D01*
X208700D01*
Y-1079D01*
D02*
G37*
G36*
X209700D02*
Y-4500D01*
X213121D01*
X213051Y-3968D01*
X212653Y-3007D01*
X212019Y-2181D01*
X211193Y-1547D01*
X210232Y-1149D01*
X209700Y-1079D01*
D02*
G37*
G36*
X78700Y4500D02*
X75279D01*
X75349Y3968D01*
X75747Y3007D01*
X76381Y2181D01*
X77207Y1547D01*
X78168Y1149D01*
X78700Y1079D01*
Y4500D01*
D02*
G37*
G36*
X113121D02*
X109700D01*
Y1079D01*
X110232Y1149D01*
X111193Y1547D01*
X112019Y2181D01*
X112653Y3007D01*
X113051Y3968D01*
X113121Y4500D01*
D02*
G37*
G36*
X158700D02*
X155279D01*
X155349Y3968D01*
X155747Y3007D01*
X156381Y2181D01*
X157207Y1547D01*
X158168Y1149D01*
X158700Y1079D01*
Y4500D01*
D02*
G37*
G36*
X83121D02*
X79700D01*
Y1079D01*
X80232Y1149D01*
X81193Y1547D01*
X82019Y2181D01*
X82653Y3007D01*
X83051Y3968D01*
X83121Y4500D01*
D02*
G37*
G36*
X108700D02*
X105279D01*
X105349Y3968D01*
X105747Y3007D01*
X106381Y2181D01*
X107207Y1547D01*
X108168Y1149D01*
X108700Y1079D01*
Y4500D01*
D02*
G37*
G36*
Y8921D02*
X108168Y8851D01*
X107207Y8453D01*
X106381Y7819D01*
X105747Y6993D01*
X105349Y6032D01*
X105279Y5500D01*
X108700D01*
Y8921D01*
D02*
G37*
G36*
X109700D02*
Y5500D01*
X113121D01*
X113051Y6032D01*
X112653Y6993D01*
X112019Y7819D01*
X111193Y8453D01*
X110232Y8851D01*
X109700Y8921D01*
D02*
G37*
G36*
X78700D02*
X78168Y8851D01*
X77207Y8453D01*
X76381Y7819D01*
X75747Y6993D01*
X75349Y6032D01*
X75279Y5500D01*
X78700D01*
Y8921D01*
D02*
G37*
G36*
X79700D02*
Y5500D01*
X83121D01*
X83051Y6032D01*
X82653Y6993D01*
X82019Y7819D01*
X81193Y8453D01*
X80232Y8851D01*
X79700Y8921D01*
D02*
G37*
G36*
X158700D02*
X158168Y8851D01*
X157207Y8453D01*
X156381Y7819D01*
X155747Y6993D01*
X155349Y6032D01*
X155279Y5500D01*
X158700D01*
Y8921D01*
D02*
G37*
G36*
X179700D02*
Y5500D01*
X183121D01*
X183051Y6032D01*
X182653Y6993D01*
X182019Y7819D01*
X181193Y8453D01*
X180232Y8851D01*
X179700Y8921D01*
D02*
G37*
G36*
X29200Y8583D02*
X28273Y8461D01*
X27465Y8127D01*
X20935D01*
X20127Y8461D01*
X19200Y8583D01*
X18273Y8461D01*
X17408Y8103D01*
X16666Y7534D01*
X16097Y6792D01*
X15739Y5928D01*
X15617Y5000D01*
X15739Y4073D01*
X16097Y3208D01*
X16666Y2466D01*
X17408Y1897D01*
X18273Y1539D01*
X19200Y1417D01*
X20127Y1539D01*
X20935Y1873D01*
X27465D01*
X28273Y1539D01*
X29200Y1417D01*
X30127Y1539D01*
X30992Y1897D01*
X31734Y2466D01*
X32303Y3208D01*
X32661Y4073D01*
X32783Y5000D01*
X32661Y5928D01*
X32303Y6792D01*
X31734Y7534D01*
X30992Y8103D01*
X30127Y8461D01*
X29200Y8583D01*
D02*
G37*
G36*
X159700Y8921D02*
Y5500D01*
X163121D01*
X163051Y6032D01*
X162653Y6993D01*
X162019Y7819D01*
X161193Y8453D01*
X160232Y8851D01*
X159700Y8921D01*
D02*
G37*
G36*
X178700D02*
X178168Y8851D01*
X177207Y8453D01*
X176381Y7819D01*
X175747Y6993D01*
X175349Y6032D01*
X175279Y5500D01*
X178700D01*
Y8921D01*
D02*
G37*
G36*
X149200Y8583D02*
X148273Y8461D01*
X147408Y8103D01*
X146666Y7534D01*
X146097Y6792D01*
X145739Y5928D01*
X145617Y5000D01*
X145739Y4073D01*
X146097Y3208D01*
X146666Y2466D01*
X147408Y1897D01*
X148273Y1539D01*
X149200Y1417D01*
X150127Y1539D01*
X150992Y1897D01*
X151734Y2466D01*
X152303Y3208D01*
X152661Y4073D01*
X152783Y5000D01*
X152661Y5928D01*
X152303Y6792D01*
X151734Y7534D01*
X150992Y8103D01*
X150127Y8461D01*
X149200Y8583D01*
D02*
G37*
G36*
X169200D02*
X168273Y8461D01*
X167408Y8103D01*
X166666Y7534D01*
X166097Y6792D01*
X165739Y5928D01*
X165617Y5000D01*
X165739Y4073D01*
X166097Y3208D01*
X166666Y2466D01*
X167408Y1897D01*
X168273Y1539D01*
X169200Y1417D01*
X170127Y1539D01*
X170992Y1897D01*
X171734Y2466D01*
X172303Y3208D01*
X172661Y4073D01*
X172783Y5000D01*
X172661Y5928D01*
X172303Y6792D01*
X171734Y7534D01*
X170992Y8103D01*
X170127Y8461D01*
X169200Y8583D01*
D02*
G37*
G36*
X129200D02*
X128273Y8461D01*
X127408Y8103D01*
X126666Y7534D01*
X126097Y6792D01*
X125739Y5928D01*
X125617Y5000D01*
X125739Y4073D01*
X126097Y3208D01*
X126666Y2466D01*
X127408Y1897D01*
X128273Y1539D01*
X129200Y1417D01*
X130127Y1539D01*
X130992Y1897D01*
X131734Y2466D01*
X132303Y3208D01*
X132661Y4073D01*
X132783Y5000D01*
X132661Y5928D01*
X132303Y6792D01*
X131734Y7534D01*
X130992Y8103D01*
X130127Y8461D01*
X129200Y8583D01*
D02*
G37*
G36*
X139200D02*
X138273Y8461D01*
X137408Y8103D01*
X136666Y7534D01*
X136097Y6792D01*
X135739Y5928D01*
X135617Y5000D01*
X135739Y4073D01*
X136097Y3208D01*
X136666Y2466D01*
X137408Y1897D01*
X138273Y1539D01*
X139200Y1417D01*
X140127Y1539D01*
X140992Y1897D01*
X141734Y2466D01*
X142303Y3208D01*
X142661Y4073D01*
X142783Y5000D01*
X142661Y5928D01*
X142303Y6792D01*
X141734Y7534D01*
X140992Y8103D01*
X140127Y8461D01*
X139200Y8583D01*
D02*
G37*
G36*
X189200D02*
X188273Y8461D01*
X187408Y8103D01*
X186666Y7534D01*
X186097Y6792D01*
X185739Y5928D01*
X185617Y5000D01*
X185739Y4073D01*
X186097Y3208D01*
X186666Y2466D01*
X187408Y1897D01*
X188273Y1539D01*
X189200Y1417D01*
X190127Y1539D01*
X190992Y1897D01*
X191734Y2466D01*
X192303Y3208D01*
X192661Y4073D01*
X192783Y5000D01*
X192661Y5928D01*
X192303Y6792D01*
X191734Y7534D01*
X190992Y8103D01*
X190127Y8461D01*
X189200Y8583D01*
D02*
G37*
G36*
X38700Y8921D02*
X38168Y8851D01*
X37207Y8453D01*
X36381Y7819D01*
X35747Y6993D01*
X35349Y6032D01*
X35279Y5500D01*
X38700D01*
Y8921D01*
D02*
G37*
G36*
X39700D02*
Y5500D01*
X43121D01*
X43051Y6032D01*
X42653Y6993D01*
X42019Y7819D01*
X41193Y8453D01*
X40232Y8851D01*
X39700Y8921D01*
D02*
G37*
G36*
X199200Y8583D02*
X198273Y8461D01*
X197408Y8103D01*
X196666Y7534D01*
X196097Y6792D01*
X195739Y5928D01*
X195617Y5000D01*
X195739Y4073D01*
X196097Y3208D01*
X196666Y2466D01*
X197408Y1897D01*
X198273Y1539D01*
X199200Y1417D01*
X200127Y1539D01*
X200992Y1897D01*
X201734Y2466D01*
X202303Y3208D01*
X202661Y4073D01*
X202783Y5000D01*
X202661Y5928D01*
X202303Y6792D01*
X201734Y7534D01*
X200992Y8103D01*
X200127Y8461D01*
X199200Y8583D01*
D02*
G37*
G36*
X209200D02*
X208273Y8461D01*
X207408Y8103D01*
X206666Y7534D01*
X206097Y6792D01*
X205739Y5928D01*
X205617Y5000D01*
X205739Y4073D01*
X206097Y3208D01*
X206666Y2466D01*
X207408Y1897D01*
X208273Y1539D01*
X209200Y1417D01*
X210127Y1539D01*
X210992Y1897D01*
X211734Y2466D01*
X212303Y3208D01*
X212661Y4073D01*
X212783Y5000D01*
X212661Y5928D01*
X212303Y6792D01*
X211734Y7534D01*
X210992Y8103D01*
X210127Y8461D01*
X209200Y8583D01*
D02*
G37*
G36*
X70456Y-12994D02*
X63744D01*
Y-14325D01*
X60168D01*
Y-13094D01*
X55032D01*
Y-19019D01*
X60168D01*
Y-17588D01*
X63744D01*
Y-18919D01*
X70456D01*
Y-12994D01*
D02*
G37*
G36*
X58700Y-5500D02*
X55279D01*
X55349Y-6032D01*
X55747Y-6993D01*
X56381Y-7819D01*
X57207Y-8453D01*
X58168Y-8851D01*
X58700Y-8921D01*
Y-5500D01*
D02*
G37*
G36*
X208700Y-11047D02*
X205247D01*
Y-14500D01*
X208700D01*
Y-11047D01*
D02*
G37*
G36*
X213153D02*
X209700D01*
Y-14500D01*
X213153D01*
Y-11047D01*
D02*
G37*
G36*
X63121Y-5500D02*
X59700D01*
Y-8921D01*
X60232Y-8851D01*
X61193Y-8453D01*
X62019Y-7819D01*
X62653Y-6993D01*
X63051Y-6032D01*
X63121Y-5500D01*
D02*
G37*
G36*
X208700D02*
X205279D01*
X205349Y-6032D01*
X205747Y-6993D01*
X206381Y-7819D01*
X207207Y-8453D01*
X208168Y-8851D01*
X208700Y-8921D01*
Y-5500D01*
D02*
G37*
G36*
X213121D02*
X209700D01*
Y-8921D01*
X210232Y-8851D01*
X211193Y-8453D01*
X212019Y-7819D01*
X212653Y-6993D01*
X213051Y-6032D01*
X213121Y-5500D01*
D02*
G37*
G36*
X138700D02*
X135279D01*
X135349Y-6032D01*
X135747Y-6993D01*
X136381Y-7819D01*
X137207Y-8453D01*
X138168Y-8851D01*
X138700Y-8921D01*
Y-5500D01*
D02*
G37*
G36*
X143121D02*
X139700D01*
Y-8921D01*
X140232Y-8851D01*
X141193Y-8453D01*
X142019Y-7819D01*
X142653Y-6993D01*
X143051Y-6032D01*
X143121Y-5500D01*
D02*
G37*
G36*
X169700Y-11079D02*
Y-14500D01*
X173121D01*
X173051Y-13968D01*
X172653Y-13007D01*
X172019Y-12181D01*
X171193Y-11547D01*
X170232Y-11149D01*
X169700Y-11079D01*
D02*
G37*
G36*
X178700D02*
X178168Y-11149D01*
X177207Y-11547D01*
X176381Y-12181D01*
X175747Y-13007D01*
X175349Y-13968D01*
X175279Y-14500D01*
X178700D01*
Y-11079D01*
D02*
G37*
G36*
X159700D02*
Y-14500D01*
X163121D01*
X163051Y-13968D01*
X162653Y-13007D01*
X162019Y-12181D01*
X161193Y-11547D01*
X160232Y-11149D01*
X159700Y-11079D01*
D02*
G37*
G36*
X168700D02*
X168168Y-11149D01*
X167207Y-11547D01*
X166381Y-12181D01*
X165747Y-13007D01*
X165349Y-13968D01*
X165279Y-14500D01*
X168700D01*
Y-11079D01*
D02*
G37*
G36*
X179700D02*
Y-14500D01*
X183121D01*
X183051Y-13968D01*
X182653Y-13007D01*
X182019Y-12181D01*
X181193Y-11547D01*
X180232Y-11149D01*
X179700Y-11079D01*
D02*
G37*
G36*
X198700D02*
X198168Y-11149D01*
X197207Y-11547D01*
X196381Y-12181D01*
X195747Y-13007D01*
X195349Y-13968D01*
X195279Y-14500D01*
X198700D01*
Y-11079D01*
D02*
G37*
G36*
X199700D02*
Y-14500D01*
X203121D01*
X203051Y-13968D01*
X202653Y-13007D01*
X202019Y-12181D01*
X201193Y-11547D01*
X200232Y-11149D01*
X199700Y-11079D01*
D02*
G37*
G36*
X188700D02*
X188168Y-11149D01*
X187207Y-11547D01*
X186381Y-12181D01*
X185747Y-13007D01*
X185349Y-13968D01*
X185279Y-14500D01*
X188700D01*
Y-11079D01*
D02*
G37*
G36*
X189700D02*
Y-14500D01*
X193121D01*
X193051Y-13968D01*
X192653Y-13007D01*
X192019Y-12181D01*
X191193Y-11547D01*
X190232Y-11149D01*
X189700Y-11079D01*
D02*
G37*
G36*
X199200Y-1417D02*
X198273Y-1539D01*
X197408Y-1897D01*
X196666Y-2466D01*
X196097Y-3208D01*
X195739Y-4073D01*
X195617Y-5000D01*
X195739Y-5928D01*
X196097Y-6792D01*
X196666Y-7534D01*
X197408Y-8103D01*
X198273Y-8461D01*
X199200Y-8583D01*
X200127Y-8461D01*
X200992Y-8103D01*
X201734Y-7534D01*
X202303Y-6792D01*
X202661Y-5928D01*
X202783Y-5000D01*
X202661Y-4073D01*
X202303Y-3208D01*
X201734Y-2466D01*
X200992Y-1897D01*
X200127Y-1539D01*
X199200Y-1417D01*
D02*
G37*
G36*
X0Y6180D02*
X-1206Y6061D01*
X-2365Y5709D01*
X-3433Y5138D01*
X-4370Y4370D01*
X-5138Y3433D01*
X-5709Y2365D01*
X-6061Y1206D01*
X-6180Y0D01*
X-6061Y-1206D01*
X-5709Y-2365D01*
X-5138Y-3433D01*
X-4370Y-4370D01*
X-3433Y-5138D01*
X-2365Y-5709D01*
X-1206Y-6061D01*
X0Y-6180D01*
X1206Y-6061D01*
X2365Y-5709D01*
X3433Y-5138D01*
X4370Y-4370D01*
X5138Y-3433D01*
X5709Y-2365D01*
X6061Y-1206D01*
X6180Y0D01*
X6061Y1206D01*
X5709Y2365D01*
X5138Y3433D01*
X4370Y4370D01*
X3433Y5138D01*
X2365Y5709D01*
X1206Y6061D01*
X0Y6180D01*
D02*
G37*
G36*
X179200Y-1417D02*
X178273Y-1539D01*
X177408Y-1897D01*
X176666Y-2466D01*
X176097Y-3208D01*
X175739Y-4073D01*
X175617Y-5000D01*
X175739Y-5928D01*
X176097Y-6792D01*
X176666Y-7534D01*
X177408Y-8103D01*
X178273Y-8461D01*
X179200Y-8583D01*
X180127Y-8461D01*
X180992Y-8103D01*
X181734Y-7534D01*
X182303Y-6792D01*
X182661Y-5928D01*
X182783Y-5000D01*
X182661Y-4073D01*
X182303Y-3208D01*
X181734Y-2466D01*
X180992Y-1897D01*
X180127Y-1539D01*
X179200Y-1417D01*
D02*
G37*
G36*
X189200D02*
X188273Y-1539D01*
X187408Y-1897D01*
X186666Y-2466D01*
X186097Y-3208D01*
X185739Y-4073D01*
X185617Y-5000D01*
X185739Y-5928D01*
X186097Y-6792D01*
X186666Y-7534D01*
X187408Y-8103D01*
X188273Y-8461D01*
X189200Y-8583D01*
X190127Y-8461D01*
X190992Y-8103D01*
X191734Y-7534D01*
X192303Y-6792D01*
X192661Y-5928D01*
X192783Y-5000D01*
X192661Y-4073D01*
X192303Y-3208D01*
X191734Y-2466D01*
X190992Y-1897D01*
X190127Y-1539D01*
X189200Y-1417D01*
D02*
G37*
G36*
X228400Y6180D02*
X227194Y6061D01*
X226035Y5709D01*
X224967Y5138D01*
X224030Y4370D01*
X223262Y3433D01*
X222691Y2365D01*
X222339Y1206D01*
X222220Y0D01*
X222339Y-1206D01*
X222691Y-2365D01*
X223262Y-3433D01*
X224030Y-4370D01*
X224967Y-5138D01*
X226035Y-5709D01*
X227194Y-6061D01*
X228400Y-6180D01*
X229606Y-6061D01*
X230765Y-5709D01*
X231833Y-5138D01*
X232770Y-4370D01*
X233538Y-3433D01*
X234109Y-2365D01*
X234461Y-1206D01*
X234580Y0D01*
X234461Y1206D01*
X234109Y2365D01*
X233538Y3433D01*
X232770Y4370D01*
X231833Y5138D01*
X230765Y5709D01*
X229606Y6061D01*
X228400Y6180D01*
D02*
G37*
G36*
X138700Y-1079D02*
X138168Y-1149D01*
X137207Y-1547D01*
X136381Y-2181D01*
X135747Y-3007D01*
X135349Y-3968D01*
X135279Y-4500D01*
X138700D01*
Y-1079D01*
D02*
G37*
G36*
X139700D02*
Y-4500D01*
X143121D01*
X143051Y-3968D01*
X142653Y-3007D01*
X142019Y-2181D01*
X141193Y-1547D01*
X140232Y-1149D01*
X139700Y-1079D01*
D02*
G37*
G36*
X58700D02*
X58168Y-1149D01*
X57207Y-1547D01*
X56381Y-2181D01*
X55747Y-3007D01*
X55349Y-3968D01*
X55279Y-4500D01*
X58700D01*
Y-1079D01*
D02*
G37*
G36*
X59700D02*
Y-4500D01*
X63121D01*
X63051Y-3968D01*
X62653Y-3007D01*
X62019Y-2181D01*
X61193Y-1547D01*
X60232Y-1149D01*
X59700Y-1079D01*
D02*
G37*
G36*
X89200Y-1417D02*
X88273Y-1539D01*
X87408Y-1897D01*
X86666Y-2466D01*
X86097Y-3208D01*
X85739Y-4073D01*
X85617Y-5000D01*
X85739Y-5928D01*
X86097Y-6792D01*
X86666Y-7534D01*
X87408Y-8103D01*
X88273Y-8461D01*
X89200Y-8583D01*
X90127Y-8461D01*
X90992Y-8103D01*
X91734Y-7534D01*
X92303Y-6792D01*
X92661Y-5928D01*
X92783Y-5000D01*
X92661Y-4073D01*
X92303Y-3208D01*
X91734Y-2466D01*
X90992Y-1897D01*
X90127Y-1539D01*
X89200Y-1417D01*
D02*
G37*
G36*
X109200D02*
X108273Y-1539D01*
X107408Y-1897D01*
X106666Y-2466D01*
X106097Y-3208D01*
X105739Y-4073D01*
X105617Y-5000D01*
X105739Y-5928D01*
X106097Y-6792D01*
X106666Y-7534D01*
X107408Y-8103D01*
X108273Y-8461D01*
X109200Y-8583D01*
X110127Y-8461D01*
X110992Y-8103D01*
X111734Y-7534D01*
X112303Y-6792D01*
X112661Y-5928D01*
X112783Y-5000D01*
X112661Y-4073D01*
X112303Y-3208D01*
X111734Y-2466D01*
X110992Y-1897D01*
X110127Y-1539D01*
X109200Y-1417D01*
D02*
G37*
G36*
X49200D02*
X48273Y-1539D01*
X47408Y-1897D01*
X46666Y-2466D01*
X46097Y-3208D01*
X45739Y-4073D01*
X45617Y-5000D01*
X45739Y-5928D01*
X46097Y-6792D01*
X46666Y-7534D01*
X47408Y-8103D01*
X48273Y-8461D01*
X49200Y-8583D01*
X50127Y-8461D01*
X50992Y-8103D01*
X51734Y-7534D01*
X52303Y-6792D01*
X52661Y-5928D01*
X52783Y-5000D01*
X52661Y-4073D01*
X52303Y-3208D01*
X51734Y-2466D01*
X50992Y-1897D01*
X50127Y-1539D01*
X49200Y-1417D01*
D02*
G37*
G36*
X79200D02*
X78273Y-1539D01*
X77408Y-1897D01*
X76666Y-2466D01*
X76097Y-3208D01*
X75739Y-4073D01*
X75617Y-5000D01*
X75739Y-5928D01*
X76097Y-6792D01*
X76666Y-7534D01*
X77408Y-8103D01*
X78273Y-8461D01*
X79200Y-8583D01*
X80127Y-8461D01*
X80992Y-8103D01*
X81734Y-7534D01*
X82303Y-6792D01*
X82661Y-5928D01*
X82783Y-5000D01*
X82661Y-4073D01*
X82303Y-3208D01*
X81734Y-2466D01*
X80992Y-1897D01*
X80127Y-1539D01*
X79200Y-1417D01*
D02*
G37*
G36*
X119200D02*
X118273Y-1539D01*
X117408Y-1897D01*
X116666Y-2466D01*
X116097Y-3208D01*
X115739Y-4073D01*
X115617Y-5000D01*
X115739Y-5928D01*
X116097Y-6792D01*
X116666Y-7534D01*
X117408Y-8103D01*
X118273Y-8461D01*
X119200Y-8583D01*
X120127Y-8461D01*
X120992Y-8103D01*
X121734Y-7534D01*
X122303Y-6792D01*
X122661Y-5928D01*
X122783Y-5000D01*
X122661Y-4073D01*
X122303Y-3208D01*
X121734Y-2466D01*
X120992Y-1897D01*
X120127Y-1539D01*
X119200Y-1417D01*
D02*
G37*
G36*
X159200D02*
X158273Y-1539D01*
X157408Y-1897D01*
X156666Y-2466D01*
X156097Y-3208D01*
X155739Y-4073D01*
X155617Y-5000D01*
X155739Y-5928D01*
X156097Y-6792D01*
X156666Y-7534D01*
X157408Y-8103D01*
X158273Y-8461D01*
X159200Y-8583D01*
X160127Y-8461D01*
X160992Y-8103D01*
X161734Y-7534D01*
X162303Y-6792D01*
X162661Y-5928D01*
X162783Y-5000D01*
X162661Y-4073D01*
X162303Y-3208D01*
X161734Y-2466D01*
X160992Y-1897D01*
X160127Y-1539D01*
X159200Y-1417D01*
D02*
G37*
G36*
X169200D02*
X168273Y-1539D01*
X167408Y-1897D01*
X166666Y-2466D01*
X166097Y-3208D01*
X165739Y-4073D01*
X165617Y-5000D01*
X165739Y-5928D01*
X166097Y-6792D01*
X166666Y-7534D01*
X167408Y-8103D01*
X168273Y-8461D01*
X169200Y-8583D01*
X170127Y-8461D01*
X170992Y-8103D01*
X171734Y-7534D01*
X172303Y-6792D01*
X172661Y-5928D01*
X172783Y-5000D01*
X172661Y-4073D01*
X172303Y-3208D01*
X171734Y-2466D01*
X170992Y-1897D01*
X170127Y-1539D01*
X169200Y-1417D01*
D02*
G37*
G36*
X129200D02*
X128273Y-1539D01*
X127408Y-1897D01*
X126666Y-2466D01*
X126097Y-3208D01*
X125739Y-4073D01*
X125617Y-5000D01*
X125739Y-5928D01*
X126097Y-6792D01*
X126666Y-7534D01*
X127408Y-8103D01*
X128273Y-8461D01*
X129200Y-8583D01*
X130127Y-8461D01*
X130992Y-8103D01*
X131734Y-7534D01*
X132303Y-6792D01*
X132661Y-5928D01*
X132783Y-5000D01*
X132661Y-4073D01*
X132303Y-3208D01*
X131734Y-2466D01*
X130992Y-1897D01*
X130127Y-1539D01*
X129200Y-1417D01*
D02*
G37*
G36*
X149200D02*
X148273Y-1539D01*
X147408Y-1897D01*
X146666Y-2466D01*
X146097Y-3208D01*
X145739Y-4073D01*
X145617Y-5000D01*
X145739Y-5928D01*
X146097Y-6792D01*
X146666Y-7534D01*
X147408Y-8103D01*
X148273Y-8461D01*
X149200Y-8583D01*
X150127Y-8461D01*
X150992Y-8103D01*
X151734Y-7534D01*
X152303Y-6792D01*
X152661Y-5928D01*
X152783Y-5000D01*
X152661Y-4073D01*
X152303Y-3208D01*
X151734Y-2466D01*
X150992Y-1897D01*
X150127Y-1539D01*
X149200Y-1417D01*
D02*
G37*
%LPD*%
D10*
X30700Y-32343D02*
D03*
Y-25257D02*
D03*
X67100Y-23043D02*
D03*
Y-15957D02*
D03*
X107200Y-25557D02*
D03*
Y-32643D02*
D03*
X171300Y-115757D02*
D03*
Y-122843D02*
D03*
X120800Y-115757D02*
D03*
Y-122843D02*
D03*
X70300Y-115757D02*
D03*
Y-122843D02*
D03*
X19800Y-115757D02*
D03*
Y-122843D02*
D03*
X211500Y-57157D02*
D03*
Y-64243D02*
D03*
X161000Y-57157D02*
D03*
Y-64243D02*
D03*
X110500Y-57157D02*
D03*
Y-64243D02*
D03*
X60000Y-57157D02*
D03*
Y-64243D02*
D03*
X185800Y-116157D02*
D03*
Y-123243D02*
D03*
X135300Y-115657D02*
D03*
Y-122743D02*
D03*
X84800Y-115657D02*
D03*
Y-122743D02*
D03*
X34300Y-115657D02*
D03*
Y-122743D02*
D03*
X198900Y-57157D02*
D03*
Y-64243D02*
D03*
X148400Y-57157D02*
D03*
Y-64243D02*
D03*
X97900Y-57157D02*
D03*
Y-64243D02*
D03*
X47400Y-57157D02*
D03*
Y-64243D02*
D03*
X187200Y-162043D02*
D03*
Y-154957D02*
D03*
X136700Y-162043D02*
D03*
Y-154957D02*
D03*
X86200Y-162043D02*
D03*
Y-154957D02*
D03*
X35700Y-162043D02*
D03*
Y-154957D02*
D03*
X184000Y-101557D02*
D03*
Y-108643D02*
D03*
X133700Y-101557D02*
D03*
Y-108643D02*
D03*
X83200Y-101557D02*
D03*
Y-108643D02*
D03*
X32700Y-101557D02*
D03*
Y-108643D02*
D03*
X18600Y-32243D02*
D03*
Y-25157D02*
D03*
D11*
X139987Y-42116D02*
D03*
Y-39557D02*
D03*
Y-36998D02*
D03*
Y-34439D02*
D03*
Y-31879D02*
D03*
Y-29320D02*
D03*
Y-26761D02*
D03*
Y-24202D02*
D03*
Y-21643D02*
D03*
Y-19084D02*
D03*
X117013D02*
D03*
Y-21643D02*
D03*
Y-24202D02*
D03*
Y-26761D02*
D03*
Y-29320D02*
D03*
Y-31879D02*
D03*
Y-34439D02*
D03*
Y-36998D02*
D03*
Y-39557D02*
D03*
Y-42116D02*
D03*
D12*
X184000Y-58968D02*
D03*
X174000D02*
D03*
Y-92432D02*
D03*
X184000D02*
D03*
X133500Y-58968D02*
D03*
X123500D02*
D03*
Y-92432D02*
D03*
X133500D02*
D03*
X83000Y-58968D02*
D03*
X73000D02*
D03*
Y-92432D02*
D03*
X83000D02*
D03*
X32500Y-58968D02*
D03*
X22500D02*
D03*
Y-92432D02*
D03*
X32500D02*
D03*
D13*
X1943Y-20400D02*
D03*
X-5143D02*
D03*
X1943Y-41500D02*
D03*
X-5143D02*
D03*
X103557Y-15200D02*
D03*
X110643D02*
D03*
X12057Y-16200D02*
D03*
X19143D02*
D03*
D14*
X178200Y-138631D02*
D03*
X174460Y-129969D02*
D03*
X181940D02*
D03*
X127700Y-138631D02*
D03*
X123960Y-129969D02*
D03*
X131440D02*
D03*
X77300Y-138631D02*
D03*
X73560Y-129969D02*
D03*
X81040D02*
D03*
X26700Y-138631D02*
D03*
X22960Y-129969D02*
D03*
X30440D02*
D03*
D15*
X57600Y-23143D02*
D03*
Y-16057D02*
D03*
D16*
X180457Y-147500D02*
D03*
X187543D02*
D03*
X129957D02*
D03*
X137043D02*
D03*
X79457D02*
D03*
X86543D02*
D03*
X28957D02*
D03*
X36043D02*
D03*
D17*
X57600Y-16057D02*
X57700Y-15957D01*
X67100D01*
X123421Y-31879D02*
X123500Y-31800D01*
X97900Y-57157D02*
X110500D01*
X88943Y-64243D02*
X97900D01*
X83668Y-58968D02*
X88943Y-64243D01*
X83000Y-58968D02*
X83668D01*
X83000Y-94332D02*
X84800Y-92532D01*
X83000Y-101657D02*
Y-94332D01*
X107700Y-83800D02*
X113000Y-89100D01*
Y-96300D02*
Y-89100D01*
X92800Y-116500D02*
X113000Y-96300D01*
X72057Y-95276D02*
X74800Y-92532D01*
X77200Y-145243D02*
Y-138800D01*
X82700D01*
X92800Y-128700D01*
Y-116500D01*
X77200Y-145243D02*
X79457Y-147500D01*
X86543Y-154613D02*
Y-147500D01*
X86200Y-154957D02*
X86543Y-154613D01*
X136700Y-154957D02*
X137043Y-154613D01*
Y-147500D01*
X127700Y-145243D02*
X129957Y-147500D01*
X127700Y-145243D02*
Y-138800D01*
X133200D01*
X143300Y-128700D01*
Y-116500D01*
X163500Y-96300D01*
Y-89100D01*
X158200Y-83800D02*
X163500Y-89100D01*
X133500Y-101657D02*
Y-94332D01*
X135300Y-92532D01*
X148400Y-57157D02*
X161000D01*
X133500Y-58968D02*
X134168D01*
X139443Y-64243D01*
X148400D01*
X122557Y-95276D02*
X125300Y-92532D01*
X187200Y-154957D02*
X187543Y-154613D01*
Y-147500D01*
X178200Y-145243D02*
X180457Y-147500D01*
X178200Y-145243D02*
Y-138800D01*
X183700D01*
X193800Y-128700D01*
Y-116500D01*
X214000Y-96300D01*
Y-89100D01*
X208700Y-83800D02*
X214000Y-89100D01*
X184000Y-101657D02*
Y-94332D01*
X185800Y-92532D01*
X198900Y-57157D02*
X211500D01*
X184000Y-58968D02*
X184668D01*
X189943Y-64243D01*
X198900D01*
X173057Y-95276D02*
X175800Y-92532D01*
X35700Y-154957D02*
X36043Y-154613D01*
Y-147500D01*
X26700Y-145243D02*
X28957Y-147500D01*
X26700Y-145243D02*
Y-138800D01*
X32200D01*
X42300Y-128700D01*
Y-116500D01*
X62500Y-96300D01*
Y-89100D01*
X57200Y-83800D02*
X62500Y-89100D01*
X32500Y-94332D02*
X34300Y-92532D01*
X32500Y-101657D02*
Y-94332D01*
X47400Y-57157D02*
X60000D01*
X32500Y-58968D02*
X33168D01*
X38443Y-64243D01*
X47400D01*
X21557Y-95276D02*
X24300Y-92532D01*
X142857Y-108643D02*
X157800Y-93700D01*
X133700Y-108643D02*
X142857D01*
X158050Y-93950D02*
X158200Y-93800D01*
X193300Y-108700D02*
X208300Y-93700D01*
X208550Y-93950D02*
X208700Y-93800D01*
X184000Y-108700D02*
X193300D01*
X92357Y-108643D02*
X107300Y-93700D01*
X83200Y-108643D02*
X92357D01*
X107550Y-93950D02*
X107700Y-93800D01*
X41857Y-108643D02*
X56800Y-93700D01*
X32700Y-108643D02*
X41857D01*
X57050Y-93950D02*
X57200Y-93800D01*
X34200Y-115757D02*
X34300Y-115657D01*
X19800Y-115757D02*
X21557D01*
X34200D01*
X21557Y-117200D02*
Y-115757D01*
Y-95276D01*
X84700Y-115757D02*
X84800Y-115657D01*
X70300Y-115757D02*
X72057D01*
X84700D01*
X72057Y-117200D02*
Y-115757D01*
Y-95276D01*
X135200Y-115757D02*
X135300Y-115657D01*
X120800Y-115757D02*
X122557D01*
X135200D01*
X122557Y-117200D02*
Y-115757D01*
Y-95276D01*
X185400Y-115757D02*
X185800Y-116157D01*
X171300Y-115757D02*
X173057D01*
X185400D01*
X173057Y-117200D02*
Y-115757D01*
Y-95276D01*
X34300Y-126109D02*
Y-122743D01*
X84800Y-126209D02*
Y-122743D01*
X81040Y-129969D02*
X84800Y-126209D01*
X80940Y-130760D02*
X81385Y-130315D01*
X135300Y-126109D02*
Y-122743D01*
X131440Y-129969D02*
X135300Y-126109D01*
X131440Y-130760D02*
X131835Y-130365D01*
X185800Y-126900D02*
Y-123243D01*
Y-122743D01*
X181940Y-130760D02*
X185800Y-126900D01*
X30440Y-129969D02*
X34300Y-126109D01*
X30600Y-25157D02*
X30700Y-25257D01*
X18600Y-25157D02*
X19200Y-24557D01*
X18600Y-25157D02*
X30600D01*
X19200Y-24557D02*
Y-5000D01*
D18*
X67100Y-23043D02*
X67257Y-23200D01*
X74700D01*
X130600Y-26700D02*
X133098Y-24202D01*
X113700Y-50300D02*
X137239Y-26761D01*
X110044Y-56501D02*
X137225Y-29320D01*
X135100Y-45100D02*
Y-33991D01*
X137212Y-31879D01*
X139887D01*
X123800Y-23000D02*
Y-21937D01*
X117013Y-19084D02*
X130284D01*
X130500Y-19300D01*
X110643Y-15200D02*
X133200D01*
X135400Y-17400D01*
X66857Y-50300D02*
X113700D01*
X135400Y-24202D02*
Y-17400D01*
X29200Y-14700D02*
X54057Y-39557D01*
X38900Y-14400D02*
X53200Y-28700D01*
X69200Y-5000D02*
X98639Y-34439D01*
X53200Y-28700D02*
X73000D01*
X81298Y-36998D01*
X133098Y-24202D02*
X135400D01*
X139887D01*
X116913Y-21643D02*
X123507D01*
X123800Y-21937D01*
X137225Y-29320D02*
X139887D01*
X103557Y-21913D02*
X107200Y-25557D01*
X103557Y-21913D02*
Y-15200D01*
X99200Y-10843D02*
X103557Y-15200D01*
X99200Y-10843D02*
Y-5000D01*
X81298Y-36998D02*
X116913D01*
X38900Y-14400D02*
Y-5300D01*
X54057Y-39557D02*
X116913D01*
X29200Y-14700D02*
Y-5000D01*
X117013Y-31879D02*
X123421D01*
X194200Y-52457D02*
Y-40500D01*
X135100Y-45100D02*
X147157Y-57157D01*
X83000Y-101657D02*
X84800Y-103457D01*
X60000Y-57157D02*
X66857Y-50300D01*
X137239Y-26761D02*
X139887D01*
X209200Y-45000D02*
Y-33500D01*
X197343Y-21643D02*
X209200Y-33500D01*
X139887Y-21643D02*
X197343D01*
X188139Y-34439D02*
X194200Y-40500D01*
X139887Y-34439D02*
X188139D01*
X171198Y-36998D02*
X179200Y-45000D01*
X139887Y-36998D02*
X171198D01*
X163757Y-39557D02*
X169200Y-45000D01*
X139887Y-39557D02*
X163757D01*
X156316Y-42116D02*
X159200Y-45000D01*
X139887Y-42116D02*
X156316D01*
X98639Y-34439D02*
X116913D01*
X133500Y-101657D02*
X135300Y-103457D01*
X184000Y-101657D02*
X185800Y-103457D01*
X32500Y-101657D02*
X34300Y-103457D01*
X194200Y-52457D02*
X198900Y-57157D01*
X2559Y-42116D02*
X116913D01*
X-5143Y-30543D02*
Y-20400D01*
X-5200Y-30600D02*
X-5143Y-30543D01*
Y-52143D02*
Y-41500D01*
X-5200Y-52200D02*
X-5143Y-52143D01*
X1943Y-20400D02*
X6700Y-25157D01*
X18600D01*
X30700Y-25257D02*
X47472Y-42028D01*
X1943Y-41500D02*
X2559Y-42116D01*
D19*
X19200Y5000D02*
X29200D01*
X23400Y-75000D02*
X178800D01*
X83200Y-92232D02*
Y-80400D01*
X77800Y-75000D02*
X83200Y-80400D01*
X83000Y-92432D02*
X83200Y-92232D01*
X12500Y-85900D02*
X23400Y-75000D01*
X80643Y-167600D02*
X86200Y-162043D01*
X122400Y-167600D02*
X131143D01*
X136700Y-162043D01*
X133500Y-92432D02*
X133700Y-92232D01*
X128300Y-75000D02*
X133700Y-80400D01*
Y-92232D02*
Y-80400D01*
X172900Y-167600D02*
X181643D01*
X187200Y-162043D01*
X184000Y-92432D02*
X184200Y-92232D01*
X178800Y-75000D02*
X184200Y-80400D01*
Y-92232D02*
Y-80400D01*
X74300Y-167600D02*
X80643D01*
X23800D02*
X30143D01*
X35700Y-162043D01*
X32500Y-92432D02*
X32700Y-92232D01*
X27300Y-75000D02*
X32700Y-80400D01*
Y-92232D02*
Y-80400D01*
X122400Y-174400D02*
Y-167600D01*
X2000Y-167200D02*
X12500Y-156700D01*
X-7800Y-138500D02*
X12400D01*
X12500Y-156700D02*
Y-85900D01*
X74300Y-177900D02*
Y-167600D01*
X73560Y-129969D02*
Y-126103D01*
X70300Y-122843D02*
X73560Y-126103D01*
X120800Y-122843D02*
X123960Y-126003D01*
Y-129969D02*
Y-126003D01*
X171300Y-122843D02*
X174460Y-126003D01*
Y-129969D02*
Y-126003D01*
X19800Y-122843D02*
X23060Y-126103D01*
Y-129969D02*
Y-126103D01*
D20*
X80940Y-133469D02*
Y-130760D01*
X131440Y-133469D02*
Y-130760D01*
X181940Y-133469D02*
Y-130760D01*
X30440Y-133469D02*
Y-130760D01*
D21*
X2000Y-167200D02*
X23800D01*
Y-167600D02*
X34100Y-177900D01*
X74300D01*
X162600D01*
X172900Y-167600D01*
D22*
X209200Y-15000D02*
D03*
D23*
X199200D02*
D03*
X189200D02*
D03*
X179200D02*
D03*
X169200D02*
D03*
D24*
X159200D02*
D03*
X209200Y-45000D02*
D03*
X199200D02*
D03*
X189200D02*
D03*
X179200D02*
D03*
X169200D02*
D03*
X159200D02*
D03*
X-5200Y-30600D02*
D03*
Y-52200D02*
D03*
X172900Y-157600D02*
D03*
X122400D02*
D03*
X74300D02*
D03*
X23800D02*
D03*
X208300Y-83700D02*
D03*
Y-93700D02*
D03*
X157800Y-83700D02*
D03*
Y-93700D02*
D03*
X107300Y-83700D02*
D03*
Y-93700D02*
D03*
X56800Y-83700D02*
D03*
Y-93700D02*
D03*
X209200Y5000D02*
D03*
Y-5000D02*
D03*
X199200Y5000D02*
D03*
Y-5000D02*
D03*
X189200Y5000D02*
D03*
Y-5000D02*
D03*
X179200Y5000D02*
D03*
Y-5000D02*
D03*
X169200Y5000D02*
D03*
Y-5000D02*
D03*
X159200Y5000D02*
D03*
Y-5000D02*
D03*
X149200Y5000D02*
D03*
Y-5000D02*
D03*
X139200Y5000D02*
D03*
Y-5000D02*
D03*
X129200Y5000D02*
D03*
Y-5000D02*
D03*
X119200Y5000D02*
D03*
Y-5000D02*
D03*
X109200Y5000D02*
D03*
Y-5000D02*
D03*
X99200Y5000D02*
D03*
Y-5000D02*
D03*
X89200Y5000D02*
D03*
Y-5000D02*
D03*
X79200Y5000D02*
D03*
Y-5000D02*
D03*
X69200Y5000D02*
D03*
Y-5000D02*
D03*
X59200Y5000D02*
D03*
Y-5000D02*
D03*
X49200Y5000D02*
D03*
Y-5000D02*
D03*
X39200Y5000D02*
D03*
Y-5000D02*
D03*
X29200Y5000D02*
D03*
Y-5000D02*
D03*
X19200Y5000D02*
D03*
D25*
X4800Y-30600D02*
D03*
Y-52200D02*
D03*
X19200Y-5000D02*
D03*
D26*
X172900Y-167600D02*
D03*
X122400D02*
D03*
X74300D02*
D03*
X23800D02*
D03*
D27*
X208300Y-133700D02*
D03*
Y-163700D02*
D03*
X157800Y-133700D02*
D03*
Y-163700D02*
D03*
X107300Y-133700D02*
D03*
Y-163700D02*
D03*
X56800Y-133700D02*
D03*
Y-163700D02*
D03*
D28*
X2000Y-167200D02*
D03*
D29*
Y-147200D02*
D03*
X204700Y-191100D02*
D03*
X154200D02*
D03*
X103700D02*
D03*
X53200D02*
D03*
D30*
X184700D02*
D03*
X134200D02*
D03*
X83700D02*
D03*
X33200D02*
D03*
D31*
X228400Y-192900D02*
D03*
X0D02*
D03*
Y0D02*
D03*
X228400D02*
D03*
D32*
X74700Y-23200D02*
D03*
X130600Y-26700D02*
D03*
X123800Y-23000D02*
D03*
X130500Y-19300D02*
D03*
X123500Y-31800D02*
D03*
X168500Y-65700D02*
D03*
X118000D02*
D03*
X17000D02*
D03*
X67500D02*
D03*
X231900Y-52600D02*
D03*
Y-42600D02*
D03*
Y-32600D02*
D03*
Y-62600D02*
D03*
X75200Y-124800D02*
D03*
X24700D02*
D03*
X-7800Y-138500D02*
D03*
X125700Y-124800D02*
D03*
X176200D02*
D03*
M02*
