G04 Layer_Color=16711935*
%FSLAX25Y25*%
%MOIN*%
G70*
G01*
G75*
%ADD42R,0.05912X0.05124*%
%ADD45R,0.06306X0.06306*%
%ADD46C,0.06306*%
%ADD47C,0.06306*%
%ADD48R,0.06306X0.06306*%
%ADD49R,0.06306X0.06306*%
%ADD50C,0.10243*%
%ADD51C,0.11500*%
%ADD52C,0.05400*%
G36*
X205959Y-186401D02*
X207132Y-186887D01*
X208140Y-187660D01*
X208913Y-188668D01*
X209399Y-189841D01*
X209564Y-191100D01*
X209399Y-192359D01*
X208913Y-193532D01*
X208140Y-194540D01*
X207132Y-195313D01*
X205959Y-195799D01*
X204700Y-195965D01*
X203441Y-195799D01*
X202268Y-195313D01*
X201260Y-194540D01*
X200487Y-193532D01*
X200001Y-192359D01*
X199836Y-191100D01*
X200001Y-189841D01*
X200487Y-188668D01*
X201260Y-187660D01*
X202268Y-186887D01*
X203441Y-186401D01*
X204700Y-186235D01*
X205959Y-186401D01*
D02*
G37*
G36*
X38023Y-195923D02*
X28377D01*
Y-186277D01*
X38023D01*
Y-195923D01*
D02*
G37*
G36*
X155459Y-186401D02*
X156632Y-186887D01*
X157640Y-187660D01*
X158413Y-188668D01*
X158899Y-189841D01*
X159064Y-191100D01*
X158899Y-192359D01*
X158413Y-193532D01*
X157640Y-194540D01*
X156632Y-195313D01*
X155459Y-195799D01*
X154200Y-195965D01*
X152941Y-195799D01*
X151768Y-195313D01*
X150760Y-194540D01*
X149987Y-193532D01*
X149501Y-192359D01*
X149336Y-191100D01*
X149501Y-189841D01*
X149987Y-188668D01*
X150760Y-187660D01*
X151768Y-186887D01*
X152941Y-186401D01*
X154200Y-186235D01*
X155459Y-186401D01*
D02*
G37*
G36*
X54459D02*
X55632Y-186887D01*
X56640Y-187660D01*
X57413Y-188668D01*
X57899Y-189841D01*
X58064Y-191100D01*
X57899Y-192359D01*
X57413Y-193532D01*
X56640Y-194540D01*
X55632Y-195313D01*
X54459Y-195799D01*
X53200Y-195965D01*
X51941Y-195799D01*
X50768Y-195313D01*
X49760Y-194540D01*
X48987Y-193532D01*
X48501Y-192359D01*
X48336Y-191100D01*
X48501Y-189841D01*
X48987Y-188668D01*
X49760Y-187660D01*
X50768Y-186887D01*
X51941Y-186401D01*
X53200Y-186235D01*
X54459Y-186401D01*
D02*
G37*
G36*
X104959D02*
X106132Y-186887D01*
X107140Y-187660D01*
X107913Y-188668D01*
X108399Y-189841D01*
X108564Y-191100D01*
X108399Y-192359D01*
X107913Y-193532D01*
X107140Y-194540D01*
X106132Y-195313D01*
X104959Y-195799D01*
X103700Y-195965D01*
X102441Y-195799D01*
X101268Y-195313D01*
X100260Y-194540D01*
X99487Y-193532D01*
X99001Y-192359D01*
X98836Y-191100D01*
X99001Y-189841D01*
X99487Y-188668D01*
X100260Y-187660D01*
X101268Y-186887D01*
X102441Y-186401D01*
X103700Y-186235D01*
X104959Y-186401D01*
D02*
G37*
G36*
X6823Y-172023D02*
X-2823D01*
Y-162377D01*
X6823D01*
Y-172023D01*
D02*
G37*
G36*
X3259Y-142501D02*
X4432Y-142987D01*
X5440Y-143760D01*
X6213Y-144768D01*
X6699Y-145941D01*
X6864Y-147200D01*
X6699Y-148459D01*
X6213Y-149632D01*
X5440Y-150640D01*
X4432Y-151413D01*
X3259Y-151899D01*
X2000Y-152065D01*
X741Y-151899D01*
X-432Y-151413D01*
X-1440Y-150640D01*
X-2213Y-149632D01*
X-2699Y-148459D01*
X-2864Y-147200D01*
X-2699Y-145941D01*
X-2213Y-144768D01*
X-1440Y-143760D01*
X-432Y-142987D01*
X741Y-142501D01*
X2000Y-142335D01*
X3259Y-142501D01*
D02*
G37*
G36*
X189523Y-195923D02*
X179877D01*
Y-186277D01*
X189523D01*
Y-195923D01*
D02*
G37*
G36*
X88523D02*
X78877D01*
Y-186277D01*
X88523D01*
Y-195923D01*
D02*
G37*
G36*
X139023D02*
X129377D01*
Y-186277D01*
X139023D01*
Y-195923D01*
D02*
G37*
D42*
X-7700Y-161257D02*
D03*
Y-168343D02*
D03*
X-7700Y-152943D02*
D03*
Y-145857D02*
D03*
D45*
X209200Y-15000D02*
D03*
D46*
X199200D02*
D03*
X189200D02*
D03*
X179200D02*
D03*
X169200D02*
D03*
D47*
X159200D02*
D03*
X209200Y-45000D02*
D03*
X199200D02*
D03*
X189200D02*
D03*
X179200D02*
D03*
X169200D02*
D03*
X159200D02*
D03*
X-5200Y-30600D02*
D03*
Y-52200D02*
D03*
X172900Y-157600D02*
D03*
X122400D02*
D03*
X74300D02*
D03*
X23800D02*
D03*
X208300Y-83700D02*
D03*
Y-93700D02*
D03*
X157800Y-83700D02*
D03*
Y-93700D02*
D03*
X107300Y-83700D02*
D03*
Y-93700D02*
D03*
X56800Y-83700D02*
D03*
Y-93700D02*
D03*
X209200Y5000D02*
D03*
Y-5000D02*
D03*
X199200Y5000D02*
D03*
Y-5000D02*
D03*
X189200Y5000D02*
D03*
Y-5000D02*
D03*
X179200Y5000D02*
D03*
Y-5000D02*
D03*
X169200Y5000D02*
D03*
Y-5000D02*
D03*
X159200Y5000D02*
D03*
Y-5000D02*
D03*
X149200Y5000D02*
D03*
Y-5000D02*
D03*
X139200Y5000D02*
D03*
Y-5000D02*
D03*
X129200Y5000D02*
D03*
Y-5000D02*
D03*
X119200Y5000D02*
D03*
Y-5000D02*
D03*
X109200Y5000D02*
D03*
Y-5000D02*
D03*
X99200Y5000D02*
D03*
Y-5000D02*
D03*
X89200Y5000D02*
D03*
Y-5000D02*
D03*
X79200Y5000D02*
D03*
Y-5000D02*
D03*
X69200Y5000D02*
D03*
Y-5000D02*
D03*
X59200Y5000D02*
D03*
Y-5000D02*
D03*
X49200Y5000D02*
D03*
Y-5000D02*
D03*
X39200Y5000D02*
D03*
Y-5000D02*
D03*
X29200Y5000D02*
D03*
Y-5000D02*
D03*
X19200Y5000D02*
D03*
D48*
X4800Y-30600D02*
D03*
Y-52200D02*
D03*
X19200Y-5000D02*
D03*
D49*
X172900Y-167600D02*
D03*
X122400D02*
D03*
X74300D02*
D03*
X23800D02*
D03*
D50*
X208300Y-133700D02*
D03*
Y-163700D02*
D03*
X157800Y-133700D02*
D03*
Y-163700D02*
D03*
X107300Y-133700D02*
D03*
Y-163700D02*
D03*
X56800Y-133700D02*
D03*
Y-163700D02*
D03*
D51*
X228400Y-192900D02*
D03*
X0D02*
D03*
Y0D02*
D03*
X228400D02*
D03*
D52*
X74700Y-23200D02*
D03*
X130600Y-26700D02*
D03*
X123800Y-23000D02*
D03*
X130500Y-19300D02*
D03*
X123500Y-31800D02*
D03*
X168500Y-65700D02*
D03*
X118000D02*
D03*
X17000D02*
D03*
X67500D02*
D03*
X231900Y-52600D02*
D03*
Y-42600D02*
D03*
Y-32600D02*
D03*
Y-62600D02*
D03*
X75200Y-124800D02*
D03*
X24700D02*
D03*
X-7800Y-138500D02*
D03*
X125700Y-124800D02*
D03*
X176200D02*
D03*
M02*
