M48
;Layer_Color=9474304
;FILE_FORMAT=2:5
INCH,LZ
;TYPE=PLATED
T1F00S00C0.02800
T2F00S00C0.03543
T3F00S00C0.05906
T4F00S00C0.11100
%
T01
X02319Y-00626
Y-00526
Y-00426
Y-00326
X01685Y-00657
X0118
X01235Y-00318
X01238Y-0023
X01305Y-00193
X01306Y-00267
X00747Y-00232
X00675Y-00657
X00752Y-01248
X01257
X01762
X00247
X-00078Y-01385
X0017Y-00657
T02
X00238Y-01676
Y-01576
X00568Y-01637
X00743Y-01676
Y-01576
X01073Y-01637
X01224Y-01676
Y-01576
X01578Y-01637
X01729Y-01676
Y-01576
X02083Y-01637
Y-01337
Y-00937
Y-00837
X02092Y-0045
X01992
Y-0015
X02092
Y-0005
Y0005
X01992
Y-0005
X01892
Y-0015
X01792
X01692
X01592
Y-0005
X01692
X01792
Y0005
X01892
X01692
X01592
X01492
Y-0005
X01392
Y0005
X01292
Y-0005
X01192
Y0005
X01092
Y-0005
X00992
Y0005
X00892
Y-0005
X00792
Y0005
X00692
Y-0005
X00592
Y0005
X00492
Y-0005
X00568Y-00837
Y-00937
Y-01337
X01073
Y-00937
Y-00837
X01578
Y-00937
Y-01337
X01592Y-0045
X01692
X01792
X01892
X00392Y-0005
Y0005
X00292
Y-0005
X00192
Y0005
X00048Y-00306
X-00052
Y-00522
X00048
T03
X0002Y-01672
X00332Y-01911
X00532
X00837
X01037
X01342
X01542
X01847
X02047
X0002Y-01472
T04
X0Y-01929
X02284
Y0
X0
M30
