M48
;Layer_Color=9474304
;FILE_FORMAT=2:5
INCH,LZ
;TYPE=PLATED
T1F00S00C0.02800
T2F00S00C0.03543
T3F00S00C0.03937
T4F00S00C0.08661
T5F00S00C0.11100
%
T01
X00478Y-00364
X00617
X0079921Y-0062795
X0087008Y-0062598
X0108268Y-0085425
X01075Y-0023
X00975
X01472Y-00119
X0006693Y-0027953
X0000175
X-0006299
X-0005992Y-0057311
X0000482
X0007087Y-005748
X0016535Y-0045276
X0017323Y-0072047
T02
X01992Y-0005
X02092
Y0005
X01992
X01892
Y-0005
X01792
Y0005
X01692
Y-0005
X01592
Y0005
X01492
Y-0005
X01392
Y0005
X01292
Y-0005
X01192
Y0005
X01092
Y-0005
X00992
Y0005
X00892
Y-0005
X00792
Y0005
X00692
Y-0005
X00592
Y0005
X00492
Y-0005
X00435Y-0018319
X0056
X0066
X00335
X00292Y-0005
X00392
Y0005
X00292
X00192
Y-0005
T03
X0054Y-0045248
X0064
X0074
X0084
X01578
X01678
X01778
X01878
T04
X0027406Y-0188949
X0110083
X0131205
X0213883
Y-0035405
X0131205
X0110083
X0027406
T05
X0Y-01929
X02284
Y0
X0
M30
