G04 Layer_Color=32896*
%FSLAX25Y25*%
%MOIN*%
G70*
G01*
G75*
%ADD26C,0.01000*%
%ADD29C,0.00787*%
D26*
X93101Y-98098D02*
X94101Y-99098D01*
X96100D01*
X97100Y-98098D01*
Y-94100D01*
X96100Y-93100D01*
X94101D01*
X93101Y-94100D01*
X87103Y-99098D02*
X89103Y-98098D01*
X91102Y-96099D01*
Y-94100D01*
X90102Y-93100D01*
X88103D01*
X87103Y-94100D01*
Y-95099D01*
X88103Y-96099D01*
X91102D01*
X132999Y-94502D02*
X131999Y-93502D01*
X130000D01*
X129000Y-94502D01*
Y-98500D01*
X130000Y-99500D01*
X131999D01*
X132999Y-98500D01*
X134998Y-93502D02*
X138997D01*
Y-94502D01*
X134998Y-98500D01*
Y-99500D01*
X58400Y-32200D02*
Y-26202D01*
X55401D01*
X54401Y-27202D01*
Y-29201D01*
X55401Y-30201D01*
X58400D01*
X56401D02*
X54401Y-32200D01*
X52402Y-27202D02*
X51402Y-26202D01*
X49403D01*
X48403Y-27202D01*
Y-28201D01*
X49403Y-29201D01*
X50403D01*
X49403D01*
X48403Y-30201D01*
Y-31200D01*
X49403Y-32200D01*
X51402D01*
X52402Y-31200D01*
X68898Y-71260D02*
X74896D01*
Y-68261D01*
X73896Y-67261D01*
X71897D01*
X70897Y-68261D01*
Y-71260D01*
Y-69261D02*
X68898Y-67261D01*
Y-61263D02*
Y-65262D01*
X72896Y-61263D01*
X73896D01*
X74896Y-62263D01*
Y-64262D01*
X73896Y-65262D01*
X81600Y-32000D02*
Y-26002D01*
X78601D01*
X77601Y-27002D01*
Y-29001D01*
X78601Y-30001D01*
X81600D01*
X79601D02*
X77601Y-32000D01*
X72603D02*
Y-26002D01*
X75602Y-29001D01*
X71603D01*
X41732Y-52362D02*
Y-46364D01*
X38733D01*
X37734Y-47364D01*
Y-49363D01*
X38733Y-50363D01*
X41732D01*
X39733D02*
X37734Y-52362D01*
X31736Y-46364D02*
X35734D01*
Y-49363D01*
X33735Y-48364D01*
X32735D01*
X31736Y-49363D01*
Y-51363D01*
X32735Y-52362D01*
X34734D01*
X35734Y-51363D01*
X43701Y-74803D02*
Y-68805D01*
X40702D01*
X39702Y-69805D01*
Y-71804D01*
X40702Y-72804D01*
X43701D01*
X41701D02*
X39702Y-74803D01*
X33704Y-68805D02*
X35703Y-69805D01*
X37703Y-71804D01*
Y-73804D01*
X36703Y-74803D01*
X34704D01*
X33704Y-73804D01*
Y-72804D01*
X34704Y-71804D01*
X37703D01*
X117100Y-117998D02*
Y-116998D01*
X115101Y-114999D01*
X113101Y-116998D01*
Y-117998D01*
X115101Y-114999D02*
Y-112000D01*
X111102D02*
X109103D01*
X110102D01*
Y-117998D01*
X111102Y-116998D01*
X128400Y-55002D02*
Y-60000D01*
X127400Y-61000D01*
X125401D01*
X124401Y-60000D01*
Y-55002D01*
X122402Y-61000D02*
X120403D01*
X121402D01*
Y-55002D01*
X122402Y-56002D01*
D29*
X128988Y-77140D02*
G03*
X128988Y-78419I0J-640D01*
G01*
X83465Y-68898D02*
Y-64173D01*
X24803Y-74409D02*
Y-69685D01*
X22835Y-51968D02*
Y-47244D01*
X41138Y-33000D02*
X45862D01*
X63638D02*
X68362D01*
X136411Y-120781D02*
Y-101096D01*
X90348Y-120781D02*
Y-101096D01*
X136411D01*
X90348Y-120781D02*
X136411D01*
X120480Y-98801D02*
Y-94076D01*
X105980Y-98801D02*
Y-94076D01*
X92571Y-85425D02*
Y-70000D01*
X92700Y-85425D02*
X128988D01*
Y-78419D01*
Y-77140D02*
Y-70000D01*
X92600D02*
X128988D01*
M02*
