G04 Layer_Physical_Order=1*
G04 Layer_Color=255*
%FSLAX25Y25*%
%MOIN*%
G70*
G01*
G75*
%ADD10R,0.05512X0.04724*%
%ADD11R,0.03937X0.04724*%
%ADD12R,0.20000X0.02500*%
%ADD13R,0.04724X0.07087*%
%ADD14C,0.05000*%
%ADD15C,0.02000*%
%ADD16C,0.05906*%
%ADD17R,0.05906X0.05906*%
%ADD18C,0.07087*%
%ADD19R,0.07087X0.07087*%
%ADD20C,0.11811*%
%ADD21C,0.11100*%
%ADD22C,0.05000*%
G36*
X232107Y13046D02*
X233822Y12635D01*
X235451Y11960D01*
X236954Y11039D01*
X238294Y9894D01*
X239439Y8554D01*
X240360Y7051D01*
X241035Y5422D01*
X241446Y3708D01*
X241576Y2061D01*
X241551Y2000D01*
Y-194800D01*
X241579Y-194869D01*
X241446Y-196565D01*
X241033Y-198287D01*
X240355Y-199923D01*
X239430Y-201433D01*
X238280Y-202780D01*
X236933Y-203930D01*
X235423Y-204855D01*
X233787Y-205533D01*
X232065Y-205946D01*
X230369Y-206079D01*
X230300Y-206051D01*
X-1900D01*
X-1969Y-206079D01*
X-3665Y-205946D01*
X-5387Y-205533D01*
X-7023Y-204855D01*
X-8533Y-203930D01*
X-9880Y-202780D01*
X-11030Y-201433D01*
X-11955Y-199923D01*
X-12632Y-198287D01*
X-13046Y-196565D01*
X-13179Y-194869D01*
X-13151Y-194800D01*
Y2000D01*
X-13176Y2061D01*
X-13046Y3708D01*
X-12635Y5422D01*
X-11960Y7051D01*
X-11039Y8554D01*
X-9894Y9894D01*
X-8554Y11039D01*
X-7051Y11960D01*
X-5422Y12635D01*
X-3708Y13046D01*
X-1977Y13183D01*
X-1900Y13151D01*
X230300D01*
X230377Y13183D01*
X232107Y13046D01*
D02*
G37*
%LPC*%
G36*
X101750Y-12595D02*
X98744D01*
Y-15207D01*
X101750D01*
Y-12595D01*
D02*
G37*
G36*
X96256D02*
X93250D01*
Y-15207D01*
X96256D01*
Y-12595D01*
D02*
G37*
G36*
X111750D02*
X108744D01*
Y-15207D01*
X111750D01*
Y-12595D01*
D02*
G37*
G36*
X106256D02*
X103250D01*
Y-15207D01*
X106256D01*
Y-12595D01*
D02*
G37*
G36*
X91750D02*
X88744D01*
Y-15207D01*
X91750D01*
Y-12595D01*
D02*
G37*
G36*
X66000Y-14736D02*
X65073Y-14858D01*
X64208Y-15216D01*
X63466Y-15785D01*
X62897Y-16527D01*
X62539Y-17391D01*
X62417Y-18319D01*
X62539Y-19246D01*
X62897Y-20111D01*
X63466Y-20853D01*
X64208Y-21422D01*
X65073Y-21780D01*
X66000Y-21902D01*
X66927Y-21780D01*
X67792Y-21422D01*
X68534Y-20853D01*
X69103Y-20111D01*
X69461Y-19246D01*
X69583Y-18319D01*
X69461Y-17391D01*
X69103Y-16527D01*
X68534Y-15785D01*
X67792Y-15216D01*
X66927Y-14858D01*
X66000Y-14736D01*
D02*
G37*
G36*
X13785Y-28398D02*
Y-32192D01*
X16398D01*
Y-28398D01*
X13785D01*
D02*
G37*
G36*
X116256Y-16707D02*
X108744D01*
Y-18594D01*
X108727Y-18647D01*
X107514Y-19860D01*
X107500Y-19866D01*
X107486Y-19860D01*
X106273Y-18647D01*
X106256Y-18594D01*
Y-16707D01*
X98744D01*
Y-18594D01*
X98727Y-18647D01*
X97514Y-19860D01*
X97500Y-19866D01*
X97486Y-19860D01*
X96273Y-18647D01*
X96256Y-18594D01*
Y-16707D01*
X88744D01*
Y-18747D01*
X88744Y-19319D01*
X89144Y-20653D01*
Y-26006D01*
X95856D01*
X95856Y-26006D01*
X97316Y-26103D01*
X97500Y-26127D01*
X97684Y-26103D01*
X99144Y-26006D01*
X99144Y-26006D01*
X99144Y-26006D01*
X105856D01*
X105856Y-26006D01*
X107316Y-26103D01*
X107500Y-26127D01*
X107684Y-26103D01*
X109144Y-26006D01*
X109144Y-26006D01*
X109144Y-26006D01*
X115856D01*
Y-20653D01*
X116256Y-19319D01*
X116256Y-18747D01*
Y-16707D01*
D02*
G37*
G36*
X149200Y-1417D02*
X148273Y-1539D01*
X147408Y-1897D01*
X146666Y-2466D01*
X146097Y-3208D01*
X145739Y-4073D01*
X145617Y-5000D01*
X145739Y-5928D01*
X146097Y-6792D01*
X146525Y-7349D01*
X146461Y-8071D01*
X146108Y-8997D01*
X145637Y-9192D01*
X144989Y-9689D01*
X144492Y-10337D01*
X144180Y-11091D01*
X144073Y-11900D01*
X144180Y-12709D01*
X144492Y-13463D01*
X144514Y-13492D01*
Y-18447D01*
X144514Y-18785D01*
Y-19947D01*
X143912Y-20684D01*
X142182Y-20603D01*
X141661Y-19778D01*
X141839Y-19185D01*
X141839Y-18613D01*
Y-16573D01*
X134327D01*
Y-18613D01*
X134327Y-19185D01*
X134727Y-20519D01*
Y-25872D01*
X141439D01*
Y-24541D01*
X144514D01*
Y-25872D01*
X149651D01*
Y-20285D01*
X149651Y-19947D01*
Y-18785D01*
X149651Y-18447D01*
Y-13798D01*
X149908Y-13463D01*
X150220Y-12709D01*
X150327Y-11900D01*
X150220Y-11091D01*
X149908Y-10337D01*
X149676Y-10034D01*
X149989Y-8787D01*
X150223Y-8422D01*
X150992Y-8103D01*
X151734Y-7534D01*
X152303Y-6792D01*
X152661Y-5928D01*
X152783Y-5000D01*
X152661Y-4073D01*
X152303Y-3208D01*
X151734Y-2466D01*
X150992Y-1897D01*
X150127Y-1539D01*
X149200Y-1417D01*
D02*
G37*
G36*
X103088Y-5750D02*
X99950D01*
Y-8888D01*
X100232Y-8851D01*
X101193Y-8453D01*
X102019Y-7819D01*
X102653Y-6993D01*
X103051Y-6032D01*
X103088Y-5750D01*
D02*
G37*
G36*
X98450D02*
X95312D01*
X95349Y-6032D01*
X95747Y-6993D01*
X96381Y-7819D01*
X97207Y-8453D01*
X98168Y-8851D01*
X98450Y-8888D01*
Y-5750D01*
D02*
G37*
G36*
X69200Y-1417D02*
X68273Y-1539D01*
X67408Y-1897D01*
X66666Y-2466D01*
X66097Y-3208D01*
X65739Y-4073D01*
X65617Y-5000D01*
X65739Y-5928D01*
X66097Y-6792D01*
X66666Y-7534D01*
X67408Y-8103D01*
X68273Y-8461D01*
X69200Y-8583D01*
X70127Y-8461D01*
X70992Y-8103D01*
X71734Y-7534D01*
X72303Y-6792D01*
X72661Y-5928D01*
X72783Y-5000D01*
X72661Y-4073D01*
X72303Y-3208D01*
X71734Y-2466D01*
X70992Y-1897D01*
X70127Y-1539D01*
X69200Y-1417D01*
D02*
G37*
G36*
X59200D02*
X58273Y-1539D01*
X57408Y-1897D01*
X56666Y-2466D01*
X56097Y-3208D01*
X55739Y-4073D01*
X55617Y-5000D01*
X55739Y-5928D01*
X56097Y-6792D01*
X56666Y-7534D01*
X57408Y-8103D01*
X58273Y-8461D01*
X59200Y-8583D01*
X60127Y-8461D01*
X60992Y-8103D01*
X61734Y-7534D01*
X62303Y-6792D01*
X62661Y-5928D01*
X62783Y-5000D01*
X62661Y-4073D01*
X62303Y-3208D01*
X61734Y-2466D01*
X60992Y-1897D01*
X60127Y-1539D01*
X59200Y-1417D01*
D02*
G37*
G36*
X23153Y-5750D02*
X19950D01*
Y-8953D01*
X23153D01*
Y-5750D01*
D02*
G37*
G36*
X137333Y-12461D02*
X134327D01*
Y-15073D01*
X137333D01*
Y-12461D01*
D02*
G37*
G36*
X116256Y-12595D02*
X113250D01*
Y-15207D01*
X116256D01*
Y-12595D01*
D02*
G37*
G36*
X18450Y-5750D02*
X15247D01*
Y-8953D01*
X18450D01*
Y-5750D01*
D02*
G37*
G36*
X141839Y-12461D02*
X138833D01*
Y-15073D01*
X141839D01*
Y-12461D01*
D02*
G37*
G36*
X213883Y-28868D02*
X212607Y-28994D01*
X211381Y-29366D01*
X210251Y-29970D01*
X209260Y-30783D01*
X208447Y-31774D01*
X207843Y-32904D01*
X207471Y-34130D01*
X207346Y-35405D01*
X207471Y-36681D01*
X207843Y-37907D01*
X208447Y-39037D01*
X209260Y-40028D01*
X210251Y-40841D01*
X211381Y-41445D01*
X212607Y-41817D01*
X213883Y-41943D01*
X215158Y-41817D01*
X216384Y-41445D01*
X217514Y-40841D01*
X218505Y-40028D01*
X219318Y-39037D01*
X219922Y-37907D01*
X220294Y-36681D01*
X220420Y-35405D01*
X220294Y-34130D01*
X219922Y-32904D01*
X219318Y-31774D01*
X218505Y-30783D01*
X217514Y-29970D01*
X216384Y-29366D01*
X215158Y-28994D01*
X213883Y-28868D01*
D02*
G37*
G36*
X14093Y-57757D02*
Y-61550D01*
X16705D01*
Y-57757D01*
X14093D01*
D02*
G37*
G36*
X213883Y-182412D02*
X212607Y-182537D01*
X211381Y-182909D01*
X210251Y-183513D01*
X209260Y-184327D01*
X208447Y-185317D01*
X207843Y-186447D01*
X207471Y-187673D01*
X207346Y-188949D01*
X207471Y-190224D01*
X207843Y-191450D01*
X208447Y-192581D01*
X209260Y-193571D01*
X210251Y-194384D01*
X211381Y-194988D01*
X212607Y-195360D01*
X213883Y-195486D01*
X215158Y-195360D01*
X216384Y-194988D01*
X217514Y-194384D01*
X218505Y-193571D01*
X219318Y-192581D01*
X219922Y-191450D01*
X220294Y-190224D01*
X220420Y-188949D01*
X220294Y-187673D01*
X219922Y-186447D01*
X219318Y-185317D01*
X218505Y-184327D01*
X217514Y-183513D01*
X216384Y-182909D01*
X215158Y-182537D01*
X213883Y-182412D01*
D02*
G37*
G36*
X482Y-54184D02*
X-328Y-54291D01*
X-1082Y-54603D01*
X-1729Y-55100D01*
X-1859Y-55269D01*
X-2201Y-55384D01*
X-3310D01*
X-3652Y-55269D01*
X-3781Y-55100D01*
X-4429Y-54603D01*
X-5183Y-54291D01*
X-5992Y-54184D01*
X-6801Y-54291D01*
X-7555Y-54603D01*
X-8203Y-55100D01*
X-8700Y-55748D01*
X-9012Y-56502D01*
X-9119Y-57311D01*
X-9012Y-58120D01*
X-8911Y-58365D01*
Y-65757D01*
X-8911Y-66443D01*
X-8910Y-67938D01*
Y-75543D01*
X-6900D01*
Y-75550D01*
X14300D01*
Y-75543D01*
X16306D01*
X16306Y-75543D01*
Y-75543D01*
X17636Y-75133D01*
X18132Y-75067D01*
X18886Y-74755D01*
X19534Y-74258D01*
X20031Y-73611D01*
X20343Y-72856D01*
X20450Y-72047D01*
X20343Y-71238D01*
X20031Y-70484D01*
X19534Y-69836D01*
X18886Y-69339D01*
X18132Y-69027D01*
X17323Y-68920D01*
X16440Y-67728D01*
X16705Y-66843D01*
X16705Y-65922D01*
Y-63050D01*
X13342D01*
Y-62300D01*
X12593D01*
Y-57757D01*
X10456Y-57757D01*
X10213Y-57480D01*
X10173Y-57175D01*
X10107Y-56671D01*
X9794Y-55917D01*
X9298Y-55269D01*
X8650Y-54773D01*
X7896Y-54460D01*
X7087Y-54354D01*
X6277Y-54460D01*
X5523Y-54773D01*
X4876Y-55269D01*
X4706Y-55490D01*
X4023Y-55606D01*
X3344Y-55570D01*
X2953Y-55439D01*
X2693Y-55100D01*
X2045Y-54603D01*
X1291Y-54291D01*
X482Y-54184D01*
D02*
G37*
G36*
X79200Y-1417D02*
X78273Y-1539D01*
X77408Y-1897D01*
X76666Y-2466D01*
X76097Y-3208D01*
X75739Y-4073D01*
X75617Y-5000D01*
X75739Y-5928D01*
X76097Y-6792D01*
X76666Y-7534D01*
X77408Y-8103D01*
X77569Y-8170D01*
Y-26050D01*
X77693Y-26675D01*
X78047Y-27204D01*
X90101Y-39258D01*
Y-57198D01*
X87732Y-59567D01*
X87008Y-59472D01*
X86199Y-59578D01*
X85444Y-59891D01*
X84797Y-60387D01*
X84300Y-61035D01*
X83988Y-61789D01*
X83881Y-62598D01*
X83988Y-63408D01*
X84300Y-64162D01*
X84797Y-64809D01*
X85444Y-65306D01*
X86199Y-65619D01*
X87008Y-65725D01*
X87817Y-65619D01*
X88571Y-65306D01*
X89219Y-64809D01*
X89716Y-64162D01*
X90028Y-63408D01*
X90135Y-62598D01*
X90039Y-61874D01*
X92886Y-59028D01*
X93239Y-58498D01*
X93364Y-57874D01*
Y-38583D01*
X93239Y-37958D01*
X92886Y-37429D01*
X80831Y-25375D01*
Y-8170D01*
X80992Y-8103D01*
X81734Y-7534D01*
X82303Y-6792D01*
X82661Y-5928D01*
X82783Y-5000D01*
X82661Y-4073D01*
X82303Y-3208D01*
X81734Y-2466D01*
X80992Y-1897D01*
X80127Y-1539D01*
X79200Y-1417D01*
D02*
G37*
G36*
X131205Y-182412D02*
X129930Y-182537D01*
X128704Y-182909D01*
X127574Y-183513D01*
X126583Y-184327D01*
X125770Y-185317D01*
X125166Y-186447D01*
X124794Y-187673D01*
X124669Y-188949D01*
X124794Y-190224D01*
X125166Y-191450D01*
X125770Y-192581D01*
X126583Y-193571D01*
X127574Y-194384D01*
X128704Y-194988D01*
X129930Y-195360D01*
X131205Y-195486D01*
X132481Y-195360D01*
X133707Y-194988D01*
X134837Y-194384D01*
X135828Y-193571D01*
X136641Y-192581D01*
X137245Y-191450D01*
X137617Y-190224D01*
X137742Y-188949D01*
X137617Y-187673D01*
X137245Y-186447D01*
X136641Y-185317D01*
X135828Y-184327D01*
X134837Y-183513D01*
X133707Y-182909D01*
X132481Y-182537D01*
X131205Y-182412D01*
D02*
G37*
G36*
X228400Y-186720D02*
X227194Y-186839D01*
X226035Y-187191D01*
X224967Y-187762D01*
X224030Y-188530D01*
X223262Y-189467D01*
X222691Y-190535D01*
X222339Y-191694D01*
X222220Y-192900D01*
X222339Y-194106D01*
X222691Y-195265D01*
X223262Y-196333D01*
X224030Y-197270D01*
X224967Y-198038D01*
X226035Y-198609D01*
X227194Y-198961D01*
X228400Y-199080D01*
X229606Y-198961D01*
X230765Y-198609D01*
X231833Y-198038D01*
X232770Y-197270D01*
X233538Y-196333D01*
X234109Y-195265D01*
X234461Y-194106D01*
X234580Y-192900D01*
X234461Y-191694D01*
X234109Y-190535D01*
X233538Y-189467D01*
X232770Y-188530D01*
X231833Y-187762D01*
X230765Y-187191D01*
X229606Y-186839D01*
X228400Y-186720D01*
D02*
G37*
G36*
X0D02*
X-1206Y-186839D01*
X-2365Y-187191D01*
X-3433Y-187762D01*
X-4370Y-188530D01*
X-5138Y-189467D01*
X-5709Y-190535D01*
X-6061Y-191694D01*
X-6180Y-192900D01*
X-6061Y-194106D01*
X-5709Y-195265D01*
X-5138Y-196333D01*
X-4370Y-197270D01*
X-3433Y-198038D01*
X-2365Y-198609D01*
X-1206Y-198961D01*
X0Y-199080D01*
X1206Y-198961D01*
X2365Y-198609D01*
X3433Y-198038D01*
X4370Y-197270D01*
X5138Y-196333D01*
X5709Y-195265D01*
X6061Y-194106D01*
X6180Y-192900D01*
X6061Y-191694D01*
X5709Y-190535D01*
X5138Y-189467D01*
X4370Y-188530D01*
X3433Y-187762D01*
X2365Y-187191D01*
X1206Y-186839D01*
X0Y-186720D01*
D02*
G37*
G36*
X110083Y-182412D02*
X108807Y-182537D01*
X107581Y-182909D01*
X106451Y-183513D01*
X105460Y-184327D01*
X104647Y-185317D01*
X104043Y-186447D01*
X103671Y-187673D01*
X103546Y-188949D01*
X103671Y-190224D01*
X104043Y-191450D01*
X104647Y-192581D01*
X105460Y-193571D01*
X106451Y-194384D01*
X107581Y-194988D01*
X108807Y-195360D01*
X110083Y-195486D01*
X111358Y-195360D01*
X112584Y-194988D01*
X113714Y-194384D01*
X114705Y-193571D01*
X115518Y-192581D01*
X116122Y-191450D01*
X116494Y-190224D01*
X116620Y-188949D01*
X116494Y-187673D01*
X116122Y-186447D01*
X115518Y-185317D01*
X114705Y-184327D01*
X113714Y-183513D01*
X112584Y-182909D01*
X111358Y-182537D01*
X110083Y-182412D01*
D02*
G37*
G36*
X27406D02*
X26130Y-182537D01*
X24904Y-182909D01*
X23774Y-183513D01*
X22783Y-184327D01*
X21970Y-185317D01*
X21366Y-186447D01*
X20994Y-187673D01*
X20868Y-188949D01*
X20994Y-190224D01*
X21366Y-191450D01*
X21970Y-192581D01*
X22783Y-193571D01*
X23774Y-194384D01*
X24904Y-194988D01*
X26130Y-195360D01*
X27406Y-195486D01*
X28681Y-195360D01*
X29907Y-194988D01*
X31037Y-194384D01*
X32028Y-193571D01*
X32841Y-192581D01*
X33445Y-191450D01*
X33817Y-190224D01*
X33942Y-188949D01*
X33817Y-187673D01*
X33445Y-186447D01*
X32841Y-185317D01*
X32028Y-184327D01*
X31037Y-183513D01*
X29907Y-182909D01*
X28681Y-182537D01*
X27406Y-182412D01*
D02*
G37*
G36*
Y-28868D02*
X26130Y-28994D01*
X24904Y-29366D01*
X23774Y-29970D01*
X22783Y-30783D01*
X21970Y-31774D01*
X21366Y-32904D01*
X20994Y-34130D01*
X20868Y-35405D01*
X20994Y-36681D01*
X21366Y-37907D01*
X21970Y-39037D01*
X22783Y-40028D01*
X23774Y-40841D01*
X24904Y-41445D01*
X26130Y-41817D01*
X27406Y-41943D01*
X28681Y-41817D01*
X29907Y-41445D01*
X31037Y-40841D01*
X32028Y-40028D01*
X32841Y-39037D01*
X33445Y-37907D01*
X33817Y-36681D01*
X33942Y-35405D01*
X33817Y-34130D01*
X33445Y-32904D01*
X32841Y-31774D01*
X32028Y-30783D01*
X31037Y-29970D01*
X29907Y-29366D01*
X28681Y-28994D01*
X27406Y-28868D01*
D02*
G37*
G36*
X167050Y-40764D02*
X166614Y-40822D01*
X165509Y-41280D01*
X164560Y-42008D01*
X163831Y-42957D01*
X163374Y-44062D01*
X161943Y-43768D01*
Y-41105D01*
X153657D01*
Y-49391D01*
X161943D01*
Y-46728D01*
X163374Y-46434D01*
X163831Y-47539D01*
X164560Y-48488D01*
X165509Y-49217D01*
X166614Y-49674D01*
X167050Y-49732D01*
Y-45248D01*
Y-40764D01*
D02*
G37*
G36*
X131205Y-28868D02*
X129930Y-28994D01*
X128704Y-29366D01*
X127574Y-29970D01*
X126583Y-30783D01*
X125770Y-31774D01*
X125166Y-32904D01*
X124794Y-34130D01*
X124669Y-35405D01*
X124794Y-36681D01*
X125166Y-37907D01*
X125770Y-39037D01*
X126583Y-40028D01*
X127574Y-40841D01*
X128704Y-41445D01*
X129930Y-41817D01*
X131205Y-41943D01*
X132481Y-41817D01*
X133707Y-41445D01*
X134837Y-40841D01*
X135828Y-40028D01*
X136641Y-39037D01*
X137245Y-37907D01*
X137617Y-36681D01*
X137742Y-35405D01*
X137617Y-34130D01*
X137245Y-32904D01*
X136641Y-31774D01*
X135828Y-30783D01*
X134837Y-29970D01*
X133707Y-29366D01*
X132481Y-28994D01*
X131205Y-28868D01*
D02*
G37*
G36*
X110083D02*
X108807Y-28994D01*
X107581Y-29366D01*
X106451Y-29970D01*
X105460Y-30783D01*
X104647Y-31774D01*
X104043Y-32904D01*
X103671Y-34130D01*
X103546Y-35405D01*
X103671Y-36681D01*
X104043Y-37907D01*
X104647Y-39037D01*
X105460Y-40028D01*
X106451Y-40841D01*
X107581Y-41445D01*
X108807Y-41817D01*
X110083Y-41943D01*
X111358Y-41817D01*
X112584Y-41445D01*
X113714Y-40841D01*
X114705Y-40028D01*
X115518Y-39037D01*
X116122Y-37907D01*
X116494Y-36681D01*
X116620Y-35405D01*
X116494Y-34130D01*
X116122Y-32904D01*
X115518Y-31774D01*
X114705Y-30783D01*
X113714Y-29970D01*
X112584Y-29366D01*
X111358Y-28994D01*
X110083Y-28868D01*
D02*
G37*
G36*
X63250Y-40764D02*
X62814Y-40822D01*
X61709Y-41280D01*
X60760Y-42008D01*
X60031Y-42957D01*
X59574Y-44062D01*
X58143Y-43768D01*
Y-41105D01*
X49857D01*
Y-49391D01*
X58143D01*
Y-46728D01*
X59574Y-46434D01*
X60031Y-47539D01*
X60760Y-48488D01*
X61709Y-49217D01*
X62814Y-49674D01*
X63250Y-49732D01*
Y-45248D01*
Y-40764D01*
D02*
G37*
G36*
X84000Y-41069D02*
X82918Y-41211D01*
X81911Y-41629D01*
X81045Y-42293D01*
X80381Y-43159D01*
X79963Y-44166D01*
X79821Y-45248D01*
X79963Y-46330D01*
X80381Y-47337D01*
X81045Y-48203D01*
X81911Y-48867D01*
X82918Y-49285D01*
X84000Y-49427D01*
X85082Y-49285D01*
X86089Y-48867D01*
X86955Y-48203D01*
X87619Y-47337D01*
X88037Y-46330D01*
X88179Y-45248D01*
X88037Y-44166D01*
X87619Y-43159D01*
X86955Y-42293D01*
X86089Y-41629D01*
X85082Y-41211D01*
X84000Y-41069D01*
D02*
G37*
G36*
X64750Y-40764D02*
Y-45248D01*
Y-49732D01*
X65186Y-49674D01*
X66291Y-49217D01*
X67240Y-48488D01*
X67969Y-47539D01*
X68426Y-46434D01*
X68445Y-46290D01*
X69958D01*
X69963Y-46330D01*
X70381Y-47337D01*
X71045Y-48203D01*
X71911Y-48867D01*
X72918Y-49285D01*
X74000Y-49427D01*
X75082Y-49285D01*
X76090Y-48867D01*
X76955Y-48203D01*
X77619Y-47337D01*
X78037Y-46330D01*
X78179Y-45248D01*
X78037Y-44166D01*
X77619Y-43159D01*
X76955Y-42293D01*
X76090Y-41629D01*
X75082Y-41211D01*
X74000Y-41069D01*
X72918Y-41211D01*
X71911Y-41629D01*
X71045Y-42293D01*
X70381Y-43159D01*
X69963Y-44166D01*
X69958Y-44205D01*
X68445D01*
X68426Y-44062D01*
X67969Y-42957D01*
X67240Y-42008D01*
X66291Y-41280D01*
X65186Y-40822D01*
X64750Y-40764D01*
D02*
G37*
G36*
X187800Y-41069D02*
X186718Y-41211D01*
X185711Y-41629D01*
X184845Y-42293D01*
X184181Y-43159D01*
X183763Y-44166D01*
X183621Y-45248D01*
X183763Y-46330D01*
X184181Y-47337D01*
X184845Y-48203D01*
X185711Y-48867D01*
X186718Y-49285D01*
X187800Y-49427D01*
X188882Y-49285D01*
X189890Y-48867D01*
X190755Y-48203D01*
X191419Y-47337D01*
X191837Y-46330D01*
X191979Y-45248D01*
X191837Y-44166D01*
X191419Y-43159D01*
X190755Y-42293D01*
X189890Y-41629D01*
X188882Y-41211D01*
X187800Y-41069D01*
D02*
G37*
G36*
X168550Y-40764D02*
Y-45248D01*
Y-49732D01*
X168986Y-49674D01*
X170091Y-49217D01*
X171040Y-48488D01*
X171769Y-47539D01*
X172226Y-46434D01*
X172245Y-46290D01*
X173758D01*
X173763Y-46330D01*
X174181Y-47337D01*
X174845Y-48203D01*
X175710Y-48867D01*
X176718Y-49285D01*
X177800Y-49427D01*
X178882Y-49285D01*
X179890Y-48867D01*
X180755Y-48203D01*
X181419Y-47337D01*
X181837Y-46330D01*
X181979Y-45248D01*
X181837Y-44166D01*
X181419Y-43159D01*
X180755Y-42293D01*
X179890Y-41629D01*
X178882Y-41211D01*
X177800Y-41069D01*
X176718Y-41211D01*
X175710Y-41629D01*
X174845Y-42293D01*
X174181Y-43159D01*
X173763Y-44166D01*
X173758Y-44205D01*
X172245D01*
X172226Y-44062D01*
X171769Y-42957D01*
X171040Y-42008D01*
X170091Y-41280D01*
X168986Y-40822D01*
X168550Y-40764D01*
D02*
G37*
G36*
X109200Y8583D02*
X108273Y8461D01*
X107408Y8103D01*
X106666Y7534D01*
X106097Y6792D01*
X105739Y5928D01*
X105617Y5000D01*
X105739Y4073D01*
X106097Y3208D01*
X106666Y2466D01*
X107408Y1897D01*
X108273Y1539D01*
X109200Y1417D01*
X110127Y1539D01*
X110992Y1897D01*
X111734Y2466D01*
X112303Y3208D01*
X112661Y4073D01*
X112783Y5000D01*
X112661Y5928D01*
X112303Y6792D01*
X111734Y7534D01*
X110992Y8103D01*
X110127Y8461D01*
X109200Y8583D01*
D02*
G37*
G36*
X99200D02*
X98273Y8461D01*
X97408Y8103D01*
X96666Y7534D01*
X96097Y6792D01*
X95739Y5928D01*
X95617Y5000D01*
X95739Y4073D01*
X96097Y3208D01*
X96666Y2466D01*
X97408Y1897D01*
X98273Y1539D01*
X99200Y1417D01*
X100127Y1539D01*
X100992Y1897D01*
X101734Y2466D01*
X102303Y3208D01*
X102661Y4073D01*
X102783Y5000D01*
X102661Y5928D01*
X102303Y6792D01*
X101734Y7534D01*
X100992Y8103D01*
X100127Y8461D01*
X99200Y8583D01*
D02*
G37*
G36*
X129200D02*
X128273Y8461D01*
X127408Y8103D01*
X126666Y7534D01*
X126097Y6792D01*
X125739Y5928D01*
X125617Y5000D01*
X125739Y4073D01*
X126097Y3208D01*
X126666Y2466D01*
X127408Y1897D01*
X128273Y1539D01*
X129200Y1417D01*
X130127Y1539D01*
X130992Y1897D01*
X131734Y2466D01*
X132303Y3208D01*
X132661Y4073D01*
X132783Y5000D01*
X132661Y5928D01*
X132303Y6792D01*
X131734Y7534D01*
X130992Y8103D01*
X130127Y8461D01*
X129200Y8583D01*
D02*
G37*
G36*
X119200D02*
X118273Y8461D01*
X117408Y8103D01*
X116666Y7534D01*
X116097Y6792D01*
X115739Y5928D01*
X115617Y5000D01*
X115739Y4073D01*
X116097Y3208D01*
X116666Y2466D01*
X117408Y1897D01*
X118273Y1539D01*
X119200Y1417D01*
X120127Y1539D01*
X120992Y1897D01*
X121734Y2466D01*
X122303Y3208D01*
X122661Y4073D01*
X122783Y5000D01*
X122661Y5928D01*
X122303Y6792D01*
X121734Y7534D01*
X120992Y8103D01*
X120127Y8461D01*
X119200Y8583D01*
D02*
G37*
G36*
X89200D02*
X88273Y8461D01*
X87408Y8103D01*
X86666Y7534D01*
X86097Y6792D01*
X85739Y5928D01*
X85617Y5000D01*
X85739Y4073D01*
X86097Y3208D01*
X86666Y2466D01*
X87408Y1897D01*
X88273Y1539D01*
X89200Y1417D01*
X90127Y1539D01*
X90992Y1897D01*
X91734Y2466D01*
X92303Y3208D01*
X92661Y4073D01*
X92783Y5000D01*
X92661Y5928D01*
X92303Y6792D01*
X91734Y7534D01*
X90992Y8103D01*
X90127Y8461D01*
X89200Y8583D01*
D02*
G37*
G36*
X59200D02*
X58273Y8461D01*
X57408Y8103D01*
X56666Y7534D01*
X56097Y6792D01*
X55739Y5928D01*
X55617Y5000D01*
X55739Y4073D01*
X56097Y3208D01*
X56666Y2466D01*
X57408Y1897D01*
X58273Y1539D01*
X59200Y1417D01*
X60127Y1539D01*
X60992Y1897D01*
X61734Y2466D01*
X62303Y3208D01*
X62661Y4073D01*
X62783Y5000D01*
X62661Y5928D01*
X62303Y6792D01*
X61734Y7534D01*
X60992Y8103D01*
X60127Y8461D01*
X59200Y8583D01*
D02*
G37*
G36*
X49200D02*
X48273Y8461D01*
X47408Y8103D01*
X46666Y7534D01*
X46097Y6792D01*
X45739Y5928D01*
X45617Y5000D01*
X45739Y4073D01*
X46097Y3208D01*
X46666Y2466D01*
X47408Y1897D01*
X48273Y1539D01*
X49200Y1417D01*
X50127Y1539D01*
X50992Y1897D01*
X51734Y2466D01*
X52303Y3208D01*
X52661Y4073D01*
X52783Y5000D01*
X52661Y5928D01*
X52303Y6792D01*
X51734Y7534D01*
X50992Y8103D01*
X50127Y8461D01*
X49200Y8583D01*
D02*
G37*
G36*
X79200D02*
X78273Y8461D01*
X77408Y8103D01*
X76666Y7534D01*
X76097Y6792D01*
X75739Y5928D01*
X75617Y5000D01*
X75739Y4073D01*
X76097Y3208D01*
X76666Y2466D01*
X77408Y1897D01*
X78273Y1539D01*
X79200Y1417D01*
X80127Y1539D01*
X80992Y1897D01*
X81734Y2466D01*
X82303Y3208D01*
X82661Y4073D01*
X82783Y5000D01*
X82661Y5928D01*
X82303Y6792D01*
X81734Y7534D01*
X80992Y8103D01*
X80127Y8461D01*
X79200Y8583D01*
D02*
G37*
G36*
X69200D02*
X68273Y8461D01*
X67408Y8103D01*
X66666Y7534D01*
X66097Y6792D01*
X65739Y5928D01*
X65617Y5000D01*
X65739Y4073D01*
X66097Y3208D01*
X66666Y2466D01*
X67408Y1897D01*
X68273Y1539D01*
X69200Y1417D01*
X70127Y1539D01*
X70992Y1897D01*
X71734Y2466D01*
X72303Y3208D01*
X72661Y4073D01*
X72783Y5000D01*
X72661Y5928D01*
X72303Y6792D01*
X71734Y7534D01*
X70992Y8103D01*
X70127Y8461D01*
X69200Y8583D01*
D02*
G37*
G36*
X199200D02*
X198273Y8461D01*
X197408Y8103D01*
X196666Y7534D01*
X196097Y6792D01*
X195739Y5928D01*
X195617Y5000D01*
X195739Y4073D01*
X196097Y3208D01*
X196666Y2466D01*
X197408Y1897D01*
X198273Y1539D01*
X199200Y1417D01*
X200127Y1539D01*
X200992Y1897D01*
X201734Y2466D01*
X202303Y3208D01*
X202661Y4073D01*
X202783Y5000D01*
X202661Y5928D01*
X202303Y6792D01*
X201734Y7534D01*
X200992Y8103D01*
X200127Y8461D01*
X199200Y8583D01*
D02*
G37*
G36*
X189200D02*
X188273Y8461D01*
X187408Y8103D01*
X186666Y7534D01*
X186097Y6792D01*
X185739Y5928D01*
X185617Y5000D01*
X185739Y4073D01*
X186097Y3208D01*
X186666Y2466D01*
X187408Y1897D01*
X188273Y1539D01*
X189200Y1417D01*
X190127Y1539D01*
X190992Y1897D01*
X191734Y2466D01*
X192303Y3208D01*
X192661Y4073D01*
X192783Y5000D01*
X192661Y5928D01*
X192303Y6792D01*
X191734Y7534D01*
X190992Y8103D01*
X190127Y8461D01*
X189200Y8583D01*
D02*
G37*
G36*
X29200D02*
X28273Y8461D01*
X27465Y8127D01*
X20935D01*
X20127Y8461D01*
X19200Y8583D01*
X18273Y8461D01*
X17408Y8103D01*
X16666Y7534D01*
X16097Y6792D01*
X15739Y5928D01*
X15617Y5000D01*
X15739Y4073D01*
X16097Y3208D01*
X16666Y2466D01*
X17408Y1897D01*
X18273Y1539D01*
X19200Y1417D01*
X20127Y1539D01*
X20935Y1873D01*
X27465D01*
X28273Y1539D01*
X29200Y1417D01*
X30127Y1539D01*
X30992Y1897D01*
X31734Y2466D01*
X32303Y3208D01*
X32661Y4073D01*
X32783Y5000D01*
X32661Y5928D01*
X32303Y6792D01*
X31734Y7534D01*
X30992Y8103D01*
X30127Y8461D01*
X29200Y8583D01*
D02*
G37*
G36*
X209200D02*
X208273Y8461D01*
X207408Y8103D01*
X206666Y7534D01*
X206097Y6792D01*
X205739Y5928D01*
X205617Y5000D01*
X205739Y4073D01*
X206097Y3208D01*
X206666Y2466D01*
X207408Y1897D01*
X208273Y1539D01*
X209200Y1417D01*
X210127Y1539D01*
X210992Y1897D01*
X211734Y2466D01*
X212303Y3208D01*
X212661Y4073D01*
X212783Y5000D01*
X212661Y5928D01*
X212303Y6792D01*
X211734Y7534D01*
X210992Y8103D01*
X210127Y8461D01*
X209200Y8583D01*
D02*
G37*
G36*
X179200D02*
X178273Y8461D01*
X177408Y8103D01*
X176666Y7534D01*
X176097Y6792D01*
X175739Y5928D01*
X175617Y5000D01*
X175739Y4073D01*
X176097Y3208D01*
X176666Y2466D01*
X177408Y1897D01*
X178273Y1539D01*
X179200Y1417D01*
X180127Y1539D01*
X180992Y1897D01*
X181734Y2466D01*
X182303Y3208D01*
X182661Y4073D01*
X182783Y5000D01*
X182661Y5928D01*
X182303Y6792D01*
X181734Y7534D01*
X180992Y8103D01*
X180127Y8461D01*
X179200Y8583D01*
D02*
G37*
G36*
X149200D02*
X148273Y8461D01*
X147408Y8103D01*
X146666Y7534D01*
X146097Y6792D01*
X145739Y5928D01*
X145617Y5000D01*
X145739Y4073D01*
X146097Y3208D01*
X146666Y2466D01*
X147408Y1897D01*
X148273Y1539D01*
X149200Y1417D01*
X150127Y1539D01*
X150992Y1897D01*
X151734Y2466D01*
X152303Y3208D01*
X152661Y4073D01*
X152783Y5000D01*
X152661Y5928D01*
X152303Y6792D01*
X151734Y7534D01*
X150992Y8103D01*
X150127Y8461D01*
X149200Y8583D01*
D02*
G37*
G36*
X139200D02*
X138273Y8461D01*
X137408Y8103D01*
X136666Y7534D01*
X136097Y6792D01*
X135739Y5928D01*
X135617Y5000D01*
X135739Y4073D01*
X136097Y3208D01*
X136666Y2466D01*
X137408Y1897D01*
X138273Y1539D01*
X139200Y1417D01*
X140127Y1539D01*
X140992Y1897D01*
X141734Y2466D01*
X142303Y3208D01*
X142661Y4073D01*
X142783Y5000D01*
X142661Y5928D01*
X142303Y6792D01*
X141734Y7534D01*
X140992Y8103D01*
X140127Y8461D01*
X139200Y8583D01*
D02*
G37*
G36*
X169200D02*
X168273Y8461D01*
X167408Y8103D01*
X166666Y7534D01*
X166097Y6792D01*
X165739Y5928D01*
X165617Y5000D01*
X165739Y4073D01*
X166097Y3208D01*
X166666Y2466D01*
X167408Y1897D01*
X168273Y1539D01*
X169200Y1417D01*
X170127Y1539D01*
X170992Y1897D01*
X171734Y2466D01*
X172303Y3208D01*
X172661Y4073D01*
X172783Y5000D01*
X172661Y5928D01*
X172303Y6792D01*
X171734Y7534D01*
X170992Y8103D01*
X170127Y8461D01*
X169200Y8583D01*
D02*
G37*
G36*
X159200D02*
X158273Y8461D01*
X157408Y8103D01*
X156666Y7534D01*
X156097Y6792D01*
X155739Y5928D01*
X155617Y5000D01*
X155739Y4073D01*
X156097Y3208D01*
X156666Y2466D01*
X157408Y1897D01*
X158273Y1539D01*
X159200Y1417D01*
X160127Y1539D01*
X160992Y1897D01*
X161734Y2466D01*
X162303Y3208D01*
X162661Y4073D01*
X162783Y5000D01*
X162661Y5928D01*
X162303Y6792D01*
X161734Y7534D01*
X160992Y8103D01*
X160127Y8461D01*
X159200Y8583D01*
D02*
G37*
G36*
X39200D02*
X38273Y8461D01*
X37408Y8103D01*
X36666Y7534D01*
X36097Y6792D01*
X35739Y5928D01*
X35617Y5000D01*
X35739Y4073D01*
X36097Y3208D01*
X36666Y2466D01*
X37408Y1897D01*
X38273Y1539D01*
X39200Y1417D01*
X40127Y1539D01*
X40992Y1897D01*
X41734Y2466D01*
X42303Y3208D01*
X42661Y4073D01*
X42783Y5000D01*
X42661Y5928D01*
X42303Y6792D01*
X41734Y7534D01*
X40992Y8103D01*
X40127Y8461D01*
X39200Y8583D01*
D02*
G37*
G36*
X169200Y-1417D02*
X168273Y-1539D01*
X167408Y-1897D01*
X166666Y-2466D01*
X166097Y-3208D01*
X165739Y-4073D01*
X165617Y-5000D01*
X165739Y-5928D01*
X166097Y-6792D01*
X166666Y-7534D01*
X167408Y-8103D01*
X168273Y-8461D01*
X169200Y-8583D01*
X170127Y-8461D01*
X170992Y-8103D01*
X171734Y-7534D01*
X172303Y-6792D01*
X172661Y-5928D01*
X172783Y-5000D01*
X172661Y-4073D01*
X172303Y-3208D01*
X171734Y-2466D01*
X170992Y-1897D01*
X170127Y-1539D01*
X169200Y-1417D01*
D02*
G37*
G36*
X159200D02*
X158273Y-1539D01*
X157408Y-1897D01*
X156666Y-2466D01*
X156097Y-3208D01*
X155739Y-4073D01*
X155617Y-5000D01*
X155739Y-5928D01*
X156097Y-6792D01*
X156666Y-7534D01*
X157408Y-8103D01*
X158273Y-8461D01*
X159200Y-8583D01*
X160127Y-8461D01*
X160992Y-8103D01*
X161734Y-7534D01*
X162303Y-6792D01*
X162661Y-5928D01*
X162783Y-5000D01*
X162661Y-4073D01*
X162303Y-3208D01*
X161734Y-2466D01*
X160992Y-1897D01*
X160127Y-1539D01*
X159200Y-1417D01*
D02*
G37*
G36*
X189200D02*
X188273Y-1539D01*
X187408Y-1897D01*
X186666Y-2466D01*
X186097Y-3208D01*
X185739Y-4073D01*
X185617Y-5000D01*
X185739Y-5928D01*
X186097Y-6792D01*
X186666Y-7534D01*
X187408Y-8103D01*
X188273Y-8461D01*
X189200Y-8583D01*
X190127Y-8461D01*
X190992Y-8103D01*
X191734Y-7534D01*
X192303Y-6792D01*
X192661Y-5928D01*
X192783Y-5000D01*
X192661Y-4073D01*
X192303Y-3208D01*
X191734Y-2466D01*
X190992Y-1897D01*
X190127Y-1539D01*
X189200Y-1417D01*
D02*
G37*
G36*
X179200D02*
X178273Y-1539D01*
X177408Y-1897D01*
X176666Y-2466D01*
X176097Y-3208D01*
X175739Y-4073D01*
X175617Y-5000D01*
X175739Y-5928D01*
X176097Y-6792D01*
X176666Y-7534D01*
X177408Y-8103D01*
X178273Y-8461D01*
X179200Y-8583D01*
X180127Y-8461D01*
X180992Y-8103D01*
X181734Y-7534D01*
X182303Y-6792D01*
X182661Y-5928D01*
X182783Y-5000D01*
X182661Y-4073D01*
X182303Y-3208D01*
X181734Y-2466D01*
X180992Y-1897D01*
X180127Y-1539D01*
X179200Y-1417D01*
D02*
G37*
G36*
X139200D02*
X138273Y-1539D01*
X137408Y-1897D01*
X136666Y-2466D01*
X136097Y-3208D01*
X135739Y-4073D01*
X135617Y-5000D01*
X135739Y-5928D01*
X136097Y-6792D01*
X136666Y-7534D01*
X137408Y-8103D01*
X138273Y-8461D01*
X139200Y-8583D01*
X140127Y-8461D01*
X140992Y-8103D01*
X141734Y-7534D01*
X142303Y-6792D01*
X142661Y-5928D01*
X142783Y-5000D01*
X142661Y-4073D01*
X142303Y-3208D01*
X141734Y-2466D01*
X140992Y-1897D01*
X140127Y-1539D01*
X139200Y-1417D01*
D02*
G37*
G36*
X109200D02*
X108273Y-1539D01*
X107408Y-1897D01*
X106666Y-2466D01*
X106097Y-3208D01*
X105739Y-4073D01*
X105617Y-5000D01*
X105739Y-5928D01*
X106097Y-6792D01*
X106666Y-7534D01*
X107408Y-8103D01*
X108273Y-8461D01*
X109200Y-8583D01*
X110127Y-8461D01*
X110992Y-8103D01*
X111734Y-7534D01*
X112303Y-6792D01*
X112661Y-5928D01*
X112783Y-5000D01*
X112661Y-4073D01*
X112303Y-3208D01*
X111734Y-2466D01*
X110992Y-1897D01*
X110127Y-1539D01*
X109200Y-1417D01*
D02*
G37*
G36*
X89200D02*
X88273Y-1539D01*
X87408Y-1897D01*
X86666Y-2466D01*
X86097Y-3208D01*
X85739Y-4073D01*
X85617Y-5000D01*
X85739Y-5928D01*
X86097Y-6792D01*
X86666Y-7534D01*
X87408Y-8103D01*
X88273Y-8461D01*
X89200Y-8583D01*
X90127Y-8461D01*
X90992Y-8103D01*
X91734Y-7534D01*
X92303Y-6792D01*
X92661Y-5928D01*
X92783Y-5000D01*
X92661Y-4073D01*
X92303Y-3208D01*
X91734Y-2466D01*
X90992Y-1897D01*
X90127Y-1539D01*
X89200Y-1417D01*
D02*
G37*
G36*
X129200D02*
X128273Y-1539D01*
X127408Y-1897D01*
X126666Y-2466D01*
X126097Y-3208D01*
X125739Y-4073D01*
X125617Y-5000D01*
X125739Y-5928D01*
X126097Y-6792D01*
X126666Y-7534D01*
X127408Y-8103D01*
X128273Y-8461D01*
X129200Y-8583D01*
X130127Y-8461D01*
X130992Y-8103D01*
X131734Y-7534D01*
X132303Y-6792D01*
X132661Y-5928D01*
X132783Y-5000D01*
X132661Y-4073D01*
X132303Y-3208D01*
X131734Y-2466D01*
X130992Y-1897D01*
X130127Y-1539D01*
X129200Y-1417D01*
D02*
G37*
G36*
X119200D02*
X118273Y-1539D01*
X117408Y-1897D01*
X116666Y-2466D01*
X116097Y-3208D01*
X115739Y-4073D01*
X115617Y-5000D01*
X115739Y-5928D01*
X116097Y-6792D01*
X116666Y-7534D01*
X117408Y-8103D01*
X118273Y-8461D01*
X119200Y-8583D01*
X120127Y-8461D01*
X120992Y-8103D01*
X121734Y-7534D01*
X122303Y-6792D01*
X122661Y-5928D01*
X122783Y-5000D01*
X122661Y-4073D01*
X122303Y-3208D01*
X121734Y-2466D01*
X120992Y-1897D01*
X120127Y-1539D01*
X119200Y-1417D01*
D02*
G37*
G36*
X23153Y-1047D02*
X19950D01*
Y-4250D01*
X23153D01*
Y-1047D01*
D02*
G37*
G36*
X18450D02*
X15247D01*
Y-4250D01*
X18450D01*
Y-1047D01*
D02*
G37*
G36*
X99950Y-1112D02*
Y-4250D01*
X103088D01*
X103051Y-3968D01*
X102653Y-3007D01*
X102019Y-2181D01*
X101193Y-1547D01*
X100232Y-1149D01*
X99950Y-1112D01*
D02*
G37*
G36*
X98450D02*
X98168Y-1149D01*
X97207Y-1547D01*
X96381Y-2181D01*
X95747Y-3007D01*
X95349Y-3968D01*
X95312Y-4250D01*
X98450D01*
Y-1112D01*
D02*
G37*
G36*
X228400Y6180D02*
X227194Y6061D01*
X226035Y5709D01*
X224967Y5138D01*
X224030Y4370D01*
X223262Y3433D01*
X222691Y2365D01*
X222339Y1206D01*
X222220Y0D01*
X222339Y-1206D01*
X222691Y-2365D01*
X223262Y-3433D01*
X224030Y-4370D01*
X224967Y-5138D01*
X226035Y-5709D01*
X227194Y-6061D01*
X228400Y-6180D01*
X229606Y-6061D01*
X230765Y-5709D01*
X231833Y-5138D01*
X232770Y-4370D01*
X233538Y-3433D01*
X234109Y-2365D01*
X234461Y-1206D01*
X234580Y0D01*
X234461Y1206D01*
X234109Y2365D01*
X233538Y3433D01*
X232770Y4370D01*
X231833Y5138D01*
X230765Y5709D01*
X229606Y6061D01*
X228400Y6180D01*
D02*
G37*
G36*
X209200Y-1417D02*
X208273Y-1539D01*
X207408Y-1897D01*
X206666Y-2466D01*
X206097Y-3208D01*
X205739Y-4073D01*
X205617Y-5000D01*
X205739Y-5928D01*
X206097Y-6792D01*
X206666Y-7534D01*
X207408Y-8103D01*
X208273Y-8461D01*
X209200Y-8583D01*
X210127Y-8461D01*
X210992Y-8103D01*
X211734Y-7534D01*
X212303Y-6792D01*
X212661Y-5928D01*
X212783Y-5000D01*
X212661Y-4073D01*
X212303Y-3208D01*
X211734Y-2466D01*
X210992Y-1897D01*
X210127Y-1539D01*
X209200Y-1417D01*
D02*
G37*
G36*
X199200D02*
X198273Y-1539D01*
X197408Y-1897D01*
X196666Y-2466D01*
X196097Y-3208D01*
X195739Y-4073D01*
X195617Y-5000D01*
X195739Y-5928D01*
X196097Y-6792D01*
X196666Y-7534D01*
X197408Y-8103D01*
X198273Y-8461D01*
X199200Y-8583D01*
X200127Y-8461D01*
X200992Y-8103D01*
X201734Y-7534D01*
X202303Y-6792D01*
X202661Y-5928D01*
X202783Y-5000D01*
X202661Y-4073D01*
X202303Y-3208D01*
X201734Y-2466D01*
X200992Y-1897D01*
X200127Y-1539D01*
X199200Y-1417D01*
D02*
G37*
G36*
X0Y6180D02*
X-1206Y6061D01*
X-2365Y5709D01*
X-3433Y5138D01*
X-4370Y4370D01*
X-5138Y3433D01*
X-5709Y2365D01*
X-6061Y1206D01*
X-6180Y0D01*
X-6061Y-1206D01*
X-5709Y-2365D01*
X-5138Y-3433D01*
X-4370Y-4370D01*
X-3433Y-5138D01*
X-2365Y-5709D01*
X-1206Y-6061D01*
X0Y-6180D01*
X1206Y-6061D01*
X2365Y-5709D01*
X3433Y-5138D01*
X4370Y-4370D01*
X5138Y-3433D01*
X5709Y-2365D01*
X6061Y-1206D01*
X6180Y0D01*
X6061Y1206D01*
X5709Y2365D01*
X5138Y3433D01*
X4370Y4370D01*
X3433Y5138D01*
X2365Y5709D01*
X1206Y6061D01*
X0Y6180D01*
D02*
G37*
G36*
X49200Y-1417D02*
X48273Y-1539D01*
X47408Y-1897D01*
X46666Y-2466D01*
X46097Y-3208D01*
X45739Y-4073D01*
X45617Y-5000D01*
X45731Y-5870D01*
X45635Y-5988D01*
X44431Y-6691D01*
X42778Y-5038D01*
X42783Y-5000D01*
X42661Y-4073D01*
X42303Y-3208D01*
X41734Y-2466D01*
X40992Y-1897D01*
X40127Y-1539D01*
X39200Y-1417D01*
X38273Y-1539D01*
X37408Y-1897D01*
X36666Y-2466D01*
X36097Y-3208D01*
X35739Y-4073D01*
X35617Y-5000D01*
X35739Y-5928D01*
X36097Y-6792D01*
X36666Y-7534D01*
X37408Y-8103D01*
X38273Y-8461D01*
X39200Y-8583D01*
X40127Y-8461D01*
X40992Y-8103D01*
X41126Y-8000D01*
X52447Y-19321D01*
Y-19565D01*
X50021Y-21991D01*
X46977D01*
X46731Y-21694D01*
X46312Y-20491D01*
X46603Y-20111D01*
X46961Y-19246D01*
X47083Y-18319D01*
X46961Y-17391D01*
X46603Y-16527D01*
X46034Y-15785D01*
X45292Y-15216D01*
X44427Y-14858D01*
X43500Y-14736D01*
X42573Y-14858D01*
X41708Y-15216D01*
X40966Y-15785D01*
X40397Y-16527D01*
X40039Y-17391D01*
X39917Y-18319D01*
X40039Y-19246D01*
X40397Y-20111D01*
X40688Y-20491D01*
X40269Y-21694D01*
X40023Y-21991D01*
X38503D01*
X37053Y-21872D01*
X37053Y-20491D01*
Y-14766D01*
X31073D01*
X30831Y-14524D01*
Y-8170D01*
X30992Y-8103D01*
X31734Y-7534D01*
X32303Y-6792D01*
X32661Y-5928D01*
X32783Y-5000D01*
X32661Y-4073D01*
X32303Y-3208D01*
X31734Y-2466D01*
X30992Y-1897D01*
X30127Y-1539D01*
X29200Y-1417D01*
X28273Y-1539D01*
X27408Y-1897D01*
X26666Y-2466D01*
X26097Y-3208D01*
X25739Y-4073D01*
X25617Y-5000D01*
X25739Y-5928D01*
X26097Y-6792D01*
X26666Y-7534D01*
X27408Y-8103D01*
X27569Y-8170D01*
Y-15200D01*
X27693Y-15824D01*
X28047Y-16353D01*
X28176Y-16483D01*
X27602Y-17869D01*
X-2177D01*
X-2802Y-17993D01*
X-3331Y-18347D01*
X-7409Y-22425D01*
X-7763Y-22954D01*
X-7887Y-23579D01*
Y-25264D01*
X-8510Y-25742D01*
X-9007Y-26389D01*
X-9319Y-27143D01*
X-9426Y-27953D01*
X-9319Y-28762D01*
X-9218Y-29007D01*
Y-36399D01*
X-9218Y-37085D01*
X-9217Y-38580D01*
Y-46185D01*
X-7207D01*
Y-46192D01*
X13559D01*
X13828Y-46839D01*
X14324Y-47486D01*
X14972Y-47983D01*
X15726Y-48296D01*
X16535Y-48402D01*
X17345Y-48296D01*
X18099Y-47983D01*
X18746Y-47486D01*
X19243Y-46839D01*
X19556Y-46085D01*
X19662Y-45276D01*
X19556Y-44466D01*
X19243Y-43712D01*
X18746Y-43065D01*
X18099Y-42568D01*
X17345Y-42255D01*
X16535Y-42149D01*
X15999Y-41678D01*
Y-38820D01*
X16398Y-37485D01*
X16398Y-36564D01*
Y-33692D01*
X13035D01*
Y-32942D01*
X12285D01*
Y-28398D01*
X11059D01*
X10210Y-28398D01*
X9820Y-27953D01*
X9713Y-27143D01*
X9551Y-26753D01*
X10029Y-25689D01*
X10420Y-25253D01*
X50697D01*
X51321Y-25129D01*
X51850Y-24776D01*
X54754Y-21872D01*
X59553D01*
Y-14766D01*
X52506D01*
X47509Y-9769D01*
X48212Y-8565D01*
X48330Y-8469D01*
X49200Y-8583D01*
X50127Y-8461D01*
X50992Y-8103D01*
X51734Y-7534D01*
X52303Y-6792D01*
X52661Y-5928D01*
X52783Y-5000D01*
X52661Y-4073D01*
X52303Y-3208D01*
X51734Y-2466D01*
X50992Y-1897D01*
X50127Y-1539D01*
X49200Y-1417D01*
D02*
G37*
%LPD*%
D10*
X112500Y-15957D02*
D03*
Y-23043D02*
D03*
X102500Y-15957D02*
D03*
Y-23043D02*
D03*
X92500Y-15957D02*
D03*
Y-23043D02*
D03*
X138083Y-22909D02*
D03*
Y-15823D02*
D03*
D11*
X147083Y-22909D02*
D03*
Y-15823D02*
D03*
D12*
X3700Y-73700D02*
D03*
X3393Y-44342D02*
D03*
D13*
X-5948Y-71400D02*
D03*
X483D02*
D03*
X6913D02*
D03*
X13343D02*
D03*
X13342Y-62300D02*
D03*
X6912D02*
D03*
X482D02*
D03*
X-5949D02*
D03*
X-6256Y-32942D02*
D03*
X175D02*
D03*
X6605D02*
D03*
X13035D02*
D03*
X13036Y-42042D02*
D03*
X6606D02*
D03*
X176D02*
D03*
X-6255D02*
D03*
D14*
X19200Y5000D02*
X29200D01*
D15*
X138083Y-22909D02*
X147083D01*
X29200Y-15200D02*
Y-5000D01*
X-6256Y-23579D02*
X-2177Y-19500D01*
X55910Y-19590D02*
X56000Y-19500D01*
X79200Y-26050D02*
Y-5000D01*
X87008Y-62598D02*
X91732Y-57874D01*
Y-38583D01*
X79200Y-26050D02*
X91732Y-38583D01*
X-6256Y-32942D02*
Y-23579D01*
X175Y-32942D02*
Y-27953D01*
Y-26991D01*
X29200Y-15200D02*
X32909Y-18910D01*
X32319Y-19500D02*
X32909Y-18910D01*
X-2177Y-19500D02*
X32319D01*
X39200Y-5000D02*
X40433D01*
X55024Y-19590D01*
X55910D01*
X54728D02*
X55910D01*
X175Y-26991D02*
X3543Y-23622D01*
X50697D01*
X54728Y-19590D01*
D16*
X66000Y-18319D02*
D03*
X43500D02*
D03*
X209200Y5000D02*
D03*
Y-5000D02*
D03*
X199200Y5000D02*
D03*
Y-5000D02*
D03*
X189200Y5000D02*
D03*
Y-5000D02*
D03*
X179200Y5000D02*
D03*
Y-5000D02*
D03*
X169200Y5000D02*
D03*
Y-5000D02*
D03*
X159200Y5000D02*
D03*
Y-5000D02*
D03*
X149200Y5000D02*
D03*
Y-5000D02*
D03*
X139200Y5000D02*
D03*
Y-5000D02*
D03*
X129200Y5000D02*
D03*
Y-5000D02*
D03*
X119200Y5000D02*
D03*
Y-5000D02*
D03*
X109200Y5000D02*
D03*
Y-5000D02*
D03*
X99200Y5000D02*
D03*
Y-5000D02*
D03*
X89200Y5000D02*
D03*
Y-5000D02*
D03*
X79200Y5000D02*
D03*
Y-5000D02*
D03*
X69200Y5000D02*
D03*
Y-5000D02*
D03*
X59200Y5000D02*
D03*
Y-5000D02*
D03*
X49200Y5000D02*
D03*
Y-5000D02*
D03*
X39200Y5000D02*
D03*
Y-5000D02*
D03*
X29200Y5000D02*
D03*
Y-5000D02*
D03*
X19200Y5000D02*
D03*
D17*
X56000Y-18319D02*
D03*
X33500D02*
D03*
X19200Y-5000D02*
D03*
D18*
X187800Y-45248D02*
D03*
X177800D02*
D03*
X167800D02*
D03*
X84000D02*
D03*
X74000D02*
D03*
X64000D02*
D03*
D19*
X157800D02*
D03*
X54000D02*
D03*
D20*
X131205Y-35405D02*
D03*
X213883D02*
D03*
Y-188949D02*
D03*
X131205D02*
D03*
X27406Y-35405D02*
D03*
X110083D02*
D03*
Y-188949D02*
D03*
X27406D02*
D03*
D21*
X228400Y-192900D02*
D03*
X0D02*
D03*
Y0D02*
D03*
X228400D02*
D03*
D22*
X7087Y-57480D02*
D03*
X6693Y-27953D02*
D03*
X87008Y-62598D02*
D03*
X17323Y-72047D02*
D03*
X-6299Y-27953D02*
D03*
X175D02*
D03*
X482Y-57311D02*
D03*
X-5992D02*
D03*
X16535Y-45276D02*
D03*
X108268Y-85425D02*
D03*
X79921Y-62795D02*
D03*
X97500Y-23000D02*
D03*
X107500D02*
D03*
X147200Y-11900D02*
D03*
X61700Y-36400D02*
D03*
X47800D02*
D03*
M02*
