G04 Layer_Color=65535*
%FSLAX25Y25*%
%MOIN*%
G70*
G01*
G75*
%ADD26C,0.01000*%
%ADD28C,0.00197*%
%ADD29C,0.00787*%
%ADD30C,0.00500*%
%ADD31C,0.00800*%
%ADD32C,0.00600*%
D26*
X125300Y-194854D02*
X219788D01*
Y-29500D01*
X125300Y-194854D02*
Y-29500D01*
X219788D01*
X21500Y-194854D02*
X115988D01*
Y-29500D01*
X21500Y-194854D02*
Y-29500D01*
X115988D01*
X152585Y-24866D02*
X158583D01*
Y-21867D01*
X157583Y-20867D01*
X153584D01*
X152585Y-21867D01*
Y-24866D01*
X158583Y-18868D02*
Y-16869D01*
Y-17868D01*
X152585D01*
X153584Y-18868D01*
X26000Y-22319D02*
X20002D01*
Y-19320D01*
X21002Y-18320D01*
X23001D01*
X24001Y-19320D01*
Y-22319D01*
X26000Y-16321D02*
Y-14322D01*
Y-15321D01*
X20002D01*
X21002Y-16321D01*
X73000Y-13319D02*
X78998D01*
Y-16318D01*
X77998Y-17318D01*
X75999D01*
X74999Y-16318D01*
Y-13319D01*
X73000Y-23316D02*
Y-19317D01*
X76999Y-23316D01*
X77998D01*
X78998Y-22316D01*
Y-20317D01*
X77998Y-19317D01*
X128300Y-178500D02*
Y-172502D01*
X131299D01*
X132299Y-173502D01*
Y-175501D01*
X131299Y-176501D01*
X128300D01*
X134298Y-173502D02*
X135298Y-172502D01*
X137297D01*
X138297Y-173502D01*
Y-174501D01*
X137297Y-175501D01*
X136297D01*
X137297D01*
X138297Y-176501D01*
Y-177500D01*
X137297Y-178500D01*
X135298D01*
X134298Y-177500D01*
X132583Y-24866D02*
X126585D01*
Y-21867D01*
X127584Y-20867D01*
X129584D01*
X130583Y-21867D01*
Y-24866D01*
Y-22867D02*
X132583Y-20867D01*
Y-18868D02*
Y-16869D01*
Y-17868D01*
X126585D01*
X127584Y-18868D01*
X82502Y-19501D02*
X81502Y-20501D01*
Y-22500D01*
X82502Y-23500D01*
X86500D01*
X87500Y-22500D01*
Y-20501D01*
X86500Y-19501D01*
X87500Y-17502D02*
Y-15503D01*
Y-16502D01*
X81502D01*
X82502Y-17502D01*
X119002Y-20501D02*
X118002Y-21501D01*
Y-23500D01*
X119002Y-24500D01*
X123000D01*
X124000Y-23500D01*
Y-21501D01*
X123000Y-20501D01*
X119002Y-18502D02*
X118002Y-17502D01*
Y-15503D01*
X119002Y-14503D01*
X120001D01*
X121001Y-15503D01*
Y-16503D01*
Y-15503D01*
X122001Y-14503D01*
X123000D01*
X124000Y-15503D01*
Y-17502D01*
X123000Y-18502D01*
X25500Y-179000D02*
Y-173002D01*
X28499D01*
X29499Y-174002D01*
Y-176001D01*
X28499Y-177001D01*
X25500D01*
X34497Y-179000D02*
Y-173002D01*
X31498Y-176001D01*
X35497D01*
X152051Y-199002D02*
X151051Y-198002D01*
X149052D01*
X148052Y-199002D01*
Y-203000D01*
X149052Y-204000D01*
X151051D01*
X152051Y-203000D01*
X154050Y-198002D02*
Y-204000D01*
Y-201001D01*
X155050Y-200001D01*
X157049D01*
X158049Y-201001D01*
Y-204000D01*
X161048Y-200001D02*
X163047D01*
X164047Y-201001D01*
Y-204000D01*
X161048D01*
X160048Y-203000D01*
X161048Y-202001D01*
X164047D01*
X166046Y-204000D02*
Y-200001D01*
X169045D01*
X170045Y-201001D01*
Y-204000D01*
X172044D02*
Y-200001D01*
X175043D01*
X176043Y-201001D01*
Y-204000D01*
X181041D02*
X179042D01*
X178042Y-203000D01*
Y-201001D01*
X179042Y-200001D01*
X181041D01*
X182041Y-201001D01*
Y-202001D01*
X178042D01*
X184040Y-204000D02*
X186040D01*
X185040D01*
Y-198002D01*
X184040D01*
X195037Y-204000D02*
X197036D01*
X196037D01*
Y-198002D01*
X195037Y-199002D01*
X48251D02*
X47251Y-198002D01*
X45252D01*
X44252Y-199002D01*
Y-203000D01*
X45252Y-204000D01*
X47251D01*
X48251Y-203000D01*
X50250Y-198002D02*
Y-204000D01*
Y-201001D01*
X51250Y-200001D01*
X53249D01*
X54249Y-201001D01*
Y-204000D01*
X57248Y-200001D02*
X59247D01*
X60247Y-201001D01*
Y-204000D01*
X57248D01*
X56248Y-203000D01*
X57248Y-202001D01*
X60247D01*
X62246Y-204000D02*
Y-200001D01*
X65245D01*
X66245Y-201001D01*
Y-204000D01*
X68244D02*
Y-200001D01*
X71243D01*
X72243Y-201001D01*
Y-204000D01*
X77241D02*
X75242D01*
X74242Y-203000D01*
Y-201001D01*
X75242Y-200001D01*
X77241D01*
X78241Y-201001D01*
Y-202001D01*
X74242D01*
X80240Y-204000D02*
X82240D01*
X81240D01*
Y-198002D01*
X80240D01*
X95236Y-204000D02*
X91237D01*
X95236Y-200001D01*
Y-199002D01*
X94236Y-198002D01*
X92237D01*
X91237Y-199002D01*
X238400Y-182300D02*
X232402D01*
Y-179301D01*
X233402Y-178301D01*
X235401D01*
X236401Y-179301D01*
Y-182300D01*
Y-180301D02*
X238400Y-178301D01*
X234401Y-175302D02*
Y-173303D01*
X235401Y-172303D01*
X238400D01*
Y-175302D01*
X237400Y-176302D01*
X236401Y-175302D01*
Y-172303D01*
X238400Y-170304D02*
Y-167305D01*
X237400Y-166305D01*
X236401Y-167305D01*
Y-169304D01*
X235401Y-170304D01*
X234401Y-169304D01*
Y-166305D01*
X240399Y-164306D02*
X234401D01*
Y-161307D01*
X235401Y-160307D01*
X237400D01*
X238400Y-161307D01*
Y-164306D01*
Y-158308D02*
X232402D01*
Y-155309D01*
X233402Y-154309D01*
X235401D01*
X236401Y-155309D01*
Y-158308D01*
X238400Y-152310D02*
Y-150310D01*
Y-151310D01*
X234401D01*
Y-152310D01*
X232402Y-141313D02*
X238400D01*
X235401D01*
Y-137315D01*
X232402D01*
X238400D01*
X234401Y-134316D02*
Y-132316D01*
X235401Y-131316D01*
X238400D01*
Y-134316D01*
X237400Y-135315D01*
X236401Y-134316D01*
Y-131316D01*
X233402Y-128317D02*
X234401D01*
Y-129317D01*
Y-127318D01*
Y-128317D01*
X237400D01*
X238400Y-127318D01*
X235401Y-118321D02*
Y-114322D01*
X233402Y-102326D02*
X232402Y-103325D01*
Y-105325D01*
X233402Y-106325D01*
X234401D01*
X235401Y-105325D01*
Y-103325D01*
X236401Y-102326D01*
X237400D01*
X238400Y-103325D01*
Y-105325D01*
X237400Y-106325D01*
X232402Y-97328D02*
Y-99327D01*
X233402Y-100327D01*
X237400D01*
X238400Y-99327D01*
Y-97328D01*
X237400Y-96328D01*
X233402D01*
X232402Y-97328D01*
Y-94328D02*
X237400D01*
X238400Y-93329D01*
Y-91329D01*
X237400Y-90330D01*
X232402D01*
X238400Y-88330D02*
X232402D01*
X238400Y-84332D01*
X232402D01*
Y-82332D02*
X238400D01*
Y-79333D01*
X237400Y-78334D01*
X233402D01*
X232402Y-79333D01*
Y-82332D01*
X234401Y-70336D02*
X238400Y-68337D01*
X234401Y-66338D01*
X238400Y-64338D02*
Y-62339D01*
Y-63339D01*
X232402D01*
X233402Y-64338D01*
X238400Y-59340D02*
X237400D01*
Y-58340D01*
X238400D01*
Y-59340D01*
X233402Y-54341D02*
X232402Y-53342D01*
Y-51342D01*
X233402Y-50343D01*
X237400D01*
X238400Y-51342D01*
Y-53342D01*
X237400Y-54341D01*
X233402D01*
X228400Y-180101D02*
X226401Y-182100D01*
X224401D01*
X222402Y-180101D01*
X224401Y-173103D02*
Y-176102D01*
X225401Y-177102D01*
X227400D01*
X228400Y-176102D01*
Y-173103D01*
Y-171104D02*
X226401Y-169104D01*
X224401D01*
X222402Y-171104D01*
X228400Y-160107D02*
X222402D01*
Y-157108D01*
X223402Y-156108D01*
X225401D01*
X226401Y-157108D01*
Y-160107D01*
X224401Y-154109D02*
X228400D01*
X226401D01*
X225401Y-153109D01*
X224401Y-152110D01*
Y-151110D01*
X228400Y-147111D02*
Y-145112D01*
X227400Y-144112D01*
X225401D01*
X224401Y-145112D01*
Y-147111D01*
X225401Y-148111D01*
X227400D01*
X228400Y-147111D01*
X224401Y-142113D02*
X228400Y-140114D01*
X224401Y-138114D01*
X228400Y-133116D02*
Y-135115D01*
X227400Y-136115D01*
X225401D01*
X224401Y-135115D01*
Y-133116D01*
X225401Y-132116D01*
X226401D01*
Y-136115D01*
X224401Y-126118D02*
Y-129117D01*
X225401Y-130117D01*
X227400D01*
X228400Y-129117D01*
Y-126118D01*
X223402Y-123119D02*
X224401D01*
Y-124119D01*
Y-122119D01*
Y-123119D01*
X227400D01*
X228400Y-122119D01*
X224401Y-119120D02*
X227400D01*
X228400Y-118121D01*
Y-115122D01*
X224401D01*
X228400Y-113122D02*
Y-110123D01*
X227400Y-109124D01*
X226401Y-110123D01*
Y-112123D01*
X225401Y-113122D01*
X224401Y-112123D01*
Y-109124D01*
X222402Y-97127D02*
Y-101126D01*
X228400D01*
Y-97127D01*
X225401Y-101126D02*
Y-99127D01*
X228400Y-95128D02*
X224401D01*
Y-92129D01*
X225401Y-91129D01*
X228400D01*
X230399Y-87131D02*
Y-86131D01*
X229400Y-85131D01*
X224401D01*
Y-88130D01*
X225401Y-89130D01*
X227400D01*
X228400Y-88130D01*
Y-85131D01*
Y-83132D02*
Y-81133D01*
Y-82132D01*
X224401D01*
Y-83132D01*
X228400Y-78134D02*
X224401D01*
Y-75135D01*
X225401Y-74135D01*
X228400D01*
Y-69137D02*
Y-71136D01*
X227400Y-72136D01*
X225401D01*
X224401Y-71136D01*
Y-69137D01*
X225401Y-68137D01*
X226401D01*
Y-72136D01*
X228400Y-63139D02*
Y-65138D01*
X227400Y-66137D01*
X225401D01*
X224401Y-65138D01*
Y-63139D01*
X225401Y-62139D01*
X226401D01*
Y-66137D01*
X224401Y-60140D02*
X228400D01*
X226401D01*
X225401Y-59140D01*
X224401Y-58140D01*
Y-57140D01*
X228400Y-54141D02*
Y-52142D01*
Y-53142D01*
X224401D01*
Y-54141D01*
X228400Y-49143D02*
X224401D01*
Y-46144D01*
X225401Y-45144D01*
X228400D01*
X230399Y-41146D02*
Y-40146D01*
X229400Y-39146D01*
X224401D01*
Y-42145D01*
X225401Y-43145D01*
X227400D01*
X228400Y-42145D01*
Y-39146D01*
Y-27150D02*
Y-31149D01*
X224401Y-27150D01*
X223402D01*
X222402Y-28150D01*
Y-30149D01*
X223402Y-31149D01*
Y-25151D02*
X222402Y-24151D01*
Y-22152D01*
X223402Y-21152D01*
X227400D01*
X228400Y-22152D01*
Y-24151D01*
X227400Y-25151D01*
X223402D01*
X228400Y-19153D02*
Y-17153D01*
Y-18153D01*
X222402D01*
X223402Y-19153D01*
X222402Y-14154D02*
Y-10156D01*
X223402D01*
X227400Y-14154D01*
X228400D01*
D28*
X151576Y-15035D02*
G03*
X151576Y-15035I-557J0D01*
G01*
D29*
X110138Y-19500D02*
X114862D01*
X100138D02*
X104862D01*
X90138D02*
X94862D01*
X135721Y-19366D02*
X140445D01*
X51000Y-13319D02*
X71000D01*
X51000Y-23319D02*
Y-13319D01*
Y-23319D02*
X71000D01*
Y-13319D01*
X28500D02*
X48500D01*
X28500Y-23319D02*
Y-13319D01*
Y-23319D02*
X48500D01*
Y-13319D01*
X14200Y-10000D02*
X214200D01*
X14200Y10000D02*
X214200D01*
X14200Y-10000D02*
Y10000D01*
X214200Y-10000D02*
Y10000D01*
D30*
X144622Y-20843D02*
Y-17890D01*
X149543Y-20843D02*
Y-17890D01*
D31*
X16552Y-75748D02*
X16600Y-75700D01*
X3500Y-75748D02*
X16552D01*
X-9100D02*
X3500D01*
X16600Y-75700D02*
Y-58000D01*
X-9100D02*
X16600D01*
X-9100Y-75748D02*
Y-58000D01*
X-9407Y-46390D02*
Y-28642D01*
X16293D01*
Y-46342D02*
Y-28642D01*
X-9407Y-46390D02*
X3193D01*
X16245D01*
X16293Y-46342D01*
D32*
X-7723Y-85628D02*
X-8306Y-86211D01*
Y-87378D01*
X-7723Y-87961D01*
X-7140D01*
X-6556Y-87378D01*
Y-86211D01*
X-5973Y-85628D01*
X-5390D01*
X-4807Y-86211D01*
Y-87378D01*
X-5390Y-87961D01*
X-8306Y-84462D02*
X-4807D01*
Y-82712D01*
X-5390Y-82129D01*
X-7723D01*
X-8306Y-82712D01*
Y-84462D01*
X-4807Y-80963D02*
X-7140D01*
X-8306Y-79797D01*
X-7140Y-78630D01*
X-4807D01*
X-6556D01*
Y-80963D01*
X-792Y-85628D02*
X-1376Y-86211D01*
Y-87378D01*
X-792Y-87961D01*
X-209D01*
X374Y-87378D01*
Y-86211D01*
X957Y-85628D01*
X1540D01*
X2123Y-86211D01*
Y-87378D01*
X1540Y-87961D01*
X-792Y-82129D02*
X-1376Y-82712D01*
Y-83879D01*
X-792Y-84462D01*
X1540D01*
X2123Y-83879D01*
Y-82712D01*
X1540Y-82129D01*
X-1376Y-80963D02*
X2123D01*
Y-78630D01*
X5638Y-85628D02*
X5055Y-86211D01*
Y-87378D01*
X5638Y-87961D01*
X7971D01*
X8554Y-87378D01*
Y-86211D01*
X7971Y-85628D01*
X6804D01*
Y-86794D01*
X8554Y-84462D02*
X5055D01*
X8554Y-82129D01*
X5055D01*
Y-80963D02*
X8554D01*
Y-79214D01*
X7971Y-78630D01*
X5638D01*
X5055Y-79214D01*
Y-80963D01*
X12569Y-87961D02*
X11985Y-87378D01*
Y-86211D01*
X12569Y-85628D01*
X13152D01*
X13735Y-86211D01*
Y-86794D01*
Y-86211D01*
X14318Y-85628D01*
X14901D01*
X15484Y-86211D01*
Y-87378D01*
X14901Y-87961D01*
X11985Y-84462D02*
X14318D01*
X15484Y-83296D01*
X14318Y-82129D01*
X11985D01*
X12569Y-80963D02*
X11985Y-80380D01*
Y-79214D01*
X12569Y-78630D01*
X13152D01*
X13735Y-79214D01*
Y-79797D01*
Y-79214D01*
X14318Y-78630D01*
X14901D01*
X15484Y-79214D01*
Y-80380D01*
X14901Y-80963D01*
X12569Y-24280D02*
X11985Y-23696D01*
Y-22530D01*
X12569Y-21947D01*
X13152D01*
X13735Y-22530D01*
Y-23113D01*
Y-22530D01*
X14318Y-21947D01*
X14901D01*
X15484Y-22530D01*
Y-23696D01*
X14901Y-24280D01*
X11985Y-20781D02*
X14318D01*
X15484Y-19614D01*
X14318Y-18448D01*
X11985D01*
X12569Y-17282D02*
X11985Y-16699D01*
Y-15532D01*
X12569Y-14949D01*
X13152D01*
X13735Y-15532D01*
Y-16116D01*
Y-15532D01*
X14318Y-14949D01*
X14901D01*
X15484Y-15532D01*
Y-16699D01*
X14901Y-17282D01*
X6138Y-21947D02*
X5555Y-22530D01*
Y-23696D01*
X6138Y-24280D01*
X8471D01*
X9054Y-23696D01*
Y-22530D01*
X8471Y-21947D01*
X7304D01*
Y-23113D01*
X9054Y-20781D02*
X5555D01*
X9054Y-18448D01*
X5555D01*
Y-17282D02*
X9054D01*
Y-15532D01*
X8471Y-14949D01*
X6138D01*
X5555Y-15532D01*
Y-17282D01*
X-792Y-21947D02*
X-1376Y-22530D01*
Y-23696D01*
X-792Y-24280D01*
X-209D01*
X374Y-23696D01*
Y-22530D01*
X957Y-21947D01*
X1540D01*
X2123Y-22530D01*
Y-23696D01*
X1540Y-24280D01*
X-792Y-18448D02*
X-1376Y-19031D01*
Y-20198D01*
X-792Y-20781D01*
X1540D01*
X2123Y-20198D01*
Y-19031D01*
X1540Y-18448D01*
X-1376Y-17282D02*
X2123D01*
Y-14949D01*
X-7723Y-21947D02*
X-8306Y-22530D01*
Y-23696D01*
X-7723Y-24280D01*
X-7140D01*
X-6556Y-23696D01*
Y-22530D01*
X-5973Y-21947D01*
X-5390D01*
X-4807Y-22530D01*
Y-23696D01*
X-5390Y-24280D01*
X-8306Y-20781D02*
X-4807D01*
Y-19031D01*
X-5390Y-18448D01*
X-7723D01*
X-8306Y-19031D01*
Y-20781D01*
X-4807Y-17282D02*
X-7140D01*
X-8306Y-16116D01*
X-7140Y-14949D01*
X-4807D01*
X-6556D01*
Y-17282D01*
X-6500Y-53819D02*
Y-51486D01*
X-5334Y-50320D01*
X-4167Y-51486D01*
Y-53819D01*
Y-52069D01*
X-6500D01*
X-3001Y-53819D02*
X-1835D01*
X-2418D01*
Y-50320D01*
X-3001Y-50903D01*
X8268Y-51575D02*
Y-49242D01*
X9434Y-48076D01*
X10600Y-49242D01*
Y-51575D01*
Y-49825D01*
X8268D01*
X11767Y-48659D02*
X12350Y-48076D01*
X13516D01*
X14099Y-48659D01*
Y-50992D01*
X13516Y-51575D01*
X12350D01*
X11767Y-50992D01*
Y-48659D01*
X31400Y-24601D02*
X32566D01*
X31983D01*
Y-28100D01*
X31400D01*
X32566D01*
X36648D02*
X34316D01*
X36648Y-25767D01*
Y-25184D01*
X36065Y-24601D01*
X34899D01*
X34316Y-25184D01*
X40147D02*
X39564Y-24601D01*
X38398D01*
X37815Y-25184D01*
Y-27517D01*
X38398Y-28100D01*
X39564D01*
X40147Y-27517D01*
X44812Y-28100D02*
Y-24601D01*
X46562D01*
X47145Y-25184D01*
Y-26351D01*
X46562Y-26934D01*
X44812D01*
X48311Y-25767D02*
Y-27517D01*
X48894Y-28100D01*
X50644D01*
Y-25767D01*
X51810Y-28100D02*
X52976D01*
X52393D01*
Y-24601D01*
X51810D01*
X54726Y-28100D02*
X55892D01*
X55309D01*
Y-24601D01*
X54726D01*
X57642Y-26351D02*
X59974D01*
X61140Y-24601D02*
Y-27517D01*
X61724Y-28100D01*
X62890D01*
X63473Y-27517D01*
Y-24601D01*
X64639Y-29266D02*
Y-25767D01*
X66389D01*
X66972Y-26351D01*
Y-27517D01*
X66389Y-28100D01*
X64639D01*
M02*
