G04 Layer_Color=8388736*
%FSLAX25Y25*%
%MOIN*%
G70*
G01*
G75*
%ADD12R,0.20000X0.02500*%
%ADD33R,0.05912X0.05124*%
%ADD34R,0.05524X0.07887*%
%ADD35R,0.05124X0.07487*%
%ADD36C,0.06306*%
%ADD37R,0.06306X0.06306*%
%ADD38C,0.07487*%
%ADD39R,0.07487X0.07487*%
%ADD40C,0.12211*%
%ADD41C,0.11500*%
%ADD42C,0.05400*%
G36*
X149445Y-25665D02*
X144720D01*
Y-20154D01*
X149445D01*
Y-25665D01*
D02*
G37*
G36*
Y-18579D02*
X144720D01*
Y-13067D01*
X149445D01*
Y-18579D01*
D02*
G37*
D12*
X3700Y-73700D02*
D03*
X3393Y-44342D02*
D03*
D33*
X112500Y-15957D02*
D03*
Y-23043D02*
D03*
X102500Y-15957D02*
D03*
Y-23043D02*
D03*
X92500Y-15957D02*
D03*
Y-23043D02*
D03*
X138083Y-22909D02*
D03*
Y-15823D02*
D03*
D34*
X-5948Y-71400D02*
D03*
X-6255Y-42042D02*
D03*
D35*
X483Y-71400D02*
D03*
X6913D02*
D03*
X13343D02*
D03*
X13342Y-62300D02*
D03*
X6912D02*
D03*
X482D02*
D03*
X-5949D02*
D03*
X-6256Y-32942D02*
D03*
X175D02*
D03*
X6605D02*
D03*
X13035D02*
D03*
X13036Y-42042D02*
D03*
X6606D02*
D03*
X176D02*
D03*
D36*
X66000Y-18319D02*
D03*
X43500D02*
D03*
X209200Y5000D02*
D03*
Y-5000D02*
D03*
X199200Y5000D02*
D03*
Y-5000D02*
D03*
X189200Y5000D02*
D03*
Y-5000D02*
D03*
X179200Y5000D02*
D03*
Y-5000D02*
D03*
X169200Y5000D02*
D03*
Y-5000D02*
D03*
X159200Y5000D02*
D03*
Y-5000D02*
D03*
X149200Y5000D02*
D03*
Y-5000D02*
D03*
X139200Y5000D02*
D03*
Y-5000D02*
D03*
X129200Y5000D02*
D03*
Y-5000D02*
D03*
X119200Y5000D02*
D03*
Y-5000D02*
D03*
X109200Y5000D02*
D03*
Y-5000D02*
D03*
X99200Y5000D02*
D03*
Y-5000D02*
D03*
X89200Y5000D02*
D03*
Y-5000D02*
D03*
X79200Y5000D02*
D03*
Y-5000D02*
D03*
X69200Y5000D02*
D03*
Y-5000D02*
D03*
X59200Y5000D02*
D03*
Y-5000D02*
D03*
X49200Y5000D02*
D03*
Y-5000D02*
D03*
X39200Y5000D02*
D03*
Y-5000D02*
D03*
X29200Y5000D02*
D03*
Y-5000D02*
D03*
X19200Y5000D02*
D03*
D37*
X56000Y-18319D02*
D03*
X33500D02*
D03*
X19200Y-5000D02*
D03*
D38*
X187800Y-45248D02*
D03*
X177800D02*
D03*
X167800D02*
D03*
X84000D02*
D03*
X74000D02*
D03*
X64000D02*
D03*
D39*
X157800D02*
D03*
X54000D02*
D03*
D40*
X131205Y-35405D02*
D03*
X213883D02*
D03*
Y-188949D02*
D03*
X131205D02*
D03*
X27406Y-35405D02*
D03*
X110083D02*
D03*
Y-188949D02*
D03*
X27406D02*
D03*
D41*
X228400Y-192900D02*
D03*
X0D02*
D03*
Y0D02*
D03*
X228400D02*
D03*
D42*
X7087Y-57480D02*
D03*
X6693Y-27953D02*
D03*
X87008Y-62598D02*
D03*
X17323Y-72047D02*
D03*
X-6299Y-27953D02*
D03*
X175D02*
D03*
X482Y-57311D02*
D03*
X-5992D02*
D03*
X16535Y-45276D02*
D03*
X108268Y-85425D02*
D03*
X79921Y-62795D02*
D03*
X97500Y-23000D02*
D03*
X107500D02*
D03*
X147200Y-11900D02*
D03*
X61700Y-36400D02*
D03*
X47800D02*
D03*
M02*
