G04 Layer_Color=16711935*
%FSLAX25Y25*%
%MOIN*%
G70*
G01*
G75*
%ADD33R,0.05912X0.05124*%
%ADD36C,0.06306*%
%ADD37R,0.06306X0.06306*%
%ADD38C,0.07487*%
%ADD39R,0.07487X0.07487*%
%ADD40C,0.12211*%
%ADD41C,0.11500*%
%ADD42C,0.05400*%
%ADD43R,0.05124X0.05912*%
%ADD44R,0.22054X0.08274*%
%ADD45R,0.01581X0.05124*%
D33*
X43500Y-29457D02*
D03*
Y-36543D02*
D03*
X66000Y-29457D02*
D03*
Y-36543D02*
D03*
D36*
X66000Y-18319D02*
D03*
X43500D02*
D03*
X209200Y5000D02*
D03*
Y-5000D02*
D03*
X199200Y5000D02*
D03*
Y-5000D02*
D03*
X189200Y5000D02*
D03*
Y-5000D02*
D03*
X179200Y5000D02*
D03*
Y-5000D02*
D03*
X169200Y5000D02*
D03*
Y-5000D02*
D03*
X159200Y5000D02*
D03*
Y-5000D02*
D03*
X149200Y5000D02*
D03*
Y-5000D02*
D03*
X139200Y5000D02*
D03*
Y-5000D02*
D03*
X129200Y5000D02*
D03*
Y-5000D02*
D03*
X119200Y5000D02*
D03*
Y-5000D02*
D03*
X109200Y5000D02*
D03*
Y-5000D02*
D03*
X99200Y5000D02*
D03*
Y-5000D02*
D03*
X89200Y5000D02*
D03*
Y-5000D02*
D03*
X79200Y5000D02*
D03*
Y-5000D02*
D03*
X69200Y5000D02*
D03*
Y-5000D02*
D03*
X59200Y5000D02*
D03*
Y-5000D02*
D03*
X49200Y5000D02*
D03*
Y-5000D02*
D03*
X39200Y5000D02*
D03*
Y-5000D02*
D03*
X29200Y5000D02*
D03*
Y-5000D02*
D03*
X19200Y5000D02*
D03*
D37*
X56000Y-18319D02*
D03*
X33500D02*
D03*
X19200Y-5000D02*
D03*
D38*
X187800Y-45248D02*
D03*
X177800D02*
D03*
X167800D02*
D03*
X84000D02*
D03*
X74000D02*
D03*
X64000D02*
D03*
D39*
X157800D02*
D03*
X54000D02*
D03*
D40*
X131205Y-35405D02*
D03*
X213883D02*
D03*
Y-188949D02*
D03*
X131205D02*
D03*
X27406Y-35405D02*
D03*
X110083D02*
D03*
Y-188949D02*
D03*
X27406D02*
D03*
D41*
X228400Y-192900D02*
D03*
X0D02*
D03*
Y0D02*
D03*
X228400D02*
D03*
D42*
X7087Y-57480D02*
D03*
X6693Y-27953D02*
D03*
X87008Y-62598D02*
D03*
X17323Y-72047D02*
D03*
X-6299Y-27953D02*
D03*
X175D02*
D03*
X482Y-57311D02*
D03*
X-5992D02*
D03*
X16535Y-45276D02*
D03*
X108268Y-85425D02*
D03*
X79921Y-62795D02*
D03*
X97500Y-23000D02*
D03*
X107500D02*
D03*
X147200Y-11900D02*
D03*
X61700Y-36400D02*
D03*
X47800D02*
D03*
D43*
X87008Y-66535D02*
D03*
X79921D02*
D03*
X28346Y-72047D02*
D03*
X21260D02*
D03*
X26378Y-49606D02*
D03*
X19291D02*
D03*
X124023Y-96439D02*
D03*
X116936D02*
D03*
X109523D02*
D03*
X102436D02*
D03*
D44*
X132080Y-110939D02*
D03*
X94679D02*
D03*
D45*
X106941Y-66559D02*
D03*
X104382D02*
D03*
X101823D02*
D03*
X99264D02*
D03*
X96705D02*
D03*
X94146D02*
D03*
X106941Y-89000D02*
D03*
X104382D02*
D03*
X101823D02*
D03*
X99264D02*
D03*
X96705D02*
D03*
X94146D02*
D03*
X109500Y-66559D02*
D03*
X112059D02*
D03*
X114618D02*
D03*
X117177D02*
D03*
X119736D02*
D03*
X122295D02*
D03*
X124854D02*
D03*
X127413D02*
D03*
X109500Y-89000D02*
D03*
X112059D02*
D03*
X114618D02*
D03*
X117177D02*
D03*
X119736D02*
D03*
X122295D02*
D03*
X124854D02*
D03*
X127413D02*
D03*
M02*
