G04 Layer_Physical_Order=2*
G04 Layer_Color=16711680*
%FSLAX25Y25*%
%MOIN*%
G70*
G01*
G75*
%ADD12R,0.05512X0.04724*%
%ADD18C,0.01200*%
%ADD19C,0.02000*%
%ADD21C,0.05906*%
%ADD22C,0.05906*%
%ADD23R,0.05906X0.05906*%
%ADD24C,0.08858*%
%ADD25R,0.08858X0.08858*%
%ADD26R,0.08858X0.08858*%
%ADD27R,0.05906X0.05906*%
%ADD28C,0.11100*%
%ADD29C,0.05000*%
G36*
X227500Y-150000D02*
X21256D01*
Y-149457D01*
X13744D01*
Y-150000D01*
X8756D01*
Y-149457D01*
X1244D01*
Y-150000D01*
X-12500D01*
Y-131882D01*
X-12204Y-131496D01*
X-11514Y-130967D01*
X-10712Y-130635D01*
X-9864Y-130523D01*
X-9800Y-130549D01*
X2000D01*
X2058Y-130525D01*
X3138Y-130383D01*
X4245Y-129925D01*
X5195Y-129195D01*
X5925Y-128245D01*
X6383Y-127138D01*
X6540Y-125950D01*
X6537Y-125930D01*
X6549Y-125900D01*
Y-112500D01*
X227500D01*
Y-150000D01*
D02*
G37*
G36*
Y-177500D02*
X217500D01*
Y-192500D01*
X202500D01*
Y-177500D01*
X175000D01*
Y-192500D01*
X160000D01*
Y-177500D01*
X132500D01*
Y-192500D01*
X117500D01*
Y-177500D01*
X90000D01*
Y-192500D01*
X75000D01*
Y-177500D01*
X47500D01*
Y-192500D01*
X32500D01*
Y-177500D01*
X-12500D01*
Y-155000D01*
X1244D01*
Y-155543D01*
X8756D01*
Y-155000D01*
X13744D01*
Y-155543D01*
X21256D01*
Y-155000D01*
X227500D01*
Y-177500D01*
D02*
G37*
G36*
X232107Y13046D02*
X233822Y12635D01*
X235451Y11960D01*
X236954Y11039D01*
X238294Y9894D01*
X239439Y8554D01*
X240360Y7051D01*
X241035Y5422D01*
X241446Y3708D01*
X241576Y2061D01*
X241551Y2000D01*
Y-102500D01*
X6549D01*
Y-66900D01*
X6537Y-66870D01*
X6540Y-66850D01*
X6383Y-65662D01*
X5925Y-64555D01*
X5195Y-63605D01*
X4245Y-62875D01*
X3138Y-62417D01*
X2058Y-62275D01*
X2000Y-62251D01*
X-9800D01*
X-9864Y-62277D01*
X-10712Y-62165D01*
X-11514Y-61833D01*
X-12204Y-61304D01*
X-12733Y-60614D01*
X-13065Y-59812D01*
X-13167Y-59040D01*
X-13151Y-59000D01*
Y2000D01*
X-13176Y2061D01*
X-13046Y3708D01*
X-12635Y5422D01*
X-11960Y7051D01*
X-11039Y8554D01*
X-9894Y9894D01*
X-8554Y11039D01*
X-7051Y11960D01*
X-5422Y12635D01*
X-3708Y13046D01*
X-1977Y13183D01*
X-1900Y13151D01*
X230300D01*
X230377Y13183D01*
X232107Y13046D01*
D02*
G37*
%LPC*%
G36*
X198700Y-11079D02*
X198168Y-11149D01*
X197207Y-11547D01*
X196381Y-12181D01*
X195747Y-13007D01*
X195349Y-13968D01*
X195279Y-14500D01*
X198700D01*
Y-11079D01*
D02*
G37*
G36*
X199700D02*
Y-14500D01*
X203121D01*
X203051Y-13968D01*
X202653Y-13007D01*
X202019Y-12181D01*
X201193Y-11547D01*
X200232Y-11149D01*
X199700Y-11079D01*
D02*
G37*
G36*
X58700Y-5500D02*
X55279D01*
X55349Y-6032D01*
X55747Y-6993D01*
X56381Y-7819D01*
X57207Y-8453D01*
X58168Y-8851D01*
X58700Y-8921D01*
Y-5500D01*
D02*
G37*
G36*
X213153Y-11047D02*
X209700D01*
Y-14500D01*
X213153D01*
Y-11047D01*
D02*
G37*
G36*
X208700D02*
X205247D01*
Y-14500D01*
X208700D01*
Y-11047D01*
D02*
G37*
G36*
X189700Y-11079D02*
Y-14500D01*
X193121D01*
X193051Y-13968D01*
X192653Y-13007D01*
X192019Y-12181D01*
X191193Y-11547D01*
X190232Y-11149D01*
X189700Y-11079D01*
D02*
G37*
G36*
X169700D02*
Y-14500D01*
X173121D01*
X173051Y-13968D01*
X172653Y-13007D01*
X172019Y-12181D01*
X171193Y-11547D01*
X170232Y-11149D01*
X169700Y-11079D01*
D02*
G37*
G36*
X168700D02*
X168168Y-11149D01*
X167207Y-11547D01*
X166381Y-12181D01*
X165747Y-13007D01*
X165349Y-13968D01*
X165279Y-14500D01*
X168700D01*
Y-11079D01*
D02*
G37*
G36*
X159700D02*
Y-14500D01*
X163121D01*
X163051Y-13968D01*
X162653Y-13007D01*
X162019Y-12181D01*
X161193Y-11547D01*
X160232Y-11149D01*
X159700Y-11079D01*
D02*
G37*
G36*
X188700D02*
X188168Y-11149D01*
X187207Y-11547D01*
X186381Y-12181D01*
X185747Y-13007D01*
X185349Y-13968D01*
X185279Y-14500D01*
X188700D01*
Y-11079D01*
D02*
G37*
G36*
X179700D02*
Y-14500D01*
X183121D01*
X183051Y-13968D01*
X182653Y-13007D01*
X182019Y-12181D01*
X181193Y-11547D01*
X180232Y-11149D01*
X179700Y-11079D01*
D02*
G37*
G36*
X178700D02*
X178168Y-11149D01*
X177207Y-11547D01*
X176381Y-12181D01*
X175747Y-13007D01*
X175349Y-13968D01*
X175279Y-14500D01*
X178700D01*
Y-11079D01*
D02*
G37*
G36*
X79200Y-1417D02*
X78273Y-1539D01*
X77408Y-1897D01*
X76666Y-2466D01*
X76097Y-3208D01*
X75739Y-4073D01*
X75617Y-5000D01*
X75739Y-5928D01*
X76097Y-6792D01*
X76666Y-7534D01*
X77408Y-8103D01*
X78273Y-8461D01*
X79200Y-8583D01*
X80127Y-8461D01*
X80992Y-8103D01*
X81734Y-7534D01*
X82303Y-6792D01*
X82661Y-5928D01*
X82783Y-5000D01*
X82661Y-4073D01*
X82303Y-3208D01*
X81734Y-2466D01*
X80992Y-1897D01*
X80127Y-1539D01*
X79200Y-1417D01*
D02*
G37*
G36*
X69200D02*
X68273Y-1539D01*
X67408Y-1897D01*
X66666Y-2466D01*
X66097Y-3208D01*
X65739Y-4073D01*
X65617Y-5000D01*
X65739Y-5928D01*
X66097Y-6792D01*
X66666Y-7534D01*
X67408Y-8103D01*
X68273Y-8461D01*
X69200Y-8583D01*
X70127Y-8461D01*
X70992Y-8103D01*
X71734Y-7534D01*
X72303Y-6792D01*
X72661Y-5928D01*
X72783Y-5000D01*
X72661Y-4073D01*
X72303Y-3208D01*
X71734Y-2466D01*
X70992Y-1897D01*
X70127Y-1539D01*
X69200Y-1417D01*
D02*
G37*
G36*
X49200D02*
X48273Y-1539D01*
X47408Y-1897D01*
X46666Y-2466D01*
X46097Y-3208D01*
X45739Y-4073D01*
X45617Y-5000D01*
X45739Y-5928D01*
X46097Y-6792D01*
X46666Y-7534D01*
X47408Y-8103D01*
X48273Y-8461D01*
X49200Y-8583D01*
X50127Y-8461D01*
X50992Y-8103D01*
X51734Y-7534D01*
X52303Y-6792D01*
X52661Y-5928D01*
X52783Y-5000D01*
X52661Y-4073D01*
X52303Y-3208D01*
X51734Y-2466D01*
X50992Y-1897D01*
X50127Y-1539D01*
X49200Y-1417D01*
D02*
G37*
G36*
X119200D02*
X118273Y-1539D01*
X117408Y-1897D01*
X116666Y-2466D01*
X116097Y-3208D01*
X115739Y-4073D01*
X115617Y-5000D01*
X115739Y-5928D01*
X116097Y-6792D01*
X116666Y-7534D01*
X117408Y-8103D01*
X118273Y-8461D01*
X119200Y-8583D01*
X120127Y-8461D01*
X120992Y-8103D01*
X121734Y-7534D01*
X122303Y-6792D01*
X122661Y-5928D01*
X122783Y-5000D01*
X122661Y-4073D01*
X122303Y-3208D01*
X121734Y-2466D01*
X120992Y-1897D01*
X120127Y-1539D01*
X119200Y-1417D01*
D02*
G37*
G36*
X109200D02*
X108273Y-1539D01*
X107408Y-1897D01*
X106666Y-2466D01*
X106097Y-3208D01*
X105739Y-4073D01*
X105617Y-5000D01*
X105739Y-5928D01*
X106097Y-6792D01*
X106666Y-7534D01*
X107408Y-8103D01*
X108273Y-8461D01*
X109200Y-8583D01*
X110127Y-8461D01*
X110992Y-8103D01*
X111734Y-7534D01*
X112303Y-6792D01*
X112661Y-5928D01*
X112783Y-5000D01*
X112661Y-4073D01*
X112303Y-3208D01*
X111734Y-2466D01*
X110992Y-1897D01*
X110127Y-1539D01*
X109200Y-1417D01*
D02*
G37*
G36*
X89200D02*
X88273Y-1539D01*
X87408Y-1897D01*
X86666Y-2466D01*
X86097Y-3208D01*
X85739Y-4073D01*
X85617Y-5000D01*
X85739Y-5928D01*
X86097Y-6792D01*
X86666Y-7534D01*
X87408Y-8103D01*
X88273Y-8461D01*
X89200Y-8583D01*
X90127Y-8461D01*
X90992Y-8103D01*
X91734Y-7534D01*
X92303Y-6792D01*
X92661Y-5928D01*
X92783Y-5000D01*
X92661Y-4073D01*
X92303Y-3208D01*
X91734Y-2466D01*
X90992Y-1897D01*
X90127Y-1539D01*
X89200Y-1417D01*
D02*
G37*
G36*
X143121Y-5500D02*
X139700D01*
Y-8921D01*
X140232Y-8851D01*
X141193Y-8453D01*
X142019Y-7819D01*
X142653Y-6993D01*
X143051Y-6032D01*
X143121Y-5500D01*
D02*
G37*
G36*
X138700D02*
X135279D01*
X135349Y-6032D01*
X135747Y-6993D01*
X136381Y-7819D01*
X137207Y-8453D01*
X138168Y-8851D01*
X138700Y-8921D01*
Y-5500D01*
D02*
G37*
G36*
X63121D02*
X59700D01*
Y-8921D01*
X60232Y-8851D01*
X61193Y-8453D01*
X62019Y-7819D01*
X62653Y-6993D01*
X63051Y-6032D01*
X63121Y-5500D01*
D02*
G37*
G36*
X29200Y-1417D02*
X28273Y-1539D01*
X27408Y-1897D01*
X26666Y-2466D01*
X26097Y-3208D01*
X25739Y-4073D01*
X25617Y-5000D01*
X25739Y-5928D01*
X26097Y-6792D01*
X26436Y-7234D01*
X6622Y-27047D01*
X1247D01*
Y-34153D01*
X8353D01*
Y-28778D01*
X28623Y-8507D01*
X29200Y-8583D01*
X30127Y-8461D01*
X30992Y-8103D01*
X31734Y-7534D01*
X32303Y-6792D01*
X32661Y-5928D01*
X32783Y-5000D01*
X32661Y-4073D01*
X32303Y-3208D01*
X31734Y-2466D01*
X30992Y-1897D01*
X30127Y-1539D01*
X29200Y-1417D01*
D02*
G37*
G36*
X213121Y-5500D02*
X209700D01*
Y-8921D01*
X210232Y-8851D01*
X211193Y-8453D01*
X212019Y-7819D01*
X212653Y-6993D01*
X213051Y-6032D01*
X213121Y-5500D01*
D02*
G37*
G36*
X208700D02*
X205279D01*
X205349Y-6032D01*
X205747Y-6993D01*
X206381Y-7819D01*
X207207Y-8453D01*
X208168Y-8851D01*
X208700Y-8921D01*
Y-5500D01*
D02*
G37*
G36*
X158700Y-11079D02*
X158168Y-11149D01*
X157207Y-11547D01*
X156381Y-12181D01*
X155747Y-13007D01*
X155349Y-13968D01*
X155279Y-14500D01*
X158700D01*
Y-11079D01*
D02*
G37*
G36*
X-5200Y-48617D02*
X-6128Y-48739D01*
X-6992Y-49097D01*
X-7734Y-49666D01*
X-8303Y-50408D01*
X-8661Y-51273D01*
X-8783Y-52200D01*
X-8661Y-53127D01*
X-8303Y-53992D01*
X-7734Y-54734D01*
X-6992Y-55303D01*
X-6128Y-55661D01*
X-5200Y-55783D01*
X-4273Y-55661D01*
X-3408Y-55303D01*
X-2666Y-54734D01*
X-2097Y-53992D01*
X-1739Y-53127D01*
X-1617Y-52200D01*
X-1739Y-51273D01*
X-2097Y-50408D01*
X-2666Y-49666D01*
X-3408Y-49097D01*
X-4273Y-48739D01*
X-5200Y-48617D01*
D02*
G37*
G36*
X21256Y-145595D02*
X18000D01*
Y-148457D01*
X21256D01*
Y-145595D01*
D02*
G37*
G36*
X17000D02*
X13744D01*
Y-148457D01*
X17000D01*
Y-145595D01*
D02*
G37*
G36*
X-5200Y-27017D02*
X-6128Y-27139D01*
X-6992Y-27497D01*
X-7734Y-28066D01*
X-8303Y-28808D01*
X-8661Y-29673D01*
X-8783Y-30600D01*
X-8661Y-31527D01*
X-8303Y-32392D01*
X-7734Y-33134D01*
X-6992Y-33703D01*
X-6128Y-34061D01*
X-5200Y-34183D01*
X-4273Y-34061D01*
X-3408Y-33703D01*
X-2666Y-33134D01*
X-2097Y-32392D01*
X-1739Y-31527D01*
X-1617Y-30600D01*
X-1739Y-29673D01*
X-2097Y-28808D01*
X-2666Y-28066D01*
X-3408Y-27497D01*
X-4273Y-27139D01*
X-5200Y-27017D01*
D02*
G37*
G36*
X99200Y-1417D02*
X98273Y-1539D01*
X97408Y-1897D01*
X96666Y-2466D01*
X96097Y-3208D01*
X95739Y-4073D01*
X95617Y-5000D01*
X95739Y-5928D01*
X96097Y-6792D01*
X96666Y-7534D01*
X97408Y-8103D01*
X98273Y-8461D01*
X99200Y-8583D01*
X100127Y-8461D01*
X100696Y-8226D01*
X121792Y-29322D01*
X122188Y-29587D01*
X122657Y-29680D01*
X154083D01*
X155061Y-30658D01*
X155144Y-31180D01*
X155144Y-32581D01*
X155144Y-32919D01*
Y-38506D01*
X156869D01*
Y-41138D01*
X156700Y-41276D01*
X111849D01*
X111708Y-40937D01*
X111211Y-40289D01*
X110563Y-39792D01*
X109809Y-39480D01*
X109000Y-39373D01*
X108191Y-39480D01*
X107437Y-39792D01*
X106789Y-40289D01*
X106292Y-40937D01*
X105980Y-41691D01*
X105873Y-42500D01*
X105980Y-43309D01*
X106292Y-44063D01*
X106789Y-44711D01*
X107437Y-45208D01*
X108191Y-45520D01*
X109000Y-45627D01*
X109809Y-45520D01*
X110563Y-45208D01*
X111211Y-44711D01*
X111708Y-44063D01*
X111849Y-43723D01*
X154340D01*
X155617Y-45000D01*
X155739Y-45927D01*
X156097Y-46792D01*
X156666Y-47534D01*
X157408Y-48103D01*
X158273Y-48461D01*
X159200Y-48583D01*
X160127Y-48461D01*
X160992Y-48103D01*
X161734Y-47534D01*
X162303Y-46792D01*
X162661Y-45927D01*
X162783Y-45000D01*
X162661Y-44073D01*
X162303Y-43208D01*
X161734Y-42466D01*
X160992Y-41897D01*
X160131Y-41540D01*
Y-38506D01*
X161856D01*
Y-32919D01*
X161856Y-32581D01*
Y-31419D01*
X161856Y-31180D01*
X162095Y-29680D01*
X164483D01*
X165461Y-30658D01*
X165544Y-31180D01*
X165544Y-32581D01*
X165544Y-32919D01*
Y-38506D01*
X167269D01*
Y-42004D01*
X166666Y-42466D01*
X166097Y-43208D01*
X165739Y-44073D01*
X165617Y-45000D01*
X165739Y-45927D01*
X166097Y-46792D01*
X166666Y-47534D01*
X167408Y-48103D01*
X168273Y-48461D01*
X169200Y-48583D01*
X170127Y-48461D01*
X170992Y-48103D01*
X171734Y-47534D01*
X172303Y-46792D01*
X172661Y-45927D01*
X172783Y-45000D01*
X172661Y-44073D01*
X172303Y-43208D01*
X171734Y-42466D01*
X170992Y-41897D01*
X170531Y-41706D01*
Y-38506D01*
X172256D01*
Y-32919D01*
X172256Y-32581D01*
Y-31419D01*
X172256Y-31180D01*
X172495Y-29680D01*
X174883D01*
X175861Y-30658D01*
X175944Y-31180D01*
X175944Y-32581D01*
X175944Y-32919D01*
Y-38506D01*
X177669D01*
Y-41789D01*
X177408Y-41897D01*
X176666Y-42466D01*
X176097Y-43208D01*
X175739Y-44073D01*
X175617Y-45000D01*
X175739Y-45927D01*
X176097Y-46792D01*
X176666Y-47534D01*
X177408Y-48103D01*
X178273Y-48461D01*
X179200Y-48583D01*
X180127Y-48461D01*
X180992Y-48103D01*
X181734Y-47534D01*
X182303Y-46792D01*
X182661Y-45927D01*
X182783Y-45000D01*
X182661Y-44073D01*
X182303Y-43208D01*
X181734Y-42466D01*
X180992Y-41897D01*
X180931Y-41872D01*
Y-38506D01*
X182656D01*
Y-32919D01*
X182656Y-32581D01*
Y-31419D01*
X182656Y-31180D01*
X182895Y-29680D01*
X185283D01*
X186261Y-30658D01*
X186344Y-31180D01*
X186344Y-32581D01*
X186344Y-32919D01*
Y-38506D01*
X188069D01*
Y-41623D01*
X187408Y-41897D01*
X186666Y-42466D01*
X186097Y-43208D01*
X185739Y-44073D01*
X185617Y-45000D01*
X185739Y-45927D01*
X186097Y-46792D01*
X186666Y-47534D01*
X187408Y-48103D01*
X188273Y-48461D01*
X189200Y-48583D01*
X190127Y-48461D01*
X190992Y-48103D01*
X191734Y-47534D01*
X192303Y-46792D01*
X192661Y-45927D01*
X192783Y-45000D01*
X192661Y-44073D01*
X192303Y-43208D01*
X191734Y-42466D01*
X191331Y-42157D01*
Y-38506D01*
X193056D01*
Y-32919D01*
X193056Y-32581D01*
Y-31419D01*
X193056Y-31180D01*
X193295Y-29680D01*
X195683D01*
X196661Y-30658D01*
X196744Y-31180D01*
X196744Y-32581D01*
X196744Y-32919D01*
Y-38506D01*
X198469D01*
Y-41513D01*
X198273Y-41539D01*
X197408Y-41897D01*
X196666Y-42466D01*
X196097Y-43208D01*
X195739Y-44073D01*
X195617Y-45000D01*
X195739Y-45927D01*
X196097Y-46792D01*
X196666Y-47534D01*
X197408Y-48103D01*
X198273Y-48461D01*
X199200Y-48583D01*
X200127Y-48461D01*
X200992Y-48103D01*
X201734Y-47534D01*
X202303Y-46792D01*
X202661Y-45927D01*
X202783Y-45000D01*
X202661Y-44073D01*
X202303Y-43208D01*
X201734Y-42466D01*
X201731Y-42464D01*
Y-38506D01*
X203456D01*
Y-32919D01*
X203456Y-32581D01*
Y-31419D01*
X203456Y-31180D01*
X203695Y-29680D01*
X206083D01*
X207061Y-30658D01*
X207144Y-31180D01*
X207144Y-32581D01*
X207144Y-32919D01*
Y-38506D01*
X208869D01*
Y-41460D01*
X208273Y-41539D01*
X207408Y-41897D01*
X206666Y-42466D01*
X206097Y-43208D01*
X205739Y-44073D01*
X205617Y-45000D01*
X205739Y-45927D01*
X206097Y-46792D01*
X206666Y-47534D01*
X207408Y-48103D01*
X208273Y-48461D01*
X209200Y-48583D01*
X210127Y-48461D01*
X210992Y-48103D01*
X211734Y-47534D01*
X212303Y-46792D01*
X212661Y-45927D01*
X212783Y-45000D01*
X212661Y-44073D01*
X212303Y-43208D01*
X212131Y-42984D01*
Y-38506D01*
X213856D01*
Y-32919D01*
X213856Y-32581D01*
Y-31419D01*
X213856Y-31081D01*
Y-25495D01*
X207144D01*
Y-27233D01*
X203456D01*
Y-25495D01*
X196744D01*
Y-27233D01*
X193056D01*
Y-25495D01*
X186344D01*
Y-27233D01*
X182656D01*
Y-25495D01*
X175944D01*
Y-27233D01*
X172256D01*
Y-25495D01*
X165544D01*
Y-27233D01*
X161856D01*
Y-25495D01*
X155144D01*
Y-27233D01*
X123163D01*
X102426Y-6496D01*
X102661Y-5928D01*
X102783Y-5000D01*
X102661Y-4073D01*
X102303Y-3208D01*
X101734Y-2466D01*
X100992Y-1897D01*
X100127Y-1539D01*
X99200Y-1417D01*
D02*
G37*
G36*
X39200D02*
X38273Y-1539D01*
X37408Y-1897D01*
X36666Y-2466D01*
X36097Y-3208D01*
X35739Y-4073D01*
X35617Y-5000D01*
X35739Y-5928D01*
X36097Y-6792D01*
X36666Y-7534D01*
X37408Y-8103D01*
X37977Y-8339D01*
Y-17293D01*
X6622Y-48647D01*
X1247D01*
Y-55753D01*
X8353D01*
Y-50378D01*
X40065Y-18665D01*
X40330Y-18268D01*
X40424Y-17800D01*
Y-8339D01*
X40992Y-8103D01*
X41734Y-7534D01*
X42303Y-6792D01*
X42661Y-5928D01*
X42783Y-5000D01*
X42661Y-4073D01*
X42303Y-3208D01*
X41734Y-2466D01*
X40992Y-1897D01*
X40127Y-1539D01*
X39200Y-1417D01*
D02*
G37*
G36*
X17000Y-156543D02*
X13744D01*
Y-159406D01*
X17000D01*
Y-156543D01*
D02*
G37*
G36*
X8756D02*
X5500D01*
Y-159406D01*
X8756D01*
Y-156543D01*
D02*
G37*
G36*
X4500D02*
X1244D01*
Y-159406D01*
X4500D01*
Y-156543D01*
D02*
G37*
G36*
X8756Y-145595D02*
X5500D01*
Y-148457D01*
X8756D01*
Y-145595D01*
D02*
G37*
G36*
X4500D02*
X1244D01*
Y-148457D01*
X4500D01*
Y-145595D01*
D02*
G37*
G36*
X21256Y-156543D02*
X18000D01*
Y-159406D01*
X21256D01*
Y-156543D01*
D02*
G37*
G36*
X188700Y-15500D02*
X185279D01*
X185349Y-16032D01*
X185747Y-16993D01*
X186381Y-17819D01*
X187207Y-18453D01*
X188168Y-18851D01*
X188700Y-18921D01*
Y-15500D01*
D02*
G37*
G36*
X183121D02*
X179700D01*
Y-18921D01*
X180232Y-18851D01*
X181193Y-18453D01*
X182019Y-17819D01*
X182653Y-16993D01*
X183051Y-16032D01*
X183121Y-15500D01*
D02*
G37*
G36*
X178700D02*
X175279D01*
X175349Y-16032D01*
X175747Y-16993D01*
X176381Y-17819D01*
X177207Y-18453D01*
X178168Y-18851D01*
X178700Y-18921D01*
Y-15500D01*
D02*
G37*
G36*
X203121D02*
X199700D01*
Y-18921D01*
X200232Y-18851D01*
X201193Y-18453D01*
X202019Y-17819D01*
X202653Y-16993D01*
X203051Y-16032D01*
X203121Y-15500D01*
D02*
G37*
G36*
X198700D02*
X195279D01*
X195349Y-16032D01*
X195747Y-16993D01*
X196381Y-17819D01*
X197207Y-18453D01*
X198168Y-18851D01*
X198700Y-18921D01*
Y-15500D01*
D02*
G37*
G36*
X193121D02*
X189700D01*
Y-18921D01*
X190232Y-18851D01*
X191193Y-18453D01*
X192019Y-17819D01*
X192653Y-16993D01*
X193051Y-16032D01*
X193121Y-15500D01*
D02*
G37*
G36*
X158700D02*
X155279D01*
X155349Y-16032D01*
X155747Y-16993D01*
X156381Y-17819D01*
X157207Y-18453D01*
X158168Y-18851D01*
X158700Y-18921D01*
Y-15500D01*
D02*
G37*
G36*
X213153D02*
X209700D01*
Y-18953D01*
X213153D01*
Y-15500D01*
D02*
G37*
G36*
X208700D02*
X205247D01*
Y-18953D01*
X208700D01*
Y-15500D01*
D02*
G37*
G36*
X173121D02*
X169700D01*
Y-18921D01*
X170232Y-18851D01*
X171193Y-18453D01*
X172019Y-17819D01*
X172653Y-16993D01*
X173051Y-16032D01*
X173121Y-15500D01*
D02*
G37*
G36*
X168700D02*
X165279D01*
X165349Y-16032D01*
X165747Y-16993D01*
X166381Y-17819D01*
X167207Y-18453D01*
X168168Y-18851D01*
X168700Y-18921D01*
Y-15500D01*
D02*
G37*
G36*
X163121D02*
X159700D01*
Y-18921D01*
X160232Y-18851D01*
X161193Y-18453D01*
X162019Y-17819D01*
X162653Y-16993D01*
X163051Y-16032D01*
X163121Y-15500D01*
D02*
G37*
G36*
X129200Y8583D02*
X128273Y8461D01*
X127408Y8103D01*
X126666Y7534D01*
X126097Y6792D01*
X125739Y5928D01*
X125617Y5000D01*
X125739Y4073D01*
X126097Y3208D01*
X126666Y2466D01*
X127408Y1897D01*
X128273Y1539D01*
X129200Y1417D01*
X130127Y1539D01*
X130992Y1897D01*
X131734Y2466D01*
X132303Y3208D01*
X132661Y4073D01*
X132783Y5000D01*
X132661Y5928D01*
X132303Y6792D01*
X131734Y7534D01*
X130992Y8103D01*
X130127Y8461D01*
X129200Y8583D01*
D02*
G37*
G36*
X119200D02*
X118273Y8461D01*
X117408Y8103D01*
X116666Y7534D01*
X116097Y6792D01*
X115739Y5928D01*
X115617Y5000D01*
X115739Y4073D01*
X116097Y3208D01*
X116666Y2466D01*
X117408Y1897D01*
X118273Y1539D01*
X119200Y1417D01*
X120127Y1539D01*
X120992Y1897D01*
X121734Y2466D01*
X122303Y3208D01*
X122661Y4073D01*
X122783Y5000D01*
X122661Y5928D01*
X122303Y6792D01*
X121734Y7534D01*
X120992Y8103D01*
X120127Y8461D01*
X119200Y8583D01*
D02*
G37*
G36*
X99200D02*
X98273Y8461D01*
X97408Y8103D01*
X96666Y7534D01*
X96097Y6792D01*
X95739Y5928D01*
X95617Y5000D01*
X95739Y4073D01*
X96097Y3208D01*
X96666Y2466D01*
X97408Y1897D01*
X98273Y1539D01*
X99200Y1417D01*
X100127Y1539D01*
X100992Y1897D01*
X101734Y2466D01*
X102303Y3208D01*
X102661Y4073D01*
X102783Y5000D01*
X102661Y5928D01*
X102303Y6792D01*
X101734Y7534D01*
X100992Y8103D01*
X100127Y8461D01*
X99200Y8583D01*
D02*
G37*
G36*
X169200D02*
X168273Y8461D01*
X167408Y8103D01*
X166666Y7534D01*
X166097Y6792D01*
X165739Y5928D01*
X165617Y5000D01*
X165739Y4073D01*
X166097Y3208D01*
X166666Y2466D01*
X167408Y1897D01*
X168273Y1539D01*
X169200Y1417D01*
X170127Y1539D01*
X170992Y1897D01*
X171734Y2466D01*
X172303Y3208D01*
X172661Y4073D01*
X172783Y5000D01*
X172661Y5928D01*
X172303Y6792D01*
X171734Y7534D01*
X170992Y8103D01*
X170127Y8461D01*
X169200Y8583D01*
D02*
G37*
G36*
X149200D02*
X148273Y8461D01*
X147408Y8103D01*
X146666Y7534D01*
X146097Y6792D01*
X145739Y5928D01*
X145617Y5000D01*
X145739Y4073D01*
X146097Y3208D01*
X146666Y2466D01*
X147408Y1897D01*
X148273Y1539D01*
X149200Y1417D01*
X150127Y1539D01*
X150992Y1897D01*
X151734Y2466D01*
X152303Y3208D01*
X152661Y4073D01*
X152783Y5000D01*
X152661Y5928D01*
X152303Y6792D01*
X151734Y7534D01*
X150992Y8103D01*
X150127Y8461D01*
X149200Y8583D01*
D02*
G37*
G36*
X139200D02*
X138273Y8461D01*
X137408Y8103D01*
X136666Y7534D01*
X136097Y6792D01*
X135739Y5928D01*
X135617Y5000D01*
X135739Y4073D01*
X136097Y3208D01*
X136666Y2466D01*
X137408Y1897D01*
X138273Y1539D01*
X139200Y1417D01*
X140127Y1539D01*
X140992Y1897D01*
X141734Y2466D01*
X142303Y3208D01*
X142661Y4073D01*
X142783Y5000D01*
X142661Y5928D01*
X142303Y6792D01*
X141734Y7534D01*
X140992Y8103D01*
X140127Y8461D01*
X139200Y8583D01*
D02*
G37*
G36*
X49200D02*
X48273Y8461D01*
X47408Y8103D01*
X46666Y7534D01*
X46097Y6792D01*
X45739Y5928D01*
X45617Y5000D01*
X45739Y4073D01*
X46097Y3208D01*
X46666Y2466D01*
X47408Y1897D01*
X48273Y1539D01*
X49200Y1417D01*
X50127Y1539D01*
X50992Y1897D01*
X51734Y2466D01*
X52303Y3208D01*
X52661Y4073D01*
X52783Y5000D01*
X52661Y5928D01*
X52303Y6792D01*
X51734Y7534D01*
X50992Y8103D01*
X50127Y8461D01*
X49200Y8583D01*
D02*
G37*
G36*
X29200D02*
X28273Y8461D01*
X27408Y8103D01*
X26666Y7534D01*
X26097Y6792D01*
X25739Y5928D01*
X25617Y5000D01*
X25739Y4073D01*
X26097Y3208D01*
X26666Y2466D01*
X27408Y1897D01*
X28273Y1539D01*
X29200Y1417D01*
X30127Y1539D01*
X30992Y1897D01*
X31734Y2466D01*
X32303Y3208D01*
X32661Y4073D01*
X32783Y5000D01*
X32661Y5928D01*
X32303Y6792D01*
X31734Y7534D01*
X30992Y8103D01*
X30127Y8461D01*
X29200Y8583D01*
D02*
G37*
G36*
X19200D02*
X18273Y8461D01*
X17408Y8103D01*
X16666Y7534D01*
X16097Y6792D01*
X15739Y5928D01*
X15617Y5000D01*
X15739Y4073D01*
X16097Y3208D01*
X16666Y2466D01*
X17408Y1897D01*
X18273Y1539D01*
X19200Y1417D01*
X20127Y1539D01*
X20992Y1897D01*
X21734Y2466D01*
X22303Y3208D01*
X22661Y4073D01*
X22783Y5000D01*
X22661Y5928D01*
X22303Y6792D01*
X21734Y7534D01*
X20992Y8103D01*
X20127Y8461D01*
X19200Y8583D01*
D02*
G37*
G36*
X89200D02*
X88273Y8461D01*
X87408Y8103D01*
X86666Y7534D01*
X86097Y6792D01*
X85739Y5928D01*
X85617Y5000D01*
X85739Y4073D01*
X86097Y3208D01*
X86666Y2466D01*
X87408Y1897D01*
X88273Y1539D01*
X89200Y1417D01*
X90127Y1539D01*
X90992Y1897D01*
X91734Y2466D01*
X92303Y3208D01*
X92661Y4073D01*
X92783Y5000D01*
X92661Y5928D01*
X92303Y6792D01*
X91734Y7534D01*
X90992Y8103D01*
X90127Y8461D01*
X89200Y8583D01*
D02*
G37*
G36*
X69200D02*
X68273Y8461D01*
X67408Y8103D01*
X66666Y7534D01*
X66097Y6792D01*
X65739Y5928D01*
X65617Y5000D01*
X65739Y4073D01*
X66097Y3208D01*
X66666Y2466D01*
X67408Y1897D01*
X68273Y1539D01*
X69200Y1417D01*
X70127Y1539D01*
X70992Y1897D01*
X71734Y2466D01*
X72303Y3208D01*
X72661Y4073D01*
X72783Y5000D01*
X72661Y5928D01*
X72303Y6792D01*
X71734Y7534D01*
X70992Y8103D01*
X70127Y8461D01*
X69200Y8583D01*
D02*
G37*
G36*
X59200D02*
X58273Y8461D01*
X57408Y8103D01*
X56666Y7534D01*
X56097Y6792D01*
X55739Y5928D01*
X55617Y5000D01*
X55739Y4073D01*
X56097Y3208D01*
X56666Y2466D01*
X57408Y1897D01*
X58273Y1539D01*
X59200Y1417D01*
X60127Y1539D01*
X60992Y1897D01*
X61734Y2466D01*
X62303Y3208D01*
X62661Y4073D01*
X62783Y5000D01*
X62661Y5928D01*
X62303Y6792D01*
X61734Y7534D01*
X60992Y8103D01*
X60127Y8461D01*
X59200Y8583D01*
D02*
G37*
G36*
X189200D02*
X188273Y8461D01*
X187408Y8103D01*
X186666Y7534D01*
X186097Y6792D01*
X185739Y5928D01*
X185617Y5000D01*
X185739Y4073D01*
X186097Y3208D01*
X186666Y2466D01*
X187408Y1897D01*
X188273Y1539D01*
X189200Y1417D01*
X190127Y1539D01*
X190992Y1897D01*
X191734Y2466D01*
X192303Y3208D01*
X192661Y4073D01*
X192783Y5000D01*
X192661Y5928D01*
X192303Y6792D01*
X191734Y7534D01*
X190992Y8103D01*
X190127Y8461D01*
X189200Y8583D01*
D02*
G37*
G36*
X158700Y8921D02*
X158168Y8851D01*
X157207Y8453D01*
X156381Y7819D01*
X155747Y6993D01*
X155349Y6032D01*
X155279Y5500D01*
X158700D01*
Y8921D01*
D02*
G37*
G36*
X109700D02*
Y5500D01*
X113121D01*
X113051Y6032D01*
X112653Y6993D01*
X112019Y7819D01*
X111193Y8453D01*
X110232Y8851D01*
X109700Y8921D01*
D02*
G37*
G36*
X108700D02*
X108168Y8851D01*
X107207Y8453D01*
X106381Y7819D01*
X105747Y6993D01*
X105349Y6032D01*
X105279Y5500D01*
X108700D01*
Y8921D01*
D02*
G37*
G36*
X179700D02*
Y5500D01*
X183121D01*
X183051Y6032D01*
X182653Y6993D01*
X182019Y7819D01*
X181193Y8453D01*
X180232Y8851D01*
X179700Y8921D01*
D02*
G37*
G36*
X178700D02*
X178168Y8851D01*
X177207Y8453D01*
X176381Y7819D01*
X175747Y6993D01*
X175349Y6032D01*
X175279Y5500D01*
X178700D01*
Y8921D01*
D02*
G37*
G36*
X159700D02*
Y5500D01*
X163121D01*
X163051Y6032D01*
X162653Y6993D01*
X162019Y7819D01*
X161193Y8453D01*
X160232Y8851D01*
X159700Y8921D01*
D02*
G37*
G36*
X38700D02*
X38168Y8851D01*
X37207Y8453D01*
X36381Y7819D01*
X35747Y6993D01*
X35349Y6032D01*
X35279Y5500D01*
X38700D01*
Y8921D01*
D02*
G37*
G36*
X209200Y8583D02*
X208273Y8461D01*
X207408Y8103D01*
X206666Y7534D01*
X206097Y6792D01*
X205739Y5928D01*
X205617Y5000D01*
X205739Y4073D01*
X206097Y3208D01*
X206666Y2466D01*
X207408Y1897D01*
X208273Y1539D01*
X209200Y1417D01*
X210127Y1539D01*
X210992Y1897D01*
X211734Y2466D01*
X212303Y3208D01*
X212661Y4073D01*
X212783Y5000D01*
X212661Y5928D01*
X212303Y6792D01*
X211734Y7534D01*
X210992Y8103D01*
X210127Y8461D01*
X209200Y8583D01*
D02*
G37*
G36*
X199200D02*
X198273Y8461D01*
X197408Y8103D01*
X196666Y7534D01*
X196097Y6792D01*
X195739Y5928D01*
X195617Y5000D01*
X195739Y4073D01*
X196097Y3208D01*
X196666Y2466D01*
X197408Y1897D01*
X198273Y1539D01*
X199200Y1417D01*
X200127Y1539D01*
X200992Y1897D01*
X201734Y2466D01*
X202303Y3208D01*
X202661Y4073D01*
X202783Y5000D01*
X202661Y5928D01*
X202303Y6792D01*
X201734Y7534D01*
X200992Y8103D01*
X200127Y8461D01*
X199200Y8583D01*
D02*
G37*
G36*
X79700Y8921D02*
Y5500D01*
X83121D01*
X83051Y6032D01*
X82653Y6993D01*
X82019Y7819D01*
X81193Y8453D01*
X80232Y8851D01*
X79700Y8921D01*
D02*
G37*
G36*
X78700D02*
X78168Y8851D01*
X77207Y8453D01*
X76381Y7819D01*
X75747Y6993D01*
X75349Y6032D01*
X75279Y5500D01*
X78700D01*
Y8921D01*
D02*
G37*
G36*
X39700D02*
Y5500D01*
X43121D01*
X43051Y6032D01*
X42653Y6993D01*
X42019Y7819D01*
X41193Y8453D01*
X40232Y8851D01*
X39700Y8921D01*
D02*
G37*
G36*
X183121Y4500D02*
X179700D01*
Y1079D01*
X180232Y1149D01*
X181193Y1547D01*
X182019Y2181D01*
X182653Y3007D01*
X183051Y3968D01*
X183121Y4500D01*
D02*
G37*
G36*
X0Y6180D02*
X-1206Y6061D01*
X-2365Y5709D01*
X-3433Y5138D01*
X-4370Y4370D01*
X-5138Y3433D01*
X-5709Y2365D01*
X-6061Y1206D01*
X-6180Y0D01*
X-6061Y-1206D01*
X-5709Y-2365D01*
X-5138Y-3433D01*
X-4370Y-4370D01*
X-3433Y-5138D01*
X-2365Y-5709D01*
X-1206Y-6061D01*
X0Y-6180D01*
X1206Y-6061D01*
X2365Y-5709D01*
X3433Y-5138D01*
X4370Y-4370D01*
X5138Y-3433D01*
X5709Y-2365D01*
X6061Y-1206D01*
X6180Y0D01*
X6061Y1206D01*
X5709Y2365D01*
X5138Y3433D01*
X4370Y4370D01*
X3433Y5138D01*
X2365Y5709D01*
X1206Y6061D01*
X0Y6180D01*
D02*
G37*
G36*
X22753Y-1447D02*
X15647D01*
Y-8553D01*
X22753D01*
Y-1447D01*
D02*
G37*
G36*
X199200Y-1417D02*
X198273Y-1539D01*
X197408Y-1897D01*
X196666Y-2466D01*
X196097Y-3208D01*
X195739Y-4073D01*
X195617Y-5000D01*
X195739Y-5928D01*
X196097Y-6792D01*
X196666Y-7534D01*
X197408Y-8103D01*
X198273Y-8461D01*
X199200Y-8583D01*
X200127Y-8461D01*
X200992Y-8103D01*
X201734Y-7534D01*
X202303Y-6792D01*
X202661Y-5928D01*
X202783Y-5000D01*
X202661Y-4073D01*
X202303Y-3208D01*
X201734Y-2466D01*
X200992Y-1897D01*
X200127Y-1539D01*
X199200Y-1417D01*
D02*
G37*
G36*
X59700Y-1079D02*
Y-4500D01*
X63121D01*
X63051Y-3968D01*
X62653Y-3007D01*
X62019Y-2181D01*
X61193Y-1547D01*
X60232Y-1149D01*
X59700Y-1079D01*
D02*
G37*
G36*
X58700D02*
X58168Y-1149D01*
X57207Y-1547D01*
X56381Y-2181D01*
X55747Y-3007D01*
X55349Y-3968D01*
X55279Y-4500D01*
X58700D01*
Y-1079D01*
D02*
G37*
G36*
X228400Y6180D02*
X227194Y6061D01*
X226035Y5709D01*
X224967Y5138D01*
X224030Y4370D01*
X223262Y3433D01*
X222691Y2365D01*
X222339Y1206D01*
X222220Y0D01*
X222339Y-1206D01*
X222691Y-2365D01*
X223262Y-3433D01*
X224030Y-4370D01*
X224967Y-5138D01*
X226035Y-5709D01*
X227194Y-6061D01*
X228400Y-6180D01*
X229606Y-6061D01*
X230765Y-5709D01*
X231833Y-5138D01*
X232770Y-4370D01*
X233538Y-3433D01*
X234109Y-2365D01*
X234461Y-1206D01*
X234580Y0D01*
X234461Y1206D01*
X234109Y2365D01*
X233538Y3433D01*
X232770Y4370D01*
X231833Y5138D01*
X230765Y5709D01*
X229606Y6061D01*
X228400Y6180D01*
D02*
G37*
G36*
X159200Y-1417D02*
X158273Y-1539D01*
X157408Y-1897D01*
X156666Y-2466D01*
X156097Y-3208D01*
X155739Y-4073D01*
X155617Y-5000D01*
X155739Y-5928D01*
X156097Y-6792D01*
X156666Y-7534D01*
X157408Y-8103D01*
X158273Y-8461D01*
X159200Y-8583D01*
X160127Y-8461D01*
X160992Y-8103D01*
X161734Y-7534D01*
X162303Y-6792D01*
X162661Y-5928D01*
X162783Y-5000D01*
X162661Y-4073D01*
X162303Y-3208D01*
X161734Y-2466D01*
X160992Y-1897D01*
X160127Y-1539D01*
X159200Y-1417D01*
D02*
G37*
G36*
X149200D02*
X148273Y-1539D01*
X147408Y-1897D01*
X146666Y-2466D01*
X146097Y-3208D01*
X145739Y-4073D01*
X145617Y-5000D01*
X145739Y-5928D01*
X146097Y-6792D01*
X146666Y-7534D01*
X147408Y-8103D01*
X148273Y-8461D01*
X149200Y-8583D01*
X150127Y-8461D01*
X150992Y-8103D01*
X151734Y-7534D01*
X152303Y-6792D01*
X152661Y-5928D01*
X152783Y-5000D01*
X152661Y-4073D01*
X152303Y-3208D01*
X151734Y-2466D01*
X150992Y-1897D01*
X150127Y-1539D01*
X149200Y-1417D01*
D02*
G37*
G36*
X129200D02*
X128273Y-1539D01*
X127408Y-1897D01*
X126666Y-2466D01*
X126097Y-3208D01*
X125739Y-4073D01*
X125617Y-5000D01*
X125739Y-5928D01*
X126097Y-6792D01*
X126666Y-7534D01*
X127408Y-8103D01*
X128273Y-8461D01*
X129200Y-8583D01*
X130127Y-8461D01*
X130992Y-8103D01*
X131734Y-7534D01*
X132303Y-6792D01*
X132661Y-5928D01*
X132783Y-5000D01*
X132661Y-4073D01*
X132303Y-3208D01*
X131734Y-2466D01*
X130992Y-1897D01*
X130127Y-1539D01*
X129200Y-1417D01*
D02*
G37*
G36*
X189200D02*
X188273Y-1539D01*
X187408Y-1897D01*
X186666Y-2466D01*
X186097Y-3208D01*
X185739Y-4073D01*
X185617Y-5000D01*
X185739Y-5928D01*
X186097Y-6792D01*
X186666Y-7534D01*
X187408Y-8103D01*
X188273Y-8461D01*
X189200Y-8583D01*
X190127Y-8461D01*
X190992Y-8103D01*
X191734Y-7534D01*
X192303Y-6792D01*
X192661Y-5928D01*
X192783Y-5000D01*
X192661Y-4073D01*
X192303Y-3208D01*
X191734Y-2466D01*
X190992Y-1897D01*
X190127Y-1539D01*
X189200Y-1417D01*
D02*
G37*
G36*
X179200D02*
X178273Y-1539D01*
X177408Y-1897D01*
X176666Y-2466D01*
X176097Y-3208D01*
X175739Y-4073D01*
X175617Y-5000D01*
X175739Y-5928D01*
X176097Y-6792D01*
X176666Y-7534D01*
X177408Y-8103D01*
X178273Y-8461D01*
X179200Y-8583D01*
X180127Y-8461D01*
X180992Y-8103D01*
X181734Y-7534D01*
X182303Y-6792D01*
X182661Y-5928D01*
X182783Y-5000D01*
X182661Y-4073D01*
X182303Y-3208D01*
X181734Y-2466D01*
X180992Y-1897D01*
X180127Y-1539D01*
X179200Y-1417D01*
D02*
G37*
G36*
X169200D02*
X168273Y-1539D01*
X167408Y-1897D01*
X166666Y-2466D01*
X166097Y-3208D01*
X165739Y-4073D01*
X165617Y-5000D01*
X165739Y-5928D01*
X166097Y-6792D01*
X166666Y-7534D01*
X167408Y-8103D01*
X168273Y-8461D01*
X169200Y-8583D01*
X170127Y-8461D01*
X170992Y-8103D01*
X171734Y-7534D01*
X172303Y-6792D01*
X172661Y-5928D01*
X172783Y-5000D01*
X172661Y-4073D01*
X172303Y-3208D01*
X171734Y-2466D01*
X170992Y-1897D01*
X170127Y-1539D01*
X169200Y-1417D01*
D02*
G37*
G36*
X138700Y-1079D02*
X138168Y-1149D01*
X137207Y-1547D01*
X136381Y-2181D01*
X135747Y-3007D01*
X135349Y-3968D01*
X135279Y-4500D01*
X138700D01*
Y-1079D01*
D02*
G37*
G36*
X113121Y4500D02*
X109700D01*
Y1079D01*
X110232Y1149D01*
X111193Y1547D01*
X112019Y2181D01*
X112653Y3007D01*
X113051Y3968D01*
X113121Y4500D01*
D02*
G37*
G36*
X108700D02*
X105279D01*
X105349Y3968D01*
X105747Y3007D01*
X106381Y2181D01*
X107207Y1547D01*
X108168Y1149D01*
X108700Y1079D01*
Y4500D01*
D02*
G37*
G36*
X83121D02*
X79700D01*
Y1079D01*
X80232Y1149D01*
X81193Y1547D01*
X82019Y2181D01*
X82653Y3007D01*
X83051Y3968D01*
X83121Y4500D01*
D02*
G37*
G36*
X178700D02*
X175279D01*
X175349Y3968D01*
X175747Y3007D01*
X176381Y2181D01*
X177207Y1547D01*
X178168Y1149D01*
X178700Y1079D01*
Y4500D01*
D02*
G37*
G36*
X163121D02*
X159700D01*
Y1079D01*
X160232Y1149D01*
X161193Y1547D01*
X162019Y2181D01*
X162653Y3007D01*
X163051Y3968D01*
X163121Y4500D01*
D02*
G37*
G36*
X158700D02*
X155279D01*
X155349Y3968D01*
X155747Y3007D01*
X156381Y2181D01*
X157207Y1547D01*
X158168Y1149D01*
X158700Y1079D01*
Y4500D01*
D02*
G37*
G36*
X209700Y-1079D02*
Y-4500D01*
X213121D01*
X213051Y-3968D01*
X212653Y-3007D01*
X212019Y-2181D01*
X211193Y-1547D01*
X210232Y-1149D01*
X209700Y-1079D01*
D02*
G37*
G36*
X208700D02*
X208168Y-1149D01*
X207207Y-1547D01*
X206381Y-2181D01*
X205747Y-3007D01*
X205349Y-3968D01*
X205279Y-4500D01*
X208700D01*
Y-1079D01*
D02*
G37*
G36*
X139700D02*
Y-4500D01*
X143121D01*
X143051Y-3968D01*
X142653Y-3007D01*
X142019Y-2181D01*
X141193Y-1547D01*
X140232Y-1149D01*
X139700Y-1079D01*
D02*
G37*
G36*
X78700Y4500D02*
X75279D01*
X75349Y3968D01*
X75747Y3007D01*
X76381Y2181D01*
X77207Y1547D01*
X78168Y1149D01*
X78700Y1079D01*
Y4500D01*
D02*
G37*
G36*
X43121D02*
X39700D01*
Y1079D01*
X40232Y1149D01*
X41193Y1547D01*
X42019Y2181D01*
X42653Y3007D01*
X43051Y3968D01*
X43121Y4500D01*
D02*
G37*
G36*
X38700D02*
X35279D01*
X35349Y3968D01*
X35747Y3007D01*
X36381Y2181D01*
X37207Y1547D01*
X38168Y1149D01*
X38700Y1079D01*
Y4500D01*
D02*
G37*
%LPD*%
D12*
X158500Y-35543D02*
D03*
Y-28457D02*
D03*
X168900Y-35543D02*
D03*
Y-28457D02*
D03*
X179300Y-35543D02*
D03*
Y-28457D02*
D03*
X189700Y-35543D02*
D03*
Y-28457D02*
D03*
X200100Y-35543D02*
D03*
Y-28457D02*
D03*
X210500Y-35543D02*
D03*
Y-28457D02*
D03*
X17500Y-148957D02*
D03*
Y-156043D02*
D03*
X5000Y-148957D02*
D03*
Y-156043D02*
D03*
D18*
X156700Y-42500D02*
X158500Y-44300D01*
X109000Y-42500D02*
X156700D01*
X158500Y-44300D02*
X159200Y-45000D01*
X158500Y-28457D02*
X168900D01*
X179300D01*
X189700D01*
X200100D01*
X210500D01*
X99200Y-5000D02*
X122657Y-28457D01*
X158500D01*
X29200Y-6200D02*
Y-5000D01*
X4800Y-30600D02*
X29200Y-6200D01*
X39200Y-17800D02*
Y-5000D01*
X4800Y-52200D02*
X39200Y-17800D01*
D19*
X47500Y-136500D02*
X48000Y-137000D01*
X89500Y-136500D02*
X90000Y-137000D01*
X131500Y-136500D02*
X132000Y-137000D01*
X158500Y-44300D02*
Y-35543D01*
X168900Y-44700D02*
X169200Y-45000D01*
X168900Y-44700D02*
Y-35543D01*
X179300Y-44900D02*
Y-35543D01*
X179200Y-45000D02*
X179300Y-44900D01*
X189700Y-44500D02*
Y-35543D01*
X189200Y-45000D02*
X189700Y-44500D01*
X200100Y-44100D02*
Y-35543D01*
X199200Y-45000D02*
X200100Y-44100D01*
X210500Y-43700D02*
Y-35543D01*
X209200Y-45000D02*
X210500Y-43700D01*
X173500Y-136500D02*
X174000Y-137000D01*
X215500Y-136500D02*
X216000Y-137000D01*
D21*
X159200Y-45000D02*
D03*
X169200D02*
D03*
X179200D02*
D03*
X189200D02*
D03*
X199200D02*
D03*
X209200D02*
D03*
X159200Y-15000D02*
D03*
X19200Y5000D02*
D03*
X29200Y-5000D02*
D03*
Y5000D02*
D03*
X39200Y-5000D02*
D03*
Y5000D02*
D03*
X49200Y-5000D02*
D03*
Y5000D02*
D03*
X59200Y-5000D02*
D03*
Y5000D02*
D03*
X69200Y-5000D02*
D03*
Y5000D02*
D03*
X79200Y-5000D02*
D03*
Y5000D02*
D03*
X89200Y-5000D02*
D03*
Y5000D02*
D03*
X99200Y-5000D02*
D03*
Y5000D02*
D03*
X109200Y-5000D02*
D03*
Y5000D02*
D03*
X119200Y-5000D02*
D03*
Y5000D02*
D03*
X129200Y-5000D02*
D03*
Y5000D02*
D03*
X139200Y-5000D02*
D03*
Y5000D02*
D03*
X149200Y-5000D02*
D03*
Y5000D02*
D03*
X159200Y-5000D02*
D03*
Y5000D02*
D03*
X169200Y-5000D02*
D03*
Y5000D02*
D03*
X179200Y-5000D02*
D03*
Y5000D02*
D03*
X189200Y-5000D02*
D03*
Y5000D02*
D03*
X199200Y-5000D02*
D03*
Y5000D02*
D03*
X209200Y-5000D02*
D03*
Y5000D02*
D03*
X-5200Y-30600D02*
D03*
Y-52200D02*
D03*
D22*
X169200Y-15000D02*
D03*
X179200D02*
D03*
X189200D02*
D03*
X199200D02*
D03*
D23*
X209200D02*
D03*
D24*
X-6500Y-162000D02*
D03*
X209900Y-185700D02*
D03*
X167900D02*
D03*
X125900D02*
D03*
X83900D02*
D03*
X41900D02*
D03*
D25*
X-6500Y-142000D02*
D03*
D26*
X189900Y-185700D02*
D03*
X147900D02*
D03*
X105900D02*
D03*
X63900D02*
D03*
X21900D02*
D03*
D27*
X19200Y-5000D02*
D03*
X4800Y-30600D02*
D03*
Y-52200D02*
D03*
D28*
X0Y-192900D02*
D03*
Y0D02*
D03*
X228400D02*
D03*
Y-192900D02*
D03*
D29*
X18000Y-143000D02*
D03*
X24000D02*
D03*
X144000D02*
D03*
X150000D02*
D03*
X186000D02*
D03*
X192000D02*
D03*
X108000D02*
D03*
X60000D02*
D03*
X66000D02*
D03*
X102000D02*
D03*
X40000Y-92500D02*
D03*
X207500D02*
D03*
X50000Y-47500D02*
D03*
X35000D02*
D03*
X20000D02*
D03*
X11500Y-162000D02*
D03*
X47500Y-117000D02*
D03*
X48000Y-137000D02*
D03*
X72000Y-143000D02*
D03*
X90000Y-137000D02*
D03*
X53500Y-162000D02*
D03*
X89500Y-117000D02*
D03*
X60000Y-143000D02*
D03*
X66000D02*
D03*
X82000Y-92500D02*
D03*
X114000Y-143000D02*
D03*
X132000Y-137000D02*
D03*
X95500Y-162000D02*
D03*
X131500Y-117000D02*
D03*
X102000Y-143000D02*
D03*
X108000D02*
D03*
X124000Y-92500D02*
D03*
X109000Y-42500D02*
D03*
X156000Y-143000D02*
D03*
X174000Y-137000D02*
D03*
X137500Y-162000D02*
D03*
X173500Y-117000D02*
D03*
X150000Y-143000D02*
D03*
X144000D02*
D03*
D03*
X150000D02*
D03*
X166000Y-92500D02*
D03*
X198000Y-143000D02*
D03*
X216000Y-137000D02*
D03*
X179500Y-162000D02*
D03*
X215500Y-117000D02*
D03*
X192000Y-143000D02*
D03*
X186000D02*
D03*
D03*
X192000D02*
D03*
X30000D02*
D03*
M02*
