G04 Layer_Color=65535*
%FSLAX25Y25*%
%MOIN*%
G70*
G01*
G75*
%ADD30C,0.00787*%
%ADD31C,0.00600*%
%ADD32C,0.00197*%
%ADD33C,0.00984*%
%ADD34C,0.02362*%
%ADD35C,0.00500*%
%ADD36C,0.01000*%
G36*
X85704Y-203955D02*
X85763Y-203958D01*
X85822Y-203963D01*
X85881Y-203972D01*
X85932Y-203981D01*
X85935D01*
X85940Y-203984D01*
X85949D01*
X85961Y-203990D01*
X85994Y-203999D01*
X86035Y-204014D01*
X86083Y-204035D01*
X86133Y-204061D01*
X86183Y-204091D01*
X86231Y-204129D01*
X86234Y-204132D01*
X86237Y-204135D01*
X86245Y-204144D01*
X86257Y-204153D01*
X86287Y-204183D01*
X86322Y-204224D01*
X86361Y-204274D01*
X86402Y-204333D01*
X86441Y-204402D01*
X86473Y-204479D01*
Y-204482D01*
X86476Y-204487D01*
X86482Y-204499D01*
X86485Y-204517D01*
X86494Y-204538D01*
X86500Y-204561D01*
X86506Y-204588D01*
X86515Y-204621D01*
X86524Y-204653D01*
X86529Y-204692D01*
X86544Y-204775D01*
X86553Y-204866D01*
X86556Y-204967D01*
Y-204970D01*
Y-204976D01*
Y-204991D01*
Y-205005D01*
X86553Y-205026D01*
Y-205050D01*
X86550Y-205106D01*
X86541Y-205171D01*
X86532Y-205239D01*
X86518Y-205310D01*
X86500Y-205381D01*
Y-205384D01*
X86497Y-205390D01*
X86494Y-205399D01*
X86491Y-205411D01*
X86479Y-205444D01*
X86461Y-205485D01*
X86444Y-205532D01*
X86420Y-205580D01*
X86390Y-205630D01*
X86361Y-205677D01*
X86358Y-205683D01*
X86346Y-205698D01*
X86328Y-205719D01*
X86305Y-205745D01*
X86278Y-205775D01*
X86245Y-205805D01*
X86213Y-205837D01*
X86174Y-205864D01*
X86168Y-205867D01*
X86157Y-205876D01*
X86136Y-205888D01*
X86106Y-205902D01*
X86071Y-205920D01*
X86029Y-205935D01*
X85982Y-205953D01*
X85929Y-205967D01*
X85923D01*
X85914Y-205970D01*
X85905Y-205973D01*
X85875Y-205976D01*
X85834Y-205982D01*
X85787Y-205988D01*
X85730Y-205994D01*
X85668Y-205997D01*
X85600Y-206000D01*
X84863D01*
Y-203952D01*
X85650D01*
X85704Y-203955D01*
D02*
G37*
G36*
X84407Y-206000D02*
X84126D01*
X83055Y-204393D01*
Y-206000D01*
X82794D01*
Y-203952D01*
X83072D01*
X84147Y-205562D01*
Y-203952D01*
X84407D01*
Y-206000D01*
D02*
G37*
G36*
X169704Y-203955D02*
X169763Y-203958D01*
X169822Y-203963D01*
X169881Y-203972D01*
X169932Y-203981D01*
X169935D01*
X169940Y-203984D01*
X169949D01*
X169961Y-203990D01*
X169994Y-203999D01*
X170035Y-204014D01*
X170083Y-204035D01*
X170133Y-204061D01*
X170183Y-204091D01*
X170231Y-204129D01*
X170234Y-204132D01*
X170237Y-204135D01*
X170245Y-204144D01*
X170257Y-204153D01*
X170287Y-204183D01*
X170322Y-204224D01*
X170361Y-204274D01*
X170402Y-204333D01*
X170441Y-204402D01*
X170473Y-204479D01*
Y-204482D01*
X170476Y-204487D01*
X170482Y-204499D01*
X170485Y-204517D01*
X170494Y-204538D01*
X170500Y-204561D01*
X170506Y-204588D01*
X170515Y-204621D01*
X170524Y-204653D01*
X170529Y-204692D01*
X170544Y-204775D01*
X170553Y-204866D01*
X170556Y-204967D01*
Y-204970D01*
Y-204976D01*
Y-204991D01*
Y-205005D01*
X170553Y-205026D01*
Y-205050D01*
X170550Y-205106D01*
X170541Y-205171D01*
X170533Y-205239D01*
X170518Y-205310D01*
X170500Y-205381D01*
Y-205384D01*
X170497Y-205390D01*
X170494Y-205399D01*
X170491Y-205411D01*
X170479Y-205444D01*
X170461Y-205485D01*
X170444Y-205532D01*
X170420Y-205580D01*
X170390Y-205630D01*
X170361Y-205677D01*
X170358Y-205683D01*
X170346Y-205698D01*
X170328Y-205719D01*
X170305Y-205745D01*
X170278Y-205775D01*
X170245Y-205805D01*
X170213Y-205837D01*
X170174Y-205864D01*
X170168Y-205867D01*
X170157Y-205876D01*
X170136Y-205888D01*
X170106Y-205902D01*
X170071Y-205920D01*
X170029Y-205935D01*
X169982Y-205953D01*
X169929Y-205967D01*
X169923D01*
X169914Y-205970D01*
X169905Y-205973D01*
X169875Y-205976D01*
X169834Y-205982D01*
X169787Y-205988D01*
X169730Y-205994D01*
X169668Y-205997D01*
X169600Y-206000D01*
X168863D01*
Y-203952D01*
X169650D01*
X169704Y-203955D01*
D02*
G37*
G36*
X107020Y-206000D02*
X106713D01*
X106473Y-205378D01*
X105614D01*
X105392Y-206000D01*
X105105D01*
X105887Y-203952D01*
X106183D01*
X107020Y-206000D01*
D02*
G37*
G36*
X108080Y-203955D02*
X108139Y-203958D01*
X108198Y-203963D01*
X108258Y-203972D01*
X108308Y-203981D01*
X108311D01*
X108317Y-203984D01*
X108326D01*
X108338Y-203990D01*
X108370Y-203999D01*
X108412Y-204014D01*
X108459Y-204035D01*
X108509Y-204061D01*
X108560Y-204091D01*
X108607Y-204129D01*
X108610Y-204132D01*
X108613Y-204135D01*
X108622Y-204144D01*
X108634Y-204153D01*
X108663Y-204183D01*
X108699Y-204224D01*
X108737Y-204274D01*
X108779Y-204333D01*
X108817Y-204402D01*
X108850Y-204479D01*
Y-204482D01*
X108853Y-204487D01*
X108859Y-204499D01*
X108861Y-204517D01*
X108870Y-204538D01*
X108876Y-204561D01*
X108882Y-204588D01*
X108891Y-204621D01*
X108900Y-204653D01*
X108906Y-204692D01*
X108921Y-204775D01*
X108930Y-204866D01*
X108933Y-204967D01*
Y-204970D01*
Y-204976D01*
Y-204991D01*
Y-205005D01*
X108930Y-205026D01*
Y-205050D01*
X108927Y-205106D01*
X108918Y-205171D01*
X108909Y-205239D01*
X108894Y-205310D01*
X108876Y-205381D01*
Y-205384D01*
X108873Y-205390D01*
X108870Y-205399D01*
X108867Y-205411D01*
X108856Y-205444D01*
X108838Y-205485D01*
X108820Y-205532D01*
X108796Y-205580D01*
X108767Y-205630D01*
X108737Y-205677D01*
X108734Y-205683D01*
X108722Y-205698D01*
X108705Y-205719D01*
X108681Y-205745D01*
X108654Y-205775D01*
X108622Y-205805D01*
X108589Y-205837D01*
X108551Y-205864D01*
X108545Y-205867D01*
X108533Y-205876D01*
X108512Y-205888D01*
X108483Y-205902D01*
X108447Y-205920D01*
X108406Y-205935D01*
X108358Y-205953D01*
X108305Y-205967D01*
X108299D01*
X108290Y-205970D01*
X108281Y-205973D01*
X108252Y-205976D01*
X108210Y-205982D01*
X108163Y-205988D01*
X108107Y-205994D01*
X108045Y-205997D01*
X107976Y-206000D01*
X107239D01*
Y-203952D01*
X108027D01*
X108080Y-203955D01*
D02*
G37*
G36*
X65020Y-206000D02*
X64713D01*
X64473Y-205378D01*
X63614D01*
X63392Y-206000D01*
X63105D01*
X63887Y-203952D01*
X64183D01*
X65020Y-206000D01*
D02*
G37*
G36*
X66080Y-203955D02*
X66139Y-203958D01*
X66198Y-203963D01*
X66258Y-203972D01*
X66308Y-203981D01*
X66311D01*
X66317Y-203984D01*
X66326D01*
X66338Y-203990D01*
X66370Y-203999D01*
X66412Y-204014D01*
X66459Y-204035D01*
X66509Y-204061D01*
X66560Y-204091D01*
X66607Y-204129D01*
X66610Y-204132D01*
X66613Y-204135D01*
X66622Y-204144D01*
X66634Y-204153D01*
X66663Y-204183D01*
X66699Y-204224D01*
X66737Y-204274D01*
X66779Y-204333D01*
X66817Y-204402D01*
X66850Y-204479D01*
Y-204482D01*
X66853Y-204487D01*
X66859Y-204499D01*
X66861Y-204517D01*
X66870Y-204538D01*
X66876Y-204561D01*
X66882Y-204588D01*
X66891Y-204621D01*
X66900Y-204653D01*
X66906Y-204692D01*
X66921Y-204775D01*
X66930Y-204866D01*
X66933Y-204967D01*
Y-204970D01*
Y-204976D01*
Y-204991D01*
Y-205005D01*
X66930Y-205026D01*
Y-205050D01*
X66927Y-205106D01*
X66918Y-205171D01*
X66909Y-205239D01*
X66894Y-205310D01*
X66876Y-205381D01*
Y-205384D01*
X66873Y-205390D01*
X66870Y-205399D01*
X66867Y-205411D01*
X66856Y-205444D01*
X66838Y-205485D01*
X66820Y-205532D01*
X66796Y-205580D01*
X66767Y-205630D01*
X66737Y-205677D01*
X66734Y-205683D01*
X66722Y-205698D01*
X66705Y-205719D01*
X66681Y-205745D01*
X66654Y-205775D01*
X66622Y-205805D01*
X66589Y-205837D01*
X66551Y-205864D01*
X66545Y-205867D01*
X66533Y-205876D01*
X66512Y-205888D01*
X66483Y-205902D01*
X66447Y-205920D01*
X66406Y-205935D01*
X66358Y-205953D01*
X66305Y-205967D01*
X66299D01*
X66290Y-205970D01*
X66281Y-205973D01*
X66252Y-205976D01*
X66210Y-205982D01*
X66163Y-205988D01*
X66107Y-205994D01*
X66045Y-205997D01*
X65977Y-206000D01*
X65239D01*
Y-203952D01*
X66027D01*
X66080Y-203955D01*
D02*
G37*
G36*
X59772Y-205757D02*
X60782D01*
Y-206000D01*
X59500D01*
Y-203952D01*
X59772D01*
Y-205757D01*
D02*
G37*
G36*
X81580Y-203919D02*
X81604D01*
X81660Y-203925D01*
X81722Y-203934D01*
X81788Y-203949D01*
X81859Y-203966D01*
X81927Y-203990D01*
X81930D01*
X81936Y-203993D01*
X81945Y-203996D01*
X81956Y-204002D01*
X81989Y-204020D01*
X82030Y-204041D01*
X82075Y-204070D01*
X82122Y-204106D01*
X82166Y-204144D01*
X82208Y-204191D01*
X82214Y-204197D01*
X82226Y-204215D01*
X82243Y-204242D01*
X82267Y-204280D01*
X82291Y-204328D01*
X82317Y-204387D01*
X82344Y-204452D01*
X82365Y-204526D01*
X82119Y-204591D01*
Y-204588D01*
X82116Y-204585D01*
X82113Y-204576D01*
X82110Y-204564D01*
X82101Y-204538D01*
X82090Y-204502D01*
X82072Y-204461D01*
X82051Y-204422D01*
X82030Y-204381D01*
X82004Y-204345D01*
X82001Y-204342D01*
X81992Y-204331D01*
X81974Y-204316D01*
X81953Y-204295D01*
X81927Y-204271D01*
X81891Y-204248D01*
X81853Y-204224D01*
X81808Y-204203D01*
X81802Y-204200D01*
X81788Y-204194D01*
X81761Y-204186D01*
X81725Y-204174D01*
X81684Y-204165D01*
X81637Y-204156D01*
X81583Y-204150D01*
X81527Y-204147D01*
X81495D01*
X81480Y-204150D01*
X81462D01*
X81418Y-204153D01*
X81367Y-204162D01*
X81311Y-204171D01*
X81258Y-204186D01*
X81204Y-204206D01*
X81199Y-204209D01*
X81181Y-204215D01*
X81157Y-204230D01*
X81128Y-204245D01*
X81092Y-204268D01*
X81054Y-204292D01*
X81018Y-204322D01*
X80985Y-204354D01*
X80983Y-204357D01*
X80971Y-204369D01*
X80956Y-204390D01*
X80938Y-204413D01*
X80917Y-204443D01*
X80897Y-204479D01*
X80876Y-204517D01*
X80855Y-204558D01*
Y-204561D01*
X80852Y-204567D01*
X80849Y-204576D01*
X80843Y-204591D01*
X80837Y-204609D01*
X80831Y-204629D01*
X80823Y-204653D01*
X80817Y-204680D01*
X80802Y-204742D01*
X80790Y-204813D01*
X80781Y-204887D01*
X80778Y-204970D01*
Y-204973D01*
Y-204982D01*
Y-204997D01*
X80781Y-205014D01*
Y-205038D01*
X80784Y-205068D01*
X80787Y-205097D01*
X80790Y-205130D01*
X80802Y-205204D01*
X80817Y-205281D01*
X80840Y-205358D01*
X80870Y-205432D01*
Y-205435D01*
X80876Y-205441D01*
X80879Y-205449D01*
X80888Y-205461D01*
X80909Y-205494D01*
X80941Y-205535D01*
X80980Y-205580D01*
X81027Y-205624D01*
X81083Y-205665D01*
X81145Y-205704D01*
X81148D01*
X81154Y-205707D01*
X81163Y-205713D01*
X81178Y-205719D01*
X81193Y-205725D01*
X81213Y-205731D01*
X81261Y-205748D01*
X81320Y-205763D01*
X81385Y-205778D01*
X81456Y-205790D01*
X81530Y-205793D01*
X81560D01*
X81577Y-205790D01*
X81595D01*
X81640Y-205784D01*
X81693Y-205778D01*
X81749Y-205766D01*
X81811Y-205748D01*
X81873Y-205728D01*
X81876D01*
X81882Y-205725D01*
X81888Y-205722D01*
X81900Y-205716D01*
X81933Y-205701D01*
X81968Y-205683D01*
X82010Y-205663D01*
X82054Y-205639D01*
X82095Y-205612D01*
X82131Y-205583D01*
Y-205198D01*
X81527D01*
Y-204955D01*
X82397D01*
Y-205716D01*
X82394Y-205719D01*
X82389Y-205722D01*
X82377Y-205731D01*
X82362Y-205743D01*
X82344Y-205754D01*
X82323Y-205769D01*
X82297Y-205787D01*
X82270Y-205805D01*
X82208Y-205843D01*
X82137Y-205885D01*
X82063Y-205923D01*
X81983Y-205956D01*
X81980D01*
X81974Y-205959D01*
X81962Y-205961D01*
X81947Y-205967D01*
X81927Y-205973D01*
X81903Y-205982D01*
X81876Y-205988D01*
X81850Y-205994D01*
X81785Y-206009D01*
X81711Y-206024D01*
X81631Y-206033D01*
X81548Y-206035D01*
X81518D01*
X81498Y-206033D01*
X81471D01*
X81438Y-206030D01*
X81403Y-206024D01*
X81364Y-206021D01*
X81279Y-206003D01*
X81187Y-205982D01*
X81092Y-205950D01*
X81045Y-205932D01*
X80997Y-205908D01*
X80994Y-205905D01*
X80985Y-205902D01*
X80974Y-205893D01*
X80956Y-205885D01*
X80935Y-205870D01*
X80914Y-205855D01*
X80858Y-205814D01*
X80799Y-205760D01*
X80737Y-205695D01*
X80678Y-205621D01*
X80624Y-205535D01*
Y-205532D01*
X80618Y-205523D01*
X80612Y-205512D01*
X80604Y-205491D01*
X80595Y-205470D01*
X80586Y-205441D01*
X80574Y-205411D01*
X80562Y-205375D01*
X80550Y-205337D01*
X80538Y-205293D01*
X80530Y-205248D01*
X80521Y-205201D01*
X80506Y-205097D01*
X80500Y-204988D01*
Y-204985D01*
Y-204973D01*
Y-204958D01*
X80503Y-204937D01*
Y-204911D01*
X80506Y-204878D01*
X80512Y-204846D01*
X80515Y-204807D01*
X80524Y-204766D01*
X80530Y-204721D01*
X80553Y-204627D01*
X80583Y-204529D01*
X80624Y-204431D01*
X80627Y-204428D01*
X80630Y-204419D01*
X80636Y-204408D01*
X80648Y-204390D01*
X80660Y-204366D01*
X80675Y-204342D01*
X80716Y-204286D01*
X80766Y-204221D01*
X80829Y-204159D01*
X80900Y-204097D01*
X80941Y-204070D01*
X80983Y-204043D01*
X80985Y-204041D01*
X80994Y-204037D01*
X81006Y-204032D01*
X81024Y-204023D01*
X81048Y-204014D01*
X81074Y-204002D01*
X81104Y-203990D01*
X81139Y-203978D01*
X81178Y-203966D01*
X81219Y-203958D01*
X81264Y-203946D01*
X81311Y-203937D01*
X81415Y-203922D01*
X81468Y-203916D01*
X81563D01*
X81580Y-203919D01*
D02*
G37*
G36*
X62049D02*
X62075D01*
X62102Y-203922D01*
X62137Y-203928D01*
X62173Y-203934D01*
X62250Y-203949D01*
X62339Y-203972D01*
X62424Y-204008D01*
X62469Y-204029D01*
X62513Y-204052D01*
X62516Y-204055D01*
X62522Y-204058D01*
X62534Y-204067D01*
X62552Y-204076D01*
X62569Y-204091D01*
X62593Y-204109D01*
X62643Y-204150D01*
X62697Y-204203D01*
X62756Y-204268D01*
X62812Y-204345D01*
X62860Y-204431D01*
Y-204434D01*
X62866Y-204443D01*
X62871Y-204455D01*
X62877Y-204473D01*
X62889Y-204496D01*
X62898Y-204523D01*
X62910Y-204556D01*
X62922Y-204591D01*
X62931Y-204629D01*
X62942Y-204671D01*
X62954Y-204718D01*
X62963Y-204766D01*
X62975Y-204869D01*
X62981Y-204982D01*
Y-204985D01*
Y-204997D01*
Y-205011D01*
X62978Y-205035D01*
Y-205062D01*
X62975Y-205094D01*
X62969Y-205130D01*
X62966Y-205168D01*
X62951Y-205254D01*
X62928Y-205349D01*
X62895Y-205444D01*
X62877Y-205491D01*
X62854Y-205538D01*
Y-205541D01*
X62848Y-205550D01*
X62842Y-205562D01*
X62830Y-205580D01*
X62818Y-205600D01*
X62803Y-205621D01*
X62762Y-205677D01*
X62712Y-205737D01*
X62652Y-205799D01*
X62581Y-205858D01*
X62498Y-205911D01*
X62495D01*
X62490Y-205917D01*
X62475Y-205923D01*
X62457Y-205932D01*
X62436Y-205941D01*
X62413Y-205950D01*
X62383Y-205961D01*
X62350Y-205973D01*
X62315Y-205985D01*
X62277Y-205997D01*
X62191Y-206015D01*
X62099Y-206030D01*
X62001Y-206035D01*
X61972D01*
X61954Y-206033D01*
X61927D01*
X61898Y-206027D01*
X61865Y-206024D01*
X61827Y-206018D01*
X61747Y-206000D01*
X61661Y-205976D01*
X61572Y-205941D01*
X61528Y-205920D01*
X61483Y-205896D01*
X61480Y-205893D01*
X61474Y-205890D01*
X61462Y-205882D01*
X61445Y-205870D01*
X61427Y-205858D01*
X61406Y-205840D01*
X61356Y-205796D01*
X61300Y-205743D01*
X61241Y-205677D01*
X61187Y-205603D01*
X61137Y-205518D01*
Y-205515D01*
X61131Y-205506D01*
X61125Y-205494D01*
X61119Y-205476D01*
X61110Y-205452D01*
X61101Y-205426D01*
X61089Y-205396D01*
X61081Y-205364D01*
X61069Y-205325D01*
X61057Y-205287D01*
X61039Y-205198D01*
X61027Y-205106D01*
X61021Y-205005D01*
Y-205002D01*
Y-204999D01*
Y-204982D01*
X61024Y-204955D01*
Y-204920D01*
X61030Y-204878D01*
X61036Y-204828D01*
X61045Y-204772D01*
X61057Y-204712D01*
X61069Y-204650D01*
X61087Y-204585D01*
X61110Y-204520D01*
X61137Y-204452D01*
X61167Y-204387D01*
X61205Y-204322D01*
X61246Y-204262D01*
X61294Y-204206D01*
X61297Y-204203D01*
X61306Y-204194D01*
X61323Y-204180D01*
X61344Y-204162D01*
X61371Y-204138D01*
X61403Y-204115D01*
X61442Y-204088D01*
X61486Y-204061D01*
X61533Y-204035D01*
X61587Y-204008D01*
X61646Y-203984D01*
X61708Y-203961D01*
X61776Y-203943D01*
X61847Y-203928D01*
X61921Y-203919D01*
X62001Y-203916D01*
X62028D01*
X62049Y-203919D01*
D02*
G37*
G36*
X101772Y-205757D02*
X102782D01*
Y-206000D01*
X101500D01*
Y-203952D01*
X101772D01*
Y-205757D01*
D02*
G37*
G36*
X146049Y-203919D02*
X146075D01*
X146102Y-203922D01*
X146137Y-203928D01*
X146173Y-203934D01*
X146250Y-203949D01*
X146339Y-203972D01*
X146424Y-204008D01*
X146469Y-204029D01*
X146513Y-204052D01*
X146516Y-204055D01*
X146522Y-204058D01*
X146534Y-204067D01*
X146552Y-204076D01*
X146570Y-204091D01*
X146593Y-204109D01*
X146643Y-204150D01*
X146697Y-204203D01*
X146756Y-204268D01*
X146812Y-204345D01*
X146860Y-204431D01*
Y-204434D01*
X146865Y-204443D01*
X146871Y-204455D01*
X146877Y-204473D01*
X146889Y-204496D01*
X146898Y-204523D01*
X146910Y-204556D01*
X146922Y-204591D01*
X146931Y-204629D01*
X146942Y-204671D01*
X146954Y-204718D01*
X146963Y-204766D01*
X146975Y-204869D01*
X146981Y-204982D01*
Y-204985D01*
Y-204997D01*
Y-205011D01*
X146978Y-205035D01*
Y-205062D01*
X146975Y-205094D01*
X146969Y-205130D01*
X146966Y-205168D01*
X146951Y-205254D01*
X146928Y-205349D01*
X146895Y-205444D01*
X146877Y-205491D01*
X146854Y-205538D01*
Y-205541D01*
X146848Y-205550D01*
X146842Y-205562D01*
X146830Y-205580D01*
X146818Y-205600D01*
X146803Y-205621D01*
X146762Y-205677D01*
X146712Y-205737D01*
X146652Y-205799D01*
X146581Y-205858D01*
X146499Y-205911D01*
X146495D01*
X146490Y-205917D01*
X146475Y-205923D01*
X146457Y-205932D01*
X146436Y-205941D01*
X146413Y-205950D01*
X146383Y-205961D01*
X146351Y-205973D01*
X146315Y-205985D01*
X146276Y-205997D01*
X146191Y-206015D01*
X146099Y-206030D01*
X146001Y-206035D01*
X145972D01*
X145954Y-206033D01*
X145927D01*
X145898Y-206027D01*
X145865Y-206024D01*
X145827Y-206018D01*
X145747Y-206000D01*
X145661Y-205976D01*
X145572Y-205941D01*
X145528Y-205920D01*
X145483Y-205896D01*
X145480Y-205893D01*
X145474Y-205890D01*
X145463Y-205882D01*
X145445Y-205870D01*
X145427Y-205858D01*
X145406Y-205840D01*
X145356Y-205796D01*
X145300Y-205743D01*
X145240Y-205677D01*
X145187Y-205603D01*
X145137Y-205518D01*
Y-205515D01*
X145131Y-205506D01*
X145125Y-205494D01*
X145119Y-205476D01*
X145110Y-205452D01*
X145101Y-205426D01*
X145089Y-205396D01*
X145081Y-205364D01*
X145069Y-205325D01*
X145057Y-205287D01*
X145039Y-205198D01*
X145027Y-205106D01*
X145021Y-205005D01*
Y-205002D01*
Y-204999D01*
Y-204982D01*
X145024Y-204955D01*
Y-204920D01*
X145030Y-204878D01*
X145036Y-204828D01*
X145045Y-204772D01*
X145057Y-204712D01*
X145069Y-204650D01*
X145087Y-204585D01*
X145110Y-204520D01*
X145137Y-204452D01*
X145167Y-204387D01*
X145205Y-204322D01*
X145246Y-204262D01*
X145294Y-204206D01*
X145297Y-204203D01*
X145306Y-204194D01*
X145323Y-204180D01*
X145344Y-204162D01*
X145371Y-204138D01*
X145403Y-204115D01*
X145442Y-204088D01*
X145486Y-204061D01*
X145534Y-204035D01*
X145587Y-204008D01*
X145646Y-203984D01*
X145708Y-203961D01*
X145776Y-203943D01*
X145847Y-203928D01*
X145921Y-203919D01*
X146001Y-203916D01*
X146028D01*
X146049Y-203919D01*
D02*
G37*
G36*
X165580D02*
X165604D01*
X165660Y-203925D01*
X165723Y-203934D01*
X165788Y-203949D01*
X165859Y-203966D01*
X165927Y-203990D01*
X165930D01*
X165936Y-203993D01*
X165945Y-203996D01*
X165956Y-204002D01*
X165989Y-204020D01*
X166030Y-204041D01*
X166075Y-204070D01*
X166122Y-204106D01*
X166166Y-204144D01*
X166208Y-204191D01*
X166214Y-204197D01*
X166226Y-204215D01*
X166243Y-204242D01*
X166267Y-204280D01*
X166291Y-204328D01*
X166317Y-204387D01*
X166344Y-204452D01*
X166365Y-204526D01*
X166119Y-204591D01*
Y-204588D01*
X166116Y-204585D01*
X166113Y-204576D01*
X166110Y-204564D01*
X166101Y-204538D01*
X166089Y-204502D01*
X166072Y-204461D01*
X166051Y-204422D01*
X166030Y-204381D01*
X166004Y-204345D01*
X166001Y-204342D01*
X165992Y-204331D01*
X165974Y-204316D01*
X165953Y-204295D01*
X165927Y-204271D01*
X165891Y-204248D01*
X165853Y-204224D01*
X165808Y-204203D01*
X165802Y-204200D01*
X165788Y-204194D01*
X165761Y-204186D01*
X165725Y-204174D01*
X165684Y-204165D01*
X165637Y-204156D01*
X165583Y-204150D01*
X165527Y-204147D01*
X165495D01*
X165480Y-204150D01*
X165462D01*
X165418Y-204153D01*
X165367Y-204162D01*
X165311Y-204171D01*
X165258Y-204186D01*
X165205Y-204206D01*
X165199Y-204209D01*
X165181Y-204215D01*
X165157Y-204230D01*
X165128Y-204245D01*
X165092Y-204268D01*
X165053Y-204292D01*
X165018Y-204322D01*
X164985Y-204354D01*
X164982Y-204357D01*
X164971Y-204369D01*
X164956Y-204390D01*
X164938Y-204413D01*
X164917Y-204443D01*
X164897Y-204479D01*
X164876Y-204517D01*
X164855Y-204558D01*
Y-204561D01*
X164852Y-204567D01*
X164849Y-204576D01*
X164843Y-204591D01*
X164837Y-204609D01*
X164831Y-204629D01*
X164823Y-204653D01*
X164817Y-204680D01*
X164802Y-204742D01*
X164790Y-204813D01*
X164781Y-204887D01*
X164778Y-204970D01*
Y-204973D01*
Y-204982D01*
Y-204997D01*
X164781Y-205014D01*
Y-205038D01*
X164784Y-205068D01*
X164787Y-205097D01*
X164790Y-205130D01*
X164802Y-205204D01*
X164817Y-205281D01*
X164840Y-205358D01*
X164870Y-205432D01*
Y-205435D01*
X164876Y-205441D01*
X164879Y-205449D01*
X164888Y-205461D01*
X164909Y-205494D01*
X164941Y-205535D01*
X164980Y-205580D01*
X165027Y-205624D01*
X165083Y-205665D01*
X165145Y-205704D01*
X165148D01*
X165154Y-205707D01*
X165163Y-205713D01*
X165178Y-205719D01*
X165193Y-205725D01*
X165213Y-205731D01*
X165261Y-205748D01*
X165320Y-205763D01*
X165385Y-205778D01*
X165456Y-205790D01*
X165530Y-205793D01*
X165560D01*
X165577Y-205790D01*
X165595D01*
X165640Y-205784D01*
X165693Y-205778D01*
X165749Y-205766D01*
X165811Y-205748D01*
X165873Y-205728D01*
X165876D01*
X165882Y-205725D01*
X165888Y-205722D01*
X165900Y-205716D01*
X165933Y-205701D01*
X165968Y-205683D01*
X166010Y-205663D01*
X166054Y-205639D01*
X166095Y-205612D01*
X166131Y-205583D01*
Y-205198D01*
X165527D01*
Y-204955D01*
X166397D01*
Y-205716D01*
X166394Y-205719D01*
X166388Y-205722D01*
X166377Y-205731D01*
X166362Y-205743D01*
X166344Y-205754D01*
X166323Y-205769D01*
X166297Y-205787D01*
X166270Y-205805D01*
X166208Y-205843D01*
X166137Y-205885D01*
X166063Y-205923D01*
X165983Y-205956D01*
X165980D01*
X165974Y-205959D01*
X165962Y-205961D01*
X165947Y-205967D01*
X165927Y-205973D01*
X165903Y-205982D01*
X165876Y-205988D01*
X165850Y-205994D01*
X165785Y-206009D01*
X165711Y-206024D01*
X165631Y-206033D01*
X165548Y-206035D01*
X165518D01*
X165498Y-206033D01*
X165471D01*
X165438Y-206030D01*
X165403Y-206024D01*
X165364Y-206021D01*
X165278Y-206003D01*
X165187Y-205982D01*
X165092Y-205950D01*
X165045Y-205932D01*
X164997Y-205908D01*
X164994Y-205905D01*
X164985Y-205902D01*
X164974Y-205893D01*
X164956Y-205885D01*
X164935Y-205870D01*
X164914Y-205855D01*
X164858Y-205814D01*
X164799Y-205760D01*
X164737Y-205695D01*
X164678Y-205621D01*
X164624Y-205535D01*
Y-205532D01*
X164618Y-205523D01*
X164612Y-205512D01*
X164604Y-205491D01*
X164595Y-205470D01*
X164586Y-205441D01*
X164574Y-205411D01*
X164562Y-205375D01*
X164550Y-205337D01*
X164539Y-205293D01*
X164530Y-205248D01*
X164521Y-205201D01*
X164506Y-205097D01*
X164500Y-204988D01*
Y-204985D01*
Y-204973D01*
Y-204958D01*
X164503Y-204937D01*
Y-204911D01*
X164506Y-204878D01*
X164512Y-204846D01*
X164515Y-204807D01*
X164524Y-204766D01*
X164530Y-204721D01*
X164553Y-204627D01*
X164583Y-204529D01*
X164624Y-204431D01*
X164627Y-204428D01*
X164630Y-204419D01*
X164636Y-204408D01*
X164648Y-204390D01*
X164660Y-204366D01*
X164675Y-204342D01*
X164716Y-204286D01*
X164766Y-204221D01*
X164829Y-204159D01*
X164900Y-204097D01*
X164941Y-204070D01*
X164982Y-204043D01*
X164985Y-204041D01*
X164994Y-204037D01*
X165006Y-204032D01*
X165024Y-204023D01*
X165048Y-204014D01*
X165074Y-204002D01*
X165104Y-203990D01*
X165139Y-203978D01*
X165178Y-203966D01*
X165219Y-203958D01*
X165264Y-203946D01*
X165311Y-203937D01*
X165415Y-203922D01*
X165468Y-203916D01*
X165563D01*
X165580Y-203919D01*
D02*
G37*
G36*
X150080Y-203955D02*
X150139Y-203958D01*
X150198Y-203963D01*
X150258Y-203972D01*
X150308Y-203981D01*
X150311D01*
X150317Y-203984D01*
X150326D01*
X150338Y-203990D01*
X150370Y-203999D01*
X150412Y-204014D01*
X150459Y-204035D01*
X150509Y-204061D01*
X150560Y-204091D01*
X150607Y-204129D01*
X150610Y-204132D01*
X150613Y-204135D01*
X150622Y-204144D01*
X150634Y-204153D01*
X150663Y-204183D01*
X150699Y-204224D01*
X150737Y-204274D01*
X150779Y-204333D01*
X150817Y-204402D01*
X150850Y-204479D01*
Y-204482D01*
X150853Y-204487D01*
X150859Y-204499D01*
X150862Y-204517D01*
X150870Y-204538D01*
X150876Y-204561D01*
X150882Y-204588D01*
X150891Y-204621D01*
X150900Y-204653D01*
X150906Y-204692D01*
X150921Y-204775D01*
X150930Y-204866D01*
X150933Y-204967D01*
Y-204970D01*
Y-204976D01*
Y-204991D01*
Y-205005D01*
X150930Y-205026D01*
Y-205050D01*
X150927Y-205106D01*
X150918Y-205171D01*
X150909Y-205239D01*
X150894Y-205310D01*
X150876Y-205381D01*
Y-205384D01*
X150873Y-205390D01*
X150870Y-205399D01*
X150867Y-205411D01*
X150856Y-205444D01*
X150838Y-205485D01*
X150820Y-205532D01*
X150796Y-205580D01*
X150767Y-205630D01*
X150737Y-205677D01*
X150734Y-205683D01*
X150722Y-205698D01*
X150705Y-205719D01*
X150681Y-205745D01*
X150654Y-205775D01*
X150622Y-205805D01*
X150589Y-205837D01*
X150551Y-205864D01*
X150545Y-205867D01*
X150533Y-205876D01*
X150512Y-205888D01*
X150483Y-205902D01*
X150447Y-205920D01*
X150406Y-205935D01*
X150358Y-205953D01*
X150305Y-205967D01*
X150299D01*
X150290Y-205970D01*
X150281Y-205973D01*
X150252Y-205976D01*
X150210Y-205982D01*
X150163Y-205988D01*
X150107Y-205994D01*
X150045Y-205997D01*
X149977Y-206000D01*
X149239D01*
Y-203952D01*
X150027D01*
X150080Y-203955D01*
D02*
G37*
G36*
X143772Y-205757D02*
X144782D01*
Y-206000D01*
X143500D01*
Y-203952D01*
X143772D01*
Y-205757D01*
D02*
G37*
G36*
X149020Y-206000D02*
X148713D01*
X148473Y-205378D01*
X147614D01*
X147392Y-206000D01*
X147105D01*
X147887Y-203952D01*
X148183D01*
X149020Y-206000D01*
D02*
G37*
G36*
X123580Y-203919D02*
X123604D01*
X123660Y-203925D01*
X123723Y-203934D01*
X123788Y-203949D01*
X123859Y-203966D01*
X123927Y-203990D01*
X123930D01*
X123936Y-203993D01*
X123944Y-203996D01*
X123956Y-204002D01*
X123989Y-204020D01*
X124030Y-204041D01*
X124075Y-204070D01*
X124122Y-204106D01*
X124167Y-204144D01*
X124208Y-204191D01*
X124214Y-204197D01*
X124226Y-204215D01*
X124243Y-204242D01*
X124267Y-204280D01*
X124291Y-204328D01*
X124317Y-204387D01*
X124344Y-204452D01*
X124365Y-204526D01*
X124119Y-204591D01*
Y-204588D01*
X124116Y-204585D01*
X124113Y-204576D01*
X124110Y-204564D01*
X124101Y-204538D01*
X124090Y-204502D01*
X124072Y-204461D01*
X124051Y-204422D01*
X124030Y-204381D01*
X124004Y-204345D01*
X124001Y-204342D01*
X123992Y-204331D01*
X123974Y-204316D01*
X123953Y-204295D01*
X123927Y-204271D01*
X123891Y-204248D01*
X123853Y-204224D01*
X123808Y-204203D01*
X123802Y-204200D01*
X123788Y-204194D01*
X123761Y-204186D01*
X123725Y-204174D01*
X123684Y-204165D01*
X123637Y-204156D01*
X123583Y-204150D01*
X123527Y-204147D01*
X123495D01*
X123480Y-204150D01*
X123462D01*
X123418Y-204153D01*
X123367Y-204162D01*
X123311Y-204171D01*
X123258Y-204186D01*
X123205Y-204206D01*
X123199Y-204209D01*
X123181Y-204215D01*
X123157Y-204230D01*
X123127Y-204245D01*
X123092Y-204268D01*
X123054Y-204292D01*
X123018Y-204322D01*
X122985Y-204354D01*
X122983Y-204357D01*
X122971Y-204369D01*
X122956Y-204390D01*
X122938Y-204413D01*
X122917Y-204443D01*
X122897Y-204479D01*
X122876Y-204517D01*
X122855Y-204558D01*
Y-204561D01*
X122852Y-204567D01*
X122849Y-204576D01*
X122843Y-204591D01*
X122837Y-204609D01*
X122831Y-204629D01*
X122823Y-204653D01*
X122817Y-204680D01*
X122802Y-204742D01*
X122790Y-204813D01*
X122781Y-204887D01*
X122778Y-204970D01*
Y-204973D01*
Y-204982D01*
Y-204997D01*
X122781Y-205014D01*
Y-205038D01*
X122784Y-205068D01*
X122787Y-205097D01*
X122790Y-205130D01*
X122802Y-205204D01*
X122817Y-205281D01*
X122840Y-205358D01*
X122870Y-205432D01*
Y-205435D01*
X122876Y-205441D01*
X122879Y-205449D01*
X122888Y-205461D01*
X122908Y-205494D01*
X122941Y-205535D01*
X122979Y-205580D01*
X123027Y-205624D01*
X123083Y-205665D01*
X123145Y-205704D01*
X123148D01*
X123154Y-205707D01*
X123163Y-205713D01*
X123178Y-205719D01*
X123193Y-205725D01*
X123213Y-205731D01*
X123261Y-205748D01*
X123320Y-205763D01*
X123385Y-205778D01*
X123456Y-205790D01*
X123530Y-205793D01*
X123560D01*
X123577Y-205790D01*
X123595D01*
X123640Y-205784D01*
X123693Y-205778D01*
X123749Y-205766D01*
X123811Y-205748D01*
X123873Y-205728D01*
X123876D01*
X123882Y-205725D01*
X123888Y-205722D01*
X123900Y-205716D01*
X123933Y-205701D01*
X123968Y-205683D01*
X124010Y-205663D01*
X124054Y-205639D01*
X124095Y-205612D01*
X124131Y-205583D01*
Y-205198D01*
X123527D01*
Y-204955D01*
X124397D01*
Y-205716D01*
X124394Y-205719D01*
X124389Y-205722D01*
X124377Y-205731D01*
X124362Y-205743D01*
X124344Y-205754D01*
X124323Y-205769D01*
X124297Y-205787D01*
X124270Y-205805D01*
X124208Y-205843D01*
X124137Y-205885D01*
X124063Y-205923D01*
X123983Y-205956D01*
X123980D01*
X123974Y-205959D01*
X123962Y-205961D01*
X123947Y-205967D01*
X123927Y-205973D01*
X123903Y-205982D01*
X123876Y-205988D01*
X123850Y-205994D01*
X123785Y-206009D01*
X123711Y-206024D01*
X123631Y-206033D01*
X123548Y-206035D01*
X123518D01*
X123497Y-206033D01*
X123471D01*
X123438Y-206030D01*
X123403Y-206024D01*
X123364Y-206021D01*
X123278Y-206003D01*
X123187Y-205982D01*
X123092Y-205950D01*
X123045Y-205932D01*
X122997Y-205908D01*
X122994Y-205905D01*
X122985Y-205902D01*
X122974Y-205893D01*
X122956Y-205885D01*
X122935Y-205870D01*
X122914Y-205855D01*
X122858Y-205814D01*
X122799Y-205760D01*
X122737Y-205695D01*
X122678Y-205621D01*
X122624Y-205535D01*
Y-205532D01*
X122618Y-205523D01*
X122613Y-205512D01*
X122604Y-205491D01*
X122595Y-205470D01*
X122586Y-205441D01*
X122574Y-205411D01*
X122562Y-205375D01*
X122550Y-205337D01*
X122538Y-205293D01*
X122530Y-205248D01*
X122521Y-205201D01*
X122506Y-205097D01*
X122500Y-204988D01*
Y-204985D01*
Y-204973D01*
Y-204958D01*
X122503Y-204937D01*
Y-204911D01*
X122506Y-204878D01*
X122512Y-204846D01*
X122515Y-204807D01*
X122524Y-204766D01*
X122530Y-204721D01*
X122553Y-204627D01*
X122583Y-204529D01*
X122624Y-204431D01*
X122627Y-204428D01*
X122630Y-204419D01*
X122636Y-204408D01*
X122648Y-204390D01*
X122660Y-204366D01*
X122675Y-204342D01*
X122716Y-204286D01*
X122766Y-204221D01*
X122829Y-204159D01*
X122900Y-204097D01*
X122941Y-204070D01*
X122983Y-204043D01*
X122985Y-204041D01*
X122994Y-204037D01*
X123006Y-204032D01*
X123024Y-204023D01*
X123048Y-204014D01*
X123074Y-204002D01*
X123104Y-203990D01*
X123139Y-203978D01*
X123178Y-203966D01*
X123219Y-203958D01*
X123264Y-203946D01*
X123311Y-203937D01*
X123415Y-203922D01*
X123468Y-203916D01*
X123563D01*
X123580Y-203919D01*
D02*
G37*
G36*
X104049D02*
X104075D01*
X104102Y-203922D01*
X104137Y-203928D01*
X104173Y-203934D01*
X104250Y-203949D01*
X104339Y-203972D01*
X104425Y-204008D01*
X104469Y-204029D01*
X104513Y-204052D01*
X104516Y-204055D01*
X104522Y-204058D01*
X104534Y-204067D01*
X104552Y-204076D01*
X104569Y-204091D01*
X104593Y-204109D01*
X104643Y-204150D01*
X104697Y-204203D01*
X104756Y-204268D01*
X104812Y-204345D01*
X104860Y-204431D01*
Y-204434D01*
X104866Y-204443D01*
X104871Y-204455D01*
X104877Y-204473D01*
X104889Y-204496D01*
X104898Y-204523D01*
X104910Y-204556D01*
X104922Y-204591D01*
X104931Y-204629D01*
X104943Y-204671D01*
X104954Y-204718D01*
X104963Y-204766D01*
X104975Y-204869D01*
X104981Y-204982D01*
Y-204985D01*
Y-204997D01*
Y-205011D01*
X104978Y-205035D01*
Y-205062D01*
X104975Y-205094D01*
X104969Y-205130D01*
X104966Y-205168D01*
X104951Y-205254D01*
X104928Y-205349D01*
X104895Y-205444D01*
X104877Y-205491D01*
X104854Y-205538D01*
Y-205541D01*
X104848Y-205550D01*
X104842Y-205562D01*
X104830Y-205580D01*
X104818Y-205600D01*
X104803Y-205621D01*
X104762Y-205677D01*
X104712Y-205737D01*
X104652Y-205799D01*
X104581Y-205858D01*
X104499Y-205911D01*
X104496D01*
X104490Y-205917D01*
X104475Y-205923D01*
X104457Y-205932D01*
X104436Y-205941D01*
X104413Y-205950D01*
X104383Y-205961D01*
X104350Y-205973D01*
X104315Y-205985D01*
X104277Y-205997D01*
X104191Y-206015D01*
X104099Y-206030D01*
X104001Y-206035D01*
X103972D01*
X103954Y-206033D01*
X103927D01*
X103898Y-206027D01*
X103865Y-206024D01*
X103827Y-206018D01*
X103747Y-206000D01*
X103661Y-205976D01*
X103572Y-205941D01*
X103528Y-205920D01*
X103483Y-205896D01*
X103480Y-205893D01*
X103474Y-205890D01*
X103463Y-205882D01*
X103445Y-205870D01*
X103427Y-205858D01*
X103406Y-205840D01*
X103356Y-205796D01*
X103300Y-205743D01*
X103241Y-205677D01*
X103187Y-205603D01*
X103137Y-205518D01*
Y-205515D01*
X103131Y-205506D01*
X103125Y-205494D01*
X103119Y-205476D01*
X103110Y-205452D01*
X103101Y-205426D01*
X103089Y-205396D01*
X103081Y-205364D01*
X103069Y-205325D01*
X103057Y-205287D01*
X103039Y-205198D01*
X103027Y-205106D01*
X103021Y-205005D01*
Y-205002D01*
Y-204999D01*
Y-204982D01*
X103024Y-204955D01*
Y-204920D01*
X103030Y-204878D01*
X103036Y-204828D01*
X103045Y-204772D01*
X103057Y-204712D01*
X103069Y-204650D01*
X103087Y-204585D01*
X103110Y-204520D01*
X103137Y-204452D01*
X103166Y-204387D01*
X103205Y-204322D01*
X103246Y-204262D01*
X103294Y-204206D01*
X103297Y-204203D01*
X103306Y-204194D01*
X103323Y-204180D01*
X103344Y-204162D01*
X103371Y-204138D01*
X103403Y-204115D01*
X103442Y-204088D01*
X103486Y-204061D01*
X103533Y-204035D01*
X103587Y-204008D01*
X103646Y-203984D01*
X103708Y-203961D01*
X103776Y-203943D01*
X103847Y-203928D01*
X103921Y-203919D01*
X104001Y-203916D01*
X104028D01*
X104049Y-203919D01*
D02*
G37*
G36*
X126407Y-206000D02*
X126126D01*
X125055Y-204393D01*
Y-206000D01*
X124794D01*
Y-203952D01*
X125072D01*
X126147Y-205562D01*
Y-203952D01*
X126407D01*
Y-206000D01*
D02*
G37*
G36*
X168407D02*
X168126D01*
X167054Y-204393D01*
Y-206000D01*
X166794D01*
Y-203952D01*
X167072D01*
X168147Y-205562D01*
Y-203952D01*
X168407D01*
Y-206000D01*
D02*
G37*
G36*
X127704Y-203955D02*
X127763Y-203958D01*
X127822Y-203963D01*
X127881Y-203972D01*
X127932Y-203981D01*
X127935D01*
X127940Y-203984D01*
X127949D01*
X127961Y-203990D01*
X127994Y-203999D01*
X128035Y-204014D01*
X128083Y-204035D01*
X128133Y-204061D01*
X128183Y-204091D01*
X128231Y-204129D01*
X128234Y-204132D01*
X128236Y-204135D01*
X128245Y-204144D01*
X128257Y-204153D01*
X128287Y-204183D01*
X128322Y-204224D01*
X128361Y-204274D01*
X128402Y-204333D01*
X128441Y-204402D01*
X128473Y-204479D01*
Y-204482D01*
X128476Y-204487D01*
X128482Y-204499D01*
X128485Y-204517D01*
X128494Y-204538D01*
X128500Y-204561D01*
X128506Y-204588D01*
X128515Y-204621D01*
X128524Y-204653D01*
X128530Y-204692D01*
X128544Y-204775D01*
X128553Y-204866D01*
X128556Y-204967D01*
Y-204970D01*
Y-204976D01*
Y-204991D01*
Y-205005D01*
X128553Y-205026D01*
Y-205050D01*
X128550Y-205106D01*
X128541Y-205171D01*
X128533Y-205239D01*
X128518Y-205310D01*
X128500Y-205381D01*
Y-205384D01*
X128497Y-205390D01*
X128494Y-205399D01*
X128491Y-205411D01*
X128479Y-205444D01*
X128461Y-205485D01*
X128444Y-205532D01*
X128420Y-205580D01*
X128390Y-205630D01*
X128361Y-205677D01*
X128358Y-205683D01*
X128346Y-205698D01*
X128328Y-205719D01*
X128305Y-205745D01*
X128278Y-205775D01*
X128245Y-205805D01*
X128213Y-205837D01*
X128174Y-205864D01*
X128168Y-205867D01*
X128157Y-205876D01*
X128136Y-205888D01*
X128106Y-205902D01*
X128071Y-205920D01*
X128029Y-205935D01*
X127982Y-205953D01*
X127929Y-205967D01*
X127923D01*
X127914Y-205970D01*
X127905Y-205973D01*
X127875Y-205976D01*
X127834Y-205982D01*
X127787Y-205988D01*
X127730Y-205994D01*
X127668Y-205997D01*
X127600Y-206000D01*
X126863D01*
Y-203952D01*
X127650D01*
X127704Y-203955D01*
D02*
G37*
G36*
X39580Y-203919D02*
X39604D01*
X39660Y-203925D01*
X39722Y-203934D01*
X39788Y-203949D01*
X39859Y-203966D01*
X39927Y-203990D01*
X39930D01*
X39936Y-203993D01*
X39944Y-203996D01*
X39956Y-204002D01*
X39989Y-204020D01*
X40030Y-204041D01*
X40075Y-204070D01*
X40122Y-204106D01*
X40167Y-204144D01*
X40208Y-204191D01*
X40214Y-204197D01*
X40226Y-204215D01*
X40243Y-204242D01*
X40267Y-204280D01*
X40291Y-204328D01*
X40317Y-204387D01*
X40344Y-204452D01*
X40365Y-204526D01*
X40119Y-204591D01*
Y-204588D01*
X40116Y-204585D01*
X40113Y-204576D01*
X40110Y-204564D01*
X40101Y-204538D01*
X40089Y-204502D01*
X40072Y-204461D01*
X40051Y-204422D01*
X40030Y-204381D01*
X40004Y-204345D01*
X40001Y-204342D01*
X39992Y-204331D01*
X39974Y-204316D01*
X39953Y-204295D01*
X39927Y-204271D01*
X39891Y-204248D01*
X39853Y-204224D01*
X39808Y-204203D01*
X39802Y-204200D01*
X39788Y-204194D01*
X39761Y-204186D01*
X39725Y-204174D01*
X39684Y-204165D01*
X39637Y-204156D01*
X39583Y-204150D01*
X39527Y-204147D01*
X39495D01*
X39480Y-204150D01*
X39462D01*
X39418Y-204153D01*
X39367Y-204162D01*
X39311Y-204171D01*
X39258Y-204186D01*
X39204Y-204206D01*
X39199Y-204209D01*
X39181Y-204215D01*
X39157Y-204230D01*
X39127Y-204245D01*
X39092Y-204268D01*
X39053Y-204292D01*
X39018Y-204322D01*
X38985Y-204354D01*
X38982Y-204357D01*
X38971Y-204369D01*
X38956Y-204390D01*
X38938Y-204413D01*
X38917Y-204443D01*
X38897Y-204479D01*
X38876Y-204517D01*
X38855Y-204558D01*
Y-204561D01*
X38852Y-204567D01*
X38849Y-204576D01*
X38843Y-204591D01*
X38837Y-204609D01*
X38831Y-204629D01*
X38823Y-204653D01*
X38817Y-204680D01*
X38802Y-204742D01*
X38790Y-204813D01*
X38781Y-204887D01*
X38778Y-204970D01*
Y-204973D01*
Y-204982D01*
Y-204997D01*
X38781Y-205014D01*
Y-205038D01*
X38784Y-205068D01*
X38787Y-205097D01*
X38790Y-205130D01*
X38802Y-205204D01*
X38817Y-205281D01*
X38840Y-205358D01*
X38870Y-205432D01*
Y-205435D01*
X38876Y-205441D01*
X38879Y-205449D01*
X38888Y-205461D01*
X38908Y-205494D01*
X38941Y-205535D01*
X38980Y-205580D01*
X39027Y-205624D01*
X39083Y-205665D01*
X39145Y-205704D01*
X39148D01*
X39154Y-205707D01*
X39163Y-205713D01*
X39178Y-205719D01*
X39193Y-205725D01*
X39213Y-205731D01*
X39261Y-205748D01*
X39320Y-205763D01*
X39385Y-205778D01*
X39456Y-205790D01*
X39530Y-205793D01*
X39560D01*
X39577Y-205790D01*
X39595D01*
X39640Y-205784D01*
X39693Y-205778D01*
X39749Y-205766D01*
X39811Y-205748D01*
X39873Y-205728D01*
X39876D01*
X39882Y-205725D01*
X39888Y-205722D01*
X39900Y-205716D01*
X39933Y-205701D01*
X39968Y-205683D01*
X40010Y-205663D01*
X40054Y-205639D01*
X40095Y-205612D01*
X40131Y-205583D01*
Y-205198D01*
X39527D01*
Y-204955D01*
X40397D01*
Y-205716D01*
X40394Y-205719D01*
X40389Y-205722D01*
X40377Y-205731D01*
X40362Y-205743D01*
X40344Y-205754D01*
X40323Y-205769D01*
X40297Y-205787D01*
X40270Y-205805D01*
X40208Y-205843D01*
X40137Y-205885D01*
X40063Y-205923D01*
X39983Y-205956D01*
X39980D01*
X39974Y-205959D01*
X39962Y-205961D01*
X39947Y-205967D01*
X39927Y-205973D01*
X39903Y-205982D01*
X39876Y-205988D01*
X39850Y-205994D01*
X39785Y-206009D01*
X39711Y-206024D01*
X39631Y-206033D01*
X39548Y-206035D01*
X39518D01*
X39498Y-206033D01*
X39471D01*
X39438Y-206030D01*
X39403Y-206024D01*
X39364Y-206021D01*
X39279Y-206003D01*
X39187Y-205982D01*
X39092Y-205950D01*
X39045Y-205932D01*
X38997Y-205908D01*
X38994Y-205905D01*
X38985Y-205902D01*
X38974Y-205893D01*
X38956Y-205885D01*
X38935Y-205870D01*
X38914Y-205855D01*
X38858Y-205814D01*
X38799Y-205760D01*
X38737Y-205695D01*
X38678Y-205621D01*
X38624Y-205535D01*
Y-205532D01*
X38618Y-205523D01*
X38612Y-205512D01*
X38604Y-205491D01*
X38595Y-205470D01*
X38586Y-205441D01*
X38574Y-205411D01*
X38562Y-205375D01*
X38550Y-205337D01*
X38539Y-205293D01*
X38530Y-205248D01*
X38521Y-205201D01*
X38506Y-205097D01*
X38500Y-204988D01*
Y-204985D01*
Y-204973D01*
Y-204958D01*
X38503Y-204937D01*
Y-204911D01*
X38506Y-204878D01*
X38512Y-204846D01*
X38515Y-204807D01*
X38524Y-204766D01*
X38530Y-204721D01*
X38553Y-204627D01*
X38583Y-204529D01*
X38624Y-204431D01*
X38627Y-204428D01*
X38630Y-204419D01*
X38636Y-204408D01*
X38648Y-204390D01*
X38660Y-204366D01*
X38675Y-204342D01*
X38716Y-204286D01*
X38766Y-204221D01*
X38829Y-204159D01*
X38900Y-204097D01*
X38941Y-204070D01*
X38982Y-204043D01*
X38985Y-204041D01*
X38994Y-204037D01*
X39006Y-204032D01*
X39024Y-204023D01*
X39048Y-204014D01*
X39074Y-204002D01*
X39104Y-203990D01*
X39139Y-203978D01*
X39178Y-203966D01*
X39219Y-203958D01*
X39264Y-203946D01*
X39311Y-203937D01*
X39415Y-203922D01*
X39468Y-203916D01*
X39563D01*
X39580Y-203919D01*
D02*
G37*
G36*
X6341Y-166002D02*
Y-166007D01*
Y-166024D01*
Y-166046D01*
Y-166074D01*
Y-166113D01*
Y-166157D01*
X6335Y-166257D01*
X6329Y-166368D01*
X6318Y-166479D01*
X6302Y-166590D01*
X6285Y-166684D01*
Y-166690D01*
X6279Y-166701D01*
Y-166718D01*
X6268Y-166740D01*
X6252Y-166801D01*
X6224Y-166878D01*
X6185Y-166967D01*
X6135Y-167062D01*
X6080Y-167156D01*
X6008Y-167245D01*
X6002Y-167250D01*
X5996Y-167256D01*
X5980Y-167273D01*
X5963Y-167295D01*
X5908Y-167350D01*
X5830Y-167417D01*
X5736Y-167489D01*
X5625Y-167567D01*
X5497Y-167639D01*
X5353Y-167700D01*
X5347D01*
X5336Y-167705D01*
X5314Y-167717D01*
X5281Y-167722D01*
X5242Y-167739D01*
X5197Y-167750D01*
X5147Y-167761D01*
X5086Y-167778D01*
X5025Y-167794D01*
X4953Y-167805D01*
X4798Y-167833D01*
X4626Y-167850D01*
X4437Y-167855D01*
X4365D01*
X4326Y-167850D01*
X4282D01*
X4176Y-167844D01*
X4054Y-167827D01*
X3926Y-167811D01*
X3793Y-167783D01*
X3660Y-167750D01*
X3654D01*
X3643Y-167744D01*
X3627Y-167739D01*
X3604Y-167733D01*
X3543Y-167711D01*
X3466Y-167678D01*
X3377Y-167644D01*
X3288Y-167600D01*
X3194Y-167544D01*
X3105Y-167489D01*
X3094Y-167483D01*
X3066Y-167461D01*
X3027Y-167428D01*
X2977Y-167384D01*
X2922Y-167334D01*
X2866Y-167273D01*
X2805Y-167211D01*
X2755Y-167139D01*
X2750Y-167128D01*
X2733Y-167106D01*
X2711Y-167067D01*
X2683Y-167012D01*
X2650Y-166945D01*
X2622Y-166867D01*
X2589Y-166779D01*
X2561Y-166679D01*
Y-166673D01*
Y-166668D01*
X2555Y-166651D01*
X2550Y-166634D01*
X2544Y-166579D01*
X2533Y-166501D01*
X2522Y-166412D01*
X2511Y-166307D01*
X2506Y-166190D01*
X2500Y-166063D01*
Y-164681D01*
X6341D01*
Y-166002D01*
D02*
G37*
G36*
X42407Y-206000D02*
X42126D01*
X41054Y-204393D01*
Y-206000D01*
X40794D01*
Y-203952D01*
X41072D01*
X42147Y-205562D01*
Y-203952D01*
X42407D01*
Y-206000D01*
D02*
G37*
G36*
X210407D02*
X210126D01*
X209054Y-204393D01*
Y-206000D01*
X208794D01*
Y-203952D01*
X209072D01*
X210147Y-205562D01*
Y-203952D01*
X210407D01*
Y-206000D01*
D02*
G37*
G36*
X43704Y-203955D02*
X43763Y-203958D01*
X43822Y-203963D01*
X43881Y-203972D01*
X43932Y-203981D01*
X43935D01*
X43940Y-203984D01*
X43949D01*
X43961Y-203990D01*
X43994Y-203999D01*
X44035Y-204014D01*
X44083Y-204035D01*
X44133Y-204061D01*
X44183Y-204091D01*
X44231Y-204129D01*
X44234Y-204132D01*
X44236Y-204135D01*
X44245Y-204144D01*
X44257Y-204153D01*
X44287Y-204183D01*
X44322Y-204224D01*
X44361Y-204274D01*
X44402Y-204333D01*
X44441Y-204402D01*
X44473Y-204479D01*
Y-204482D01*
X44476Y-204487D01*
X44482Y-204499D01*
X44485Y-204517D01*
X44494Y-204538D01*
X44500Y-204561D01*
X44506Y-204588D01*
X44515Y-204621D01*
X44524Y-204653D01*
X44530Y-204692D01*
X44544Y-204775D01*
X44553Y-204866D01*
X44556Y-204967D01*
Y-204970D01*
Y-204976D01*
Y-204991D01*
Y-205005D01*
X44553Y-205026D01*
Y-205050D01*
X44550Y-205106D01*
X44541Y-205171D01*
X44532Y-205239D01*
X44518Y-205310D01*
X44500Y-205381D01*
Y-205384D01*
X44497Y-205390D01*
X44494Y-205399D01*
X44491Y-205411D01*
X44479Y-205444D01*
X44461Y-205485D01*
X44444Y-205532D01*
X44420Y-205580D01*
X44390Y-205630D01*
X44361Y-205677D01*
X44358Y-205683D01*
X44346Y-205698D01*
X44328Y-205719D01*
X44305Y-205745D01*
X44278Y-205775D01*
X44245Y-205805D01*
X44213Y-205837D01*
X44174Y-205864D01*
X44168Y-205867D01*
X44157Y-205876D01*
X44136Y-205888D01*
X44106Y-205902D01*
X44071Y-205920D01*
X44029Y-205935D01*
X43982Y-205953D01*
X43929Y-205967D01*
X43923D01*
X43914Y-205970D01*
X43905Y-205973D01*
X43875Y-205976D01*
X43834Y-205982D01*
X43787Y-205988D01*
X43730Y-205994D01*
X43668Y-205997D01*
X43600Y-206000D01*
X42863D01*
Y-203952D01*
X43650D01*
X43704Y-203955D01*
D02*
G37*
G36*
X211704D02*
X211763Y-203958D01*
X211822Y-203963D01*
X211881Y-203972D01*
X211932Y-203981D01*
X211935D01*
X211941Y-203984D01*
X211949D01*
X211961Y-203990D01*
X211994Y-203999D01*
X212035Y-204014D01*
X212083Y-204035D01*
X212133Y-204061D01*
X212183Y-204091D01*
X212231Y-204129D01*
X212233Y-204132D01*
X212236Y-204135D01*
X212245Y-204144D01*
X212257Y-204153D01*
X212287Y-204183D01*
X212322Y-204224D01*
X212361Y-204274D01*
X212402Y-204333D01*
X212441Y-204402D01*
X212473Y-204479D01*
Y-204482D01*
X212476Y-204487D01*
X212482Y-204499D01*
X212485Y-204517D01*
X212494Y-204538D01*
X212500Y-204561D01*
X212506Y-204588D01*
X212515Y-204621D01*
X212524Y-204653D01*
X212529Y-204692D01*
X212544Y-204775D01*
X212553Y-204866D01*
X212556Y-204967D01*
Y-204970D01*
Y-204976D01*
Y-204991D01*
Y-205005D01*
X212553Y-205026D01*
Y-205050D01*
X212550Y-205106D01*
X212541Y-205171D01*
X212532Y-205239D01*
X212518Y-205310D01*
X212500Y-205381D01*
Y-205384D01*
X212497Y-205390D01*
X212494Y-205399D01*
X212491Y-205411D01*
X212479Y-205444D01*
X212461Y-205485D01*
X212444Y-205532D01*
X212420Y-205580D01*
X212390Y-205630D01*
X212361Y-205677D01*
X212358Y-205683D01*
X212346Y-205698D01*
X212328Y-205719D01*
X212305Y-205745D01*
X212278Y-205775D01*
X212245Y-205805D01*
X212213Y-205837D01*
X212174Y-205864D01*
X212168Y-205867D01*
X212157Y-205876D01*
X212136Y-205888D01*
X212106Y-205902D01*
X212071Y-205920D01*
X212029Y-205935D01*
X211982Y-205953D01*
X211929Y-205967D01*
X211923D01*
X211914Y-205970D01*
X211905Y-205973D01*
X211875Y-205976D01*
X211834Y-205982D01*
X211787Y-205988D01*
X211730Y-205994D01*
X211668Y-205997D01*
X211600Y-206000D01*
X210863D01*
Y-203952D01*
X211650D01*
X211704Y-203955D01*
D02*
G37*
G36*
X2606Y-139564D02*
X2655Y-139570D01*
X2711Y-139581D01*
X2766Y-139592D01*
X2827Y-139614D01*
X2833D01*
X2839Y-139620D01*
X2872Y-139631D01*
X2922Y-139653D01*
X2988Y-139686D01*
X3066Y-139731D01*
X3155Y-139786D01*
X3244Y-139847D01*
X3338Y-139925D01*
X3344D01*
X3349Y-139936D01*
X3382Y-139964D01*
X3432Y-140014D01*
X3505Y-140086D01*
X3588Y-140169D01*
X3688Y-140275D01*
X3799Y-140402D01*
X3915Y-140541D01*
X3921Y-140547D01*
X3937Y-140569D01*
X3965Y-140602D01*
X3999Y-140641D01*
X4043Y-140691D01*
X4093Y-140752D01*
X4148Y-140813D01*
X4209Y-140885D01*
X4343Y-141024D01*
X4476Y-141163D01*
X4542Y-141229D01*
X4609Y-141290D01*
X4670Y-141346D01*
X4731Y-141390D01*
X4737D01*
X4742Y-141401D01*
X4759Y-141412D01*
X4781Y-141423D01*
X4842Y-141462D01*
X4914Y-141507D01*
X5003Y-141545D01*
X5097Y-141584D01*
X5203Y-141606D01*
X5303Y-141618D01*
X5314D01*
X5347Y-141612D01*
X5403Y-141606D01*
X5464Y-141590D01*
X5541Y-141568D01*
X5619Y-141529D01*
X5697Y-141479D01*
X5774Y-141412D01*
X5786Y-141401D01*
X5808Y-141373D01*
X5835Y-141334D01*
X5874Y-141273D01*
X5908Y-141196D01*
X5941Y-141107D01*
X5963Y-141001D01*
X5969Y-140885D01*
Y-140879D01*
Y-140868D01*
Y-140852D01*
X5963Y-140830D01*
X5958Y-140763D01*
X5941Y-140685D01*
X5919Y-140602D01*
X5880Y-140508D01*
X5830Y-140419D01*
X5763Y-140336D01*
X5752Y-140324D01*
X5725Y-140302D01*
X5680Y-140269D01*
X5614Y-140236D01*
X5536Y-140197D01*
X5436Y-140164D01*
X5325Y-140141D01*
X5197Y-140130D01*
X5247Y-139647D01*
X5253D01*
X5269Y-139653D01*
X5297D01*
X5336Y-139658D01*
X5380Y-139670D01*
X5430Y-139681D01*
X5491Y-139697D01*
X5553Y-139714D01*
X5686Y-139758D01*
X5819Y-139825D01*
X5886Y-139864D01*
X5952Y-139914D01*
X6013Y-139964D01*
X6069Y-140019D01*
X6074Y-140025D01*
X6080Y-140036D01*
X6096Y-140052D01*
X6113Y-140080D01*
X6135Y-140114D01*
X6157Y-140152D01*
X6185Y-140197D01*
X6213Y-140252D01*
X6241Y-140313D01*
X6268Y-140380D01*
X6291Y-140452D01*
X6313Y-140530D01*
X6329Y-140613D01*
X6346Y-140702D01*
X6352Y-140796D01*
X6357Y-140896D01*
Y-140902D01*
Y-140918D01*
Y-140952D01*
X6352Y-140990D01*
X6346Y-141035D01*
X6341Y-141090D01*
X6329Y-141151D01*
X6318Y-141212D01*
X6279Y-141357D01*
X6224Y-141501D01*
X6191Y-141573D01*
X6152Y-141645D01*
X6102Y-141712D01*
X6047Y-141773D01*
X6041Y-141779D01*
X6035Y-141790D01*
X6013Y-141801D01*
X5991Y-141823D01*
X5963Y-141851D01*
X5924Y-141878D01*
X5886Y-141906D01*
X5835Y-141939D01*
X5730Y-141995D01*
X5597Y-142051D01*
X5530Y-142073D01*
X5453Y-142084D01*
X5375Y-142095D01*
X5292Y-142101D01*
X5253D01*
X5208Y-142095D01*
X5147Y-142089D01*
X5081Y-142078D01*
X5003Y-142056D01*
X4920Y-142034D01*
X4837Y-142000D01*
X4826Y-141995D01*
X4798Y-141984D01*
X4753Y-141962D01*
X4692Y-141928D01*
X4626Y-141884D01*
X4542Y-141829D01*
X4459Y-141762D01*
X4365Y-141684D01*
X4354Y-141673D01*
X4320Y-141645D01*
X4293Y-141618D01*
X4265Y-141590D01*
X4232Y-141557D01*
X4187Y-141512D01*
X4143Y-141468D01*
X4093Y-141412D01*
X4037Y-141357D01*
X3976Y-141290D01*
X3915Y-141218D01*
X3843Y-141140D01*
X3771Y-141051D01*
X3693Y-140963D01*
X3688Y-140957D01*
X3677Y-140946D01*
X3660Y-140924D01*
X3638Y-140896D01*
X3604Y-140863D01*
X3571Y-140824D01*
X3499Y-140735D01*
X3416Y-140641D01*
X3333Y-140552D01*
X3260Y-140474D01*
X3233Y-140441D01*
X3205Y-140413D01*
X3199Y-140408D01*
X3183Y-140391D01*
X3161Y-140369D01*
X3127Y-140341D01*
X3088Y-140313D01*
X3049Y-140280D01*
X2955Y-140213D01*
Y-142106D01*
X2500D01*
Y-139558D01*
X2561D01*
X2606Y-139564D01*
D02*
G37*
G36*
X5392Y-137005D02*
X5403Y-137017D01*
X5408Y-137039D01*
X5425Y-137067D01*
X5441Y-137100D01*
X5464Y-137139D01*
X5519Y-137233D01*
X5580Y-137344D01*
X5658Y-137455D01*
X5747Y-137572D01*
X5841Y-137688D01*
X5847Y-137694D01*
X5852Y-137699D01*
X5869Y-137716D01*
X5886Y-137738D01*
X5941Y-137788D01*
X6008Y-137855D01*
X6085Y-137921D01*
X6174Y-137994D01*
X6263Y-138055D01*
X6357Y-138110D01*
Y-138415D01*
X2500D01*
Y-137943D01*
X5503D01*
X5497Y-137938D01*
X5475Y-137910D01*
X5441Y-137877D01*
X5403Y-137821D01*
X5353Y-137760D01*
X5297Y-137683D01*
X5236Y-137594D01*
X5175Y-137494D01*
Y-137488D01*
X5170Y-137483D01*
X5147Y-137450D01*
X5120Y-137394D01*
X5086Y-137327D01*
X5047Y-137250D01*
X5009Y-137167D01*
X4970Y-137083D01*
X4936Y-137000D01*
X5392D01*
Y-137005D01*
D02*
G37*
G36*
X6341Y-142961D02*
X3549Y-143960D01*
X3543D01*
X3532Y-143965D01*
X3516Y-143971D01*
X3493Y-143982D01*
X3460Y-143987D01*
X3427Y-143999D01*
X3344Y-144026D01*
X3249Y-144060D01*
X3144Y-144093D01*
X2922Y-144159D01*
X2927D01*
X2938Y-144165D01*
X2955Y-144171D01*
X2977Y-144176D01*
X3038Y-144193D01*
X3122Y-144221D01*
X3216Y-144248D01*
X3321Y-144282D01*
X3432Y-144320D01*
X3549Y-144365D01*
X6341Y-145408D01*
Y-145924D01*
X2500Y-144426D01*
Y-143893D01*
X6341Y-142406D01*
Y-142961D01*
D02*
G37*
G36*
Y-161323D02*
X3321Y-163338D01*
X6341D01*
Y-163826D01*
X2500D01*
Y-163299D01*
X5514Y-161290D01*
X2500D01*
Y-160801D01*
X6341D01*
Y-161323D01*
D02*
G37*
G36*
X4493Y-156506D02*
X4542D01*
X4603Y-156511D01*
X4665Y-156522D01*
X4737Y-156528D01*
X4814Y-156544D01*
X4898Y-156555D01*
X5075Y-156600D01*
X5258Y-156655D01*
X5441Y-156733D01*
X5447Y-156739D01*
X5464Y-156744D01*
X5486Y-156755D01*
X5519Y-156778D01*
X5564Y-156800D01*
X5608Y-156827D01*
X5714Y-156905D01*
X5835Y-157000D01*
X5952Y-157116D01*
X6069Y-157249D01*
X6119Y-157327D01*
X6168Y-157405D01*
X6174Y-157410D01*
X6180Y-157427D01*
X6191Y-157449D01*
X6207Y-157482D01*
X6224Y-157527D01*
X6246Y-157577D01*
X6268Y-157632D01*
X6291Y-157699D01*
X6313Y-157771D01*
X6329Y-157849D01*
X6352Y-157932D01*
X6368Y-158021D01*
X6396Y-158215D01*
X6407Y-158315D01*
Y-158420D01*
Y-158426D01*
Y-158437D01*
Y-158459D01*
Y-158493D01*
X6402Y-158526D01*
Y-158570D01*
X6391Y-158676D01*
X6374Y-158792D01*
X6346Y-158914D01*
X6313Y-159047D01*
X6268Y-159175D01*
Y-159181D01*
X6263Y-159192D01*
X6257Y-159208D01*
X6246Y-159231D01*
X6213Y-159292D01*
X6174Y-159369D01*
X6119Y-159453D01*
X6052Y-159541D01*
X5980Y-159625D01*
X5891Y-159702D01*
X5880Y-159713D01*
X5847Y-159736D01*
X5797Y-159769D01*
X5725Y-159813D01*
X5636Y-159858D01*
X5525Y-159908D01*
X5403Y-159958D01*
X5264Y-159996D01*
X5142Y-159536D01*
X5147D01*
X5153Y-159530D01*
X5170Y-159525D01*
X5192Y-159519D01*
X5242Y-159502D01*
X5308Y-159480D01*
X5386Y-159447D01*
X5458Y-159408D01*
X5536Y-159369D01*
X5602Y-159319D01*
X5608Y-159314D01*
X5630Y-159297D01*
X5658Y-159264D01*
X5697Y-159225D01*
X5741Y-159175D01*
X5786Y-159108D01*
X5830Y-159036D01*
X5869Y-158953D01*
X5874Y-158942D01*
X5886Y-158914D01*
X5902Y-158864D01*
X5924Y-158798D01*
X5941Y-158720D01*
X5958Y-158631D01*
X5969Y-158531D01*
X5974Y-158426D01*
Y-158420D01*
Y-158409D01*
Y-158393D01*
Y-158365D01*
X5969Y-158337D01*
Y-158304D01*
X5963Y-158221D01*
X5946Y-158126D01*
X5930Y-158021D01*
X5902Y-157921D01*
X5863Y-157821D01*
X5858Y-157810D01*
X5847Y-157776D01*
X5819Y-157732D01*
X5791Y-157677D01*
X5747Y-157610D01*
X5702Y-157538D01*
X5647Y-157471D01*
X5586Y-157410D01*
X5580Y-157405D01*
X5558Y-157382D01*
X5519Y-157355D01*
X5475Y-157321D01*
X5419Y-157282D01*
X5353Y-157244D01*
X5281Y-157205D01*
X5203Y-157166D01*
X5197D01*
X5186Y-157160D01*
X5170Y-157155D01*
X5142Y-157144D01*
X5108Y-157133D01*
X5070Y-157122D01*
X5025Y-157105D01*
X4975Y-157094D01*
X4859Y-157066D01*
X4725Y-157044D01*
X4587Y-157027D01*
X4431Y-157022D01*
X4382D01*
X4348Y-157027D01*
X4304D01*
X4248Y-157033D01*
X4193Y-157038D01*
X4132Y-157044D01*
X3993Y-157066D01*
X3849Y-157094D01*
X3704Y-157138D01*
X3566Y-157194D01*
X3560D01*
X3549Y-157205D01*
X3532Y-157210D01*
X3510Y-157227D01*
X3449Y-157266D01*
X3371Y-157327D01*
X3288Y-157399D01*
X3205Y-157488D01*
X3127Y-157593D01*
X3055Y-157710D01*
Y-157715D01*
X3049Y-157727D01*
X3038Y-157743D01*
X3027Y-157771D01*
X3016Y-157799D01*
X3005Y-157838D01*
X2972Y-157926D01*
X2944Y-158037D01*
X2916Y-158159D01*
X2894Y-158293D01*
X2888Y-158431D01*
Y-158437D01*
Y-158448D01*
Y-158465D01*
Y-158487D01*
X2894Y-158520D01*
Y-158554D01*
X2905Y-158637D01*
X2916Y-158737D01*
X2938Y-158842D01*
X2972Y-158959D01*
X3011Y-159075D01*
Y-159081D01*
X3016Y-159092D01*
X3022Y-159103D01*
X3033Y-159125D01*
X3060Y-159186D01*
X3094Y-159253D01*
X3133Y-159330D01*
X3177Y-159414D01*
X3227Y-159492D01*
X3283Y-159558D01*
X4004D01*
Y-158426D01*
X4459D01*
Y-160057D01*
X3033D01*
X3027Y-160052D01*
X3022Y-160041D01*
X3005Y-160019D01*
X2983Y-159991D01*
X2961Y-159958D01*
X2933Y-159919D01*
X2900Y-159869D01*
X2866Y-159819D01*
X2794Y-159702D01*
X2716Y-159569D01*
X2644Y-159430D01*
X2583Y-159281D01*
Y-159275D01*
X2578Y-159264D01*
X2572Y-159242D01*
X2561Y-159214D01*
X2550Y-159175D01*
X2533Y-159131D01*
X2522Y-159081D01*
X2511Y-159031D01*
X2483Y-158909D01*
X2456Y-158770D01*
X2439Y-158620D01*
X2433Y-158465D01*
Y-158459D01*
Y-158437D01*
Y-158409D01*
X2439Y-158370D01*
Y-158320D01*
X2444Y-158259D01*
X2456Y-158193D01*
X2461Y-158121D01*
X2495Y-157960D01*
X2533Y-157788D01*
X2594Y-157610D01*
X2628Y-157521D01*
X2672Y-157432D01*
X2678Y-157427D01*
X2683Y-157410D01*
X2700Y-157388D01*
X2716Y-157355D01*
X2744Y-157316D01*
X2772Y-157277D01*
X2850Y-157172D01*
X2950Y-157061D01*
X3072Y-156944D01*
X3210Y-156833D01*
X3371Y-156733D01*
X3377D01*
X3393Y-156722D01*
X3416Y-156711D01*
X3455Y-156694D01*
X3493Y-156678D01*
X3549Y-156661D01*
X3604Y-156639D01*
X3671Y-156617D01*
X3743Y-156594D01*
X3826Y-156572D01*
X3910Y-156555D01*
X3999Y-156539D01*
X4193Y-156511D01*
X4398Y-156500D01*
X4454D01*
X4493Y-156506D01*
D02*
G37*
G36*
X207580Y-203919D02*
X207604D01*
X207660Y-203925D01*
X207722Y-203934D01*
X207788Y-203949D01*
X207859Y-203966D01*
X207927Y-203990D01*
X207930D01*
X207936Y-203993D01*
X207944Y-203996D01*
X207956Y-204002D01*
X207989Y-204020D01*
X208030Y-204041D01*
X208075Y-204070D01*
X208122Y-204106D01*
X208167Y-204144D01*
X208208Y-204191D01*
X208214Y-204197D01*
X208226Y-204215D01*
X208243Y-204242D01*
X208267Y-204280D01*
X208291Y-204328D01*
X208317Y-204387D01*
X208344Y-204452D01*
X208365Y-204526D01*
X208119Y-204591D01*
Y-204588D01*
X208116Y-204585D01*
X208113Y-204576D01*
X208110Y-204564D01*
X208101Y-204538D01*
X208089Y-204502D01*
X208072Y-204461D01*
X208051Y-204422D01*
X208030Y-204381D01*
X208004Y-204345D01*
X208001Y-204342D01*
X207992Y-204331D01*
X207974Y-204316D01*
X207953Y-204295D01*
X207927Y-204271D01*
X207891Y-204248D01*
X207853Y-204224D01*
X207808Y-204203D01*
X207802Y-204200D01*
X207788Y-204194D01*
X207761Y-204186D01*
X207725Y-204174D01*
X207684Y-204165D01*
X207637Y-204156D01*
X207583Y-204150D01*
X207527Y-204147D01*
X207495D01*
X207480Y-204150D01*
X207462D01*
X207418Y-204153D01*
X207367Y-204162D01*
X207311Y-204171D01*
X207258Y-204186D01*
X207205Y-204206D01*
X207199Y-204209D01*
X207181Y-204215D01*
X207157Y-204230D01*
X207127Y-204245D01*
X207092Y-204268D01*
X207053Y-204292D01*
X207018Y-204322D01*
X206985Y-204354D01*
X206982Y-204357D01*
X206971Y-204369D01*
X206956Y-204390D01*
X206938Y-204413D01*
X206917Y-204443D01*
X206897Y-204479D01*
X206876Y-204517D01*
X206855Y-204558D01*
Y-204561D01*
X206852Y-204567D01*
X206849Y-204576D01*
X206843Y-204591D01*
X206837Y-204609D01*
X206832Y-204629D01*
X206823Y-204653D01*
X206817Y-204680D01*
X206802Y-204742D01*
X206790Y-204813D01*
X206781Y-204887D01*
X206778Y-204970D01*
Y-204973D01*
Y-204982D01*
Y-204997D01*
X206781Y-205014D01*
Y-205038D01*
X206784Y-205068D01*
X206787Y-205097D01*
X206790Y-205130D01*
X206802Y-205204D01*
X206817Y-205281D01*
X206840Y-205358D01*
X206870Y-205432D01*
Y-205435D01*
X206876Y-205441D01*
X206879Y-205449D01*
X206888Y-205461D01*
X206908Y-205494D01*
X206941Y-205535D01*
X206979Y-205580D01*
X207027Y-205624D01*
X207083Y-205665D01*
X207145Y-205704D01*
X207148D01*
X207154Y-205707D01*
X207163Y-205713D01*
X207178Y-205719D01*
X207193Y-205725D01*
X207213Y-205731D01*
X207261Y-205748D01*
X207320Y-205763D01*
X207385Y-205778D01*
X207456Y-205790D01*
X207530Y-205793D01*
X207560D01*
X207577Y-205790D01*
X207595D01*
X207640Y-205784D01*
X207693Y-205778D01*
X207749Y-205766D01*
X207811Y-205748D01*
X207873Y-205728D01*
X207876D01*
X207882Y-205725D01*
X207888Y-205722D01*
X207900Y-205716D01*
X207933Y-205701D01*
X207968Y-205683D01*
X208010Y-205663D01*
X208054Y-205639D01*
X208095Y-205612D01*
X208131Y-205583D01*
Y-205198D01*
X207527D01*
Y-204955D01*
X208397D01*
Y-205716D01*
X208394Y-205719D01*
X208388Y-205722D01*
X208377Y-205731D01*
X208362Y-205743D01*
X208344Y-205754D01*
X208323Y-205769D01*
X208297Y-205787D01*
X208270Y-205805D01*
X208208Y-205843D01*
X208137Y-205885D01*
X208063Y-205923D01*
X207983Y-205956D01*
X207980D01*
X207974Y-205959D01*
X207962Y-205961D01*
X207947Y-205967D01*
X207927Y-205973D01*
X207903Y-205982D01*
X207876Y-205988D01*
X207850Y-205994D01*
X207785Y-206009D01*
X207711Y-206024D01*
X207631Y-206033D01*
X207548Y-206035D01*
X207518D01*
X207498Y-206033D01*
X207471D01*
X207438Y-206030D01*
X207403Y-206024D01*
X207364Y-206021D01*
X207278Y-206003D01*
X207187Y-205982D01*
X207092Y-205950D01*
X207045Y-205932D01*
X206997Y-205908D01*
X206994Y-205905D01*
X206985Y-205902D01*
X206974Y-205893D01*
X206956Y-205885D01*
X206935Y-205870D01*
X206914Y-205855D01*
X206858Y-205814D01*
X206799Y-205760D01*
X206737Y-205695D01*
X206678Y-205621D01*
X206624Y-205535D01*
Y-205532D01*
X206618Y-205523D01*
X206612Y-205512D01*
X206604Y-205491D01*
X206595Y-205470D01*
X206586Y-205441D01*
X206574Y-205411D01*
X206562Y-205375D01*
X206550Y-205337D01*
X206539Y-205293D01*
X206530Y-205248D01*
X206521Y-205201D01*
X206506Y-205097D01*
X206500Y-204988D01*
Y-204985D01*
Y-204973D01*
Y-204958D01*
X206503Y-204937D01*
Y-204911D01*
X206506Y-204878D01*
X206512Y-204846D01*
X206515Y-204807D01*
X206524Y-204766D01*
X206530Y-204721D01*
X206553Y-204627D01*
X206583Y-204529D01*
X206624Y-204431D01*
X206627Y-204428D01*
X206630Y-204419D01*
X206636Y-204408D01*
X206648Y-204390D01*
X206660Y-204366D01*
X206675Y-204342D01*
X206716Y-204286D01*
X206766Y-204221D01*
X206829Y-204159D01*
X206900Y-204097D01*
X206941Y-204070D01*
X206982Y-204043D01*
X206985Y-204041D01*
X206994Y-204037D01*
X207006Y-204032D01*
X207024Y-204023D01*
X207048Y-204014D01*
X207074Y-204002D01*
X207104Y-203990D01*
X207139Y-203978D01*
X207178Y-203966D01*
X207219Y-203958D01*
X207264Y-203946D01*
X207311Y-203937D01*
X207415Y-203922D01*
X207468Y-203916D01*
X207563D01*
X207580Y-203919D01*
D02*
G37*
G36*
X20049D02*
X20075D01*
X20102Y-203922D01*
X20137Y-203928D01*
X20173Y-203934D01*
X20250Y-203949D01*
X20339Y-203972D01*
X20425Y-204008D01*
X20469Y-204029D01*
X20513Y-204052D01*
X20516Y-204055D01*
X20522Y-204058D01*
X20534Y-204067D01*
X20552Y-204076D01*
X20570Y-204091D01*
X20593Y-204109D01*
X20643Y-204150D01*
X20697Y-204203D01*
X20756Y-204268D01*
X20812Y-204345D01*
X20860Y-204431D01*
Y-204434D01*
X20865Y-204443D01*
X20871Y-204455D01*
X20877Y-204473D01*
X20889Y-204496D01*
X20898Y-204523D01*
X20910Y-204556D01*
X20922Y-204591D01*
X20931Y-204629D01*
X20943Y-204671D01*
X20954Y-204718D01*
X20963Y-204766D01*
X20975Y-204869D01*
X20981Y-204982D01*
Y-204985D01*
Y-204997D01*
Y-205011D01*
X20978Y-205035D01*
Y-205062D01*
X20975Y-205094D01*
X20969Y-205130D01*
X20966Y-205168D01*
X20951Y-205254D01*
X20928Y-205349D01*
X20895Y-205444D01*
X20877Y-205491D01*
X20854Y-205538D01*
Y-205541D01*
X20848Y-205550D01*
X20842Y-205562D01*
X20830Y-205580D01*
X20818Y-205600D01*
X20803Y-205621D01*
X20762Y-205677D01*
X20712Y-205737D01*
X20652Y-205799D01*
X20581Y-205858D01*
X20498Y-205911D01*
X20495D01*
X20490Y-205917D01*
X20475Y-205923D01*
X20457Y-205932D01*
X20436Y-205941D01*
X20413Y-205950D01*
X20383Y-205961D01*
X20350Y-205973D01*
X20315Y-205985D01*
X20277Y-205997D01*
X20191Y-206015D01*
X20099Y-206030D01*
X20001Y-206035D01*
X19972D01*
X19954Y-206033D01*
X19927D01*
X19898Y-206027D01*
X19865Y-206024D01*
X19827Y-206018D01*
X19747Y-206000D01*
X19661Y-205976D01*
X19572Y-205941D01*
X19528Y-205920D01*
X19483Y-205896D01*
X19480Y-205893D01*
X19474Y-205890D01*
X19463Y-205882D01*
X19445Y-205870D01*
X19427Y-205858D01*
X19406Y-205840D01*
X19356Y-205796D01*
X19300Y-205743D01*
X19241Y-205677D01*
X19187Y-205603D01*
X19137Y-205518D01*
Y-205515D01*
X19131Y-205506D01*
X19125Y-205494D01*
X19119Y-205476D01*
X19110Y-205452D01*
X19101Y-205426D01*
X19090Y-205396D01*
X19081Y-205364D01*
X19069Y-205325D01*
X19057Y-205287D01*
X19039Y-205198D01*
X19027Y-205106D01*
X19021Y-205005D01*
Y-205002D01*
Y-204999D01*
Y-204982D01*
X19024Y-204955D01*
Y-204920D01*
X19030Y-204878D01*
X19036Y-204828D01*
X19045Y-204772D01*
X19057Y-204712D01*
X19069Y-204650D01*
X19087Y-204585D01*
X19110Y-204520D01*
X19137Y-204452D01*
X19166Y-204387D01*
X19205Y-204322D01*
X19246Y-204262D01*
X19294Y-204206D01*
X19297Y-204203D01*
X19306Y-204194D01*
X19323Y-204180D01*
X19344Y-204162D01*
X19371Y-204138D01*
X19403Y-204115D01*
X19442Y-204088D01*
X19486Y-204061D01*
X19534Y-204035D01*
X19587Y-204008D01*
X19646Y-203984D01*
X19708Y-203961D01*
X19776Y-203943D01*
X19847Y-203928D01*
X19921Y-203919D01*
X20001Y-203916D01*
X20028D01*
X20049Y-203919D01*
D02*
G37*
G36*
X24080Y-203955D02*
X24139Y-203958D01*
X24198Y-203963D01*
X24258Y-203972D01*
X24308Y-203981D01*
X24311D01*
X24317Y-203984D01*
X24326D01*
X24338Y-203990D01*
X24370Y-203999D01*
X24412Y-204014D01*
X24459Y-204035D01*
X24509Y-204061D01*
X24560Y-204091D01*
X24607Y-204129D01*
X24610Y-204132D01*
X24613Y-204135D01*
X24622Y-204144D01*
X24634Y-204153D01*
X24663Y-204183D01*
X24699Y-204224D01*
X24737Y-204274D01*
X24779Y-204333D01*
X24817Y-204402D01*
X24850Y-204479D01*
Y-204482D01*
X24853Y-204487D01*
X24859Y-204499D01*
X24861Y-204517D01*
X24870Y-204538D01*
X24876Y-204561D01*
X24882Y-204588D01*
X24891Y-204621D01*
X24900Y-204653D01*
X24906Y-204692D01*
X24921Y-204775D01*
X24930Y-204866D01*
X24933Y-204967D01*
Y-204970D01*
Y-204976D01*
Y-204991D01*
Y-205005D01*
X24930Y-205026D01*
Y-205050D01*
X24927Y-205106D01*
X24918Y-205171D01*
X24909Y-205239D01*
X24894Y-205310D01*
X24876Y-205381D01*
Y-205384D01*
X24873Y-205390D01*
X24870Y-205399D01*
X24867Y-205411D01*
X24856Y-205444D01*
X24838Y-205485D01*
X24820Y-205532D01*
X24796Y-205580D01*
X24767Y-205630D01*
X24737Y-205677D01*
X24734Y-205683D01*
X24722Y-205698D01*
X24705Y-205719D01*
X24681Y-205745D01*
X24654Y-205775D01*
X24622Y-205805D01*
X24589Y-205837D01*
X24551Y-205864D01*
X24545Y-205867D01*
X24533Y-205876D01*
X24512Y-205888D01*
X24483Y-205902D01*
X24447Y-205920D01*
X24406Y-205935D01*
X24358Y-205953D01*
X24305Y-205967D01*
X24299D01*
X24290Y-205970D01*
X24281Y-205973D01*
X24252Y-205976D01*
X24210Y-205982D01*
X24163Y-205988D01*
X24107Y-205994D01*
X24045Y-205997D01*
X23977Y-206000D01*
X23239D01*
Y-203952D01*
X24027D01*
X24080Y-203955D01*
D02*
G37*
G36*
X23020Y-206000D02*
X22713D01*
X22473Y-205378D01*
X21614D01*
X21392Y-206000D01*
X21105D01*
X21887Y-203952D01*
X22183D01*
X23020Y-206000D01*
D02*
G37*
G36*
X17772Y-205757D02*
X18782D01*
Y-206000D01*
X17500D01*
Y-203952D01*
X17772D01*
Y-205757D01*
D02*
G37*
G36*
X192080Y-203955D02*
X192139Y-203958D01*
X192199Y-203963D01*
X192258Y-203972D01*
X192308Y-203981D01*
X192311D01*
X192317Y-203984D01*
X192326D01*
X192338Y-203990D01*
X192370Y-203999D01*
X192412Y-204014D01*
X192459Y-204035D01*
X192509Y-204061D01*
X192560Y-204091D01*
X192607Y-204129D01*
X192610Y-204132D01*
X192613Y-204135D01*
X192622Y-204144D01*
X192634Y-204153D01*
X192663Y-204183D01*
X192699Y-204224D01*
X192737Y-204274D01*
X192779Y-204333D01*
X192817Y-204402D01*
X192850Y-204479D01*
Y-204482D01*
X192853Y-204487D01*
X192859Y-204499D01*
X192861Y-204517D01*
X192870Y-204538D01*
X192876Y-204561D01*
X192882Y-204588D01*
X192891Y-204621D01*
X192900Y-204653D01*
X192906Y-204692D01*
X192921Y-204775D01*
X192930Y-204866D01*
X192933Y-204967D01*
Y-204970D01*
Y-204976D01*
Y-204991D01*
Y-205005D01*
X192930Y-205026D01*
Y-205050D01*
X192927Y-205106D01*
X192918Y-205171D01*
X192909Y-205239D01*
X192894Y-205310D01*
X192876Y-205381D01*
Y-205384D01*
X192873Y-205390D01*
X192870Y-205399D01*
X192867Y-205411D01*
X192856Y-205444D01*
X192838Y-205485D01*
X192820Y-205532D01*
X192796Y-205580D01*
X192767Y-205630D01*
X192737Y-205677D01*
X192734Y-205683D01*
X192722Y-205698D01*
X192705Y-205719D01*
X192681Y-205745D01*
X192654Y-205775D01*
X192622Y-205805D01*
X192589Y-205837D01*
X192551Y-205864D01*
X192545Y-205867D01*
X192533Y-205876D01*
X192512Y-205888D01*
X192483Y-205902D01*
X192447Y-205920D01*
X192406Y-205935D01*
X192358Y-205953D01*
X192305Y-205967D01*
X192299D01*
X192290Y-205970D01*
X192281Y-205973D01*
X192252Y-205976D01*
X192210Y-205982D01*
X192163Y-205988D01*
X192107Y-205994D01*
X192045Y-205997D01*
X191976Y-206000D01*
X191239D01*
Y-203952D01*
X192027D01*
X192080Y-203955D01*
D02*
G37*
G36*
X188049Y-203919D02*
X188075D01*
X188102Y-203922D01*
X188137Y-203928D01*
X188173Y-203934D01*
X188250Y-203949D01*
X188339Y-203972D01*
X188425Y-204008D01*
X188469Y-204029D01*
X188513Y-204052D01*
X188516Y-204055D01*
X188522Y-204058D01*
X188534Y-204067D01*
X188552Y-204076D01*
X188569Y-204091D01*
X188593Y-204109D01*
X188644Y-204150D01*
X188697Y-204203D01*
X188756Y-204268D01*
X188812Y-204345D01*
X188860Y-204431D01*
Y-204434D01*
X188865Y-204443D01*
X188871Y-204455D01*
X188877Y-204473D01*
X188889Y-204496D01*
X188898Y-204523D01*
X188910Y-204556D01*
X188922Y-204591D01*
X188931Y-204629D01*
X188943Y-204671D01*
X188954Y-204718D01*
X188963Y-204766D01*
X188975Y-204869D01*
X188981Y-204982D01*
Y-204985D01*
Y-204997D01*
Y-205011D01*
X188978Y-205035D01*
Y-205062D01*
X188975Y-205094D01*
X188969Y-205130D01*
X188966Y-205168D01*
X188951Y-205254D01*
X188928Y-205349D01*
X188895Y-205444D01*
X188877Y-205491D01*
X188854Y-205538D01*
Y-205541D01*
X188848Y-205550D01*
X188842Y-205562D01*
X188830Y-205580D01*
X188818Y-205600D01*
X188803Y-205621D01*
X188762Y-205677D01*
X188712Y-205737D01*
X188652Y-205799D01*
X188581Y-205858D01*
X188498Y-205911D01*
X188496D01*
X188490Y-205917D01*
X188475Y-205923D01*
X188457Y-205932D01*
X188436Y-205941D01*
X188413Y-205950D01*
X188383Y-205961D01*
X188350Y-205973D01*
X188315Y-205985D01*
X188277Y-205997D01*
X188191Y-206015D01*
X188099Y-206030D01*
X188001Y-206035D01*
X187972D01*
X187954Y-206033D01*
X187927D01*
X187898Y-206027D01*
X187865Y-206024D01*
X187827Y-206018D01*
X187747Y-206000D01*
X187661Y-205976D01*
X187572Y-205941D01*
X187528Y-205920D01*
X187483Y-205896D01*
X187480Y-205893D01*
X187474Y-205890D01*
X187462Y-205882D01*
X187445Y-205870D01*
X187427Y-205858D01*
X187406Y-205840D01*
X187356Y-205796D01*
X187300Y-205743D01*
X187241Y-205677D01*
X187187Y-205603D01*
X187137Y-205518D01*
Y-205515D01*
X187131Y-205506D01*
X187125Y-205494D01*
X187119Y-205476D01*
X187110Y-205452D01*
X187101Y-205426D01*
X187090Y-205396D01*
X187081Y-205364D01*
X187069Y-205325D01*
X187057Y-205287D01*
X187039Y-205198D01*
X187027Y-205106D01*
X187021Y-205005D01*
Y-205002D01*
Y-204999D01*
Y-204982D01*
X187024Y-204955D01*
Y-204920D01*
X187030Y-204878D01*
X187036Y-204828D01*
X187045Y-204772D01*
X187057Y-204712D01*
X187069Y-204650D01*
X187087Y-204585D01*
X187110Y-204520D01*
X187137Y-204452D01*
X187167Y-204387D01*
X187205Y-204322D01*
X187246Y-204262D01*
X187294Y-204206D01*
X187297Y-204203D01*
X187306Y-204194D01*
X187323Y-204180D01*
X187344Y-204162D01*
X187371Y-204138D01*
X187403Y-204115D01*
X187442Y-204088D01*
X187486Y-204061D01*
X187533Y-204035D01*
X187587Y-204008D01*
X187646Y-203984D01*
X187708Y-203961D01*
X187776Y-203943D01*
X187847Y-203928D01*
X187921Y-203919D01*
X188001Y-203916D01*
X188028D01*
X188049Y-203919D01*
D02*
G37*
G36*
X185772Y-205757D02*
X186782D01*
Y-206000D01*
X185500D01*
Y-203952D01*
X185772D01*
Y-205757D01*
D02*
G37*
G36*
X191020Y-206000D02*
X190713D01*
X190473Y-205378D01*
X189614D01*
X189392Y-206000D01*
X189105D01*
X189887Y-203952D01*
X190183D01*
X191020Y-206000D01*
D02*
G37*
%LPC*%
G36*
X211609Y-204194D02*
X211135D01*
Y-205757D01*
X211621D01*
X211642Y-205754D01*
X211686Y-205751D01*
X211736Y-205748D01*
X211789Y-205743D01*
X211843Y-205734D01*
X211887Y-205722D01*
X211893Y-205719D01*
X211908Y-205716D01*
X211929Y-205707D01*
X211955Y-205695D01*
X211985Y-205677D01*
X212015Y-205660D01*
X212044Y-205639D01*
X212074Y-205615D01*
X212077Y-205609D01*
X212088Y-205597D01*
X212106Y-205577D01*
X212127Y-205547D01*
X212151Y-205509D01*
X212177Y-205464D01*
X212201Y-205414D01*
X212222Y-205358D01*
Y-205355D01*
X212225Y-205349D01*
X212228Y-205340D01*
X212231Y-205328D01*
X212233Y-205313D01*
X212239Y-205293D01*
X212245Y-205272D01*
X212251Y-205248D01*
X212260Y-205189D01*
X212269Y-205121D01*
X212275Y-205044D01*
X212278Y-204961D01*
Y-204958D01*
Y-204946D01*
Y-204931D01*
X212275Y-204908D01*
Y-204881D01*
X212272Y-204852D01*
X212269Y-204816D01*
X212266Y-204781D01*
X212251Y-204701D01*
X212233Y-204618D01*
X212207Y-204541D01*
X212189Y-204502D01*
X212171Y-204470D01*
Y-204467D01*
X212165Y-204461D01*
X212159Y-204452D01*
X212154Y-204440D01*
X212130Y-204411D01*
X212100Y-204375D01*
X212062Y-204337D01*
X212017Y-204298D01*
X211967Y-204265D01*
X211914Y-204239D01*
X211908Y-204236D01*
X211893Y-204233D01*
X211866Y-204224D01*
X211828Y-204215D01*
X211781Y-204209D01*
X211721Y-204200D01*
X211686Y-204197D01*
X211647D01*
X211609Y-204194D01*
D02*
G37*
G36*
X190029Y-204165D02*
Y-204168D01*
X190026Y-204174D01*
Y-204186D01*
X190020Y-204197D01*
X190017Y-204218D01*
X190011Y-204239D01*
X189999Y-204289D01*
X189984Y-204348D01*
X189964Y-204413D01*
X189943Y-204485D01*
X189916Y-204558D01*
X189694Y-205156D01*
X190387D01*
X190174Y-204594D01*
Y-204591D01*
X190171Y-204582D01*
X190165Y-204567D01*
X190159Y-204550D01*
X190150Y-204529D01*
X190141Y-204502D01*
X190132Y-204473D01*
X190121Y-204443D01*
X190097Y-204375D01*
X190073Y-204304D01*
X190050Y-204233D01*
X190029Y-204165D01*
D02*
G37*
G36*
X191985Y-204194D02*
X191512D01*
Y-205757D01*
X191997D01*
X192018Y-205754D01*
X192062Y-205751D01*
X192113Y-205748D01*
X192166Y-205743D01*
X192219Y-205734D01*
X192264Y-205722D01*
X192270Y-205719D01*
X192284Y-205716D01*
X192305Y-205707D01*
X192332Y-205695D01*
X192361Y-205677D01*
X192391Y-205660D01*
X192420Y-205639D01*
X192450Y-205615D01*
X192453Y-205609D01*
X192465Y-205597D01*
X192483Y-205577D01*
X192503Y-205547D01*
X192527Y-205509D01*
X192554Y-205464D01*
X192577Y-205414D01*
X192598Y-205358D01*
Y-205355D01*
X192601Y-205349D01*
X192604Y-205340D01*
X192607Y-205328D01*
X192610Y-205313D01*
X192616Y-205293D01*
X192622Y-205272D01*
X192628Y-205248D01*
X192637Y-205189D01*
X192645Y-205121D01*
X192651Y-205044D01*
X192654Y-204961D01*
Y-204958D01*
Y-204946D01*
Y-204931D01*
X192651Y-204908D01*
Y-204881D01*
X192648Y-204852D01*
X192645Y-204816D01*
X192642Y-204781D01*
X192628Y-204701D01*
X192610Y-204618D01*
X192583Y-204541D01*
X192566Y-204502D01*
X192548Y-204470D01*
Y-204467D01*
X192542Y-204461D01*
X192536Y-204452D01*
X192530Y-204440D01*
X192506Y-204411D01*
X192477Y-204375D01*
X192438Y-204337D01*
X192394Y-204298D01*
X192343Y-204265D01*
X192290Y-204239D01*
X192284Y-204236D01*
X192270Y-204233D01*
X192243Y-204224D01*
X192204Y-204215D01*
X192157Y-204209D01*
X192098Y-204200D01*
X192062Y-204197D01*
X192024D01*
X191985Y-204194D01*
D02*
G37*
G36*
X188001Y-204150D02*
X187975D01*
X187954Y-204153D01*
X187927Y-204156D01*
X187901Y-204162D01*
X187868Y-204168D01*
X187832Y-204174D01*
X187756Y-204197D01*
X187714Y-204215D01*
X187673Y-204233D01*
X187628Y-204257D01*
X187587Y-204283D01*
X187545Y-204313D01*
X187507Y-204348D01*
X187504Y-204351D01*
X187498Y-204357D01*
X187489Y-204369D01*
X187474Y-204387D01*
X187460Y-204408D01*
X187442Y-204434D01*
X187424Y-204467D01*
X187403Y-204505D01*
X187385Y-204547D01*
X187365Y-204597D01*
X187347Y-204650D01*
X187332Y-204709D01*
X187317Y-204775D01*
X187309Y-204849D01*
X187303Y-204925D01*
X187300Y-205008D01*
Y-205011D01*
Y-205023D01*
Y-205044D01*
X187303Y-205071D01*
X187306Y-205100D01*
X187311Y-205136D01*
X187317Y-205177D01*
X187323Y-205219D01*
X187347Y-205313D01*
X187365Y-205361D01*
X187383Y-205411D01*
X187406Y-205458D01*
X187433Y-205506D01*
X187462Y-205550D01*
X187498Y-205592D01*
X187501Y-205594D01*
X187507Y-205600D01*
X187519Y-205612D01*
X187533Y-205624D01*
X187554Y-205642D01*
X187578Y-205660D01*
X187605Y-205677D01*
X187634Y-205698D01*
X187670Y-205719D01*
X187708Y-205737D01*
X187750Y-205754D01*
X187794Y-205772D01*
X187841Y-205784D01*
X187889Y-205796D01*
X187942Y-205802D01*
X187998Y-205805D01*
X188013D01*
X188028Y-205802D01*
X188049D01*
X188075Y-205799D01*
X188105Y-205793D01*
X188140Y-205787D01*
X188176Y-205778D01*
X188217Y-205766D01*
X188256Y-205751D01*
X188300Y-205737D01*
X188342Y-205716D01*
X188383Y-205689D01*
X188425Y-205663D01*
X188466Y-205630D01*
X188504Y-205592D01*
X188507Y-205589D01*
X188513Y-205583D01*
X188522Y-205568D01*
X188537Y-205550D01*
X188552Y-205529D01*
X188567Y-205503D01*
X188584Y-205470D01*
X188605Y-205435D01*
X188623Y-205393D01*
X188641Y-205346D01*
X188655Y-205295D01*
X188673Y-205242D01*
X188685Y-205183D01*
X188694Y-205118D01*
X188700Y-205050D01*
X188703Y-204979D01*
Y-204976D01*
Y-204967D01*
Y-204955D01*
Y-204937D01*
X188700Y-204917D01*
Y-204890D01*
X188697Y-204863D01*
X188691Y-204831D01*
X188682Y-204763D01*
X188667Y-204692D01*
X188646Y-204615D01*
X188617Y-204544D01*
Y-204541D01*
X188614Y-204535D01*
X188608Y-204526D01*
X188602Y-204514D01*
X188581Y-204479D01*
X188555Y-204437D01*
X188519Y-204390D01*
X188475Y-204342D01*
X188425Y-204295D01*
X188368Y-204254D01*
X188365D01*
X188362Y-204248D01*
X188353Y-204245D01*
X188339Y-204236D01*
X188324Y-204230D01*
X188306Y-204221D01*
X188262Y-204200D01*
X188208Y-204183D01*
X188146Y-204165D01*
X188075Y-204153D01*
X188001Y-204150D01*
D02*
G37*
G36*
X169609Y-204194D02*
X169135D01*
Y-205757D01*
X169621D01*
X169641Y-205754D01*
X169686Y-205751D01*
X169736Y-205748D01*
X169790Y-205743D01*
X169843Y-205734D01*
X169887Y-205722D01*
X169893Y-205719D01*
X169908Y-205716D01*
X169929Y-205707D01*
X169955Y-205695D01*
X169985Y-205677D01*
X170015Y-205660D01*
X170044Y-205639D01*
X170074Y-205615D01*
X170077Y-205609D01*
X170089Y-205597D01*
X170106Y-205577D01*
X170127Y-205547D01*
X170151Y-205509D01*
X170177Y-205464D01*
X170201Y-205414D01*
X170222Y-205358D01*
Y-205355D01*
X170225Y-205349D01*
X170228Y-205340D01*
X170231Y-205328D01*
X170234Y-205313D01*
X170239Y-205293D01*
X170245Y-205272D01*
X170251Y-205248D01*
X170260Y-205189D01*
X170269Y-205121D01*
X170275Y-205044D01*
X170278Y-204961D01*
Y-204958D01*
Y-204946D01*
Y-204931D01*
X170275Y-204908D01*
Y-204881D01*
X170272Y-204852D01*
X170269Y-204816D01*
X170266Y-204781D01*
X170251Y-204701D01*
X170234Y-204618D01*
X170207Y-204541D01*
X170189Y-204502D01*
X170171Y-204470D01*
Y-204467D01*
X170165Y-204461D01*
X170159Y-204452D01*
X170154Y-204440D01*
X170130Y-204411D01*
X170100Y-204375D01*
X170062Y-204337D01*
X170017Y-204298D01*
X169967Y-204265D01*
X169914Y-204239D01*
X169908Y-204236D01*
X169893Y-204233D01*
X169867Y-204224D01*
X169828Y-204215D01*
X169781Y-204209D01*
X169721Y-204200D01*
X169686Y-204197D01*
X169647D01*
X169609Y-204194D01*
D02*
G37*
G36*
X64029Y-204165D02*
Y-204168D01*
X64026Y-204174D01*
Y-204186D01*
X64020Y-204197D01*
X64017Y-204218D01*
X64011Y-204239D01*
X63999Y-204289D01*
X63984Y-204348D01*
X63964Y-204413D01*
X63943Y-204485D01*
X63916Y-204558D01*
X63694Y-205156D01*
X64387D01*
X64174Y-204594D01*
Y-204591D01*
X64171Y-204582D01*
X64165Y-204567D01*
X64159Y-204550D01*
X64150Y-204529D01*
X64141Y-204502D01*
X64132Y-204473D01*
X64121Y-204443D01*
X64097Y-204375D01*
X64073Y-204304D01*
X64050Y-204233D01*
X64029Y-204165D01*
D02*
G37*
G36*
X20001Y-204150D02*
X19975D01*
X19954Y-204153D01*
X19927Y-204156D01*
X19901Y-204162D01*
X19868Y-204168D01*
X19832Y-204174D01*
X19756Y-204197D01*
X19714Y-204215D01*
X19673Y-204233D01*
X19628Y-204257D01*
X19587Y-204283D01*
X19545Y-204313D01*
X19507Y-204348D01*
X19504Y-204351D01*
X19498Y-204357D01*
X19489Y-204369D01*
X19474Y-204387D01*
X19459Y-204408D01*
X19442Y-204434D01*
X19424Y-204467D01*
X19403Y-204505D01*
X19386Y-204547D01*
X19365Y-204597D01*
X19347Y-204650D01*
X19332Y-204709D01*
X19317Y-204775D01*
X19309Y-204849D01*
X19303Y-204925D01*
X19300Y-205008D01*
Y-205011D01*
Y-205023D01*
Y-205044D01*
X19303Y-205071D01*
X19306Y-205100D01*
X19311Y-205136D01*
X19317Y-205177D01*
X19323Y-205219D01*
X19347Y-205313D01*
X19365Y-205361D01*
X19383Y-205411D01*
X19406Y-205458D01*
X19433Y-205506D01*
X19463Y-205550D01*
X19498Y-205592D01*
X19501Y-205594D01*
X19507Y-205600D01*
X19519Y-205612D01*
X19534Y-205624D01*
X19554Y-205642D01*
X19578Y-205660D01*
X19605Y-205677D01*
X19634Y-205698D01*
X19670Y-205719D01*
X19708Y-205737D01*
X19750Y-205754D01*
X19794Y-205772D01*
X19841Y-205784D01*
X19889Y-205796D01*
X19942Y-205802D01*
X19998Y-205805D01*
X20013D01*
X20028Y-205802D01*
X20049D01*
X20075Y-205799D01*
X20105Y-205793D01*
X20140Y-205787D01*
X20176Y-205778D01*
X20217Y-205766D01*
X20256Y-205751D01*
X20300Y-205737D01*
X20342Y-205716D01*
X20383Y-205689D01*
X20425Y-205663D01*
X20466Y-205630D01*
X20504Y-205592D01*
X20507Y-205589D01*
X20513Y-205583D01*
X20522Y-205568D01*
X20537Y-205550D01*
X20552Y-205529D01*
X20567Y-205503D01*
X20584Y-205470D01*
X20605Y-205435D01*
X20623Y-205393D01*
X20641Y-205346D01*
X20655Y-205295D01*
X20673Y-205242D01*
X20685Y-205183D01*
X20694Y-205118D01*
X20700Y-205050D01*
X20703Y-204979D01*
Y-204976D01*
Y-204967D01*
Y-204955D01*
Y-204937D01*
X20700Y-204917D01*
Y-204890D01*
X20697Y-204863D01*
X20691Y-204831D01*
X20682Y-204763D01*
X20667Y-204692D01*
X20647Y-204615D01*
X20617Y-204544D01*
Y-204541D01*
X20614Y-204535D01*
X20608Y-204526D01*
X20602Y-204514D01*
X20581Y-204479D01*
X20555Y-204437D01*
X20519Y-204390D01*
X20475Y-204342D01*
X20425Y-204295D01*
X20368Y-204254D01*
X20365D01*
X20362Y-204248D01*
X20353Y-204245D01*
X20339Y-204236D01*
X20324Y-204230D01*
X20306Y-204221D01*
X20262Y-204200D01*
X20208Y-204183D01*
X20146Y-204165D01*
X20075Y-204153D01*
X20001Y-204150D01*
D02*
G37*
G36*
X62001D02*
X61975D01*
X61954Y-204153D01*
X61927Y-204156D01*
X61901Y-204162D01*
X61868Y-204168D01*
X61832Y-204174D01*
X61756Y-204197D01*
X61714Y-204215D01*
X61673Y-204233D01*
X61628Y-204257D01*
X61587Y-204283D01*
X61545Y-204313D01*
X61507Y-204348D01*
X61504Y-204351D01*
X61498Y-204357D01*
X61489Y-204369D01*
X61474Y-204387D01*
X61459Y-204408D01*
X61442Y-204434D01*
X61424Y-204467D01*
X61403Y-204505D01*
X61386Y-204547D01*
X61365Y-204597D01*
X61347Y-204650D01*
X61332Y-204709D01*
X61317Y-204775D01*
X61309Y-204849D01*
X61303Y-204925D01*
X61300Y-205008D01*
Y-205011D01*
Y-205023D01*
Y-205044D01*
X61303Y-205071D01*
X61306Y-205100D01*
X61312Y-205136D01*
X61317Y-205177D01*
X61323Y-205219D01*
X61347Y-205313D01*
X61365Y-205361D01*
X61383Y-205411D01*
X61406Y-205458D01*
X61433Y-205506D01*
X61462Y-205550D01*
X61498Y-205592D01*
X61501Y-205594D01*
X61507Y-205600D01*
X61519Y-205612D01*
X61533Y-205624D01*
X61554Y-205642D01*
X61578Y-205660D01*
X61605Y-205677D01*
X61634Y-205698D01*
X61670Y-205719D01*
X61708Y-205737D01*
X61750Y-205754D01*
X61794Y-205772D01*
X61841Y-205784D01*
X61889Y-205796D01*
X61942Y-205802D01*
X61998Y-205805D01*
X62013D01*
X62028Y-205802D01*
X62049D01*
X62075Y-205799D01*
X62105Y-205793D01*
X62140Y-205787D01*
X62176Y-205778D01*
X62217Y-205766D01*
X62256Y-205751D01*
X62300Y-205737D01*
X62342Y-205716D01*
X62383Y-205689D01*
X62424Y-205663D01*
X62466Y-205630D01*
X62504Y-205592D01*
X62507Y-205589D01*
X62513Y-205583D01*
X62522Y-205568D01*
X62537Y-205550D01*
X62552Y-205529D01*
X62567Y-205503D01*
X62584Y-205470D01*
X62605Y-205435D01*
X62623Y-205393D01*
X62641Y-205346D01*
X62655Y-205295D01*
X62673Y-205242D01*
X62685Y-205183D01*
X62694Y-205118D01*
X62700Y-205050D01*
X62703Y-204979D01*
Y-204976D01*
Y-204967D01*
Y-204955D01*
Y-204937D01*
X62700Y-204917D01*
Y-204890D01*
X62697Y-204863D01*
X62691Y-204831D01*
X62682Y-204763D01*
X62667Y-204692D01*
X62647Y-204615D01*
X62617Y-204544D01*
Y-204541D01*
X62614Y-204535D01*
X62608Y-204526D01*
X62602Y-204514D01*
X62581Y-204479D01*
X62555Y-204437D01*
X62519Y-204390D01*
X62475Y-204342D01*
X62424Y-204295D01*
X62368Y-204254D01*
X62365D01*
X62362Y-204248D01*
X62353Y-204245D01*
X62339Y-204236D01*
X62324Y-204230D01*
X62306Y-204221D01*
X62262Y-204200D01*
X62208Y-204183D01*
X62146Y-204165D01*
X62075Y-204153D01*
X62001Y-204150D01*
D02*
G37*
G36*
X65985Y-204194D02*
X65512D01*
Y-205757D01*
X65997D01*
X66018Y-205754D01*
X66062Y-205751D01*
X66113Y-205748D01*
X66166Y-205743D01*
X66219Y-205734D01*
X66264Y-205722D01*
X66269Y-205719D01*
X66284Y-205716D01*
X66305Y-205707D01*
X66332Y-205695D01*
X66361Y-205677D01*
X66391Y-205660D01*
X66421Y-205639D01*
X66450Y-205615D01*
X66453Y-205609D01*
X66465Y-205597D01*
X66483Y-205577D01*
X66503Y-205547D01*
X66527Y-205509D01*
X66554Y-205464D01*
X66577Y-205414D01*
X66598Y-205358D01*
Y-205355D01*
X66601Y-205349D01*
X66604Y-205340D01*
X66607Y-205328D01*
X66610Y-205313D01*
X66616Y-205293D01*
X66622Y-205272D01*
X66628Y-205248D01*
X66637Y-205189D01*
X66645Y-205121D01*
X66651Y-205044D01*
X66654Y-204961D01*
Y-204958D01*
Y-204946D01*
Y-204931D01*
X66651Y-204908D01*
Y-204881D01*
X66648Y-204852D01*
X66645Y-204816D01*
X66642Y-204781D01*
X66628Y-204701D01*
X66610Y-204618D01*
X66583Y-204541D01*
X66566Y-204502D01*
X66548Y-204470D01*
Y-204467D01*
X66542Y-204461D01*
X66536Y-204452D01*
X66530Y-204440D01*
X66506Y-204411D01*
X66477Y-204375D01*
X66438Y-204337D01*
X66394Y-204298D01*
X66343Y-204265D01*
X66290Y-204239D01*
X66284Y-204236D01*
X66269Y-204233D01*
X66243Y-204224D01*
X66204Y-204215D01*
X66157Y-204209D01*
X66098Y-204200D01*
X66062Y-204197D01*
X66024D01*
X65985Y-204194D01*
D02*
G37*
G36*
X43609D02*
X43135D01*
Y-205757D01*
X43621D01*
X43641Y-205754D01*
X43686Y-205751D01*
X43736Y-205748D01*
X43789Y-205743D01*
X43843Y-205734D01*
X43887Y-205722D01*
X43893Y-205719D01*
X43908Y-205716D01*
X43929Y-205707D01*
X43955Y-205695D01*
X43985Y-205677D01*
X44014Y-205660D01*
X44044Y-205639D01*
X44074Y-205615D01*
X44077Y-205609D01*
X44089Y-205597D01*
X44106Y-205577D01*
X44127Y-205547D01*
X44151Y-205509D01*
X44177Y-205464D01*
X44201Y-205414D01*
X44222Y-205358D01*
Y-205355D01*
X44225Y-205349D01*
X44228Y-205340D01*
X44231Y-205328D01*
X44234Y-205313D01*
X44239Y-205293D01*
X44245Y-205272D01*
X44251Y-205248D01*
X44260Y-205189D01*
X44269Y-205121D01*
X44275Y-205044D01*
X44278Y-204961D01*
Y-204958D01*
Y-204946D01*
Y-204931D01*
X44275Y-204908D01*
Y-204881D01*
X44272Y-204852D01*
X44269Y-204816D01*
X44266Y-204781D01*
X44251Y-204701D01*
X44234Y-204618D01*
X44207Y-204541D01*
X44189Y-204502D01*
X44171Y-204470D01*
Y-204467D01*
X44165Y-204461D01*
X44159Y-204452D01*
X44154Y-204440D01*
X44130Y-204411D01*
X44100Y-204375D01*
X44062Y-204337D01*
X44017Y-204298D01*
X43967Y-204265D01*
X43914Y-204239D01*
X43908Y-204236D01*
X43893Y-204233D01*
X43867Y-204224D01*
X43828Y-204215D01*
X43781Y-204209D01*
X43721Y-204200D01*
X43686Y-204197D01*
X43647D01*
X43609Y-204194D01*
D02*
G37*
G36*
X5886Y-165191D02*
X2955D01*
Y-166007D01*
Y-166013D01*
Y-166024D01*
Y-166046D01*
Y-166068D01*
Y-166102D01*
X2961Y-166140D01*
X2966Y-166224D01*
X2972Y-166318D01*
X2983Y-166418D01*
X2999Y-166518D01*
X3022Y-166601D01*
X3027Y-166612D01*
X3033Y-166640D01*
X3049Y-166679D01*
X3072Y-166729D01*
X3105Y-166784D01*
X3138Y-166840D01*
X3177Y-166895D01*
X3221Y-166951D01*
X3233Y-166956D01*
X3255Y-166978D01*
X3294Y-167012D01*
X3349Y-167051D01*
X3421Y-167095D01*
X3505Y-167145D01*
X3599Y-167189D01*
X3704Y-167228D01*
X3710D01*
X3721Y-167234D01*
X3738Y-167239D01*
X3760Y-167245D01*
X3788Y-167250D01*
X3826Y-167261D01*
X3865Y-167273D01*
X3910Y-167284D01*
X4021Y-167300D01*
X4148Y-167317D01*
X4293Y-167328D01*
X4448Y-167334D01*
X4504D01*
X4548Y-167328D01*
X4598D01*
X4653Y-167323D01*
X4720Y-167317D01*
X4787Y-167311D01*
X4936Y-167284D01*
X5092Y-167250D01*
X5236Y-167200D01*
X5308Y-167167D01*
X5369Y-167134D01*
X5375D01*
X5386Y-167123D01*
X5403Y-167112D01*
X5425Y-167101D01*
X5480Y-167056D01*
X5547Y-167001D01*
X5619Y-166928D01*
X5691Y-166845D01*
X5752Y-166751D01*
X5802Y-166651D01*
X5808Y-166640D01*
X5813Y-166612D01*
X5830Y-166562D01*
X5847Y-166490D01*
X5858Y-166401D01*
X5874Y-166290D01*
X5880Y-166224D01*
Y-166151D01*
X5886Y-166079D01*
Y-165996D01*
Y-165191D01*
D02*
G37*
G36*
X23985Y-204194D02*
X23512D01*
Y-205757D01*
X23997D01*
X24018Y-205754D01*
X24062Y-205751D01*
X24113Y-205748D01*
X24166Y-205743D01*
X24219Y-205734D01*
X24264Y-205722D01*
X24270Y-205719D01*
X24284Y-205716D01*
X24305Y-205707D01*
X24332Y-205695D01*
X24361Y-205677D01*
X24391Y-205660D01*
X24420Y-205639D01*
X24450Y-205615D01*
X24453Y-205609D01*
X24465Y-205597D01*
X24483Y-205577D01*
X24503Y-205547D01*
X24527Y-205509D01*
X24554Y-205464D01*
X24577Y-205414D01*
X24598Y-205358D01*
Y-205355D01*
X24601Y-205349D01*
X24604Y-205340D01*
X24607Y-205328D01*
X24610Y-205313D01*
X24616Y-205293D01*
X24622Y-205272D01*
X24628Y-205248D01*
X24637Y-205189D01*
X24645Y-205121D01*
X24651Y-205044D01*
X24654Y-204961D01*
Y-204958D01*
Y-204946D01*
Y-204931D01*
X24651Y-204908D01*
Y-204881D01*
X24648Y-204852D01*
X24645Y-204816D01*
X24643Y-204781D01*
X24628Y-204701D01*
X24610Y-204618D01*
X24583Y-204541D01*
X24566Y-204502D01*
X24548Y-204470D01*
Y-204467D01*
X24542Y-204461D01*
X24536Y-204452D01*
X24530Y-204440D01*
X24506Y-204411D01*
X24477Y-204375D01*
X24438Y-204337D01*
X24394Y-204298D01*
X24343Y-204265D01*
X24290Y-204239D01*
X24284Y-204236D01*
X24270Y-204233D01*
X24243Y-204224D01*
X24204Y-204215D01*
X24157Y-204209D01*
X24098Y-204200D01*
X24062Y-204197D01*
X24024D01*
X23985Y-204194D01*
D02*
G37*
G36*
X22029Y-204165D02*
Y-204168D01*
X22026Y-204174D01*
Y-204186D01*
X22020Y-204197D01*
X22017Y-204218D01*
X22011Y-204239D01*
X21999Y-204289D01*
X21984Y-204348D01*
X21964Y-204413D01*
X21943Y-204485D01*
X21916Y-204558D01*
X21694Y-205156D01*
X22387D01*
X22174Y-204594D01*
Y-204591D01*
X22171Y-204582D01*
X22165Y-204567D01*
X22159Y-204550D01*
X22150Y-204529D01*
X22141Y-204502D01*
X22132Y-204473D01*
X22121Y-204443D01*
X22097Y-204375D01*
X22073Y-204304D01*
X22050Y-204233D01*
X22029Y-204165D01*
D02*
G37*
G36*
X148029D02*
Y-204168D01*
X148026Y-204174D01*
Y-204186D01*
X148020Y-204197D01*
X148017Y-204218D01*
X148011Y-204239D01*
X147999Y-204289D01*
X147984Y-204348D01*
X147964Y-204413D01*
X147943Y-204485D01*
X147916Y-204558D01*
X147694Y-205156D01*
X148387D01*
X148174Y-204594D01*
Y-204591D01*
X148171Y-204582D01*
X148165Y-204567D01*
X148159Y-204550D01*
X148150Y-204529D01*
X148141Y-204502D01*
X148132Y-204473D01*
X148121Y-204443D01*
X148097Y-204375D01*
X148073Y-204304D01*
X148049Y-204233D01*
X148029Y-204165D01*
D02*
G37*
G36*
X127609Y-204194D02*
X127135D01*
Y-205757D01*
X127621D01*
X127641Y-205754D01*
X127686Y-205751D01*
X127736Y-205748D01*
X127789Y-205743D01*
X127843Y-205734D01*
X127887Y-205722D01*
X127893Y-205719D01*
X127908Y-205716D01*
X127929Y-205707D01*
X127955Y-205695D01*
X127985Y-205677D01*
X128015Y-205660D01*
X128044Y-205639D01*
X128074Y-205615D01*
X128077Y-205609D01*
X128088Y-205597D01*
X128106Y-205577D01*
X128127Y-205547D01*
X128151Y-205509D01*
X128177Y-205464D01*
X128201Y-205414D01*
X128222Y-205358D01*
Y-205355D01*
X128225Y-205349D01*
X128228Y-205340D01*
X128231Y-205328D01*
X128234Y-205313D01*
X128239Y-205293D01*
X128245Y-205272D01*
X128251Y-205248D01*
X128260Y-205189D01*
X128269Y-205121D01*
X128275Y-205044D01*
X128278Y-204961D01*
Y-204958D01*
Y-204946D01*
Y-204931D01*
X128275Y-204908D01*
Y-204881D01*
X128272Y-204852D01*
X128269Y-204816D01*
X128266Y-204781D01*
X128251Y-204701D01*
X128234Y-204618D01*
X128207Y-204541D01*
X128189Y-204502D01*
X128171Y-204470D01*
Y-204467D01*
X128165Y-204461D01*
X128159Y-204452D01*
X128154Y-204440D01*
X128130Y-204411D01*
X128100Y-204375D01*
X128062Y-204337D01*
X128017Y-204298D01*
X127967Y-204265D01*
X127914Y-204239D01*
X127908Y-204236D01*
X127893Y-204233D01*
X127866Y-204224D01*
X127828Y-204215D01*
X127781Y-204209D01*
X127721Y-204200D01*
X127686Y-204197D01*
X127647D01*
X127609Y-204194D01*
D02*
G37*
G36*
X146001Y-204150D02*
X145975D01*
X145954Y-204153D01*
X145927Y-204156D01*
X145901Y-204162D01*
X145868Y-204168D01*
X145833Y-204174D01*
X145756Y-204197D01*
X145714Y-204215D01*
X145673Y-204233D01*
X145628Y-204257D01*
X145587Y-204283D01*
X145545Y-204313D01*
X145507Y-204348D01*
X145504Y-204351D01*
X145498Y-204357D01*
X145489Y-204369D01*
X145474Y-204387D01*
X145459Y-204408D01*
X145442Y-204434D01*
X145424Y-204467D01*
X145403Y-204505D01*
X145386Y-204547D01*
X145365Y-204597D01*
X145347Y-204650D01*
X145332Y-204709D01*
X145317Y-204775D01*
X145309Y-204849D01*
X145303Y-204925D01*
X145300Y-205008D01*
Y-205011D01*
Y-205023D01*
Y-205044D01*
X145303Y-205071D01*
X145306Y-205100D01*
X145311Y-205136D01*
X145317Y-205177D01*
X145323Y-205219D01*
X145347Y-205313D01*
X145365Y-205361D01*
X145383Y-205411D01*
X145406Y-205458D01*
X145433Y-205506D01*
X145463Y-205550D01*
X145498Y-205592D01*
X145501Y-205594D01*
X145507Y-205600D01*
X145519Y-205612D01*
X145534Y-205624D01*
X145554Y-205642D01*
X145578Y-205660D01*
X145605Y-205677D01*
X145634Y-205698D01*
X145670Y-205719D01*
X145708Y-205737D01*
X145750Y-205754D01*
X145794Y-205772D01*
X145841Y-205784D01*
X145889Y-205796D01*
X145942Y-205802D01*
X145998Y-205805D01*
X146013D01*
X146028Y-205802D01*
X146049D01*
X146075Y-205799D01*
X146105Y-205793D01*
X146140Y-205787D01*
X146176Y-205778D01*
X146217Y-205766D01*
X146256Y-205751D01*
X146300Y-205737D01*
X146342Y-205716D01*
X146383Y-205689D01*
X146424Y-205663D01*
X146466Y-205630D01*
X146504Y-205592D01*
X146507Y-205589D01*
X146513Y-205583D01*
X146522Y-205568D01*
X146537Y-205550D01*
X146552Y-205529D01*
X146567Y-205503D01*
X146584Y-205470D01*
X146605Y-205435D01*
X146623Y-205393D01*
X146641Y-205346D01*
X146655Y-205295D01*
X146673Y-205242D01*
X146685Y-205183D01*
X146694Y-205118D01*
X146700Y-205050D01*
X146703Y-204979D01*
Y-204976D01*
Y-204967D01*
Y-204955D01*
Y-204937D01*
X146700Y-204917D01*
Y-204890D01*
X146697Y-204863D01*
X146691Y-204831D01*
X146682Y-204763D01*
X146667Y-204692D01*
X146646Y-204615D01*
X146617Y-204544D01*
Y-204541D01*
X146614Y-204535D01*
X146608Y-204526D01*
X146602Y-204514D01*
X146581Y-204479D01*
X146555Y-204437D01*
X146519Y-204390D01*
X146475Y-204342D01*
X146424Y-204295D01*
X146368Y-204254D01*
X146365D01*
X146362Y-204248D01*
X146353Y-204245D01*
X146339Y-204236D01*
X146324Y-204230D01*
X146306Y-204221D01*
X146262Y-204200D01*
X146208Y-204183D01*
X146146Y-204165D01*
X146075Y-204153D01*
X146001Y-204150D01*
D02*
G37*
G36*
X149985Y-204194D02*
X149512D01*
Y-205757D01*
X149997D01*
X150018Y-205754D01*
X150062Y-205751D01*
X150113Y-205748D01*
X150166Y-205743D01*
X150219Y-205734D01*
X150264Y-205722D01*
X150269Y-205719D01*
X150284Y-205716D01*
X150305Y-205707D01*
X150332Y-205695D01*
X150361Y-205677D01*
X150391Y-205660D01*
X150420Y-205639D01*
X150450Y-205615D01*
X150453Y-205609D01*
X150465Y-205597D01*
X150483Y-205577D01*
X150503Y-205547D01*
X150527Y-205509D01*
X150554Y-205464D01*
X150577Y-205414D01*
X150598Y-205358D01*
Y-205355D01*
X150601Y-205349D01*
X150604Y-205340D01*
X150607Y-205328D01*
X150610Y-205313D01*
X150616Y-205293D01*
X150622Y-205272D01*
X150628Y-205248D01*
X150637Y-205189D01*
X150645Y-205121D01*
X150651Y-205044D01*
X150654Y-204961D01*
Y-204958D01*
Y-204946D01*
Y-204931D01*
X150651Y-204908D01*
Y-204881D01*
X150648Y-204852D01*
X150645Y-204816D01*
X150643Y-204781D01*
X150628Y-204701D01*
X150610Y-204618D01*
X150583Y-204541D01*
X150566Y-204502D01*
X150548Y-204470D01*
Y-204467D01*
X150542Y-204461D01*
X150536Y-204452D01*
X150530Y-204440D01*
X150506Y-204411D01*
X150477Y-204375D01*
X150438Y-204337D01*
X150394Y-204298D01*
X150344Y-204265D01*
X150290Y-204239D01*
X150284Y-204236D01*
X150269Y-204233D01*
X150243Y-204224D01*
X150204Y-204215D01*
X150157Y-204209D01*
X150098Y-204200D01*
X150062Y-204197D01*
X150024D01*
X149985Y-204194D01*
D02*
G37*
G36*
X106029Y-204165D02*
Y-204168D01*
X106026Y-204174D01*
Y-204186D01*
X106020Y-204197D01*
X106017Y-204218D01*
X106011Y-204239D01*
X105999Y-204289D01*
X105984Y-204348D01*
X105964Y-204413D01*
X105943Y-204485D01*
X105916Y-204558D01*
X105694Y-205156D01*
X106387D01*
X106174Y-204594D01*
Y-204591D01*
X106171Y-204582D01*
X106165Y-204567D01*
X106159Y-204550D01*
X106150Y-204529D01*
X106141Y-204502D01*
X106132Y-204473D01*
X106121Y-204443D01*
X106097Y-204375D01*
X106073Y-204304D01*
X106050Y-204233D01*
X106029Y-204165D01*
D02*
G37*
G36*
X85609Y-204194D02*
X85135D01*
Y-205757D01*
X85621D01*
X85641Y-205754D01*
X85686Y-205751D01*
X85736Y-205748D01*
X85790Y-205743D01*
X85843Y-205734D01*
X85887Y-205722D01*
X85893Y-205719D01*
X85908Y-205716D01*
X85929Y-205707D01*
X85955Y-205695D01*
X85985Y-205677D01*
X86014Y-205660D01*
X86044Y-205639D01*
X86074Y-205615D01*
X86077Y-205609D01*
X86089Y-205597D01*
X86106Y-205577D01*
X86127Y-205547D01*
X86151Y-205509D01*
X86177Y-205464D01*
X86201Y-205414D01*
X86222Y-205358D01*
Y-205355D01*
X86225Y-205349D01*
X86228Y-205340D01*
X86231Y-205328D01*
X86234Y-205313D01*
X86239Y-205293D01*
X86245Y-205272D01*
X86251Y-205248D01*
X86260Y-205189D01*
X86269Y-205121D01*
X86275Y-205044D01*
X86278Y-204961D01*
Y-204958D01*
Y-204946D01*
Y-204931D01*
X86275Y-204908D01*
Y-204881D01*
X86272Y-204852D01*
X86269Y-204816D01*
X86266Y-204781D01*
X86251Y-204701D01*
X86234Y-204618D01*
X86207Y-204541D01*
X86189Y-204502D01*
X86171Y-204470D01*
Y-204467D01*
X86165Y-204461D01*
X86159Y-204452D01*
X86154Y-204440D01*
X86130Y-204411D01*
X86100Y-204375D01*
X86062Y-204337D01*
X86017Y-204298D01*
X85967Y-204265D01*
X85914Y-204239D01*
X85908Y-204236D01*
X85893Y-204233D01*
X85866Y-204224D01*
X85828Y-204215D01*
X85781Y-204209D01*
X85721Y-204200D01*
X85686Y-204197D01*
X85647D01*
X85609Y-204194D01*
D02*
G37*
G36*
X104001Y-204150D02*
X103975D01*
X103954Y-204153D01*
X103927Y-204156D01*
X103901Y-204162D01*
X103868Y-204168D01*
X103832Y-204174D01*
X103755Y-204197D01*
X103714Y-204215D01*
X103673Y-204233D01*
X103628Y-204257D01*
X103587Y-204283D01*
X103545Y-204313D01*
X103507Y-204348D01*
X103504Y-204351D01*
X103498Y-204357D01*
X103489Y-204369D01*
X103474Y-204387D01*
X103460Y-204408D01*
X103442Y-204434D01*
X103424Y-204467D01*
X103403Y-204505D01*
X103385Y-204547D01*
X103365Y-204597D01*
X103347Y-204650D01*
X103332Y-204709D01*
X103317Y-204775D01*
X103309Y-204849D01*
X103303Y-204925D01*
X103300Y-205008D01*
Y-205011D01*
Y-205023D01*
Y-205044D01*
X103303Y-205071D01*
X103306Y-205100D01*
X103312Y-205136D01*
X103317Y-205177D01*
X103323Y-205219D01*
X103347Y-205313D01*
X103365Y-205361D01*
X103383Y-205411D01*
X103406Y-205458D01*
X103433Y-205506D01*
X103463Y-205550D01*
X103498Y-205592D01*
X103501Y-205594D01*
X103507Y-205600D01*
X103519Y-205612D01*
X103533Y-205624D01*
X103554Y-205642D01*
X103578Y-205660D01*
X103605Y-205677D01*
X103634Y-205698D01*
X103670Y-205719D01*
X103708Y-205737D01*
X103750Y-205754D01*
X103794Y-205772D01*
X103841Y-205784D01*
X103889Y-205796D01*
X103942Y-205802D01*
X103998Y-205805D01*
X104013D01*
X104028Y-205802D01*
X104049D01*
X104075Y-205799D01*
X104105Y-205793D01*
X104140Y-205787D01*
X104176Y-205778D01*
X104217Y-205766D01*
X104256Y-205751D01*
X104300Y-205737D01*
X104342Y-205716D01*
X104383Y-205689D01*
X104425Y-205663D01*
X104466Y-205630D01*
X104504Y-205592D01*
X104507Y-205589D01*
X104513Y-205583D01*
X104522Y-205568D01*
X104537Y-205550D01*
X104552Y-205529D01*
X104567Y-205503D01*
X104584Y-205470D01*
X104605Y-205435D01*
X104623Y-205393D01*
X104641Y-205346D01*
X104655Y-205295D01*
X104673Y-205242D01*
X104685Y-205183D01*
X104694Y-205118D01*
X104700Y-205050D01*
X104703Y-204979D01*
Y-204976D01*
Y-204967D01*
Y-204955D01*
Y-204937D01*
X104700Y-204917D01*
Y-204890D01*
X104697Y-204863D01*
X104691Y-204831D01*
X104682Y-204763D01*
X104667Y-204692D01*
X104647Y-204615D01*
X104617Y-204544D01*
Y-204541D01*
X104614Y-204535D01*
X104608Y-204526D01*
X104602Y-204514D01*
X104581Y-204479D01*
X104555Y-204437D01*
X104519Y-204390D01*
X104475Y-204342D01*
X104425Y-204295D01*
X104368Y-204254D01*
X104365D01*
X104362Y-204248D01*
X104353Y-204245D01*
X104339Y-204236D01*
X104324Y-204230D01*
X104306Y-204221D01*
X104262Y-204200D01*
X104208Y-204183D01*
X104146Y-204165D01*
X104075Y-204153D01*
X104001Y-204150D01*
D02*
G37*
G36*
X107985Y-204194D02*
X107512D01*
Y-205757D01*
X107997D01*
X108018Y-205754D01*
X108062Y-205751D01*
X108113Y-205748D01*
X108166Y-205743D01*
X108219Y-205734D01*
X108264Y-205722D01*
X108270Y-205719D01*
X108284Y-205716D01*
X108305Y-205707D01*
X108332Y-205695D01*
X108361Y-205677D01*
X108391Y-205660D01*
X108421Y-205639D01*
X108450Y-205615D01*
X108453Y-205609D01*
X108465Y-205597D01*
X108483Y-205577D01*
X108503Y-205547D01*
X108527Y-205509D01*
X108554Y-205464D01*
X108577Y-205414D01*
X108598Y-205358D01*
Y-205355D01*
X108601Y-205349D01*
X108604Y-205340D01*
X108607Y-205328D01*
X108610Y-205313D01*
X108616Y-205293D01*
X108622Y-205272D01*
X108628Y-205248D01*
X108637Y-205189D01*
X108645Y-205121D01*
X108651Y-205044D01*
X108654Y-204961D01*
Y-204958D01*
Y-204946D01*
Y-204931D01*
X108651Y-204908D01*
Y-204881D01*
X108648Y-204852D01*
X108645Y-204816D01*
X108642Y-204781D01*
X108628Y-204701D01*
X108610Y-204618D01*
X108583Y-204541D01*
X108565Y-204502D01*
X108548Y-204470D01*
Y-204467D01*
X108542Y-204461D01*
X108536Y-204452D01*
X108530Y-204440D01*
X108506Y-204411D01*
X108477Y-204375D01*
X108438Y-204337D01*
X108394Y-204298D01*
X108344Y-204265D01*
X108290Y-204239D01*
X108284Y-204236D01*
X108270Y-204233D01*
X108243Y-204224D01*
X108204Y-204215D01*
X108157Y-204209D01*
X108098Y-204200D01*
X108062Y-204197D01*
X108024D01*
X107985Y-204194D01*
D02*
G37*
%LPD*%
D30*
X219580Y-77571D02*
G03*
X219580Y-77571I-557J0D01*
G01*
X214538Y-87807D02*
G03*
X214538Y-87807I-1419J0D01*
G01*
X177580Y-77571D02*
G03*
X177580Y-77571I-557J0D01*
G01*
X172538Y-87807D02*
G03*
X172538Y-87807I-1419J0D01*
G01*
X135580Y-77571D02*
G03*
X135580Y-77571I-557J0D01*
G01*
X130538Y-87807D02*
G03*
X130538Y-87807I-1419J0D01*
G01*
X93580Y-77571D02*
G03*
X93580Y-77571I-557J0D01*
G01*
X88538Y-87807D02*
G03*
X88538Y-87807I-1419J0D01*
G01*
X51580Y-77571D02*
G03*
X51580Y-77571I-557J0D01*
G01*
X46538Y-87807D02*
G03*
X46538Y-87807I-1419J0D01*
G01*
X217389Y-27500D02*
G03*
X217389Y-32500I0J-2500D01*
G01*
X198945Y-83280D02*
X217055D01*
X198945Y-105720D02*
Y-83280D01*
Y-105720D02*
X217055D01*
Y-83280D01*
X156945D02*
X175055D01*
X156945Y-105720D02*
Y-83280D01*
Y-105720D02*
X175055D01*
Y-83280D01*
X114945D02*
X133055D01*
X114945Y-105720D02*
Y-83280D01*
Y-105720D02*
X133055D01*
Y-83280D01*
X72945D02*
X91055D01*
X72945Y-105720D02*
Y-83280D01*
Y-105720D02*
X91055D01*
Y-83280D01*
X30945D02*
X49055D01*
X30945Y-105720D02*
Y-83280D01*
Y-105720D02*
X49055D01*
Y-83280D01*
X189138Y-127500D02*
X193862D01*
X147138D02*
X151862D01*
X105138D02*
X109862D01*
X63138D02*
X67862D01*
X21138D02*
X25862D01*
X187000Y-116362D02*
Y-111638D01*
X145000Y-116362D02*
Y-111638D01*
X103000Y-116362D02*
Y-111638D01*
X61000Y-116362D02*
Y-111638D01*
X19000Y-116362D02*
Y-111638D01*
X187000Y-87862D02*
Y-83138D01*
X145000Y-87862D02*
Y-83138D01*
X103000Y-87862D02*
Y-83138D01*
X61000Y-87862D02*
Y-83138D01*
X19000Y-87862D02*
Y-83138D01*
X213638Y-146000D02*
X218362D01*
X171638D02*
X176362D01*
X129638D02*
X134362D01*
X87638D02*
X92362D01*
X45638D02*
X50362D01*
X151090Y-40433D02*
X217389D01*
X151090Y-19567D02*
X217389D01*
X151090Y-40433D02*
Y-19567D01*
X217389Y-40433D02*
Y-32500D01*
Y-27500D02*
Y-19567D01*
X99138Y-29500D02*
X103862D01*
X87638D02*
X92362D01*
X187000Y-99362D02*
Y-94638D01*
X145000Y-99362D02*
Y-94638D01*
X103000Y-99362D02*
Y-94638D01*
X61000Y-99362D02*
Y-94638D01*
X19000Y-99362D02*
Y-94638D01*
X28338Y-28800D02*
X33062D01*
X16238Y-28700D02*
X20962D01*
X15600Y-18562D02*
Y-13838D01*
X214200Y-10000D02*
Y10000D01*
X14200Y-10000D02*
Y10000D01*
X214200D01*
X14200Y-10000D02*
X214200D01*
X-10200Y-35600D02*
X9800D01*
Y-25600D01*
X-10200D02*
X9800D01*
X-10200Y-35600D02*
Y-25600D01*
Y-57200D02*
X9800D01*
Y-47200D01*
X-10200D02*
X9800D01*
X-10200Y-57200D02*
Y-47200D01*
X14354Y-166220D02*
X33646D01*
X14354Y-153779D02*
X33646D01*
X14354Y-166220D02*
Y-153779D01*
X33646Y-166220D02*
Y-153779D01*
X56354Y-166220D02*
X75646D01*
X56354Y-153779D02*
X75646D01*
X56354Y-166220D02*
Y-153779D01*
X75646Y-166220D02*
Y-153779D01*
X98354Y-166220D02*
X117646D01*
X98354Y-153779D02*
X117646D01*
X98354Y-166220D02*
Y-153779D01*
X117646Y-166220D02*
Y-153779D01*
X140354Y-166220D02*
X159646D01*
X140354Y-153779D02*
X159646D01*
X140354Y-166220D02*
Y-153779D01*
X159646Y-166220D02*
Y-153779D01*
X182354Y-166220D02*
X201646D01*
X182354Y-153779D02*
X201646D01*
X182354Y-166220D02*
Y-153779D01*
X201646Y-166220D02*
Y-153779D01*
X34638Y-145000D02*
X39362D01*
X76638D02*
X81362D01*
X118638D02*
X123362D01*
X160638D02*
X165362D01*
X202638D02*
X207362D01*
X-1600Y-22762D02*
Y-18038D01*
Y-43862D02*
Y-39138D01*
D31*
X128700Y-54300D02*
G03*
X126300Y-54300I-1200J0D01*
G01*
X82600Y-133100D02*
Y-121900D01*
X77400D02*
X82600D01*
X77400Y-133100D02*
Y-121900D01*
Y-133100D02*
X82600D01*
X136400Y-54300D02*
Y-53600D01*
X128700Y-54300D02*
X136400D01*
X126300D02*
X128700D01*
X118600D02*
X126300D01*
X118600Y-16400D02*
Y-15700D01*
X136400D01*
Y-16400D02*
Y-15700D01*
X118600Y-54300D02*
Y-53600D01*
X143100Y-28500D02*
X147100D01*
X107900Y-31000D02*
X111900D01*
X208600Y-133100D02*
Y-121900D01*
X203400D02*
X208600D01*
X203400Y-133100D02*
Y-121900D01*
Y-133100D02*
X208600D01*
X166600D02*
Y-121900D01*
X161400D02*
X166600D01*
X161400Y-133100D02*
Y-121900D01*
Y-133100D02*
X166600D01*
X124600D02*
Y-121900D01*
X119400D02*
X124600D01*
X119400Y-133100D02*
Y-121900D01*
Y-133100D02*
X124600D01*
X40600D02*
Y-121900D01*
X35400D02*
X40600D01*
X35400Y-133100D02*
Y-121900D01*
Y-133100D02*
X40600D01*
X70033Y-119067D02*
Y-116934D01*
X69499Y-116401D01*
X68433D01*
X67900Y-116934D01*
Y-119067D01*
X68433Y-119600D01*
X69499D01*
X68966Y-118534D02*
X70033Y-119600D01*
X69499D02*
X70033Y-119067D01*
X73232Y-119600D02*
X71099D01*
X73232Y-117467D01*
Y-116934D01*
X72698Y-116401D01*
X71632D01*
X71099Y-116934D01*
X200801Y-104000D02*
X203467D01*
X204000Y-103467D01*
Y-102401D01*
X203467Y-101867D01*
X200801D01*
X204000Y-100801D02*
Y-99735D01*
Y-100268D01*
X200801D01*
X201334Y-100801D01*
X158601Y-104100D02*
X161267D01*
X161800Y-103567D01*
Y-102500D01*
X161267Y-101967D01*
X158601D01*
X161800Y-100901D02*
Y-99835D01*
Y-100368D01*
X158601D01*
X159134Y-100901D01*
X116701Y-104100D02*
X119367D01*
X119900Y-103567D01*
Y-102500D01*
X119367Y-101967D01*
X116701D01*
X119900Y-100901D02*
Y-99835D01*
Y-100368D01*
X116701D01*
X117234Y-100901D01*
X74601Y-104100D02*
X77267D01*
X77800Y-103567D01*
Y-102500D01*
X77267Y-101967D01*
X74601D01*
X77800Y-100901D02*
Y-99835D01*
Y-100368D01*
X74601D01*
X75134Y-100901D01*
X32601Y-104200D02*
X35267D01*
X35800Y-103667D01*
Y-102601D01*
X35267Y-102067D01*
X32601D01*
X35800Y-101001D02*
Y-99935D01*
Y-100468D01*
X32601D01*
X33134Y-101001D01*
X187400Y-132900D02*
X184201D01*
Y-131300D01*
X184734Y-130767D01*
X185801D01*
X186334Y-131300D01*
Y-132900D01*
Y-131834D02*
X187400Y-130767D01*
X184201Y-127568D02*
X184734Y-128635D01*
X185801Y-129701D01*
X186867D01*
X187400Y-129168D01*
Y-128102D01*
X186867Y-127568D01*
X186334D01*
X185801Y-128102D01*
Y-129701D01*
X145400Y-132900D02*
X142201D01*
Y-131300D01*
X142734Y-130767D01*
X143800D01*
X144334Y-131300D01*
Y-132900D01*
Y-131834D02*
X145400Y-130767D01*
X142201Y-127568D02*
X142734Y-128635D01*
X143800Y-129701D01*
X144867D01*
X145400Y-129168D01*
Y-128102D01*
X144867Y-127568D01*
X144334D01*
X143800Y-128102D01*
Y-129701D01*
X103400Y-132900D02*
X100201D01*
Y-131300D01*
X100734Y-130767D01*
X101801D01*
X102334Y-131300D01*
Y-132900D01*
Y-131834D02*
X103400Y-130767D01*
X100201Y-127568D02*
X100734Y-128635D01*
X101801Y-129701D01*
X102867D01*
X103400Y-129168D01*
Y-128102D01*
X102867Y-127568D01*
X102334D01*
X101801Y-128102D01*
Y-129701D01*
X61400Y-132900D02*
X58201D01*
Y-131300D01*
X58734Y-130767D01*
X59800D01*
X60334Y-131300D01*
Y-132900D01*
Y-131834D02*
X61400Y-130767D01*
X58201Y-127568D02*
X58734Y-128635D01*
X59800Y-129701D01*
X60867D01*
X61400Y-129168D01*
Y-128102D01*
X60867Y-127568D01*
X60334D01*
X59800Y-128102D01*
Y-129701D01*
X19400Y-132900D02*
X16201D01*
Y-131300D01*
X16734Y-130767D01*
X17800D01*
X18334Y-131300D01*
Y-132900D01*
Y-131834D02*
X19400Y-130767D01*
X16201Y-127568D02*
X16734Y-128635D01*
X17800Y-129701D01*
X18867D01*
X19400Y-129168D01*
Y-128102D01*
X18867Y-127568D01*
X18334D01*
X17800Y-128102D01*
Y-129701D01*
X180500Y-109500D02*
Y-106301D01*
X182099D01*
X182633Y-106834D01*
Y-107901D01*
X182099Y-108434D01*
X180500D01*
X181566D02*
X182633Y-109500D01*
X185832Y-106301D02*
X183699D01*
Y-107901D01*
X184765Y-107367D01*
X185299D01*
X185832Y-107901D01*
Y-108967D01*
X185299Y-109500D01*
X184232D01*
X183699Y-108967D01*
X138500Y-109500D02*
Y-106301D01*
X140100D01*
X140633Y-106834D01*
Y-107901D01*
X140100Y-108434D01*
X138500D01*
X139566D02*
X140633Y-109500D01*
X143832Y-106301D02*
X141699D01*
Y-107901D01*
X142765Y-107367D01*
X143298D01*
X143832Y-107901D01*
Y-108967D01*
X143298Y-109500D01*
X142232D01*
X141699Y-108967D01*
X96500Y-109500D02*
Y-106301D01*
X98099D01*
X98633Y-106834D01*
Y-107901D01*
X98099Y-108434D01*
X96500D01*
X97566D02*
X98633Y-109500D01*
X101832Y-106301D02*
X99699D01*
Y-107901D01*
X100765Y-107367D01*
X101298D01*
X101832Y-107901D01*
Y-108967D01*
X101298Y-109500D01*
X100232D01*
X99699Y-108967D01*
X54500Y-109500D02*
Y-106301D01*
X56099D01*
X56633Y-106834D01*
Y-107901D01*
X56099Y-108434D01*
X54500D01*
X55566D02*
X56633Y-109500D01*
X59832Y-106301D02*
X57699D01*
Y-107901D01*
X58765Y-107367D01*
X59298D01*
X59832Y-107901D01*
Y-108967D01*
X59298Y-109500D01*
X58232D01*
X57699Y-108967D01*
X12500Y-109500D02*
Y-106301D01*
X14099D01*
X14633Y-106834D01*
Y-107901D01*
X14099Y-108434D01*
X12500D01*
X13566D02*
X14633Y-109500D01*
X17832Y-106301D02*
X15699D01*
Y-107901D01*
X16765Y-107367D01*
X17298D01*
X17832Y-107901D01*
Y-108967D01*
X17298Y-109500D01*
X16232D01*
X15699Y-108967D01*
X178900Y-81000D02*
Y-77801D01*
X180499D01*
X181033Y-78334D01*
Y-79400D01*
X180499Y-79934D01*
X178900D01*
X179966D02*
X181033Y-81000D01*
X182099Y-78334D02*
X182632Y-77801D01*
X183698D01*
X184232Y-78334D01*
Y-78867D01*
X183698Y-79400D01*
X183165D01*
X183698D01*
X184232Y-79934D01*
Y-80467D01*
X183698Y-81000D01*
X182632D01*
X182099Y-80467D01*
X137000Y-81300D02*
Y-78101D01*
X138600D01*
X139133Y-78634D01*
Y-79700D01*
X138600Y-80234D01*
X137000D01*
X138066D02*
X139133Y-81300D01*
X140199Y-78634D02*
X140732Y-78101D01*
X141798D01*
X142332Y-78634D01*
Y-79167D01*
X141798Y-79700D01*
X141265D01*
X141798D01*
X142332Y-80234D01*
Y-80767D01*
X141798Y-81300D01*
X140732D01*
X140199Y-80767D01*
X95000Y-81300D02*
Y-78101D01*
X96600D01*
X97133Y-78634D01*
Y-79700D01*
X96600Y-80234D01*
X95000D01*
X96066D02*
X97133Y-81300D01*
X98199Y-78634D02*
X98732Y-78101D01*
X99799D01*
X100332Y-78634D01*
Y-79167D01*
X99799Y-79700D01*
X99265D01*
X99799D01*
X100332Y-80234D01*
Y-80767D01*
X99799Y-81300D01*
X98732D01*
X98199Y-80767D01*
X53000Y-81300D02*
Y-78101D01*
X54599D01*
X55133Y-78634D01*
Y-79700D01*
X54599Y-80234D01*
X53000D01*
X54066D02*
X55133Y-81300D01*
X56199Y-78634D02*
X56732Y-78101D01*
X57798D01*
X58332Y-78634D01*
Y-79167D01*
X57798Y-79700D01*
X57265D01*
X57798D01*
X58332Y-80234D01*
Y-80767D01*
X57798Y-81300D01*
X56732D01*
X56199Y-80767D01*
X11000Y-81300D02*
Y-78101D01*
X12599D01*
X13133Y-78634D01*
Y-79700D01*
X12599Y-80234D01*
X11000D01*
X12066D02*
X13133Y-81300D01*
X14199Y-78634D02*
X14732Y-78101D01*
X15798D01*
X16332Y-78634D01*
Y-79167D01*
X15798Y-79700D01*
X15265D01*
X15798D01*
X16332Y-80234D01*
Y-80767D01*
X15798Y-81300D01*
X14732D01*
X14199Y-80767D01*
X212200Y-158200D02*
Y-155001D01*
X213800D01*
X214333Y-155534D01*
Y-156600D01*
X213800Y-157134D01*
X212200D01*
X213266D02*
X214333Y-158200D01*
X215399D02*
X216465D01*
X215932D01*
Y-155001D01*
X215399Y-155534D01*
X170200Y-157900D02*
Y-154701D01*
X171800D01*
X172333Y-155234D01*
Y-156300D01*
X171800Y-156834D01*
X170200D01*
X171266D02*
X172333Y-157900D01*
X173399D02*
X174465D01*
X173932D01*
Y-154701D01*
X173399Y-155234D01*
X128200Y-158200D02*
Y-155001D01*
X129799D01*
X130333Y-155534D01*
Y-156600D01*
X129799Y-157134D01*
X128200D01*
X129266D02*
X130333Y-158200D01*
X131399D02*
X132465D01*
X131932D01*
Y-155001D01*
X131399Y-155534D01*
X86200Y-158000D02*
Y-154801D01*
X87800D01*
X88333Y-155334D01*
Y-156401D01*
X87800Y-156934D01*
X86200D01*
X87266D02*
X88333Y-158000D01*
X89399D02*
X90465D01*
X89932D01*
Y-154801D01*
X89399Y-155334D01*
X44200Y-158200D02*
Y-155001D01*
X45799D01*
X46333Y-155534D01*
Y-156600D01*
X45799Y-157134D01*
X44200D01*
X45266D02*
X46333Y-158200D01*
X47399D02*
X48465D01*
X47932D01*
Y-155001D01*
X47399Y-155534D01*
X121500Y-16301D02*
Y-18967D01*
X122033Y-19500D01*
X123100D01*
X123633Y-18967D01*
Y-16301D01*
X126832Y-19500D02*
X124699D01*
X126832Y-17367D01*
Y-16834D01*
X126298Y-16301D01*
X125232D01*
X124699Y-16834D01*
X154833Y-20834D02*
X154299Y-20301D01*
X153233D01*
X152700Y-20834D01*
Y-21367D01*
X153233Y-21901D01*
X154299D01*
X154833Y-22434D01*
Y-22967D01*
X154299Y-23500D01*
X153233D01*
X152700Y-22967D01*
X155899Y-23500D02*
X156965D01*
X156432D01*
Y-20301D01*
X155899Y-20834D01*
X96500Y-36000D02*
X93301D01*
Y-34400D01*
X93834Y-33867D01*
X94901D01*
X95434Y-34400D01*
Y-36000D01*
Y-34934D02*
X96500Y-33867D01*
Y-32801D02*
Y-31735D01*
Y-32268D01*
X93301D01*
X93834Y-32801D01*
X93301Y-28003D02*
X93834Y-29069D01*
X94901Y-30135D01*
X95967D01*
X96500Y-29602D01*
Y-28536D01*
X95967Y-28003D01*
X95434D01*
X94901Y-28536D01*
Y-30135D01*
X85000Y-35500D02*
X81801D01*
Y-33900D01*
X82334Y-33367D01*
X83400D01*
X83934Y-33900D01*
Y-35500D01*
Y-34434D02*
X85000Y-33367D01*
X84467Y-32301D02*
X85000Y-31768D01*
Y-30702D01*
X84467Y-30168D01*
X82334D01*
X81801Y-30702D01*
Y-31768D01*
X82334Y-32301D01*
X82867D01*
X83400Y-31768D01*
Y-30168D01*
X178900Y-92500D02*
Y-89301D01*
X180499D01*
X181033Y-89834D01*
Y-90900D01*
X180499Y-91434D01*
X178900D01*
X179966D02*
X181033Y-92500D01*
X183698D02*
Y-89301D01*
X182099Y-90900D01*
X184232D01*
X137000Y-92800D02*
Y-89601D01*
X138600D01*
X139133Y-90134D01*
Y-91201D01*
X138600Y-91734D01*
X137000D01*
X138066D02*
X139133Y-92800D01*
X141798D02*
Y-89601D01*
X140199Y-91201D01*
X142332D01*
X95000Y-92800D02*
Y-89601D01*
X96600D01*
X97133Y-90134D01*
Y-91201D01*
X96600Y-91734D01*
X95000D01*
X96066D02*
X97133Y-92800D01*
X99799D02*
Y-89601D01*
X98199Y-91201D01*
X100332D01*
X53000Y-92800D02*
Y-89601D01*
X54599D01*
X55133Y-90134D01*
Y-91201D01*
X54599Y-91734D01*
X53000D01*
X54066D02*
X55133Y-92800D01*
X57798D02*
Y-89601D01*
X56199Y-91201D01*
X58332D01*
X11000Y-92800D02*
Y-89601D01*
X12599D01*
X13133Y-90134D01*
Y-91201D01*
X12599Y-91734D01*
X11000D01*
X12066D02*
X13133Y-92800D01*
X15798D02*
Y-89601D01*
X14199Y-91201D01*
X16332D01*
X196233Y-119367D02*
Y-117234D01*
X195700Y-116701D01*
X194633D01*
X194100Y-117234D01*
Y-119367D01*
X194633Y-119900D01*
X195700D01*
X195166Y-118834D02*
X196233Y-119900D01*
X195700D02*
X196233Y-119367D01*
X199432Y-119900D02*
X197299D01*
X199432Y-117767D01*
Y-117234D01*
X198898Y-116701D01*
X197832D01*
X197299Y-117234D01*
X154033Y-119267D02*
Y-117134D01*
X153499Y-116601D01*
X152433D01*
X151900Y-117134D01*
Y-119267D01*
X152433Y-119800D01*
X153499D01*
X152966Y-118734D02*
X154033Y-119800D01*
X153499D02*
X154033Y-119267D01*
X157232Y-119800D02*
X155099D01*
X157232Y-117667D01*
Y-117134D01*
X156699Y-116601D01*
X155632D01*
X155099Y-117134D01*
X112033Y-119267D02*
Y-117134D01*
X111500Y-116601D01*
X110433D01*
X109900Y-117134D01*
Y-119267D01*
X110433Y-119800D01*
X111500D01*
X110966Y-118734D02*
X112033Y-119800D01*
X111500D02*
X112033Y-119267D01*
X115232Y-119800D02*
X113099D01*
X115232Y-117667D01*
Y-117134D01*
X114699Y-116601D01*
X113632D01*
X113099Y-117134D01*
X28033Y-119267D02*
Y-117134D01*
X27499Y-116601D01*
X26433D01*
X25900Y-117134D01*
Y-119267D01*
X26433Y-119800D01*
X27499D01*
X26966Y-118734D02*
X28033Y-119800D01*
X27499D02*
X28033Y-119267D01*
X31232Y-119800D02*
X29099D01*
X31232Y-117667D01*
Y-117134D01*
X30698Y-116601D01*
X29632D01*
X29099Y-117134D01*
X192533Y-196934D02*
X191999Y-196401D01*
X190933D01*
X190400Y-196934D01*
Y-199067D01*
X190933Y-199600D01*
X191999D01*
X192533Y-199067D01*
X193599Y-196401D02*
Y-199600D01*
Y-198001D01*
X195732D01*
Y-196401D01*
Y-199600D01*
X196798D02*
Y-197467D01*
X197864Y-196401D01*
X198931Y-197467D01*
Y-199600D01*
Y-198001D01*
X196798D01*
X199997Y-199600D02*
Y-196401D01*
X202130Y-199600D01*
Y-196401D01*
X208527D02*
X206395D01*
Y-198001D01*
X207461Y-197467D01*
X207994D01*
X208527Y-198001D01*
Y-199067D01*
X207994Y-199600D01*
X206928D01*
X206395Y-199067D01*
X150533Y-196934D02*
X149999Y-196401D01*
X148933D01*
X148400Y-196934D01*
Y-199067D01*
X148933Y-199600D01*
X149999D01*
X150533Y-199067D01*
X151599Y-196401D02*
Y-199600D01*
Y-198001D01*
X153732D01*
Y-196401D01*
Y-199600D01*
X154798D02*
Y-197467D01*
X155864Y-196401D01*
X156931Y-197467D01*
Y-199600D01*
Y-198001D01*
X154798D01*
X157997Y-199600D02*
Y-196401D01*
X160129Y-199600D01*
Y-196401D01*
X165994Y-199600D02*
Y-196401D01*
X164395Y-198001D01*
X166527D01*
X108533Y-196934D02*
X108000Y-196401D01*
X106933D01*
X106400Y-196934D01*
Y-199067D01*
X106933Y-199600D01*
X108000D01*
X108533Y-199067D01*
X109599Y-196401D02*
Y-199600D01*
Y-198001D01*
X111732D01*
Y-196401D01*
Y-199600D01*
X112798D02*
Y-197467D01*
X113864Y-196401D01*
X114931Y-197467D01*
Y-199600D01*
Y-198001D01*
X112798D01*
X115997Y-199600D02*
Y-196401D01*
X118130Y-199600D01*
Y-196401D01*
X122395Y-196934D02*
X122928Y-196401D01*
X123994D01*
X124528Y-196934D01*
Y-197467D01*
X123994Y-198001D01*
X123461D01*
X123994D01*
X124528Y-198534D01*
Y-199067D01*
X123994Y-199600D01*
X122928D01*
X122395Y-199067D01*
X66533Y-196934D02*
X66000Y-196401D01*
X64933D01*
X64400Y-196934D01*
Y-199067D01*
X64933Y-199600D01*
X66000D01*
X66533Y-199067D01*
X67599Y-196401D02*
Y-199600D01*
Y-198001D01*
X69732D01*
Y-196401D01*
Y-199600D01*
X70798D02*
Y-197467D01*
X71864Y-196401D01*
X72931Y-197467D01*
Y-199600D01*
Y-198001D01*
X70798D01*
X73997Y-199600D02*
Y-196401D01*
X76130Y-199600D01*
Y-196401D01*
X82528Y-199600D02*
X80395D01*
X82528Y-197467D01*
Y-196934D01*
X81994Y-196401D01*
X80928D01*
X80395Y-196934D01*
X24533Y-197434D02*
X24000Y-196901D01*
X22933D01*
X22400Y-197434D01*
Y-199567D01*
X22933Y-200100D01*
X24000D01*
X24533Y-199567D01*
X25599Y-196901D02*
Y-200100D01*
Y-198501D01*
X27732D01*
Y-196901D01*
Y-200100D01*
X28798D02*
Y-197967D01*
X29864Y-196901D01*
X30931Y-197967D01*
Y-200100D01*
Y-198501D01*
X28798D01*
X31997Y-200100D02*
Y-196901D01*
X34130Y-200100D01*
Y-196901D01*
X38395Y-200100D02*
X39461D01*
X38928D01*
Y-196901D01*
X38395Y-197434D01*
X110699Y-14000D02*
X107500D01*
Y-15599D01*
X108033Y-16133D01*
X110166D01*
X110699Y-15599D01*
Y-14000D01*
X107500Y-19332D02*
Y-17199D01*
X109633Y-19332D01*
X110166D01*
X110699Y-18798D01*
Y-17732D01*
X110166Y-17199D01*
X212900Y-164901D02*
Y-168100D01*
X214499D01*
X215033Y-167567D01*
Y-165434D01*
X214499Y-164901D01*
X212900D01*
X216099Y-168100D02*
X217165D01*
X216632D01*
Y-164901D01*
X216099Y-165434D01*
X170900Y-164901D02*
Y-168100D01*
X172500D01*
X173033Y-167567D01*
Y-165434D01*
X172500Y-164901D01*
X170900D01*
X174099Y-168100D02*
X175165D01*
X174632D01*
Y-164901D01*
X174099Y-165434D01*
X128900Y-164901D02*
Y-168100D01*
X130499D01*
X131033Y-167567D01*
Y-165434D01*
X130499Y-164901D01*
X128900D01*
X132099Y-168100D02*
X133165D01*
X132632D01*
Y-164901D01*
X132099Y-165434D01*
X86900Y-164901D02*
Y-168100D01*
X88499D01*
X89033Y-167567D01*
Y-165434D01*
X88499Y-164901D01*
X86900D01*
X90099Y-168100D02*
X91165D01*
X90632D01*
Y-164901D01*
X90099Y-165434D01*
X44900Y-164901D02*
Y-168100D01*
X46499D01*
X47033Y-167567D01*
Y-165434D01*
X46499Y-164901D01*
X44900D01*
X48099Y-168100D02*
X49165D01*
X48632D01*
Y-164901D01*
X48099Y-165434D01*
X37666Y-25633D02*
X38199Y-25100D01*
Y-24033D01*
X37666Y-23500D01*
X35533D01*
X35000Y-24033D01*
Y-25100D01*
X35533Y-25633D01*
X37666Y-26699D02*
X38199Y-27232D01*
Y-28299D01*
X37666Y-28832D01*
X37133D01*
X36599Y-28299D01*
Y-27765D01*
Y-28299D01*
X36066Y-28832D01*
X35533D01*
X35000Y-28299D01*
Y-27232D01*
X35533Y-26699D01*
X25166Y-25633D02*
X25699Y-25100D01*
Y-24033D01*
X25166Y-23500D01*
X23033D01*
X22500Y-24033D01*
Y-25100D01*
X23033Y-25633D01*
X22500Y-28832D02*
Y-26699D01*
X24633Y-28832D01*
X25166D01*
X25699Y-28299D01*
Y-27232D01*
X25166Y-26699D01*
X11233Y-7034D02*
X10700Y-6501D01*
X9633D01*
X9100Y-7034D01*
Y-9167D01*
X9633Y-9700D01*
X10700D01*
X11233Y-9167D01*
X12299Y-9700D02*
X13365D01*
X12832D01*
Y-6501D01*
X12299Y-7034D01*
X500Y-32000D02*
X-2699D01*
Y-30400D01*
X-2166Y-29867D01*
X-1099D01*
X-566Y-30400D01*
Y-32000D01*
X500Y-28801D02*
Y-27735D01*
Y-28268D01*
X-2699D01*
X-2166Y-28801D01*
X500Y-54000D02*
X-2699D01*
Y-52400D01*
X-2166Y-51867D01*
X-1099D01*
X-566Y-52400D01*
Y-54000D01*
X500Y-48668D02*
Y-50801D01*
X-1633Y-48668D01*
X-2166D01*
X-2699Y-49202D01*
Y-50268D01*
X-2166Y-50801D01*
X17833Y-158067D02*
Y-155934D01*
X17300Y-155401D01*
X16233D01*
X15700Y-155934D01*
Y-158067D01*
X16233Y-158600D01*
X17300D01*
X16766Y-157534D02*
X17833Y-158600D01*
X17300D02*
X17833Y-158067D01*
X18899Y-158600D02*
X19965D01*
X19432D01*
Y-155401D01*
X18899Y-155934D01*
X59379Y-157567D02*
Y-155434D01*
X58846Y-154901D01*
X57779D01*
X57246Y-155434D01*
Y-157567D01*
X57779Y-158100D01*
X58846D01*
X58313Y-157034D02*
X59379Y-158100D01*
X58846D02*
X59379Y-157567D01*
X60445Y-158100D02*
X61511D01*
X60978D01*
Y-154901D01*
X60445Y-155434D01*
X101379Y-157567D02*
Y-155434D01*
X100846Y-154901D01*
X99779D01*
X99246Y-155434D01*
Y-157567D01*
X99779Y-158100D01*
X100846D01*
X100313Y-157034D02*
X101379Y-158100D01*
X100846D02*
X101379Y-157567D01*
X102445Y-158100D02*
X103512D01*
X102978D01*
Y-154901D01*
X102445Y-155434D01*
X143379Y-157567D02*
Y-155434D01*
X142846Y-154901D01*
X141779D01*
X141246Y-155434D01*
Y-157567D01*
X141779Y-158100D01*
X142846D01*
X142313Y-157034D02*
X143379Y-158100D01*
X142846D02*
X143379Y-157567D01*
X144445Y-158100D02*
X145512D01*
X144978D01*
Y-154901D01*
X144445Y-155434D01*
X185379Y-157567D02*
Y-155434D01*
X184846Y-154901D01*
X183779D01*
X183246Y-155434D01*
Y-157567D01*
X183779Y-158100D01*
X184846D01*
X184313Y-157034D02*
X185379Y-158100D01*
X184846D02*
X185379Y-157567D01*
X186445Y-158100D02*
X187512D01*
X186978D01*
Y-154901D01*
X186445Y-155434D01*
X34300Y-138100D02*
Y-134901D01*
X35899D01*
X36433Y-135434D01*
Y-136501D01*
X35899Y-137034D01*
X34300D01*
X35366D02*
X36433Y-138100D01*
X39632D02*
X37499D01*
X39632Y-135967D01*
Y-135434D01*
X39099Y-134901D01*
X38032D01*
X37499Y-135434D01*
X76300Y-137700D02*
Y-134501D01*
X77899D01*
X78433Y-135034D01*
Y-136100D01*
X77899Y-136634D01*
X76300D01*
X77366D02*
X78433Y-137700D01*
X81632D02*
X79499D01*
X81632Y-135567D01*
Y-135034D01*
X81099Y-134501D01*
X80032D01*
X79499Y-135034D01*
X118200Y-137900D02*
Y-134701D01*
X119799D01*
X120333Y-135234D01*
Y-136301D01*
X119799Y-136834D01*
X118200D01*
X119266D02*
X120333Y-137900D01*
X123532D02*
X121399D01*
X123532Y-135767D01*
Y-135234D01*
X122998Y-134701D01*
X121932D01*
X121399Y-135234D01*
X160300Y-138200D02*
Y-135001D01*
X161899D01*
X162433Y-135534D01*
Y-136600D01*
X161899Y-137134D01*
X160300D01*
X161366D02*
X162433Y-138200D01*
X165632D02*
X163499D01*
X165632Y-136067D01*
Y-135534D01*
X165099Y-135001D01*
X164032D01*
X163499Y-135534D01*
X202300Y-138200D02*
Y-135001D01*
X203900D01*
X204433Y-135534D01*
Y-136600D01*
X203900Y-137134D01*
X202300D01*
X203366D02*
X204433Y-138200D01*
X207632D02*
X205499D01*
X207632Y-136067D01*
Y-135534D01*
X207099Y-135001D01*
X206032D01*
X205499Y-135534D01*
X-9500Y-24000D02*
X-12699D01*
Y-22400D01*
X-12166Y-21867D01*
X-11100D01*
X-10566Y-22400D01*
Y-24000D01*
Y-22934D02*
X-9500Y-21867D01*
X-12699Y-20801D02*
Y-18668D01*
X-12166D01*
X-10033Y-20801D01*
X-9500D01*
X6300Y-38000D02*
X9499D01*
Y-39599D01*
X8966Y-40133D01*
X7899D01*
X7366Y-39599D01*
Y-38000D01*
Y-39066D02*
X6300Y-40133D01*
X8966Y-41199D02*
X9499Y-41732D01*
Y-42799D01*
X8966Y-43332D01*
X8433D01*
X7899Y-42799D01*
X7366Y-43332D01*
X6833D01*
X6300Y-42799D01*
Y-41732D01*
X6833Y-41199D01*
X7366D01*
X7899Y-41732D01*
X8433Y-41199D01*
X8966D01*
X7899Y-41732D02*
Y-42799D01*
D32*
X104387Y-20937D02*
G03*
X104387Y-20937I-557J0D01*
G01*
X206226Y-158063D02*
G03*
X206226Y-158063I-557J0D01*
G01*
X164226D02*
G03*
X164226Y-158063I-557J0D01*
G01*
X122226D02*
G03*
X122226Y-158063I-557J0D01*
G01*
X80226D02*
G03*
X80226Y-158063I-557J0D01*
G01*
X38226D02*
G03*
X38226Y-158063I-557J0D01*
G01*
D33*
X13646Y-170787D02*
G03*
X13646Y-170787I-492J0D01*
G01*
X55646D02*
G03*
X55646Y-170787I-492J0D01*
G01*
X97646D02*
G03*
X97646Y-170787I-492J0D01*
G01*
X139646D02*
G03*
X139646Y-170787I-492J0D01*
G01*
X181646D02*
G03*
X181646Y-170787I-492J0D01*
G01*
D34*
X19276Y-162264D02*
G03*
X19276Y-162264I-1181J0D01*
G01*
X61276D02*
G03*
X61276Y-162264I-1181J0D01*
G01*
X103276D02*
G03*
X103276Y-162264I-1181J0D01*
G01*
X145276D02*
G03*
X145276Y-162264I-1181J0D01*
G01*
X187276D02*
G03*
X187276Y-162264I-1181J0D01*
G01*
D35*
X10035Y-172000D02*
Y-132000D01*
X-21461Y-172000D02*
X10035D01*
X-21461D02*
Y-132000D01*
X10035D01*
X179900Y-169165D02*
X219900D01*
Y-200661D02*
Y-169165D01*
X179900Y-200661D02*
X219900D01*
X179900D02*
Y-169165D01*
X137900D02*
X177900D01*
Y-200661D02*
Y-169165D01*
X137900Y-200661D02*
X177900D01*
X137900D02*
Y-169165D01*
X95900D02*
X135900D01*
Y-200661D02*
Y-169165D01*
X95900Y-200661D02*
X135900D01*
X95900D02*
Y-169165D01*
X53900D02*
X93900D01*
Y-200661D02*
Y-169165D01*
X53900Y-200661D02*
X93900D01*
X53900D02*
Y-169165D01*
X11900Y-200661D02*
Y-169165D01*
Y-200661D02*
X51900D01*
Y-169165D01*
X11900D02*
X51900D01*
X98024Y-14539D02*
X100976D01*
X98024Y-19461D02*
X100976D01*
X208524Y-164461D02*
X211476D01*
X208524Y-159539D02*
X211476D01*
X166524Y-164461D02*
X169476D01*
X166524Y-159539D02*
X169476D01*
X124524Y-164461D02*
X127476D01*
X124524Y-159539D02*
X127476D01*
X82524Y-164461D02*
X85476D01*
X82524Y-159539D02*
X85476D01*
X40524Y-164461D02*
X43476D01*
X40524Y-159539D02*
X43476D01*
X164000Y-50501D02*
X165166D01*
X164583D01*
Y-54000D01*
X164000D01*
X165166D01*
X169248D02*
X166916D01*
X169248Y-51667D01*
Y-51084D01*
X168665Y-50501D01*
X167499D01*
X166916Y-51084D01*
X172747D02*
X172164Y-50501D01*
X170998D01*
X170415Y-51084D01*
Y-53417D01*
X170998Y-54000D01*
X172164D01*
X172747Y-53417D01*
X177412Y-54000D02*
Y-51667D01*
X178579Y-50501D01*
X179745Y-51667D01*
Y-54000D01*
Y-52251D01*
X177412D01*
X183244Y-50501D02*
Y-54000D01*
X181494D01*
X180911Y-53417D01*
Y-52251D01*
X181494Y-51667D01*
X183244D01*
X186743Y-50501D02*
Y-54000D01*
X184993D01*
X184410Y-53417D01*
Y-52251D01*
X184993Y-51667D01*
X186743D01*
X187909D02*
Y-54000D01*
Y-52834D01*
X188492Y-52251D01*
X189075Y-51667D01*
X189658D01*
X193157Y-54000D02*
X191991D01*
X191408Y-53417D01*
Y-52251D01*
X191991Y-51667D01*
X193157D01*
X193740Y-52251D01*
Y-52834D01*
X191408D01*
X194907Y-54000D02*
X196656D01*
X197239Y-53417D01*
X196656Y-52834D01*
X195490D01*
X194907Y-52251D01*
X195490Y-51667D01*
X197239D01*
X198406Y-54000D02*
X200155D01*
X200738Y-53417D01*
X200155Y-52834D01*
X198989D01*
X198406Y-52251D01*
X198989Y-51667D01*
X200738D01*
X11001Y-59500D02*
Y-58334D01*
Y-58917D01*
X14500D01*
Y-59500D01*
Y-58334D01*
Y-54252D02*
Y-56584D01*
X12167Y-54252D01*
X11584D01*
X11001Y-54835D01*
Y-56001D01*
X11584Y-56584D01*
Y-50753D02*
X11001Y-51336D01*
Y-52502D01*
X11584Y-53085D01*
X13917D01*
X14500Y-52502D01*
Y-51336D01*
X13917Y-50753D01*
X14500Y-46088D02*
X11001D01*
Y-44338D01*
X11584Y-43755D01*
X12751D01*
X13334Y-44338D01*
Y-46088D01*
X12167Y-42589D02*
X13917D01*
X14500Y-42006D01*
Y-40256D01*
X12167D01*
X14500Y-39090D02*
Y-37924D01*
Y-38507D01*
X11001D01*
Y-39090D01*
X14500Y-36174D02*
Y-35008D01*
Y-35591D01*
X11001D01*
Y-36174D01*
X12751Y-33259D02*
Y-30926D01*
X12167Y-29760D02*
X13917D01*
X14500Y-29177D01*
Y-27427D01*
X12167D01*
X15666Y-26261D02*
X12167D01*
Y-24511D01*
X12751Y-23928D01*
X13917D01*
X14500Y-24511D01*
Y-26261D01*
D36*
X228000Y-183000D02*
X222002D01*
Y-180001D01*
X223002Y-179001D01*
X225001D01*
X226001Y-180001D01*
Y-183000D01*
Y-181001D02*
X228000Y-179001D01*
X224001Y-176002D02*
Y-174003D01*
X225001Y-173003D01*
X228000D01*
Y-176002D01*
X227000Y-177002D01*
X226001Y-176002D01*
Y-173003D01*
X228000Y-171004D02*
Y-168005D01*
X227000Y-167005D01*
X226001Y-168005D01*
Y-170004D01*
X225001Y-171004D01*
X224001Y-170004D01*
Y-167005D01*
X229999Y-165006D02*
X224001D01*
Y-162007D01*
X225001Y-161007D01*
X227000D01*
X228000Y-162007D01*
Y-165006D01*
Y-159008D02*
X222002D01*
Y-156009D01*
X223002Y-155009D01*
X225001D01*
X226001Y-156009D01*
Y-159008D01*
X228000Y-153010D02*
Y-151010D01*
Y-152010D01*
X224001D01*
Y-153010D01*
X222002Y-142013D02*
X228000D01*
X225001D01*
Y-138015D01*
X222002D01*
X228000D01*
X224001Y-135015D02*
Y-133016D01*
X225001Y-132017D01*
X228000D01*
Y-135015D01*
X227000Y-136015D01*
X226001Y-135015D01*
Y-132017D01*
X223002Y-129017D02*
X224001D01*
Y-130017D01*
Y-128018D01*
Y-129017D01*
X227000D01*
X228000Y-128018D01*
X225001Y-119021D02*
Y-115022D01*
X228000Y-107025D02*
X222002D01*
X224001Y-105025D01*
X222002Y-103026D01*
X228000D01*
X222002Y-98027D02*
Y-100027D01*
X223002Y-101026D01*
X227000D01*
X228000Y-100027D01*
Y-98027D01*
X227000Y-97028D01*
X223002D01*
X222002Y-98027D01*
X223002Y-91030D02*
X222002Y-92029D01*
Y-94029D01*
X223002Y-95029D01*
X224001D01*
X225001Y-94029D01*
Y-92029D01*
X226001Y-91030D01*
X227000D01*
X228000Y-92029D01*
Y-94029D01*
X227000Y-95029D01*
X222002Y-85032D02*
Y-89030D01*
X225001D01*
Y-87031D01*
Y-89030D01*
X228000D01*
X222002Y-79034D02*
Y-83032D01*
X228000D01*
Y-79034D01*
X225001Y-83032D02*
Y-81033D01*
X222002Y-77034D02*
Y-73036D01*
Y-75035D01*
X228000D01*
X225001Y-65038D02*
Y-61039D01*
X224001Y-53042D02*
X228000Y-51043D01*
X224001Y-49043D01*
X228000Y-47044D02*
Y-45045D01*
Y-46044D01*
X222002D01*
X223002Y-47044D01*
X228000Y-42046D02*
X227000D01*
Y-41046D01*
X228000D01*
Y-42046D01*
X223002Y-37047D02*
X222002Y-36048D01*
Y-34048D01*
X223002Y-33048D01*
X227000D01*
X228000Y-34048D01*
Y-36048D01*
X227000Y-37047D01*
X223002D01*
X238000Y-181001D02*
X236001Y-183000D01*
X234001D01*
X232002Y-181001D01*
X234001Y-174003D02*
Y-177002D01*
X235001Y-178002D01*
X237000D01*
X238000Y-177002D01*
Y-174003D01*
Y-172004D02*
X236001Y-170004D01*
X234001D01*
X232002Y-172004D01*
X238000Y-161007D02*
X232002D01*
Y-158008D01*
X233002Y-157008D01*
X235001D01*
X236001Y-158008D01*
Y-161007D01*
X234001Y-155009D02*
X238000D01*
X236001D01*
X235001Y-154009D01*
X234001Y-153010D01*
Y-152010D01*
X238000Y-148011D02*
Y-146012D01*
X237000Y-145012D01*
X235001D01*
X234001Y-146012D01*
Y-148011D01*
X235001Y-149011D01*
X237000D01*
X238000Y-148011D01*
X234001Y-143013D02*
X238000Y-141014D01*
X234001Y-139014D01*
X238000Y-134016D02*
Y-136015D01*
X237000Y-137015D01*
X235001D01*
X234001Y-136015D01*
Y-134016D01*
X235001Y-133016D01*
X236001D01*
Y-137015D01*
X234001Y-127018D02*
Y-130017D01*
X235001Y-131017D01*
X237000D01*
X238000Y-130017D01*
Y-127018D01*
X233002Y-124019D02*
X234001D01*
Y-125019D01*
Y-123019D01*
Y-124019D01*
X237000D01*
X238000Y-123019D01*
X234001Y-120020D02*
X237000D01*
X238000Y-119021D01*
Y-116022D01*
X234001D01*
X238000Y-114022D02*
Y-111023D01*
X237000Y-110024D01*
X236001Y-111023D01*
Y-113023D01*
X235001Y-114022D01*
X234001Y-113023D01*
Y-110024D01*
X232002Y-98027D02*
Y-102026D01*
X238000D01*
Y-98027D01*
X235001Y-102026D02*
Y-100027D01*
X238000Y-96028D02*
X234001D01*
Y-93029D01*
X235001Y-92029D01*
X238000D01*
X239999Y-88031D02*
Y-87031D01*
X239000Y-86031D01*
X234001D01*
Y-89030D01*
X235001Y-90030D01*
X237000D01*
X238000Y-89030D01*
Y-86031D01*
Y-84032D02*
Y-82033D01*
Y-83032D01*
X234001D01*
Y-84032D01*
X238000Y-79034D02*
X234001D01*
Y-76035D01*
X235001Y-75035D01*
X238000D01*
Y-70037D02*
Y-72036D01*
X237000Y-73036D01*
X235001D01*
X234001Y-72036D01*
Y-70037D01*
X235001Y-69037D01*
X236001D01*
Y-73036D01*
X238000Y-64038D02*
Y-66038D01*
X237000Y-67037D01*
X235001D01*
X234001Y-66038D01*
Y-64038D01*
X235001Y-63039D01*
X236001D01*
Y-67037D01*
X234001Y-61040D02*
X238000D01*
X236001D01*
X235001Y-60040D01*
X234001Y-59040D01*
Y-58040D01*
X238000Y-55041D02*
Y-53042D01*
Y-54042D01*
X234001D01*
Y-55041D01*
X238000Y-50043D02*
X234001D01*
Y-47044D01*
X235001Y-46044D01*
X238000D01*
X239999Y-42046D02*
Y-41046D01*
X239000Y-40046D01*
X234001D01*
Y-43045D01*
X235001Y-44045D01*
X237000D01*
X238000Y-43045D01*
Y-40046D01*
Y-28050D02*
Y-32049D01*
X234001Y-28050D01*
X233002D01*
X232002Y-29050D01*
Y-31049D01*
X233002Y-32049D01*
Y-26051D02*
X232002Y-25051D01*
Y-23052D01*
X233002Y-22052D01*
X237000D01*
X238000Y-23052D01*
Y-25051D01*
X237000Y-26051D01*
X233002D01*
X238000Y-20053D02*
Y-18053D01*
Y-19053D01*
X232002D01*
X233002Y-20053D01*
X232002Y-15054D02*
Y-11056D01*
X233002D01*
X237000Y-15054D01*
X238000D01*
M02*
