G04 Layer_Color=8388736*
%FSLAX25Y25*%
%MOIN*%
G70*
G01*
G75*
%ADD37O,0.06699X0.09258*%
%ADD38R,0.05912X0.05124*%
%ADD39R,0.05124X0.05912*%
%ADD40R,0.02762X0.06384*%
%ADD41C,0.06306*%
%ADD42C,0.06306*%
%ADD43R,0.06306X0.06306*%
%ADD44R,0.06306X0.06306*%
%ADD45C,0.11500*%
%ADD46C,0.05400*%
G36*
X36819Y-133602D02*
X30520D01*
Y-128878D01*
X36819D01*
Y-133602D01*
D02*
G37*
G36*
X-1677Y-146823D02*
X-11323D01*
Y-137177D01*
X-1677D01*
Y-146823D01*
D02*
G37*
G36*
X120819Y-133602D02*
X114520D01*
Y-128878D01*
X120819D01*
Y-133602D01*
D02*
G37*
G36*
X78819D02*
X72520D01*
Y-128878D01*
X78819D01*
Y-133602D01*
D02*
G37*
G36*
X174299Y-164362D02*
X168787D01*
Y-159638D01*
X174299D01*
Y-164362D01*
D02*
G37*
G36*
X167213D02*
X161701D01*
Y-159638D01*
X167213D01*
Y-164362D01*
D02*
G37*
G36*
X216299D02*
X210787D01*
Y-159638D01*
X216299D01*
Y-164362D01*
D02*
G37*
G36*
X209213D02*
X203701D01*
Y-159638D01*
X209213D01*
Y-164362D01*
D02*
G37*
G36*
X171480Y-129862D02*
X165181D01*
Y-125138D01*
X171480D01*
Y-129862D01*
D02*
G37*
G36*
X129480D02*
X123181D01*
Y-125138D01*
X129480D01*
Y-129862D01*
D02*
G37*
G36*
X36819Y-126122D02*
X30520D01*
Y-121398D01*
X36819D01*
Y-126122D01*
D02*
G37*
G36*
X213480Y-129862D02*
X207181D01*
Y-125138D01*
X213480D01*
Y-129862D01*
D02*
G37*
G36*
X204819Y-133602D02*
X198520D01*
Y-128878D01*
X204819D01*
Y-133602D01*
D02*
G37*
G36*
X162819D02*
X156520D01*
Y-128878D01*
X162819D01*
Y-133602D01*
D02*
G37*
G36*
X87480Y-129862D02*
X81181D01*
Y-125138D01*
X87480D01*
Y-129862D01*
D02*
G37*
G36*
X45480D02*
X39181D01*
Y-125138D01*
X45480D01*
Y-129862D01*
D02*
G37*
G36*
X132299Y-164362D02*
X126787D01*
Y-159638D01*
X132299D01*
Y-164362D01*
D02*
G37*
G36*
X26723Y-190523D02*
X17077D01*
Y-180877D01*
X26723D01*
Y-190523D01*
D02*
G37*
G36*
X211159Y-181001D02*
X212332Y-181487D01*
X213340Y-182260D01*
X214113Y-183268D01*
X214599Y-184441D01*
X214764Y-185700D01*
X214599Y-186959D01*
X214113Y-188132D01*
X213340Y-189140D01*
X212332Y-189913D01*
X211159Y-190399D01*
X209900Y-190565D01*
X208641Y-190399D01*
X207468Y-189913D01*
X206460Y-189140D01*
X205687Y-188132D01*
X205201Y-186959D01*
X205036Y-185700D01*
X205201Y-184441D01*
X205687Y-183268D01*
X206460Y-182260D01*
X207468Y-181487D01*
X208641Y-181001D01*
X209900Y-180835D01*
X211159Y-181001D01*
D02*
G37*
G36*
X110723Y-190523D02*
X101077D01*
Y-180877D01*
X110723D01*
Y-190523D01*
D02*
G37*
G36*
X68723D02*
X59077D01*
Y-180877D01*
X68723D01*
Y-190523D01*
D02*
G37*
G36*
X85159Y-181001D02*
X86332Y-181487D01*
X87340Y-182260D01*
X88113Y-183268D01*
X88599Y-184441D01*
X88764Y-185700D01*
X88599Y-186959D01*
X88113Y-188132D01*
X87340Y-189140D01*
X86332Y-189913D01*
X85159Y-190399D01*
X83900Y-190565D01*
X82641Y-190399D01*
X81468Y-189913D01*
X80460Y-189140D01*
X79687Y-188132D01*
X79201Y-186959D01*
X79036Y-185700D01*
X79201Y-184441D01*
X79687Y-183268D01*
X80460Y-182260D01*
X81468Y-181487D01*
X82641Y-181001D01*
X83900Y-180835D01*
X85159Y-181001D01*
D02*
G37*
G36*
X43159D02*
X44332Y-181487D01*
X45340Y-182260D01*
X46113Y-183268D01*
X46599Y-184441D01*
X46764Y-185700D01*
X46599Y-186959D01*
X46113Y-188132D01*
X45340Y-189140D01*
X44332Y-189913D01*
X43159Y-190399D01*
X41900Y-190565D01*
X40641Y-190399D01*
X39468Y-189913D01*
X38460Y-189140D01*
X37687Y-188132D01*
X37201Y-186959D01*
X37036Y-185700D01*
X37201Y-184441D01*
X37687Y-183268D01*
X38460Y-182260D01*
X39468Y-181487D01*
X40641Y-181001D01*
X41900Y-180835D01*
X43159Y-181001D01*
D02*
G37*
G36*
X169159D02*
X170332Y-181487D01*
X171340Y-182260D01*
X172113Y-183268D01*
X172599Y-184441D01*
X172765Y-185700D01*
X172599Y-186959D01*
X172113Y-188132D01*
X171340Y-189140D01*
X170332Y-189913D01*
X169159Y-190399D01*
X167900Y-190565D01*
X166641Y-190399D01*
X165468Y-189913D01*
X164460Y-189140D01*
X163687Y-188132D01*
X163201Y-186959D01*
X163036Y-185700D01*
X163201Y-184441D01*
X163687Y-183268D01*
X164460Y-182260D01*
X165468Y-181487D01*
X166641Y-181001D01*
X167900Y-180835D01*
X169159Y-181001D01*
D02*
G37*
G36*
X127159D02*
X128332Y-181487D01*
X129340Y-182260D01*
X130113Y-183268D01*
X130599Y-184441D01*
X130764Y-185700D01*
X130599Y-186959D01*
X130113Y-188132D01*
X129340Y-189140D01*
X128332Y-189913D01*
X127159Y-190399D01*
X125900Y-190565D01*
X124641Y-190399D01*
X123468Y-189913D01*
X122460Y-189140D01*
X121687Y-188132D01*
X121201Y-186959D01*
X121036Y-185700D01*
X121201Y-184441D01*
X121687Y-183268D01*
X122460Y-182260D01*
X123468Y-181487D01*
X124641Y-181001D01*
X125900Y-180835D01*
X127159Y-181001D01*
D02*
G37*
G36*
X83213Y-164362D02*
X77701D01*
Y-159638D01*
X83213D01*
Y-164362D01*
D02*
G37*
G36*
X48299D02*
X42787D01*
Y-159638D01*
X48299D01*
Y-164362D01*
D02*
G37*
G36*
X125213D02*
X119701D01*
Y-159638D01*
X125213D01*
Y-164362D01*
D02*
G37*
G36*
X90299D02*
X84787D01*
Y-159638D01*
X90299D01*
Y-164362D01*
D02*
G37*
G36*
X194723Y-190523D02*
X185077D01*
Y-180877D01*
X194723D01*
Y-190523D01*
D02*
G37*
G36*
X152723D02*
X143077D01*
Y-180877D01*
X152723D01*
Y-190523D01*
D02*
G37*
G36*
X41213Y-164362D02*
X35701D01*
Y-159638D01*
X41213D01*
Y-164362D01*
D02*
G37*
G36*
X-5241Y-157301D02*
X-4068Y-157787D01*
X-3060Y-158560D01*
X-2287Y-159568D01*
X-1801Y-160741D01*
X-1636Y-162000D01*
X-1801Y-163259D01*
X-2287Y-164432D01*
X-3060Y-165440D01*
X-4068Y-166213D01*
X-5241Y-166699D01*
X-6500Y-166865D01*
X-7759Y-166699D01*
X-8932Y-166213D01*
X-9940Y-165440D01*
X-10713Y-164432D01*
X-11199Y-163259D01*
X-11364Y-162000D01*
X-11199Y-160741D01*
X-10713Y-159568D01*
X-9940Y-158560D01*
X-8932Y-157787D01*
X-7759Y-157301D01*
X-6500Y-157135D01*
X-5241Y-157301D01*
D02*
G37*
G36*
X78819Y-126122D02*
X72520D01*
Y-121398D01*
X78819D01*
Y-126122D01*
D02*
G37*
G36*
X142294Y-29694D02*
X135706D01*
Y-27506D01*
X142294D01*
Y-29694D01*
D02*
G37*
G36*
X119294D02*
X112706D01*
Y-27506D01*
X119294D01*
Y-29694D01*
D02*
G37*
G36*
X142294Y-27094D02*
X135706D01*
Y-24906D01*
X142294D01*
Y-27094D01*
D02*
G37*
G36*
X119294D02*
X112706D01*
Y-24906D01*
X119294D01*
Y-27094D01*
D02*
G37*
G36*
X142294Y-34794D02*
X135706D01*
Y-32606D01*
X142294D01*
Y-34794D01*
D02*
G37*
G36*
X119294D02*
X112706D01*
Y-32606D01*
X119294D01*
Y-34794D01*
D02*
G37*
G36*
X142294Y-32294D02*
X135706D01*
Y-30106D01*
X142294D01*
Y-32294D01*
D02*
G37*
G36*
X119294D02*
X112706D01*
Y-30106D01*
X119294D01*
Y-32294D01*
D02*
G37*
G36*
X142294Y-19494D02*
X135706D01*
Y-17306D01*
X142294D01*
Y-19494D01*
D02*
G37*
G36*
X119294D02*
X112706D01*
Y-17306D01*
X119294D01*
Y-19494D01*
D02*
G37*
G36*
X105799Y-19362D02*
X100287D01*
Y-14638D01*
X105799D01*
Y-19362D01*
D02*
G37*
G36*
X98713D02*
X93201D01*
Y-14638D01*
X98713D01*
Y-19362D01*
D02*
G37*
G36*
X142294Y-24594D02*
X135706D01*
Y-22406D01*
X142294D01*
Y-24594D01*
D02*
G37*
G36*
X119294D02*
X112706D01*
Y-22406D01*
X119294D01*
Y-24594D01*
D02*
G37*
G36*
X142294Y-21994D02*
X135706D01*
Y-19806D01*
X142294D01*
Y-21994D01*
D02*
G37*
G36*
X119294D02*
X112706D01*
Y-19806D01*
X119294D01*
Y-21994D01*
D02*
G37*
G36*
X142294Y-37394D02*
X135706D01*
Y-35206D01*
X142294D01*
Y-37394D01*
D02*
G37*
G36*
X119294Y-50194D02*
X112706D01*
Y-48006D01*
X119294D01*
Y-50194D01*
D02*
G37*
G36*
X142294Y-52694D02*
X135706D01*
Y-50506D01*
X142294D01*
Y-52694D01*
D02*
G37*
G36*
X119294Y-47594D02*
X112706D01*
Y-45406D01*
X119294D01*
Y-47594D01*
D02*
G37*
G36*
X142294Y-50194D02*
X135706D01*
Y-48006D01*
X142294D01*
Y-50194D01*
D02*
G37*
G36*
X162819Y-126122D02*
X156520D01*
Y-121398D01*
X162819D01*
Y-126122D01*
D02*
G37*
G36*
X120819D02*
X114520D01*
Y-121398D01*
X120819D01*
Y-126122D01*
D02*
G37*
G36*
X119294Y-52694D02*
X112706D01*
Y-50506D01*
X119294D01*
Y-52694D01*
D02*
G37*
G36*
X204819Y-126122D02*
X198520D01*
Y-121398D01*
X204819D01*
Y-126122D01*
D02*
G37*
G36*
X119294Y-39894D02*
X112706D01*
Y-37706D01*
X119294D01*
Y-39894D01*
D02*
G37*
G36*
X142294Y-42494D02*
X135706D01*
Y-40306D01*
X142294D01*
Y-42494D01*
D02*
G37*
G36*
X119294Y-37394D02*
X112706D01*
Y-35206D01*
X119294D01*
Y-37394D01*
D02*
G37*
G36*
X142294Y-39894D02*
X135706D01*
Y-37706D01*
X142294D01*
Y-39894D01*
D02*
G37*
G36*
X119294Y-45094D02*
X112706D01*
Y-42906D01*
X119294D01*
Y-45094D01*
D02*
G37*
G36*
X142294Y-47594D02*
X135706D01*
Y-45406D01*
X142294D01*
Y-47594D01*
D02*
G37*
G36*
X119294Y-42494D02*
X112706D01*
Y-40306D01*
X119294D01*
Y-42494D01*
D02*
G37*
G36*
X142294Y-45094D02*
X135706D01*
Y-42906D01*
X142294D01*
Y-45094D01*
D02*
G37*
D37*
X213000Y-111232D02*
D03*
X203000D02*
D03*
Y-77768D02*
D03*
X213000D02*
D03*
X171000Y-111232D02*
D03*
X161000D02*
D03*
Y-77768D02*
D03*
X171000D02*
D03*
X129000Y-111232D02*
D03*
X119000D02*
D03*
Y-77768D02*
D03*
X129000D02*
D03*
X87000Y-111232D02*
D03*
X77000D02*
D03*
Y-77768D02*
D03*
X87000D02*
D03*
X45000Y-111232D02*
D03*
X35000D02*
D03*
Y-77768D02*
D03*
X45000D02*
D03*
D38*
X191500Y-131043D02*
D03*
Y-123957D02*
D03*
X149500Y-131043D02*
D03*
Y-123957D02*
D03*
X107500Y-131043D02*
D03*
Y-123957D02*
D03*
X65500Y-131043D02*
D03*
Y-123957D02*
D03*
X23500Y-131043D02*
D03*
Y-123957D02*
D03*
X216000Y-149543D02*
D03*
Y-142457D02*
D03*
X174000Y-149543D02*
D03*
Y-142457D02*
D03*
X132000Y-149543D02*
D03*
Y-142457D02*
D03*
X90000Y-149543D02*
D03*
Y-142457D02*
D03*
X48000Y-149543D02*
D03*
Y-142457D02*
D03*
X101500Y-25957D02*
D03*
Y-33043D02*
D03*
X90000Y-33043D02*
D03*
Y-25957D02*
D03*
X30700Y-25257D02*
D03*
Y-32343D02*
D03*
X18600Y-25157D02*
D03*
Y-32243D02*
D03*
X37000Y-148543D02*
D03*
Y-141457D02*
D03*
X79000Y-148543D02*
D03*
Y-141457D02*
D03*
X121000Y-148543D02*
D03*
Y-141457D02*
D03*
X163000Y-148543D02*
D03*
Y-141457D02*
D03*
X205000Y-148543D02*
D03*
Y-141457D02*
D03*
D39*
X183457Y-114000D02*
D03*
X190543D02*
D03*
X141457D02*
D03*
X148543D02*
D03*
X99457D02*
D03*
X106543D02*
D03*
X57457D02*
D03*
X64543D02*
D03*
X15457D02*
D03*
X22543D02*
D03*
X190543Y-85500D02*
D03*
X183457D02*
D03*
X148543D02*
D03*
X141457D02*
D03*
X106543D02*
D03*
X99457D02*
D03*
X64543D02*
D03*
X57457D02*
D03*
X22543D02*
D03*
X15457D02*
D03*
X190543Y-97000D02*
D03*
X183457D02*
D03*
X148543D02*
D03*
X141457D02*
D03*
X106543D02*
D03*
X99457D02*
D03*
X64543D02*
D03*
X57457D02*
D03*
X22543D02*
D03*
X15457D02*
D03*
X19143Y-16200D02*
D03*
X12057D02*
D03*
X-5143Y-20400D02*
D03*
X1943D02*
D03*
X-5143Y-41500D02*
D03*
X1943D02*
D03*
D40*
X16500Y-170787D02*
D03*
X21500D02*
D03*
X26500D02*
D03*
X31500D02*
D03*
X16500Y-149213D02*
D03*
X21500D02*
D03*
X26500D02*
D03*
X31500D02*
D03*
X58500Y-170787D02*
D03*
X63500D02*
D03*
X68500D02*
D03*
X73500D02*
D03*
X58500Y-149213D02*
D03*
X63500D02*
D03*
X68500D02*
D03*
X73500D02*
D03*
X100500Y-170787D02*
D03*
X105500D02*
D03*
X110500D02*
D03*
X115500D02*
D03*
X100500Y-149213D02*
D03*
X105500D02*
D03*
X110500D02*
D03*
X115500D02*
D03*
X142500Y-170787D02*
D03*
X147500D02*
D03*
X152500D02*
D03*
X157500D02*
D03*
X142500Y-149213D02*
D03*
X147500D02*
D03*
X152500D02*
D03*
X157500D02*
D03*
X184500Y-170787D02*
D03*
X189500D02*
D03*
X194500D02*
D03*
X199500D02*
D03*
X184500Y-149213D02*
D03*
X189500D02*
D03*
X194500D02*
D03*
X199500D02*
D03*
D41*
X159200Y-45000D02*
D03*
X169200D02*
D03*
X179200D02*
D03*
X189200D02*
D03*
X199200D02*
D03*
X209200D02*
D03*
X159200Y-15000D02*
D03*
X19200Y5000D02*
D03*
X29200Y-5000D02*
D03*
Y5000D02*
D03*
X39200Y-5000D02*
D03*
Y5000D02*
D03*
X49200Y-5000D02*
D03*
Y5000D02*
D03*
X59200Y-5000D02*
D03*
Y5000D02*
D03*
X69200Y-5000D02*
D03*
Y5000D02*
D03*
X79200Y-5000D02*
D03*
Y5000D02*
D03*
X89200Y-5000D02*
D03*
Y5000D02*
D03*
X99200Y-5000D02*
D03*
Y5000D02*
D03*
X109200Y-5000D02*
D03*
Y5000D02*
D03*
X119200Y-5000D02*
D03*
Y5000D02*
D03*
X129200Y-5000D02*
D03*
Y5000D02*
D03*
X139200Y-5000D02*
D03*
Y5000D02*
D03*
X149200Y-5000D02*
D03*
Y5000D02*
D03*
X159200Y-5000D02*
D03*
Y5000D02*
D03*
X169200Y-5000D02*
D03*
Y5000D02*
D03*
X179200Y-5000D02*
D03*
Y5000D02*
D03*
X189200Y-5000D02*
D03*
Y5000D02*
D03*
X199200Y-5000D02*
D03*
Y5000D02*
D03*
X209200Y-5000D02*
D03*
Y5000D02*
D03*
X-5200Y-30600D02*
D03*
Y-52200D02*
D03*
D42*
X169200Y-15000D02*
D03*
X179200D02*
D03*
X189200D02*
D03*
X199200D02*
D03*
D43*
X209200D02*
D03*
D44*
X19200Y-5000D02*
D03*
X4800Y-30600D02*
D03*
Y-52200D02*
D03*
D45*
X0Y-192900D02*
D03*
Y0D02*
D03*
X228400D02*
D03*
Y-192900D02*
D03*
D46*
X18000Y-143000D02*
D03*
X24000D02*
D03*
X144000D02*
D03*
X150000D02*
D03*
X186000D02*
D03*
X192000D02*
D03*
X108000D02*
D03*
X60000D02*
D03*
X66000D02*
D03*
X102000D02*
D03*
X40000Y-92500D02*
D03*
X207500D02*
D03*
X50000Y-47500D02*
D03*
X35000D02*
D03*
X20000D02*
D03*
X11500Y-162000D02*
D03*
X47500Y-117000D02*
D03*
X48000Y-137000D02*
D03*
X72000Y-143000D02*
D03*
X90000Y-137000D02*
D03*
X53500Y-162000D02*
D03*
X89500Y-117000D02*
D03*
X60000Y-143000D02*
D03*
X66000D02*
D03*
X82000Y-92500D02*
D03*
X114000Y-143000D02*
D03*
X132000Y-137000D02*
D03*
X95500Y-162000D02*
D03*
X131500Y-117000D02*
D03*
X102000Y-143000D02*
D03*
X108000D02*
D03*
X124000Y-92500D02*
D03*
X109000Y-42500D02*
D03*
X156000Y-143000D02*
D03*
X174000Y-137000D02*
D03*
X137500Y-162000D02*
D03*
X173500Y-117000D02*
D03*
X150000Y-143000D02*
D03*
X144000D02*
D03*
D03*
X150000D02*
D03*
X166000Y-92500D02*
D03*
X198000Y-143000D02*
D03*
X216000Y-137000D02*
D03*
X179500Y-162000D02*
D03*
X215500Y-117000D02*
D03*
X192000Y-143000D02*
D03*
X186000D02*
D03*
D03*
X192000D02*
D03*
X30000D02*
D03*
M02*
