M48
;Layer_Color=9474304
;FILE_FORMAT=2:5
INCH,LZ
;TYPE=PLATED
T1F00S00C0.02800
T2F00S00C0.03543
T3F00S00C0.05906
T4F00S00C0.11100
%
T01
X00115Y-0162
X00535
X00955
X01375
X01795
X0216Y-0137
X02155Y-0117
X02075Y-00925
X0166
X01735Y-0117
X0174Y-0137
X0186Y-0143
X0192
X0198
X0156
X015
X0144
X0132Y-0137
X01315Y-0117
X0124Y-00925
X0082
X00895Y-0117
X009Y-0137
X0102Y-0143
X0108
X0114
X0072
X0066
X006
X0048Y-0137
X00475Y-0117
X005Y-00475
X0109Y-00425
X0035Y-00475
X002
X004Y-00925
X003Y-0143
X0024
X0018
T02
X01992Y-0045
X02092
Y-0015
X01992
Y-0005
Y0005
X02092
Y-0005
X01892
Y-0015
X01792
X01692
X01592
Y-0005
X01492
X01392
X01292
X01192
X01092
X00992
X00892
X00792
X00692
X00592
X00492
Y0005
X00592
X00692
X00792
X00892
X00992
X01092
X01192
X01292
X01392
X01492
X01592
X01692
Y-0005
X01792
Y0005
X01892
Y-0045
X01792
X01692
X01592
X00392Y-0005
X00292
X00192
Y0005
X00292
X00392
X00048Y-00306
X-00052
Y-00522
X00048
T03
X-00065Y-0162
X00219Y-01857
X00419
X00639
X00839
X01059
X01259
X01479
X01679
X01899
X02099
X-00065Y-0142
T04
X0Y-01929
X02284
Y0
X0
M30
