G04 Layer_Color=32896*
%FSLAX25Y25*%
%MOIN*%
G70*
G01*
G75*
%ADD28C,0.00600*%
%ADD30C,0.00787*%
D28*
X139534Y-140618D02*
X140050Y-140101D01*
X141084D01*
X141600Y-140618D01*
Y-142683D01*
X141084Y-143200D01*
X140050D01*
X139534Y-142683D01*
X138501Y-143200D02*
X137468D01*
X137985D01*
Y-140101D01*
X138501Y-140618D01*
X135918Y-143717D02*
X133853D01*
X132819Y-143200D02*
Y-140101D01*
X131270D01*
X130754Y-140618D01*
Y-141650D01*
X131270Y-142167D01*
X132819D01*
X131787D02*
X130754Y-143200D01*
X129720D02*
Y-140101D01*
X128688Y-141134D01*
X127655Y-140101D01*
Y-143200D01*
X126621D02*
X125589D01*
X126105D01*
Y-140101D01*
X126621Y-140618D01*
X176567D02*
X177084Y-140101D01*
X178117D01*
X178633Y-140618D01*
Y-142683D01*
X178117Y-143200D01*
X177084D01*
X176567Y-142683D01*
X175534Y-143200D02*
X174501D01*
X175017D01*
Y-140101D01*
X175534Y-140618D01*
X172951Y-143717D02*
X170886D01*
X169852Y-143200D02*
Y-140101D01*
X168303D01*
X167787Y-140618D01*
Y-141650D01*
X168303Y-142167D01*
X169852D01*
X168819D02*
X167787Y-143200D01*
X166753D02*
Y-140101D01*
X165720Y-141134D01*
X164688Y-140101D01*
Y-143200D01*
X161589D02*
X163654D01*
X161589Y-141134D01*
Y-140618D01*
X162105Y-140101D01*
X163138D01*
X163654Y-140618D01*
X176567Y-96118D02*
X177084Y-95601D01*
X178117D01*
X178633Y-96118D01*
Y-98184D01*
X178117Y-98700D01*
X177084D01*
X176567Y-98184D01*
X175534Y-98700D02*
X174501D01*
X175017D01*
Y-95601D01*
X175534Y-96118D01*
X172951Y-99217D02*
X170886D01*
X169852Y-98700D02*
Y-95601D01*
X168303D01*
X167787Y-96118D01*
Y-97150D01*
X168303Y-97667D01*
X169852D01*
X168819D02*
X167787Y-98700D01*
X166753D02*
Y-95601D01*
X165720Y-96634D01*
X164688Y-95601D01*
Y-98700D01*
X163654Y-96118D02*
X163138Y-95601D01*
X162105D01*
X161589Y-96118D01*
Y-96634D01*
X162105Y-97150D01*
X162621D01*
X162105D01*
X161589Y-97667D01*
Y-98184D01*
X162105Y-98700D01*
X163138D01*
X163654Y-98184D01*
X176567Y-185617D02*
X177084Y-185101D01*
X178117D01*
X178633Y-185617D01*
Y-187683D01*
X178117Y-188200D01*
X177084D01*
X176567Y-187683D01*
X175534Y-188200D02*
X174501D01*
X175017D01*
Y-185101D01*
X175534Y-185617D01*
X172951Y-188716D02*
X170886D01*
X169852Y-188200D02*
Y-185101D01*
X168303D01*
X167787Y-185617D01*
Y-186651D01*
X168303Y-187167D01*
X169852D01*
X168819D02*
X167787Y-188200D01*
X166753D02*
Y-185101D01*
X165720Y-186134D01*
X164688Y-185101D01*
Y-188200D01*
X162105D02*
Y-185101D01*
X163654Y-186651D01*
X161589D01*
X212567Y-140618D02*
X213084Y-140101D01*
X214117D01*
X214633Y-140618D01*
Y-142683D01*
X214117Y-143200D01*
X213084D01*
X212567Y-142683D01*
X211534Y-143200D02*
X210501D01*
X211017D01*
Y-140101D01*
X211534Y-140618D01*
X208951Y-143717D02*
X206886D01*
X205853Y-143200D02*
Y-140101D01*
X204303D01*
X203786Y-140618D01*
Y-141650D01*
X204303Y-142167D01*
X205853D01*
X204819D02*
X203786Y-143200D01*
X202753D02*
Y-140101D01*
X201720Y-141134D01*
X200688Y-140101D01*
Y-143200D01*
X197589Y-140101D02*
X199654D01*
Y-141650D01*
X198621Y-141134D01*
X198105D01*
X197589Y-141650D01*
Y-142683D01*
X198105Y-143200D01*
X199138D01*
X199654Y-142683D01*
X53618Y-185933D02*
X53101Y-185416D01*
Y-184383D01*
X53618Y-183867D01*
X55683D01*
X56200Y-184383D01*
Y-185416D01*
X55683Y-185933D01*
X56200Y-186966D02*
Y-187999D01*
Y-187483D01*
X53101D01*
X53618Y-186966D01*
X56717Y-189549D02*
Y-191614D01*
X56200Y-192648D02*
X53101D01*
Y-194197D01*
X53618Y-194713D01*
X54650D01*
X55167Y-194197D01*
Y-192648D01*
Y-193681D02*
X56200Y-194713D01*
Y-195747D02*
X53101D01*
X54134Y-196780D01*
X53101Y-197812D01*
X56200D01*
X53101Y-200911D02*
X53618Y-199879D01*
X54650Y-198846D01*
X55683D01*
X56200Y-199362D01*
Y-200395D01*
X55683Y-200911D01*
X55167D01*
X54650Y-200395D01*
Y-198846D01*
X98618Y-185933D02*
X98101Y-185416D01*
Y-184383D01*
X98618Y-183867D01*
X100683D01*
X101200Y-184383D01*
Y-185416D01*
X100683Y-185933D01*
X101200Y-186966D02*
Y-187999D01*
Y-187483D01*
X98101D01*
X98618Y-186966D01*
X101716Y-189549D02*
Y-191614D01*
X101200Y-192648D02*
X98101D01*
Y-194197D01*
X98618Y-194713D01*
X99651D01*
X100167Y-194197D01*
Y-192648D01*
Y-193681D02*
X101200Y-194713D01*
Y-195747D02*
X98101D01*
X99134Y-196780D01*
X98101Y-197812D01*
X101200D01*
X98101Y-198846D02*
Y-200911D01*
X98618D01*
X100683Y-198846D01*
X101200D01*
D30*
X28338Y-28800D02*
X33062D01*
X16238Y-28700D02*
X20962D01*
X140738Y-124000D02*
X145462D01*
X131838D02*
X136562D01*
X137400Y-137962D02*
Y-133238D01*
X176738Y-124000D02*
X181462D01*
X167838D02*
X172562D01*
X173400Y-137962D02*
Y-133238D01*
X176738Y-79500D02*
X181462D01*
X167838D02*
X172562D01*
X173400Y-93462D02*
Y-88738D01*
X37000Y-185762D02*
Y-181038D01*
Y-194662D02*
Y-189938D01*
X46238Y-189100D02*
X50962D01*
X82000Y-185762D02*
Y-181038D01*
Y-194662D02*
Y-189938D01*
X91238Y-189100D02*
X95962D01*
X212738Y-124000D02*
X217462D01*
X203838D02*
X208562D01*
X209400Y-137962D02*
Y-133238D01*
X176738Y-169000D02*
X181462D01*
X167838D02*
X172562D01*
X173400Y-182962D02*
Y-178238D01*
X15000Y-18362D02*
Y-13638D01*
X54000Y-60362D02*
Y-55638D01*
M02*
