M48
;Layer_Color=9474304
;FILE_FORMAT=2:5
INCH,LZ
;TYPE=PLATED
T1F00S00C0.02800
T2F00S00C0.03000
T3F00S00C0.03543
T4F00S00C0.07874
T5F00S00C0.11100
%
T01
X00245Y-0183
X00695
X0164Y-0173
X01795Y-01565
X02Y-0128
X02155Y-01115
X01795
X0164Y-0127
X01435Y-01115
X0128Y-0128
X0136Y-0056
X0139Y-005
X01395Y-002
X01295Y-00285
X0111Y-0023
X0085Y-0025
X0086Y-0036
X0051Y-0042
X01795Y-0067
X0164Y-0083
X0032Y-0036
X0019
X0008495Y-0012644
T02
X0049283Y-0069454
X0059283
X0069283
X0079283
T03
X01991Y-00447
X02091
Y-00147
X02092Y-0005
X01992
X01991Y-00147
X01992Y0005
X02092
X01892
X01792
X01692
X01592
X01492
X01392
X01292
X01192
X01092
X00992
X00892
X00792
X00692
X00592
X00492
Y-0005
X00592
X00692
X00792
X00892
X00992
X01092
X01192
X01292
X01392
X01492
X01592
X01591Y-00147
X01691
X01692Y-0005
X01792
X01791Y-00147
X01891
X01892Y-0005
X01891Y-00447
X01791
X01691
X01591
X00392Y-0005
X00292
X00192
Y0005
X00292
X00392
X00048Y-00306
X-00052
Y-00522
X00048
T04
X0018574Y-0164926
X0110306
Y-0071422
X0018574
T05
X0Y-01929
X02284
Y0
X0
M30
