G04 Layer_Color=8388736*
%FSLAX25Y25*%
%MOIN*%
G70*
G01*
G75*
%ADD34R,0.05912X0.05124*%
%ADD35R,0.05124X0.05912*%
%ADD36R,0.04337X0.06306*%
%ADD37R,0.06306X0.04337*%
%ADD38C,0.11500*%
%ADD39C,0.06306*%
%ADD40R,0.06306X0.06306*%
%ADD41C,0.10243*%
%ADD42C,0.06400*%
%ADD43C,0.00400*%
%ADD44C,0.06306*%
%ADD45R,0.06306X0.06306*%
%ADD46C,0.05400*%
G36*
X141831Y-38832D02*
X137144D01*
Y-36845D01*
X141831D01*
Y-38832D01*
D02*
G37*
G36*
X118856D02*
X114169D01*
Y-36845D01*
X118856D01*
Y-38832D01*
D02*
G37*
G36*
Y-36273D02*
X114169D01*
Y-34286D01*
X118856D01*
Y-36273D01*
D02*
G37*
G36*
Y-33714D02*
X114169D01*
Y-31727D01*
X118856D01*
Y-33714D01*
D02*
G37*
G36*
X141831Y-36273D02*
X137144D01*
Y-34286D01*
X141831D01*
Y-36273D01*
D02*
G37*
G36*
Y-41391D02*
X137144D01*
Y-39404D01*
X141831D01*
Y-41391D01*
D02*
G37*
G36*
Y-46509D02*
X137144D01*
Y-44522D01*
X141831D01*
Y-46509D01*
D02*
G37*
G36*
X118856D02*
X114169D01*
Y-44522D01*
X118856D01*
Y-46509D01*
D02*
G37*
G36*
Y-43950D02*
X114169D01*
Y-41963D01*
X118856D01*
Y-43950D01*
D02*
G37*
G36*
Y-41391D02*
X114169D01*
Y-39404D01*
X118856D01*
Y-41391D01*
D02*
G37*
G36*
X141831Y-43950D02*
X137144D01*
Y-41963D01*
X141831D01*
Y-43950D01*
D02*
G37*
G36*
X118856Y-26037D02*
X114169D01*
Y-24050D01*
X118856D01*
Y-26037D01*
D02*
G37*
G36*
X99299Y-27362D02*
X93787D01*
Y-22638D01*
X99299D01*
Y-27362D01*
D02*
G37*
G36*
X141831Y-26037D02*
X137144D01*
Y-24050D01*
X141831D01*
Y-26037D01*
D02*
G37*
G36*
Y-23478D02*
X137144D01*
Y-21490D01*
X141831D01*
Y-23478D01*
D02*
G37*
G36*
X118856D02*
X114169D01*
Y-21490D01*
X118856D01*
Y-23478D01*
D02*
G37*
G36*
X92213Y-27362D02*
X86701D01*
Y-22638D01*
X92213D01*
Y-27362D01*
D02*
G37*
G36*
X118856Y-31155D02*
X114169D01*
Y-29168D01*
X118856D01*
Y-31155D01*
D02*
G37*
G36*
X141831Y-33714D02*
X137144D01*
Y-31727D01*
X141831D01*
Y-33714D01*
D02*
G37*
G36*
Y-31155D02*
X137144D01*
Y-29168D01*
X141831D01*
Y-31155D01*
D02*
G37*
G36*
Y-28596D02*
X137144D01*
Y-26609D01*
X141831D01*
Y-28596D01*
D02*
G37*
G36*
X118856D02*
X114169D01*
Y-26609D01*
X118856D01*
Y-28596D01*
D02*
G37*
D34*
X30700Y-25257D02*
D03*
Y-32343D02*
D03*
X18600Y-25157D02*
D03*
Y-32243D02*
D03*
X49000Y-19457D02*
D03*
Y-26543D02*
D03*
D35*
X96457Y-33000D02*
D03*
X103543D02*
D03*
X-5143Y-20400D02*
D03*
X1943D02*
D03*
X-5143Y-41500D02*
D03*
X1943D02*
D03*
X18543Y-16000D02*
D03*
X11457D02*
D03*
X50457Y-58000D02*
D03*
X57543D02*
D03*
X82543Y-36000D02*
D03*
X75457D02*
D03*
D36*
X129372Y-111580D02*
D03*
X147088D02*
D03*
Y-144650D02*
D03*
X129372D02*
D03*
X165372Y-111580D02*
D03*
X183088D02*
D03*
Y-144650D02*
D03*
X165372D02*
D03*
Y-67080D02*
D03*
X183088D02*
D03*
Y-100150D02*
D03*
X165372D02*
D03*
Y-156579D02*
D03*
X183088D02*
D03*
Y-189650D02*
D03*
X165372D02*
D03*
X201372Y-111580D02*
D03*
X219088D02*
D03*
Y-144650D02*
D03*
X201372D02*
D03*
D37*
X24579Y-197128D02*
D03*
Y-179412D02*
D03*
X57650D02*
D03*
Y-197128D02*
D03*
X69579D02*
D03*
Y-179412D02*
D03*
X102650D02*
D03*
Y-197128D02*
D03*
D38*
X228400Y0D02*
D03*
X0D02*
D03*
Y-192900D02*
D03*
X228400D02*
D03*
D39*
X-5200Y-30600D02*
D03*
X19200Y5000D02*
D03*
X29200Y-5000D02*
D03*
Y5000D02*
D03*
X39200Y-5000D02*
D03*
Y5000D02*
D03*
X49200Y-5000D02*
D03*
Y5000D02*
D03*
X59200Y-5000D02*
D03*
Y5000D02*
D03*
X69200Y-5000D02*
D03*
Y5000D02*
D03*
X79200Y-5000D02*
D03*
Y5000D02*
D03*
X89200Y-5000D02*
D03*
Y5000D02*
D03*
X99200Y-5000D02*
D03*
Y5000D02*
D03*
X109200Y-5000D02*
D03*
Y5000D02*
D03*
X119200Y-5000D02*
D03*
Y5000D02*
D03*
X129200Y-5000D02*
D03*
Y5000D02*
D03*
X139200Y-5000D02*
D03*
Y5000D02*
D03*
X149200Y-5000D02*
D03*
Y5000D02*
D03*
X159200Y-5000D02*
D03*
Y5000D02*
D03*
X169200Y-5000D02*
D03*
Y5000D02*
D03*
X179200Y-5000D02*
D03*
Y5000D02*
D03*
X189200Y-5000D02*
D03*
Y5000D02*
D03*
X199200Y-5000D02*
D03*
Y5000D02*
D03*
X209200Y-5000D02*
D03*
Y5000D02*
D03*
X-5200Y-52200D02*
D03*
X159100Y-44700D02*
D03*
X169100D02*
D03*
X179100D02*
D03*
X189100D02*
D03*
X199100D02*
D03*
X209100D02*
D03*
X159100Y-14700D02*
D03*
D40*
X4800Y-30600D02*
D03*
X19200Y-5000D02*
D03*
X4800Y-52200D02*
D03*
D41*
X110306Y-164926D02*
D03*
X18574D02*
D03*
Y-71422D02*
D03*
X110306D02*
D03*
D42*
X79283Y-69454D02*
D03*
X69283D02*
D03*
X59283D02*
D03*
X49283D02*
D03*
D43*
X147088Y-111580D02*
D03*
X129372D02*
D03*
X183088D02*
D03*
X165372D02*
D03*
X183088Y-67080D02*
D03*
X165372D02*
D03*
X183088Y-156579D02*
D03*
X165372D02*
D03*
X219088Y-111580D02*
D03*
X201372D02*
D03*
X24579Y-179412D02*
D03*
Y-197128D02*
D03*
X69579Y-179412D02*
D03*
Y-197128D02*
D03*
D44*
X169100Y-14700D02*
D03*
X179100D02*
D03*
X189100D02*
D03*
X199100D02*
D03*
D45*
X209100D02*
D03*
D46*
X85000Y-25000D02*
D03*
X143500Y-111500D02*
D03*
X179500D02*
D03*
Y-67000D02*
D03*
X24500Y-183000D02*
D03*
X215500Y-111500D02*
D03*
X179500Y-156500D02*
D03*
X164000Y-83000D02*
D03*
Y-127000D02*
D03*
X128000Y-128000D02*
D03*
X164000Y-173000D02*
D03*
X200000Y-128000D02*
D03*
X69500Y-183000D02*
D03*
X136000Y-56000D02*
D03*
X139000Y-50000D02*
D03*
X111000Y-23000D02*
D03*
X129500Y-28500D02*
D03*
X139500Y-20000D02*
D03*
X19000Y-36000D02*
D03*
X32000D02*
D03*
X8495Y-12644D02*
D03*
X51000Y-42000D02*
D03*
X86000Y-36000D02*
D03*
M02*
